<svg version="1.1" xmlns="http://www.w3.org/2000/svg" xmlns:xlink="http://www.w3.org/1999/xlink" width="960" height="720" viewBox="0,0,960,720"><defs><clipPath id="clip-1"><path d="M-240,-180h960v720h-960z" fill="none" fill-rule="nonzero"/></clipPath></defs><g transform="translate(240,180)"><g clip-path="url(#clip-1)" data-paper-data="{&quot;isPaintingLayer&quot;:true}" stroke="none" stroke-width="1" stroke-linecap="square" stroke-linejoin="miter" stroke-miterlimit="10" stroke-dasharray="" stroke-dashoffset="0" style="mix-blend-mode: normal"><path d="M-240,-180h960v720h-960z" fill-opacity="0" fill="#000000" fill-rule="evenodd"/><path d="M-212.95801,-154.73753h900.8819v694.7402h-900.8819z" fill-opacity="0" fill="#000000" fill-rule="evenodd"/><path d="M-196.44238,-124.97816c1.89583,-2.36458 4.21354,-3.54687 6.95313,-3.54687c2.73958,0 4.91146,1.03125 6.51563,3.09375c1.61458,2.05208 2.42188,4.70833 2.42188,7.96875c0,3.10417 -0.79167,5.65105 -2.375,7.64063c-1.57292,1.97917 -3.74479,2.96875 -6.51562,2.96875c-2.65625,0 -4.98958,-1.10417 -7,-3.3125v6.95313c0,1.91667 -0.23958,3.10938 -0.71875,3.57813c-0.46875,0.46875 -1.10417,0.70313 -1.90625,0.70313c-0.97917,0 -1.67187,-0.32292 -2.07812,-0.96875c-0.40625,-0.64583 -0.60937,-1.80208 -0.60937,-3.46875v-21.04688c0,-1.09375 0.04688,-1.89583 0.14063,-2.40625c0.10417,-0.51042 0.39063,-0.92187 0.85938,-1.23437c0.46875,-0.3125 1.03125,-0.46875 1.6875,-0.46875c1.75,0 2.625,0.99479 2.625,2.98438zM-185.94238,-117.57191c0,-2.34375 -0.49479,-4.07812 -1.48437,-5.20312c-0.97917,-1.125 -2.125,-1.6875 -3.4375,-1.6875c-1.53125,0 -2.79167,0.57292 -3.78125,1.71875c-0.98958,1.14583 -1.48437,2.74479 -1.48437,4.79688c0,2.14584 0.47917,3.85417 1.4375,5.125c0.95833,1.26042 2.24479,1.89063 3.85938,1.89063c1.4375,0 2.60938,-0.58854 3.51563,-1.76562c0.91667,-1.17708 1.375,-2.80208 1.375,-4.875zM-170.86426,-132.07191v20.8125c0,1.28125 -0.0625,2.15625 -0.1875,2.625c-0.11458,0.45833 -0.41146,0.86979 -0.89062,1.23438c-0.47917,0.36458 -1,0.54688 -1.5625,0.54688c-0.57292,0 -1.10937,-0.17708 -1.60937,-0.53125c-0.48958,-0.36458 -0.79687,-0.78646 -0.92187,-1.26562c-0.11458,-0.47917 -0.17187,-1.34896 -0.17187,-2.60937v-20.8125c0,-1.3125 0.0625,-2.19792 0.1875,-2.65625c0.125,-0.46875 0.42187,-0.875 0.89062,-1.21875c0.47917,-0.34375 1,-0.51562 1.5625,-0.51562c0.65625,0 1.21875,0.1875 1.6875,0.5625c0.47917,0.36458 0.76563,0.80208 0.85938,1.3125c0.10417,0.5 0.15625,1.33854 0.15625,2.51563zM-151.88379,-109.85316c-2.54167,2 -5.03125,3 -7.46875,3c-2.30208,0 -4.07292,-0.58333 -5.3125,-1.75c-1.22917,-1.17708 -1.84375,-2.60937 -1.84375,-4.29687c0,-1.44792 0.41667,-2.61458 1.25,-3.5c0.84375,-0.89583 1.76042,-1.52083 2.75,-1.875c0.98958,-0.35417 2.59896,-0.76042 4.82813,-1.21875c2.23958,-0.46875 4.04167,-0.89583 5.40625,-1.28125c-0.01042,-1.61458 -0.32812,-2.70312 -0.95312,-3.26562c-0.625,-0.57292 -1.57812,-0.85937 -2.85937,-0.85937c-2.41667,0 -4,0.67708 -4.75,2.03125c-0.41667,0.77083 -0.78646,1.31771 -1.10937,1.64063c-0.32292,0.32292 -0.79167,0.48438 -1.40625,0.48438c-0.5625,0 -1.07292,-0.18229 -1.53125,-0.54687c-0.44792,-0.375 -0.67187,-0.85417 -0.67187,-1.4375c0,-1.38542 0.74479,-2.69792 2.23438,-3.9375c1.5,-1.23958 3.85938,-1.85938 7.07813,-1.85938c3.26042,0 5.64583,0.5625 7.15625,1.6875c1.51042,1.125 2.21875,3.40104 2.125,6.82813l-0.125,5c-0.05208,1.54167 0.10938,2.80208 0.48438,3.78125c0.375,0.97917 0.5625,1.72917 0.5625,2.25c0,0.5625 -0.25,1.05729 -0.75,1.48438c-0.48958,0.42708 -1.04687,0.64063 -1.67187,0.64063c-1.08333,0 -2.22396,-1 -3.42187,-3zM-152.24316,-117.57191c-0.79167,0.3125 -2.10417,0.65104 -3.9375,1.01563c-1.82292,0.36458 -3.11458,0.78125 -3.875,1.25c-0.76042,0.46875 -1.14062,1.15104 -1.14062,2.04688c0,0.77083 0.30208,1.44792 0.90625,2.03125c0.60417,0.58333 1.45833,0.875 2.5625,0.875c1.17708,0 2.26563,-0.31771 3.26563,-0.95312c1.01042,-0.64583 1.63021,-1.41146 1.85938,-2.29687c0.23958,-0.88542 0.35938,-2.20833 0.35938,-3.96875zM-136.17676,-107.38441l-6.53125,-16.51563c-0.40625,-1.07292 -0.60937,-1.80729 -0.60937,-2.20312c0,-0.61458 0.25521,-1.17187 0.76563,-1.67187c0.51042,-0.5 1.10938,-0.75 1.79688,-0.75c0.60417,0 1.11458,0.1875 1.53125,0.5625c0.42708,0.36458 0.84375,1.11979 1.25,2.26563l4.5,13.125l4.28125,-12.17188c0.5625,-1.58333 1.01042,-2.60937 1.34375,-3.07812c0.33333,-0.46875 0.90104,-0.70312 1.70313,-0.70312c0.72917,0 1.30208,0.24479 1.71875,0.73438c0.42708,0.47917 0.64063,0.97396 0.64063,1.48438c0,0.60417 -0.21354,1.45833 -0.64062,2.5625l-6.95312,18.20313c-0.92708,2.42708 -1.88542,4.13542 -2.875,5.125c-0.98958,0.98958 -2.67187,1.48438 -5.04687,1.48438c-3.10417,0 -4.65625,-0.79167 -4.65625,-2.375c0,-0.52083 0.17708,-0.95833 0.53125,-1.3125c0.35417,-0.34375 0.82292,-0.51562 1.40625,-0.51562c0.09375,0 0.39063,0.01563 0.89063,0.04688c0.51042,0.04167 0.8125,0.0625 0.90625,0.0625c0.98958,0 1.71354,-0.23958 2.17188,-0.71875c0.46875,-0.46875 0.92708,-1.28125 1.375,-2.4375z" fill="#000000" fill-rule="nonzero"/><path d="M-187.72363,-61.85316c-2.54167,2 -5.03125,3 -7.46875,3c-2.30208,0 -4.07292,-0.58333 -5.3125,-1.75c-1.22917,-1.17708 -1.84375,-2.60937 -1.84375,-4.29687c0,-1.44792 0.41667,-2.61458 1.25,-3.5c0.84375,-0.89583 1.76042,-1.52083 2.75,-1.875c0.98958,-0.35417 2.59896,-0.76042 4.82813,-1.21875c2.23958,-0.46875 4.04167,-0.89583 5.40625,-1.28125c-0.01042,-1.61458 -0.32812,-2.70312 -0.95312,-3.26562c-0.625,-0.57292 -1.57812,-0.85937 -2.85937,-0.85937c-2.41667,0 -4,0.67708 -4.75,2.03125c-0.41667,0.77083 -0.78646,1.31771 -1.10937,1.64063c-0.32292,0.32292 -0.79167,0.48438 -1.40625,0.48438c-0.5625,0 -1.07292,-0.18229 -1.53125,-0.54687c-0.44792,-0.375 -0.67187,-0.85417 -0.67187,-1.4375c0,-1.38542 0.74479,-2.69792 2.23438,-3.9375c1.5,-1.23958 3.85938,-1.85937 7.07813,-1.85937c3.26042,0 5.64583,0.5625 7.15625,1.6875c1.51042,1.125 2.21875,3.40104 2.125,6.82813l-0.125,5c-0.05208,1.54167 0.10938,2.80208 0.48438,3.78125c0.375,0.97917 0.5625,1.72917 0.5625,2.25c0,0.5625 -0.25,1.05729 -0.75,1.48438c-0.48958,0.42708 -1.04687,0.64063 -1.67187,0.64063c-1.08333,0 -2.22396,-1 -3.42187,-3zM-188.083,-69.57191c-0.79167,0.3125 -2.10417,0.65104 -3.9375,1.01563c-1.82292,0.36458 -3.11458,0.78125 -3.875,1.25c-0.76042,0.46875 -1.14062,1.15104 -1.14062,2.04688c0,0.77083 0.30208,1.44792 0.90625,2.03125c0.60417,0.58333 1.45833,0.875 2.5625,0.875c1.17708,0 2.26563,-0.31771 3.26563,-0.95312c1.01042,-0.64583 1.63021,-1.41146 1.85938,-2.29687c0.23958,-0.88542 0.35938,-2.20833 0.35938,-3.96875zM-162.8291,-76.90004v-0.71875c0,-0.96875 0.23958,-1.69271 0.71875,-2.17187c0.47917,-0.48958 1.08333,-0.73437 1.8125,-0.73437c0.80208,0 1.42188,0.28125 1.85938,0.84375c0.4375,0.5625 0.65625,1.78125 0.65625,3.65625v14.32813c0,4.23958 -0.89583,7.09375 -2.6875,8.5625c-1.79167,1.46875 -4.38021,2.20313 -7.76562,2.20313c-3.03125,0 -5.40104,-0.5625 -7.10937,-1.6875c-1.70833,-1.11458 -2.5625,-2.29687 -2.5625,-3.54687c0,-0.67708 0.22396,-1.22396 0.67188,-1.64062c0.45833,-0.40625 0.98958,-0.60937 1.59375,-0.60937c0.5625,0 1.01042,0.13021 1.34375,0.39063c0.33333,0.27083 0.89583,0.90625 1.6875,1.90625c0.79167,1.01042 2.13542,1.51563 4.03125,1.51563c1.04167,0 2.00521,-0.16667 2.89063,-0.5c0.89583,-0.32292 1.55208,-0.90104 1.96875,-1.73437c0.42708,-0.82292 0.63021,-2.82812 0.60938,-6.01562c-1.63542,2.34375 -3.86458,3.51563 -6.6875,3.51563c-2.71875,0 -4.86979,-1.01562 -6.45312,-3.04687c-1.58333,-2.04167 -2.375,-4.65104 -2.375,-7.82812c0,-3.16667 0.8125,-5.67708 2.4375,-7.53125c1.63541,-1.85417 3.7552,-2.78125 6.35937,-2.78125c2.84375,0 5.17708,1.20833 7,3.625zM-173.23535,-69.79066c0,2.07292 0.45313,3.65625 1.35938,4.75c0.90625,1.08333 2.14583,1.625 3.71875,1.625c1.36458,0 2.54688,-0.52604 3.54688,-1.57812c1,-1.0625 1.5,-2.64062 1.5,-4.73437c0,-2.07292 -0.46354,-3.71354 -1.39062,-4.92187c-0.91667,-1.20833 -2.16146,-1.8125 -3.73437,-1.8125c-1.51042,0 -2.72396,0.56771 -3.64062,1.70313c-0.90625,1.125 -1.35937,2.78125 -1.35937,4.96875zM-138.9541,-61.85316c-2.54167,2 -5.03125,3 -7.46875,3c-2.30208,0 -4.07292,-0.58333 -5.3125,-1.75c-1.22917,-1.17708 -1.84375,-2.60937 -1.84375,-4.29687c0,-1.44792 0.41667,-2.61458 1.25,-3.5c0.84375,-0.89583 1.76042,-1.52083 2.75,-1.875c0.98958,-0.35417 2.59896,-0.76042 4.82813,-1.21875c2.23958,-0.46875 4.04167,-0.89583 5.40625,-1.28125c-0.01042,-1.61458 -0.32812,-2.70312 -0.95312,-3.26562c-0.625,-0.57292 -1.57812,-0.85937 -2.85937,-0.85937c-2.41667,0 -4,0.67708 -4.75,2.03125c-0.41667,0.77083 -0.78646,1.31771 -1.10937,1.64063c-0.32292,0.32292 -0.79167,0.48438 -1.40625,0.48438c-0.5625,0 -1.07292,-0.18229 -1.53125,-0.54687c-0.44792,-0.375 -0.67187,-0.85417 -0.67187,-1.4375c0,-1.38542 0.74479,-2.69792 2.23438,-3.9375c1.5,-1.23958 3.85938,-1.85937 7.07813,-1.85937c3.26042,0 5.64583,0.5625 7.15625,1.6875c1.51042,1.125 2.21875,3.40104 2.125,6.82813l-0.125,5c-0.05208,1.54167 0.10938,2.80208 0.48438,3.78125c0.375,0.97917 0.5625,1.72917 0.5625,2.25c0,0.5625 -0.25,1.05729 -0.75,1.48438c-0.48958,0.42708 -1.04687,0.64063 -1.67187,0.64063c-1.08333,0 -2.22396,-1 -3.42187,-3zM-139.31348,-69.57191c-0.79167,0.3125 -2.10417,0.65104 -3.9375,1.01563c-1.82292,0.36458 -3.11458,0.78125 -3.875,1.25c-0.76042,0.46875 -1.14062,1.15104 -1.14062,2.04688c0,0.77083 0.30208,1.44792 0.90625,2.03125c0.60417,0.58333 1.45833,0.875 2.5625,0.875c1.17708,0 2.26563,-0.31771 3.26563,-0.95312c1.01042,-0.64583 1.63021,-1.41146 1.85938,-2.29687c0.23958,-0.88542 0.35938,-2.20833 0.35938,-3.96875zM-125.96582,-88.22816c0.6875,0 1.28646,0.26042 1.79688,0.78125c0.51042,0.52083 0.76563,1.125 0.76563,1.8125c0,0.71875 -0.25521,1.33854 -0.76562,1.85938c-0.51042,0.51042 -1.10937,0.76563 -1.79687,0.76563c-0.71875,0 -1.33854,-0.25521 -1.85937,-0.76562c-0.51042,-0.52083 -0.76562,-1.14062 -0.76562,-1.85937c0,-0.69792 0.25521,-1.30208 0.76563,-1.8125c0.52083,-0.52083 1.14063,-0.78125 1.85938,-0.78125zM-123.3252,-76.18129v12.92188c0,1.27083 -0.0625,2.14063 -0.1875,2.60938c-0.11458,0.46875 -0.41146,0.88542 -0.89062,1.25c-0.47917,0.36458 -1,0.54688 -1.5625,0.54688c-0.57292,0 -1.10937,-0.17708 -1.60937,-0.53125c-0.48958,-0.36458 -0.79687,-0.78646 -0.92187,-1.26562c-0.11458,-0.47917 -0.17187,-1.34896 -0.17187,-2.60937v-12.875c0,-1.1875 0.04688,-2.02604 0.14063,-2.51562c0.09375,-0.48958 0.375,-0.92187 0.84375,-1.29687c0.47917,-0.38542 1.03125,-0.57812 1.65625,-0.57812c0.63542,0 1.18229,0.17188 1.64063,0.51563c0.45833,0.34375 0.75,0.78125 0.875,1.3125c0.125,0.52083 0.1875,1.35938 0.1875,2.51563zM-99.0166,-72.00941v8.75c0,1.125 -0.04687,1.94792 -0.14062,2.46875c-0.08333,0.51042 -0.35937,0.96354 -0.82812,1.35938c-0.46875,0.38542 -1.02604,0.57813 -1.67187,0.57813c-0.57292,0 -1.10937,-0.17187 -1.60937,-0.51562c-0.48958,-0.34375 -0.79167,-0.79167 -0.90625,-1.34375c-0.11458,-0.55208 -0.17187,-1.40104 -0.17187,-2.54687v-7.6875c0,-2.13542 -0.32292,-3.57292 -0.96875,-4.3125c-0.63542,-0.73958 -1.51042,-1.10937 -2.625,-1.10937c-1.02083,0 -1.91667,0.29167 -2.6875,0.875c-0.76042,0.58333 -1.29687,1.31771 -1.60937,2.20313c-0.3125,0.875 -0.46875,2.38021 -0.46875,4.51563v5.51563c0,1.11458 -0.04167,1.92708 -0.125,2.4375c-0.08333,0.51042 -0.36979,0.96875 -0.85937,1.375c-0.47917,0.39583 -1.03125,0.59375 -1.65625,0.59375c-0.58333,0 -1.125,-0.17708 -1.625,-0.53125c-0.48958,-0.36458 -0.78646,-0.8125 -0.89062,-1.34375c-0.10417,-0.53125 -0.15625,-1.375 -0.15625,-2.53125v-13.15625c0,-1.17708 0.05208,-2 0.15625,-2.46875c0.11458,-0.46875 0.39583,-0.85937 0.84375,-1.17187c0.44792,-0.3125 0.95313,-0.46875 1.51563,-0.46875c0.52083,0 1.0625,0.20313 1.625,0.60938c0.57292,0.40625 0.85938,1.40104 0.85938,2.98438c1.78125,-2.39583 4.07292,-3.59375 6.875,-3.59375c1.0625,0 2.11458,0.20313 3.15625,0.60938c1.04167,0.39583 1.89063,1.04688 2.54688,1.95313c0.66667,0.90625 1.06771,1.84375 1.20313,2.8125c0.14583,0.96875 0.21875,2.01563 0.21875,3.14063z" fill="#000000" fill-rule="nonzero"/></g></g></svg>