<svg version="1.1" xmlns="http://www.w3.org/2000/svg" xmlns:xlink="http://www.w3.org/1999/xlink" width="430.93094" height="360.94063" viewBox="0,0,430.93094,360.94063"><defs><linearGradient x1="241.43576" y1="283.59565" x2="241.43576" y2="323.28471" gradientUnits="userSpaceOnUse" id="color-1"><stop offset="0" stop-color="#3b3b3b"/><stop offset="1" stop-color="#3b3b3b" stop-opacity="0"/></linearGradient><linearGradient x1="241.43576" y1="283.59565" x2="241.43576" y2="323.28471" gradientUnits="userSpaceOnUse" id="color-2"><stop offset="0" stop-color="#3b3b3b" stop-opacity="0"/><stop offset="1" stop-color="#3b3b3b"/></linearGradient></defs><g transform="translate(-24.53453,0.47026)"><g data-paper-data="{&quot;isPaintingLayer&quot;:true}" fill-rule="nonzero" stroke-linecap="butt" stroke-linejoin="miter" stroke-miterlimit="10" stroke-dasharray="" stroke-dashoffset="0" style="mix-blend-mode: normal"><path d="M357.05171,303.44016c0,10.95982 -51.76303,19.84453 -115.61596,19.84453c-63.85293,0 -115.61593,-8.88471 -115.61593,-19.84453c0,-10.95982 51.763,-19.84452 115.61593,-19.84452c63.85293,0 115.61596,8.88468 115.61596,19.84452z" fill="url(#color-1)" stroke="none" stroke-width="0"/><path d="M357.05171,303.44016c0,10.95982 -51.76303,19.84453 -115.61596,19.84453c-63.85293,0 -115.61593,-8.88471 -115.61593,-19.84453c0,-10.95982 51.763,-19.84452 115.61593,-19.84452c63.85293,0 115.61596,8.88468 115.61596,19.84452z" fill="url(#color-2)" stroke="none" stroke-width="0"/><path d="M174.46001,293.50275c-2.2584,-20.51454 -6.76542,-65.59656 -8.18977,-110.23176c-1.10664,-34.67861 -1.87042,-55.21553 3.26529,-89.99822c5.13571,-34.78268 21.57912,-59.30218 21.57912,-59.30218c0,0 9.8288,-14.31555 25.56348,-14.31555c11.86758,0 30.79048,1.46736 53.08744,3.85692c20.5693,2.2044 39.96362,30.90943 39.96362,30.90943c0,0 40.83087,36.66675 34.71968,55.56318c-3.06228,9.4689 -16.88173,25.01608 -16.88173,25.01608c0,0 5.63177,32.75059 4.44479,65.52501c-0.77044,21.27317 -7.96409,40.18943 -9.35971,58.21659c-1.21348,15.67451 0.02644,24.87628 -2.69378,29.57405c-4.10163,7.08346 -42.31736,14.78211 -51.14682,1.29955c-2.50489,-3.82496 -4.9371,-23.26912 -0.41289,-31.81625c4.8929,-9.24367 16.88157,-7.47639 16.88157,-7.47639l-45.54046,-3.51361c0,0 -4.40751,6.64851 -5.16961,17.12051c-0.83838,11.52004 1.66027,27.23733 -5.62164,33.85558c-9.6389,8.76045 -31.47475,8.81354 -43.95918,8.02248c-5.52077,-0.34981 -9.73039,-5.04752 -10.5294,-12.30542z" fill="#5d6265" stroke="none" stroke-width="0"/><path d="M120.66811,232.2984c-5.82763,-18.90026 0.13115,-90.89784 1.59343,-105.20729c0.6872,-6.72466 11.88646,-24.56498 17.48744,-25.74413c7.02557,-1.47907 28.86978,-0.91132 28.86978,-0.91132v148.26817c0,0 -37.83829,16.39127 -47.95066,-16.40542z" fill="#5d6265" stroke="none" stroke-width="0"/><path d="M184.9794,93.27787c0,-17.7616 9.20286,-67.48758 9.20286,-67.48758c0,0 32.60969,-4.68995 51.08711,-3.48115c17.97953,1.17623 50.14425,14.72908 50.14425,14.72908l35.78886,99.1863c0,0 5.12497,43.29395 -17.97454,67.89247c-22.23098,23.67364 -72.3392,28.97504 -91.08707,14.80006c-38.46156,-29.08022 -37.16148,-107.70967 -37.16148,-125.63916z" fill="#aab3b6" stroke="none" stroke-width="0"/><path d="M299.50379,59.53408c29.88831,11.44102 51.05626,31.55405 44.94508,50.45049c-3.06228,9.4689 -16.88173,25.01608 -16.88173,25.01608c0,0 -58.88541,24.055 -85.91011,7.2782c-15.08916,-9.36728 -31.72978,-46.80207 -18.25683,-65.97168c14.57808,-20.74203 60.57069,-22.71896 76.1036,-16.77307z" fill="#969fa2" stroke="none" stroke-width="0"/><path d="M125.43567,141.3372l4.45728,-35.78886h35.65821l-1.11432,26.58602c0,0 -13.04218,-0.2823 -21.0108,1.59801c-7.96863,1.88029 -17.99037,7.60483 -17.99037,7.60483z" fill="#aab3b6" stroke="none" stroke-width="0"/><path d="M259.62476,111.34684c-28.69185,-12.12749 -21.47332,-36.8114 -21.47332,-36.8114c0,0 22.24111,-23.5184 38.85649,-23.5184c16.44497,0 60.3298,23.5184 60.3298,23.5184c0,0 9.81405,19.4809 -2.12388,27.79352c-19.45185,13.54471 -58.81308,16.10878 -75.58909,9.01789z" fill="#dbe3e3" stroke="none" stroke-width="0"/><path d="M266.78253,85.09755c-2.32382,-11.03817 16.46126,-14.23671 32.38345,-10.41504c22.3537,5.36538 25.19507,17.14511 21.81112,18.59537c-7.12183,3.05221 -49.76698,12.85072 -54.19457,-8.18031z" fill="#fefefe" stroke="none" stroke-width="0"/><path d="M24.53453,182.83959c0,-98.10276 96.46718,-177.63076 215.46547,-177.63076c118.99829,0 215.46547,79.528 215.46547,177.63076c0,98.10276 -96.46717,177.63076 -215.46546,177.63076c-118.99829,0 -215.46547,-79.52799 -215.46547,-177.63075z" fill="none" stroke="none" stroke-width="0"/><path d="M24.53453,180.00005c0,-99.671 96.46718,-180.4703 215.46547,-180.4703c118.99829,0 215.46547,80.7993 215.46547,180.47031c0,99.671 -96.46718,180.47032 -215.46547,180.47032c-118.99829,0 -215.46547,-80.7993 -215.46547,-180.4703z" fill="none" stroke="none" stroke-width="0"/><path d="M24.53453,183.19983c0,-97.90378 96.46718,-177.27048 215.46547,-177.27048c118.99829,0 215.46547,79.3667 215.46547,177.27049c0,97.90379 -96.46717,177.27048 -215.46546,177.27048c-118.99829,0 -215.46547,-79.3667 -215.46547,-177.27048z" fill="none" stroke="none" stroke-width="0"/><path d="M174.46001,293.50275c-2.2584,-20.51454 -6.76542,-65.59656 -8.18977,-110.23176c-1.10664,-34.67861 -1.87042,-55.21553 3.26529,-89.99822c5.13571,-34.78268 21.57912,-59.30218 21.57912,-59.30218c0,0 9.8288,-14.31555 25.56348,-14.31555c11.86758,0 30.79048,1.46736 53.08744,3.85692c20.5693,2.2044 39.96362,30.90943 39.96362,30.90943c0,0 40.83087,36.66675 34.71968,55.56318c-3.06228,9.4689 -16.88173,25.01608 -16.88173,25.01608c0,0 5.63177,32.75059 4.44479,65.52501c-0.77044,21.27317 -7.96409,40.18943 -9.35971,58.21659c-1.21348,15.67451 0.02644,24.87628 -2.69378,29.57405c-4.10163,7.08346 -42.31736,14.78211 -51.14682,1.29955c-2.50489,-3.82496 -4.9371,-23.26912 -0.41289,-31.81625c4.8929,-9.24367 16.88157,-7.47639 16.88157,-7.47639l-45.54046,-3.51361c0,0 -4.4075,6.64851 -5.16962,17.12051c-0.83838,11.52004 1.66027,27.23733 -5.62164,33.85559c-9.6389,8.76045 -31.47475,8.81354 -43.95918,8.02248c-5.52077,-0.34981 -9.73039,-5.04752 -10.52941,-12.30541z" fill="none" stroke="#414449" stroke-width="13.5"/><path d="M120.66811,232.2984c-5.82763,-18.90026 0.13115,-90.89784 1.59343,-105.20729c0.6872,-6.72466 1.63647,-18.58581 18.34162,-24.88996c13.00473,-3.1874 28.0156,-1.76549 28.0156,-1.76549c0,0 -2.01099,46.29896 -2.01099,70.34736c0,25.30981 2.01099,77.92081 2.01099,77.92081c0,0 -37.83829,16.39127 -47.95066,-16.40542z" fill="none" stroke="#414448" stroke-width="13.5"/><path d="M299.50379,59.53407c29.88831,11.44102 51.05626,31.55405 44.94508,50.45049c-3.06228,9.4689 -16.88173,25.01608 -16.88173,25.01608c0,0 -58.88541,24.055 -85.91011,7.2782c-15.08916,-9.36728 -31.72978,-46.80207 -18.25683,-65.97168c14.57808,-20.74203 60.57069,-22.71896 76.1036,-16.77307z" fill="none" stroke="#414449" stroke-width="13.5"/></g></g></svg>