<svg version="1.1" xmlns="http://www.w3.org/2000/svg" xmlns:xlink="http://www.w3.org/1999/xlink" width="493.50451" height="422.56464" viewBox="0,0,493.50451,422.56464"><g transform="translate(6.75223,44.18472)"><g data-paper-data="{&quot;isPaintingLayer&quot;:true}" fill-rule="nonzero" stroke-linecap="butt" stroke-linejoin="miter" stroke-miterlimit="10" stroke-dasharray="" stroke-dashoffset="0" style="mix-blend-mode: normal"><path d="M-6.75223,170.42196c0,-114.85201 110.47475,-207.95796 246.75225,-207.95796c136.27751,0 246.75225,93.10595 246.75225,207.95796c0,114.85201 -110.47474,207.95796 -246.75225,207.95796c-136.2775,0 -246.75225,-93.10595 -246.75225,-207.95796z" fill="none" stroke="none" stroke-width="0"/><path d="M-6.75223,167.09759c0,-116.688 110.47475,-211.28231 246.75225,-211.28231c136.27751,0 246.75226,94.59431 246.75226,211.28231c0,116.688 -110.47475,211.28232 -246.75226,211.28232c-136.2775,0 -246.75225,-94.59431 -246.75225,-211.28231z" fill="none" stroke="none" stroke-width="0"/><path d="M-6.75222,167.09759c0,-114.61906 109.1316,-207.53617 243.75225,-207.53617c134.62065,0 243.75225,92.91711 243.75225,207.53618c0,114.61907 -109.1316,207.53617 -243.75225,207.53617c-134.62065,0 -243.75225,-92.91711 -243.75225,-207.53617z" fill="none" stroke="none" stroke-width="0"/><path d="M100.29437,241.22739c-6.82259,-22.12714 0.15355,-106.41699 1.86548,-123.16951c0.80452,-7.87277 13.91586,-28.759 20.47311,-30.13947c8.22505,-1.73159 33.79876,-1.06692 33.79876,-1.06692v173.58225c0,0 -44.29848,19.18978 -56.13736,-19.20634z" fill="#7c0235" stroke="#000000" stroke-width="16"/><path d="M163.27029,312.88127c-2.64398,-24.01703 -7.92049,-76.79597 -9.58803,-129.05182c-1.29557,-40.59935 -2.18976,-64.64258 3.82278,-105.36377c6.01254,-40.72119 25.26336,-69.42694 25.26336,-69.42694c0,0 11.50689,-16.75967 29.92797,-16.75967c13.89376,0 36.0474,1.71789 62.15115,4.51542c24.08114,2.58076 46.78668,36.18664 46.78668,36.18664c0,0 47.80199,42.92692 40.64743,65.04957c-3.58511,11.08554 -19.76397,29.28712 -19.76397,29.28712c0,0 6.59329,38.34216 5.20365,76.71221c-0.90198,24.90517 -9.32381,47.05103 -10.9577,68.156c-1.42066,18.35064 0.03095,29.12346 -3.15369,34.62328c-4.80191,8.29283 -49.54227,17.30589 -59.8792,1.52143c-2.93256,-4.478 -5.78002,-27.2419 -0.48339,-37.24829c5.72828,-10.82186 19.76378,-8.75285 19.76378,-8.75285l-53.31565,-4.11349c0,0 -5.16002,7.78362 -6.05223,20.04352c-0.98152,13.48688 1.94373,31.8876 -6.58143,39.6358c-11.28457,10.25613 -36.84849,10.31829 -51.46441,9.39217c-6.46334,-0.40954 -11.39168,-5.90929 -12.32711,-14.40634z" fill="#7c0235" stroke="#000000" stroke-width="16"/><path d="M175.58565,78.47164c0,-20.79407 10.77407,-79.00985 10.77407,-79.00985c0,0 38.1772,-5.49067 59.8093,-4.07549c21.0492,1.37705 58.70547,17.2438 58.70547,17.2438l41.89916,116.12054c0,0 5.99996,50.6856 -21.04336,79.48386c-26.02652,27.71548 -84.6898,33.922 -106.63852,17.3269c-45.02816,-34.04514 -43.50613,-126.09913 -43.50613,-147.08975z" fill="#c60909" stroke="none" stroke-width="0"/><path d="M309.66297,38.96671c34.9912,13.39437 59.77318,36.94132 52.61863,59.06398c-3.58511,11.08554 -19.76397,29.28712 -19.76397,29.28712c0,0 -68.93902,28.16195 -100.57769,8.52082c-17.66536,-10.96657 -37.14706,-54.79267 -21.37385,-77.23514c17.06702,-24.28335 70.91203,-26.59781 89.0969,-19.63677z" fill="#4a646d" stroke="#000000" stroke-width="16"/><path d="M105.87592,134.73624l5.21828,-41.89916h41.7462l-1.30457,31.1251c0,0 -15.2689,-0.3305 -24.59801,1.87084c-9.32912,2.20132 -21.0619,8.90322 -21.0619,8.90322z" fill="#c60909" stroke="none" stroke-width="0"/><path d="M100.29437,241.22739c-6.82259,-22.12714 0.15355,-106.41699 1.86548,-123.16951c0.80452,-7.87277 13.91586,-28.759 20.47311,-30.13947c8.22505,-1.73159 33.79876,-1.06692 33.79876,-1.06692v173.58225c0,0 -44.29848,19.18978 -56.13736,-19.20634z" fill="none" stroke="#000000" stroke-width="16"/><path d="M163.27029,312.88127c-2.64398,-24.01703 -7.92049,-76.79597 -9.58803,-129.05182c-1.29557,-40.59935 -2.18976,-64.64258 3.82278,-105.36377c6.01254,-40.72119 25.26336,-69.42694 25.26336,-69.42694c0,0 11.50689,-16.75967 29.92797,-16.75967c13.89376,0 36.0474,1.71789 62.15115,4.51542c24.08114,2.58076 46.78668,36.18664 46.78668,36.18664c0,0 47.80199,42.92692 40.64743,65.04957c-3.58511,11.08554 -19.76397,29.28712 -19.76397,29.28712c0,0 6.59329,38.34216 5.20365,76.71221c-0.90198,24.90517 -9.32381,47.05103 -10.9577,68.156c-1.42066,18.35064 0.03095,29.12346 -3.15369,34.62328c-4.80191,8.29283 -49.54227,17.30589 -59.8792,1.52143c-2.93256,-4.478 -5.78002,-27.2419 -0.48339,-37.24829c5.72828,-10.82186 19.76378,-8.75285 19.76378,-8.75285l-53.31565,-4.11349c0,0 -5.16001,7.78362 -6.05224,20.04352c-0.98152,13.48687 1.94373,31.8876 -6.58143,39.63581c-11.28457,10.25613 -36.84849,10.31829 -51.46441,9.39217c-6.46334,-0.40954 -11.39168,-5.90929 -12.32711,-14.40634z" fill="none" stroke="#000000" stroke-width="16"/><path d="M163.27029,312.88127c-2.64398,-24.01703 -7.92049,-76.79597 -9.58803,-129.05182c-1.29557,-40.59935 -2.18976,-64.64258 3.82278,-105.36377c6.01254,-40.72119 25.26336,-69.42694 25.26336,-69.42694c0,0 11.50689,-16.75967 29.92797,-16.75967c13.89376,0 36.0474,1.71789 62.15115,4.51542c24.08114,2.58076 46.78668,36.18664 46.78668,36.18664c0,0 47.80199,42.92692 40.64743,65.04957c-3.58511,11.08554 -19.76397,29.28712 -19.76397,29.28712c0,0 6.59329,38.34216 5.20365,76.71221c-0.90198,24.90517 -9.32381,47.05103 -10.9577,68.156c-1.42066,18.35064 0.03095,29.12346 -3.15369,34.62328c-4.80191,8.29283 -49.54227,17.30589 -59.8792,1.52143c-2.93256,-4.478 -5.78002,-27.2419 -0.48339,-37.24829c5.72828,-10.82186 19.76378,-8.75285 19.76378,-8.75285l-53.31565,-4.11349c0,0 -5.16001,7.78362 -6.05224,20.04352c-0.98152,13.48687 1.94373,31.8876 -6.58143,39.63581c-11.28457,10.25613 -36.84849,10.31829 -51.46441,9.39217c-6.46334,-0.40954 -11.39168,-5.90929 -12.32711,-14.40634z" fill="none" stroke="#000000" stroke-width="16"/><path d="M262.97533,97.8052c-33.59046,-13.63109 -25.1395,-41.37538 -25.1395,-41.37538c0,0 26.03837,-26.43427 45.49052,-26.43427c19.25264,0 70.63001,26.43427 70.63001,26.43427c0,0 11.48962,21.89619 -2.4865,31.23943c-22.7729,15.22402 -68.85434,18.10599 -88.49454,10.13595z" fill="#94c9db" stroke="none" stroke-width="0"/><path d="M271.35515,68.89468c-2.72057,-12.92273 19.27172,-16.66737 37.91234,-12.19322c26.17019,6.28142 29.49666,20.07232 25.53497,21.77018c-8.33775,3.57332 -58.26378,15.04475 -63.4473,-9.57695z" fill="#fefefe" stroke="none" stroke-width="0"/><path d="M309.66297,38.96671c34.9912,13.39437 59.77318,36.94132 52.61863,59.06398c-3.58511,11.08554 -19.76397,29.28712 -19.76397,29.28712c0,0 -68.93902,28.16195 -100.57769,8.52082c-17.66536,-10.96657 -37.14706,-54.79267 -21.37385,-77.23514c17.06702,-24.28335 70.91203,-26.59781 89.0969,-19.63677z" fill="none" stroke="#000000" stroke-width="16"/></g></g></svg>