<svg version="1.1" xmlns="http://www.w3.org/2000/svg" xmlns:xlink="http://www.w3.org/1999/xlink" width="160.66066" height="108.10811" viewBox="0,0,160.66066,108.10811"><g transform="translate(-157.92417,-142.06831)"><g data-paper-data="{&quot;isPaintingLayer&quot;:true}" fill-rule="nonzero" stroke-linecap="butt" stroke-linejoin="miter" stroke-miterlimit="10" stroke-dasharray="" stroke-dashoffset="0" style="mix-blend-mode: normal"><path d="M221.125,179.58334c0,-8.7215 7.07017,-15.79167 15.79166,-15.79167c8.7215,0 15.79167,7.07017 15.79167,15.79167c0,8.7215 -7.07017,15.79166 -15.79167,15.79166c-8.7215,0 -15.79166,-7.07017 -15.79166,-15.79166z" fill="#000000" stroke="#ffffff" stroke-width="3.5"/><path d="M221.125,179.58334c0,-8.7215 7.07017,-15.79167 15.79166,-15.79167c8.7215,0 15.79167,7.07017 15.79167,15.79167c0,8.7215 -7.07017,15.79166 -15.79167,15.79166c-8.7215,0 -15.79166,-7.07017 -15.79166,-15.79166z" fill="#000000" stroke="#ffffff" stroke-width="2"/><path d="M234.58377,172.47654c0,0 0,-2.51767 0,-3.1668c0,-0.28818 0.21705,-0.62419 0.5531,-0.62419c0.98944,0 3.01046,0 3.55963,0c0.26979,0 0.55309,0.27365 0.55309,0.52249c0,0.62237 0,3.2685 0,3.2685z" fill="#ffffff" stroke="none" stroke-width="5"/><path d="M239.24959,187.19015c0,0 0,2.64613 0,3.2685c0,0.24884 -0.2833,0.52249 -0.55309,0.52249c-0.54917,0 -2.57019,0 -3.55963,0c-0.33604,0 -0.5531,-0.33601 -0.5531,-0.62419c0,-0.64911 0,-3.16679 0,-3.16679z" data-paper-data="{&quot;index&quot;:null}" fill="#ffffff" stroke="none" stroke-width="5"/><path d="M244.02466,177.25401c0,0 2.51769,0.00128 3.1668,0.00161c0.28819,0.00015 0.62408,0.21737 0.6239,0.5534c-0.00051,0.98944 -0.00151,3.01046 -0.00179,3.55963c-0.00014,0.26979 -0.27393,0.55296 -0.52277,0.55284c-0.62237,-0.00032 -3.2685,-0.00165 -3.2685,-0.00165z" fill="#ffffff" stroke="none" stroke-width="5"/><path d="M229.80868,181.91266c0,0 -2.64612,-0.00134 -3.26848,-0.00166c-0.24884,-0.00012 -0.52234,-0.28356 -0.5222,-0.55336c0.00027,-0.54917 0.00129,-2.57019 0.0018,-3.55963c0.00018,-0.33604 0.33628,-0.55292 0.62446,-0.55277c0.64911,0.00034 3.1668,0.0016 3.1668,0.0016z" data-paper-data="{&quot;index&quot;:null}" fill="#ffffff" stroke="none" stroke-width="5"/><path d="M232.74613,175.19916c2.42075,-2.30392 6.25085,-2.20923 8.55478,0.21151c2.30392,2.42075 2.20922,6.25085 -0.21152,8.55477c-2.42075,2.30392 -6.25086,2.20923 -8.55477,-0.21151c-2.30392,-2.42075 -2.20923,-6.25086 0.21151,-8.55477z" fill="none" stroke="#ffffff" stroke-width="4"/><path d="M240.45628,172.99394c0,0 1.82373,-1.73571 2.29394,-2.18321c0.20875,-0.19868 0.60178,-0.2731 0.83345,-0.02969c0.68213,0.71672 2.07545,2.18068 2.45407,2.57849c0.18599,0.19543 0.18308,0.5893 0.00283,0.76086c-0.45083,0.42907 -2.36758,2.25334 -2.36758,2.25334z" fill="#ffffff" stroke="none" stroke-width="5"/><path d="M233.37706,186.42276c0,0 -1.91677,1.82426 -2.3676,2.25334c-0.18025,0.17156 -0.57378,0.15498 -0.75978,-0.04045c-0.37861,-0.39781 -1.77193,-1.86176 -2.45406,-2.57849c-0.23167,-0.24342 -0.13792,-0.63229 0.07084,-0.83097c0.4702,-0.44751 2.29392,-2.18322 2.29392,-2.18322z" data-paper-data="{&quot;index&quot;:null}" fill="#ffffff" stroke="none" stroke-width="5"/><path d="M243.50429,183.37629c0,0 1.7348,1.8246 2.18207,2.29503c0.19858,0.20885 0.2728,0.60192 0.02926,0.83346c-0.71706,0.68177 -2.18172,2.07435 -2.57972,2.45275c-0.19553,0.18589 -0.5894,0.18279 -0.76086,0.00245c-0.42884,-0.45104 -2.25214,-2.36873 -2.25214,-2.36873z" fill="#ffffff" stroke="none" stroke-width="5"/><path d="M230.32904,176.04041c0,0 -1.82331,-1.91769 -2.25214,-2.36873c-0.17146,-0.18034 -0.15471,-0.57387 0.04082,-0.75976c0.398,-0.3784 1.86266,-1.77098 2.57972,-2.45275c0.24353,-0.23155 0.63237,-0.1376 0.83093,0.07125c0.44727,0.47043 2.18207,2.29503 2.18207,2.29503z" data-paper-data="{&quot;index&quot;:null}" fill="#ffffff" stroke="none" stroke-width="5"/><path d="M157.92417,250.17642v-108.10811h160.66066v108.10811z" fill="none" stroke="none" stroke-width="0"/></g></g></svg>