<svg version="1.1" xmlns="http://www.w3.org/2000/svg" xmlns:xlink="http://www.w3.org/1999/xlink" width="63.07807" height="63.07807" viewBox="0,0,63.07807,63.07807"><defs><radialGradient cx="240" cy="180.00001" r="31.53904" gradientUnits="userSpaceOnUse" id="color-1"><stop offset="0" stop-color="#000000"/><stop offset="1" stop-color="#000000" stop-opacity="0"/></radialGradient><linearGradient x1="250.56867" y1="159.47176" x2="250.56867" y2="166.82507" gradientUnits="userSpaceOnUse" id="color-2"><stop offset="0" stop-color="#929741"/><stop offset="1" stop-color="#b17f50"/></linearGradient><linearGradient x1="239.80098" y1="180.94073" x2="239.80098" y2="200.52826" gradientUnits="userSpaceOnUse" id="color-3"><stop offset="0" stop-color="#693172"/><stop offset="1" stop-color="#397a8e"/></linearGradient><linearGradient x1="225.032" y1="179.04097" x2="243.38846" y2="179.04097" gradientUnits="userSpaceOnUse" id="color-4"><stop offset="0" stop-color="#403d97"/><stop offset="1" stop-color="#943795"/></linearGradient><linearGradient x1="225.13584" y1="169.86126" x2="254.96799" y2="169.86126" gradientUnits="userSpaceOnUse" id="color-5"><stop offset="0" stop-color="#7e7ba5"/><stop offset="1" stop-color="#c8969d"/></linearGradient></defs><g transform="translate(-208.46096,-148.46096)"><g data-paper-data="{&quot;isPaintingLayer&quot;:true}" fill-rule="nonzero" stroke="none" stroke-width="0" stroke-linecap="butt" stroke-linejoin="miter" stroke-miterlimit="10" stroke-dasharray="" stroke-dashoffset="0" style="mix-blend-mode: normal"><g><path d="M208.46097,180.00001c0,-17.41852 14.12052,-31.53904 31.53904,-31.53904c17.41854,0 31.53903,14.12052 31.53903,31.53904c0,17.41852 -14.12051,31.53903 -31.53903,31.53903c-17.41852,0 -31.53904,-14.12049 -31.53904,-31.53903z" fill="url(#color-1)"/><path d="M214.76878,180.00001c0,-13.93482 11.2964,-25.23124 25.23122,-25.23124c13.93483,0 25.23122,11.29641 25.23122,25.23124c0,13.93483 -11.2964,25.23122 -25.23122,25.23122c-13.93482,0 -25.23122,-11.2964 -25.23122,-25.23122z" fill="#ffffff"/><g><path d="M254.96688,165.32319c0,0 -0.63924,0.92931 -1.41199,1.35281c-0.3008,0.16485 -0.68791,0.02175 -0.96655,0.06346c-1.61459,0.2416 -6.41786,-0.10481 -6.41786,-0.10481l4.90299,-7.16289z" fill="url(#color-2)"/><path d="M236.22087,180.94073l7.1268,3.65799c0,0 0.08598,6.20733 0.10715,8.38715c0.00891,0.91774 -0.1317,2.1573 -1.62184,3.23413c-0.61701,0.42019 -5.68621,4.30826 -5.68621,4.30826z" fill="url(#color-3)"/><path d="M232.73355,172.09729l9.20627,4.75502c0,0 1.4468,0.80663 1.38374,2.19021c-0.06746,1.4278 0.0649,7.91987 0.0649,7.91987c0,0 -0.23036,-1.76893 -2.14488,-2.84591c-3.82989,-2.18764 -13.31022,-7.31183 -15.82731,-8.75521c-0.52612,-0.30168 -0.41152,-0.70346 -0.24291,-0.96521c0.06853,-0.1064 1.46803,-2.31508 1.46803,-2.31508c0,0 1.49256,-0.79272 2.06351,-0.89212c2.16766,-0.37734 4.02864,0.90842 4.02864,0.90842z" fill="url(#color-4)"/><path d="M225.18823,174.35097c1.00381,-1.59737 3.46864,-5.51882 3.49896,-5.55872c1.40341,-2.22173 2.0445,-2.37323 3.70391,-2.43034c2.09944,0.02148 16.0463,-0.02907 20.56613,-0.02454c1.49465,-0.03121 2.01043,-1.04329 2.01043,-1.04329c0,0 0.01962,0.1189 -0.23626,0.4425c-1.11551,1.41069 -3.48278,5.29136 -4.31588,6.36692c-0.53724,0.6936 -0.79707,1.57135 -2.71885,1.54918c-4.17833,-0.04823 -16.1159,-0.26742 -19.73859,-0.25958c-2.37447,0.02373 -3.02692,1.36696 -2.76985,0.95789z" fill="url(#color-5)"/></g></g></g></g></svg>