<svg version="1.1" viewBox="0.0 0.0 960.0 720.0" fill="none" stroke="none" stroke-linecap="square" stroke-miterlimit="10" xmlns:xlink="http://www.w3.org/1999/xlink" xmlns="http://www.w3.org/2000/svg"><clipPath id="p.0"><path d="m0 0l960.0 0l0 720.0l-960.0 0l0 -720.0z" clip-rule="nonzero"/></clipPath><g clip-path="url(#p.0)"><path fill="#000000" fill-opacity="0.0" d="m0 0l960.0 0l0 720.0l-960.0 0z" fill-rule="evenodd"/><path fill="#000000" fill-opacity="0.0" d="m27.041994 25.262466l900.8819 0l0 694.7402l-900.8819 0z" fill-rule="evenodd"/><path fill="#000000" d="m409.87943 348.41248l0 7.9375q0 1.6875 -0.15625 2.578125q-0.140625 0.890625 -0.796875 1.5625q-0.65625 0.65625 -2.015625 0.65625q-1.3125 0 -2.0625 -0.859375q-0.734375 -0.875 -0.734375 -3.9375l0 -19.453125q0 -2.5 0.34375 -3.359375q0.359375 -0.859375 1.25 -1.1875q0.90625 -0.328125 3.25 -0.328125l8.109375 0q3.3125 0 5.390625 0.6875q2.09375 0.671875 3.53125 2.640625q1.453125 1.953125 1.453125 4.59375q0 6.34375 -7.296875 7.78125q2.890625 1.609375 5.34375 5.71875q2.453125 4.109375 2.453125 5.375q0 0.90625 -0.796875 1.625q-0.796875 0.703125 -2.03125 0.703125q-0.90625 0 -1.703125 -0.546875q-0.78125 -0.5625 -2.34375 -3.140625l-2.359375 -3.875q-2.015625 -3.3125 -3.359375 -4.234375q-1.34375 -0.9375 -3.4375 -0.9375l-2.03125 0zm5.390625 -11.90625l-5.390625 0l0 7.78125l5.1875 0q3.65625 0 5.0625 -1.046875q1.421875 -1.0625 1.421875 -2.96875q0 -1.421875 -0.8125 -2.359375q-0.796875 -0.9375 -1.8125 -1.171875q-1.015625 -0.234375 -3.65625 -0.234375zm32.128906 15.109375l-10.46875 0q0.078125 2.96875 1.625 4.484375q1.5625 1.515625 3.71875 1.515625q2.6875 0 5.046875 -2.34375q0.953125 -0.984375 1.40625 -1.21875q0.46875 -0.234375 1.03125 -0.234375q0.71875 0 1.234375 0.453125q0.53125 0.453125 0.53125 1.109375q0 1.796875 -2.46875 3.78125q-2.453125 1.984375 -6.65625 1.984375q-5.359375 0 -8.125 -3.015625q-2.75 -3.015625 -2.75 -7.828125q0 -4.84375 2.75 -7.828125q2.765625 -3.0 7.6875 -3.0q4.71875 0 7.265625 2.828125q2.5625 2.828125 2.5625 6.15625q0 1.453125 -0.859375 2.3125q-0.84375 0.84375 -3.53125 0.84375zm-10.46875 -3.03125l9.703125 0q-0.09375 -2.65625 -1.46875 -4.046875q-1.359375 -1.390625 -3.375 -1.390625q-4.234375 0 -4.859375 5.4375zm20.160156 -8.640625l0 -1.5625q0 -4.09375 1.6875 -5.46875q1.703125 -1.375 4.875 -1.375q5.078125 0 5.078125 2.28125q0 0.703125 -0.484375 1.25q-0.484375 0.546875 -1.28125 0.546875q-0.15625 0 -1.03125 -0.109375q-0.859375 -0.125 -1.0 -0.125q-1.125 0 -1.828125 0.59375q-0.6875 0.578125 -0.6875 2.6875l0 1.28125l1.34375 0q3.015625 0 3.015625 1.875q0 0.90625 -0.578125 1.4375q-0.578125 0.53125 -2.4375 0.53125l-1.34375 0l0 12.953125q0 1.5 -0.125 2.28125q-0.125 0.765625 -0.71875 1.453125q-0.578125 0.671875 -1.8125 0.671875q-1.265625 0 -1.96875 -0.828125q-0.703125 -0.828125 -0.703125 -3.578125l0 -12.953125l-1.484375 0q-2.4375 0 -2.4375 -1.96875q0 -1.875 2.6875 -1.875l1.234375 0zm12.4765625 16.796875l0 -13.671875q0 -3.59375 2.640625 -3.59375q2.515625 0 2.578125 3.3125q1.65625 -3.3125 4.578125 -3.3125q1.546875 0 3.1875 0.8125q1.65625 0.796875 1.65625 2.203125q0 0.984375 -0.671875 1.625q-0.65625 0.625 -1.40625 0.625q-0.4375 0 -1.5625 -0.34375q-1.125 -0.34375 -1.875 -0.34375q-1.921875 0 -2.859375 1.9375q-0.9375 1.9375 -0.9375 7.46875l0 3.078125q0 2.03125 -0.171875 2.75q-0.15625 0.703125 -0.859375 1.28125q-0.703125 0.578125 -1.625 0.578125q-0.875 0 -1.578125 -0.515625q-0.703125 -0.515625 -0.90625 -1.21875q-0.1875 -0.71875 -0.1875 -2.671875zm32.441406 -5.125l-10.46875 0q0.078125 2.96875 1.625 4.484375q1.5625 1.515625 3.71875 1.515625q2.6875 0 5.046875 -2.34375q0.953125 -0.984375 1.40625 -1.21875q0.46875 -0.234375 1.03125 -0.234375q0.71875 0 1.234375 0.453125q0.53125 0.453125 0.53125 1.109375q0 1.796875 -2.46875 3.78125q-2.453125 1.984375 -6.65625 1.984375q-5.359375 0 -8.125 -3.015625q-2.75 -3.015625 -2.75 -7.828125q0 -4.84375 2.75 -7.828125q2.765625 -3.0 7.6875 -3.0q4.71875 0 7.265625 2.828125q2.5625 2.828125 2.5625 6.15625q0 1.453125 -0.859375 2.3125q-0.84375 0.84375 -3.53125 0.84375zm-10.46875 -3.03125l9.703125 0q-0.09375 -2.65625 -1.46875 -4.046875q-1.359375 -1.390625 -3.375 -1.390625q-4.234375 0 -4.859375 5.4375zm23.394562 -3.5625q0 1.03125 1.078125 1.625q1.078125 0.578125 4.796875 1.5q7.25 1.75 7.25 6.03125q0 3.375 -2.4375 5.171875q-2.4375 1.796875 -6.84375 1.796875q-4.453125 0 -6.703125 -1.828125q-2.2500305 -1.84375 -2.2500305 -3.890625q0 -0.875 0.625 -1.5q0.625 -0.625 1.53125 -0.625q1.2500305 0 2.1875305 1.5625q1.0625 1.71875 2.328125 2.28125q1.265625 0.546875 2.71875 0.546875q1.59375 0 2.59375 -0.703125q1.015625 -0.71875 1.015625 -1.8125q0 -1.0 -0.859375 -1.734375q-0.84375 -0.734375 -4.640625 -1.59375q-3.796875 -0.875 -5.5312805 -2.4375q-1.734375 -1.578125 -1.734375 -3.75q0 -2.4375 2.1094055 -4.3125q2.125 -1.875 6.359375 -1.875q3.890625 0 6.1875 1.578125q2.3125 1.578125 2.3125 3.28125q0 0.890625 -0.59375 1.515625q-0.578125 0.609375 -1.609375 0.609375q-1.546875 0 -2.796875 -1.765625q-1.234375 -1.78125 -3.734375 -1.78125q-1.34375 0 -2.359375 0.546875q-1.0 0.546875 -1.0 1.5625zm36.523376 2.671875l0 9.71875q0 3.734375 -2.71875 3.734375q-1.21875 0 -1.90625 -0.78125q-0.6875 -0.796875 -0.6875 -2.953125l0 -8.515625q0 -3.015625 -0.96875 -4.140625q-0.96875 -1.125 -2.6875 -1.125q-1.515625 0 -2.640625 0.84375q-1.124939 0.828125 -1.593689 2.0625q-0.46875 1.234375 -0.46875 4.3125l0 6.171875q0 2.5 -0.71875 3.3125q-0.703125 0.8125 -1.96875 0.8125q-1.234375 0 -1.9375 -0.78125q-0.703125 -0.796875 -0.703125 -3.265625l0 -21.171875q0 -1.921875 0.1875 -2.671875q0.1875 -0.765625 0.84375 -1.234375q0.671875 -0.484375 1.5625 -0.484375q1.015625 0 1.6875 0.546875q0.671875 0.546875 0.859375 1.421875q0.1875 0.859375 0.1875 2.875l0 6.3125q2.671814 -3.21875 6.499939 -3.21875q3.234375 0 5.203125 1.984375q1.96875 1.96875 1.96875 6.234375z" fill-rule="nonzero"/></g></svg>