<svg version="1.1" xmlns="http://www.w3.org/2000/svg" xmlns:xlink="http://www.w3.org/1999/xlink" width="304.3003" height="304.30025" viewBox="0,0,304.3003,304.30025"><defs><radialGradient cx="239.99998" cy="180.00004" r="120.12764" gradientUnits="userSpaceOnUse" id="color-1"><stop offset="0" stop-color="#000000"/><stop offset="1" stop-color="#000000" stop-opacity="0"/></radialGradient><linearGradient x1="280.25453" y1="101.8109" x2="280.25453" y2="129.81859" gradientUnits="userSpaceOnUse" id="color-2"><stop offset="0" stop-color="#929741"/><stop offset="1" stop-color="#b17f50"/></linearGradient><linearGradient x1="239.24195" y1="183.58311" x2="239.24195" y2="258.18916" gradientUnits="userSpaceOnUse" id="color-3"><stop offset="0" stop-color="#693172"/><stop offset="1" stop-color="#397a8e"/></linearGradient><linearGradient x1="182.98904" y1="176.34719" x2="252.90614" y2="176.34719" gradientUnits="userSpaceOnUse" id="color-4"><stop offset="0" stop-color="#403d97"/><stop offset="1" stop-color="#943795"/></linearGradient><linearGradient x1="183.38455" y1="141.38301" x2="297.0109" y2="141.38301" gradientUnits="userSpaceOnUse" id="color-5"><stop offset="0" stop-color="#7e7ba5"/><stop offset="1" stop-color="#c8969d"/></linearGradient></defs><g transform="translate(-92.84987,-32.84989)"><g data-paper-data="{&quot;isPaintingLayer&quot;:true}" fill-rule="nonzero" stroke-linecap="butt" stroke-linejoin="miter" stroke-miterlimit="10" stroke-dasharray="" stroke-dashoffset="0" style="mix-blend-mode: normal"><path d="M94.84988,275.23519c0,-59.99896 0,-148.11906 0,-181.81815c0,-26.16557 22.73163,-58.56714 54.69562,-58.56714c60.91162,0 155.35022,0 189.899,0c25.1397,0 55.70568,31.10369 55.70568,56.54696c0,34.37139 0,127.20919 0,187.87876c0,32.57375 -30.56593,55.87453 -55.70568,55.87453c-33.79375,0 -124.88841,0 -185.85858,0c-34.07175,0 -58.73599,-25.26921 -58.73599,-59.91496z" fill="#83a08b" stroke="#83a08b" stroke-width="4"/><path d="M119.87239,180.00004c0,-66.34462 53.78302,-120.12764 120.12764,-120.12764c66.3447,0 120.1276,53.78302 120.1276,120.12764c0,66.34462 -53.78298,120.1276 -120.1276,120.1276c-66.34462,0 -120.12764,-53.7829 -120.12764,-120.1276z" fill="url(#color-1)" stroke="none" stroke-width="0"/><path d="M143.89792,180.00004c0,-53.07571 43.02635,-96.10214 96.10207,-96.10214c53.07575,0 96.10207,43.02639 96.10207,96.10214c0,53.07575 -43.02635,96.10207 -96.10207,96.10207c-53.07571,0 -96.10207,-43.02635 -96.10207,-96.10207z" fill="#ffffff" stroke="none" stroke-width="0"/><g stroke="none" stroke-width="0"><path d="M297.00667,124.09815c0,0 -2.43477,3.53961 -5.37807,5.15266c-1.1457,0.62789 -2.62015,0.08284 -3.68145,0.24171c-6.14974,0.92022 -24.4447,-0.39921 -24.4447,-0.39921l18.67478,-27.28241z" fill="url(#color-2)"/><path d="M225.60583,183.58311l27.14495,13.93275c0,0 0.32749,23.64282 0.40812,31.94544c0.03394,3.49554 -0.50163,8.21684 -6.17735,12.31833c-2.3501,1.60044 -21.65795,16.40954 -21.65795,16.40954z" fill="url(#color-3)"/><path d="M212.32313,149.89971l35.06535,18.11118c0,0 5.51065,3.07234 5.27047,8.34219c-0.25695,5.43828 0.24719,30.16564 0.24719,30.16564c0,0 -0.87741,-6.7376 -8.16954,-10.83966c-14.5875,-8.3324 -50.6967,-27.8497 -60.28394,-33.34733c-2.00392,-1.14906 -1.56742,-2.67938 -0.92521,-3.67635c0.26102,-0.40526 5.59151,-8.8178 5.59151,-8.8178c0,0 5.68495,-3.01936 7.85961,-3.39796c8.2563,-1.43723 15.34451,3.46004 15.34451,3.46004z" fill="url(#color-4)"/><path d="M183.5841,158.48366c3.82337,-6.08415 13.21155,-21.02039 13.32703,-21.17236c5.34539,-8.46225 7.7872,-9.03929 14.10766,-9.25681c7.99646,0.08181 61.11804,-0.11072 78.33342,-0.09347c5.69291,-0.11887 7.65744,-3.97374 7.65744,-3.97374c0,0 0.07473,0.45287 -0.89988,1.68542c-4.24882,5.37311 -13.26541,20.15403 -16.43856,24.25068c-2.04627,2.64182 -3.03592,5.98504 -10.35571,5.9006c-15.91465,-0.1837 -61.38313,-1.01856 -75.18143,-0.9887c-9.04401,0.09038 -11.5291,5.20655 -10.54996,3.64846z" fill="url(#color-5)"/></g></g></g></svg>