<svg version="1.1" xmlns="http://www.w3.org/2000/svg" xmlns:xlink="http://www.w3.org/1999/xlink" width="411.03152" height="48.37091" viewBox="0,0,411.03152,48.37091"><g transform="translate(-34.48425,-155.81454)"><g data-paper-data="{&quot;isPaintingLayer&quot;:true}" fill-rule="nonzero" stroke-linejoin="miter" stroke-miterlimit="10" stroke-dasharray="" stroke-dashoffset="0" style="mix-blend-mode: normal"><path d="M138.33785,197.20873c0,-9.28258 0,-30.96338 0,-35.22257c0,-1.38997 0.18104,-3.42162 3.03392,-3.42162c0.63602,0 260.20749,0 297.77829,0c3.50188,0 3.61571,1.99533 3.61571,4.02544c0,4.78941 0,24.7088 0,34.01494c0,2.94765 0.04748,4.83053 -3.95526,4.83053c-41.04559,0 -276.94963,0 -297.43874,0c-2.8529,0 -3.03392,-1.62719 -3.03392,-4.22671z" fill="#000000" stroke="#dcdcdc" stroke-width="5.5" stroke-linecap="butt"/><path d="M37.23425,197.20873c0,-9.28258 0,-30.96338 0,-35.22257c0,-1.38997 0.18104,-3.42162 3.03392,-3.42162c0.63602,0 260.20749,0 297.77829,0c3.50188,0 3.61571,1.99533 3.61571,4.02544c0,4.78941 0,24.7088 0,34.01494c0,2.94765 0.04748,4.83053 -3.95526,4.83053c-41.04559,0 -276.94963,0 -297.43874,0c-2.8529,0 -3.03392,-1.62719 -3.03392,-4.22671z" fill="#000000" stroke="#dcdcdc" stroke-width="5.5" stroke-linecap="butt"/><path d="M37.23425,197.20875c0,-9.28258 0,-30.96338 0,-35.22257c0,-1.38997 0.18104,-3.42162 3.03392,-3.42162c0.63602,0 260.20749,0 297.77829,0c3.50188,0 3.61571,1.99532 3.61571,4.02543c0,4.78941 0,24.7088 0,34.01494c0,2.94765 0.04748,4.83053 -3.95526,4.83053c-41.04559,0 -276.94963,0 -297.43874,0c-2.8529,0 -3.03392,-1.6272 -3.03392,-4.22672z" fill="#000000" stroke="none" stroke-width="0" stroke-linecap="butt"/><path d="M138.33785,197.20875c0,-9.28258 0,-30.96338 0,-35.22257c0,-1.38997 0.18104,-3.42162 3.03392,-3.42162c0.63602,0 260.20749,0 297.77829,0c3.50188,0 3.61571,1.99532 3.61571,4.02543c0,4.78941 0,24.7088 0,34.01494c0,2.94765 0.04748,4.83053 -3.95526,4.83053c-41.04559,0 -276.94963,0 -297.43874,0c-2.8529,0 -3.03392,-1.6272 -3.03392,-4.22672z" fill="#000000" stroke="none" stroke-width="0" stroke-linecap="butt"/><g stroke="#dcdcdc" stroke-width="3"><path d="M267.93276,201.81668c0,0 -7.1269,-12.60753 -3.53043,-20.94532c1.70556,-3.95405 0.41956,-7.49845 8.62788,-7.70632c17.45387,-0.28248 13.62964,28.65164 13.62964,28.65164z" data-paper-data="{&quot;index&quot;:null}" fill="#000000" stroke-linecap="butt"/><path d="M267.93276,201.81668c0,0 -7.46023,-13.60753 -3.86377,-21.94532c1.70555,-3.95405 0.75288,-6.49845 8.96121,-6.70632c17.45386,-0.28248 13.62964,28.65164 13.62964,28.65164z" data-paper-data="{&quot;index&quot;:null}" fill="none" stroke-linecap="butt"/><path d="M286.0141,186.67688c0,0 -4.77639,1.78723 -6.77992,-2.23782c-2.3603,-4.74175 2.02992,-7.26218 2.02992,-7.26218" fill="none" stroke-linecap="round"/><path d="M219.14941,201.73333c0,0 -1.7793,-32.70337 11.16666,-32.66666c6.45195,0.09367 9.99045,3.39338 11.91819,7.86252c4.06498,9.42397 -1.91819,24.80415 -1.91819,24.80415z" fill="#000000" stroke-linecap="butt"/><path d="M220.20496,183.51112c0,0 0.52237,-2.81707 0.78239,-4.21934c0.25848,-1.39398 1.77316,-4.16955 1.77316,-4.16955c0,0 12.22716,-2.14263 11.91831,3.94514c-0.40001,7.8848 -14.47386,4.44374 -14.47386,4.44374z" fill="#000000" stroke-linecap="butt"/><path d="M219.14941,201.73333c0,0 -1.7793,-32.70337 11.16666,-32.66666c6.45195,0.09367 9.99045,3.39338 11.91819,7.86252c4.06498,9.42397 -1.91819,24.80415 -1.91819,24.80415z" fill="none" stroke-linecap="butt"/><path d="M238.99678,201.73584c0,0 -1.19848,-39.12369 15.33333,-39.50001c18.36923,-0.41814 18.33333,39.66667 18.33333,39.66667z" fill="#000000" stroke-linecap="butt"/><path d="M246.31387,176.28334c-0.04997,-2.82647 0.62593,-9.46131 8.0801,-9.41655c7.98613,0.04796 8.96093,6.77766 9.02626,9.52176c0.01675,0.70338 -0.47541,1.1449 -0.99271,1.1449c-1.68207,0 -10.89702,0 -14.54545,0c-0.92167,0 -1.55469,-0.48583 -1.56821,-1.25011z" fill="#000000" stroke-linecap="butt"/></g></g></g></svg>