<svg version="1.1" xmlns="http://www.w3.org/2000/svg" xmlns:xlink="http://www.w3.org/1999/xlink" width="413.23383" height="72.48427" viewBox="0,0,413.23383,72.48427"><g transform="translate(-6.54854,-226.90083)"><g data-paper-data="{&quot;isPaintingLayer&quot;:true}" fill="#ffffff" fill-rule="nonzero" stroke="none" stroke-width="1" stroke-linejoin="miter" stroke-miterlimit="10" stroke-dasharray="" stroke-dashoffset="0" style="mix-blend-mode: normal"><path d="M10.00567,229.54301v10.98049c0,0.72631 -0.02859,1.23817 -0.08578,1.53555c-0.05147,0.29167 -0.21447,0.54902 -0.48898,0.77206c-0.2688,0.21732 -0.59477,0.32599 -0.97795,0.32599c-0.38889,0 -0.72917,-0.11152 -1.02084,-0.33456c-0.28595,-0.22876 -0.45752,-0.49183 -0.51471,-0.78922c-0.05147,-0.30311 -0.0772,-0.80638 -0.0772,-1.50982v-10.98049c0,-0.72631 0.02573,-1.22959 0.0772,-1.50982c0.05719,-0.28023 0.22591,-0.53758 0.50614,-0.77206c0.28595,-0.2402 0.61765,-0.3603 0.9951,-0.3603c0.37174,0 0.70058,0.10866 0.98653,0.32598c0.28595,0.21732 0.45752,0.47754 0.51471,0.78064c0.05719,0.29739 0.08578,0.80924 0.08578,1.53555zM29.97,235.59943v5.05274c0,0.692 -0.0286,1.18097 -0.08579,1.46692c-0.05719,0.28023 -0.21446,0.52329 -0.47181,0.72917c-0.25164,0.20588 -0.55189,0.30883 -0.90075,0.30883c-0.34314,0 -0.64339,-0.10008 -0.90074,-0.30025c-0.25164,-0.20588 -0.40891,-0.46038 -0.47182,-0.76349c-0.06291,-0.30311 -0.09436,-0.7835 -0.09436,-1.44119v-4.28067c0,-1.25246 -0.14869,-2.03596 -0.44608,-2.35051c-0.29739,-0.32027 -0.70344,-0.4804 -1.21815,-0.4804c-0.53759,0 -0.98939,0.14869 -1.3554,0.44608c-0.36601,0.29739 -0.61765,0.68628 -0.75491,1.16668c-0.13726,0.47468 -0.20588,1.22386 -0.20588,2.24757v3.25125c0,0.692 -0.02859,1.18384 -0.08578,1.47551c-0.05147,0.28595 -0.20874,0.52901 -0.47182,0.72917c-0.25735,0.20017 -0.56047,0.30025 -0.90932,0.30025c-0.4518,0 -0.80638,-0.15155 -1.06373,-0.45466c-0.25735,-0.30311 -0.38603,-0.98653 -0.38603,-2.05026v-4.02332c0,-1.1438 -0.08579,-1.94446 -0.25736,-2.40198c-0.17157,-0.45752 -0.61765,-0.68628 -1.33824,-0.68628c-0.74919,0 -1.34111,0.2402 -1.77575,0.72059c-0.43464,0.47468 -0.65196,1.49838 -0.65196,3.0711v3.31988c0,0.67484 -0.02287,1.14952 -0.06863,1.42403c-0.04575,0.2688 -0.19731,0.51757 -0.45466,0.74633c-0.25735,0.22304 -0.5576,0.33456 -0.90074,0.33456c-0.32598,0 -0.62337,-0.10008 -0.89216,-0.30025c-0.2688,-0.20017 -0.4375,-0.44037 -0.50613,-0.7206c-0.06291,-0.28595 -0.09436,-0.78064 -0.09436,-1.48408v-7.09442c0,-0.67484 0.03145,-1.13236 0.09436,-1.37256c0.06291,-0.24592 0.22018,-0.46038 0.47181,-0.64339c0.25164,-0.18873 0.52615,-0.28309 0.82354,-0.28309c0.9322,0 1.3983,0.59478 1.3983,1.78433c0.98367,-1.18955 2.16465,-1.78433 3.54292,-1.78433c1.48122,0 2.55639,0.59478 3.22551,1.78433c0.9951,-1.18955 2.15607,-1.78433 3.48287,-1.78433c1.0237,0 1.89871,0.28309 2.62502,0.84927c0.73203,0.56046 1.09805,1.72428 1.09805,3.49145zM35.42593,233.20603c1.04086,-1.29822 2.31334,-1.94732 3.81744,-1.94732c1.5041,0 2.69651,0.56618 3.57724,1.69854c0.88645,1.12664 1.32967,2.58499 1.32967,4.37504c0,1.70426 -0.43464,3.10256 -1.30393,4.19489c-0.86357,1.08661 -2.05598,1.62992 -3.57724,1.62992c-1.45835,0 -2.73941,-0.60622 -3.84317,-1.81865v3.81744c0,1.0523 -0.13154,1.70712 -0.39461,1.96448c-0.25735,0.25735 -0.60622,0.38603 -1.04658,0.38603c-0.53759,0 -0.9179,-0.17729 -1.14094,-0.53187c-0.22304,-0.35458 -0.33456,-0.98939 -0.33456,-1.90443v-11.55524c0,-0.60049 0.02573,-1.04086 0.0772,-1.32109c0.05719,-0.28023 0.21447,-0.50614 0.47182,-0.6777c0.25735,-0.17157 0.56618,-0.25735 0.92648,-0.25735c0.96079,0 1.44119,0.54616 1.44119,1.6385zM41.19068,237.27224c0,-1.28677 -0.27165,-2.23899 -0.81496,-2.85664c-0.53759,-0.61765 -1.16668,-0.92648 -1.88727,-0.92648c-0.84069,0 -1.53269,0.31455 -2.076,0.94364c-0.54331,0.62909 -0.81496,1.50696 -0.81496,2.6336c0,1.17811 0.26307,2.11603 0.78922,2.81375c0.52615,0.692 1.23244,1.038 2.11889,1.038c0.78922,0 1.43261,-0.32312 1.93016,-0.96937c0.50327,-0.64625 0.75491,-1.53841 0.75491,-2.67649zM51.65646,231.25871c1.81292,0 3.23982,0.56047 4.28067,1.68139c1.04086,1.11521 1.56129,2.53638 1.56129,4.26352c0,1.73858 -0.52901,3.16547 -1.58702,4.28067c-1.0523,1.11521 -2.44774,1.67281 -4.18631,1.67281c-1.88727,0 -3.34276,-0.56332 -4.36646,-1.68997c-1.0237,-1.13236 -1.53555,-2.55353 -1.53555,-4.26352c0,-1.73286 0.51757,-3.15689 1.55271,-4.2721c1.04086,-1.11521 2.46775,-1.67281 4.28067,-1.67281zM51.65646,240.97815c0.88645,0 1.58703,-0.3317 2.10173,-0.9951c0.52043,-0.66912 0.78064,-1.5956 0.78064,-2.77943c0,-1.18384 -0.26021,-2.11032 -0.78064,-2.77944c-0.51471,-0.66912 -1.21529,-1.00369 -2.10173,-1.00369c-0.87501,0 -1.57273,0.33742 -2.09316,1.01227c-0.52043,0.66912 -0.78064,1.59274 -0.78064,2.77086c0,1.18956 0.25736,2.11603 0.77207,2.77943c0.52043,0.66341 1.22101,0.9951 2.10173,0.9951zM62.02143,234.30408c0,0.37745 0.19731,0.67484 0.59192,0.89216c0.39461,0.2116 1.27248,0.48611 2.6336,0.82354c2.65362,0.64053 3.98043,1.7443 3.98043,3.3113c0,1.2353 -0.44608,2.1818 -1.33825,2.83949c-0.89216,0.65769 -2.14463,0.98653 -3.75738,0.98653c-1.62992,0 -2.85664,-0.33456 -3.68018,-1.00369c-0.82354,-0.67484 -1.2353,-1.38685 -1.2353,-2.13605c0,-0.32027 0.11438,-0.59478 0.34314,-0.82354c0.22876,-0.22876 0.50899,-0.34314 0.84069,-0.34314c0.45752,0 0.85785,0.28595 1.20099,0.85785c0.38889,0.62909 0.81496,1.04658 1.2782,1.25246c0.46324,0.20017 0.96079,0.30025 1.49266,0.30025c0.58334,0 1.05802,-0.12868 1.42403,-0.38603c0.37174,-0.26307 0.5576,-0.59477 0.5576,-0.9951c0,-0.36601 -0.15727,-0.68342 -0.47181,-0.95222c-0.30882,-0.2688 -1.1581,-0.56046 -2.54781,-0.87501c-1.38972,-0.32027 -2.40198,-0.76635 -3.03679,-1.33825c-0.63481,-0.57762 -0.95222,-1.2639 -0.95222,-2.05884c0,-0.89216 0.38603,-1.68138 1.1581,-2.36767c0.77778,-0.68628 1.9416,-1.02942 3.49145,-1.02942c1.42403,0 2.5564,0.28881 3.39709,0.86643c0.84641,0.57762 1.26962,1.17812 1.26962,1.80149c0,0.32598 -0.10866,0.60335 -0.32598,0.83211c-0.2116,0.22304 -0.50614,0.33456 -0.88359,0.33456c-0.56618,0 -1.07803,-0.32313 -1.53555,-0.96937c-0.4518,-0.65196 -1.13522,-0.97795 -2.05026,-0.97795c-0.49183,0 -0.92362,0.10008 -1.29536,0.30025c-0.36601,0.20017 -0.54902,0.48611 -0.54902,0.85785zM72.19126,231.51606v-1.75859c0,-0.72631 0.02859,-1.21815 0.08578,-1.47551c0.06291,-0.26307 0.22018,-0.49469 0.47182,-0.69486c0.25735,-0.20588 0.5576,-0.30883 0.90074,-0.30883c0.31454,0 0.59763,0.09437 0.84927,0.28309c0.25164,0.18301 0.41749,0.40605 0.49755,0.66912c0.08007,0.26307 0.1201,0.692 0.1201,1.28677v1.99879h0.56618c0.71488,0 1.18955,0.08865 1.42403,0.26594c0.2402,0.17157 0.3603,0.42606 0.3603,0.76349c0,0.72059 -0.6005,1.08089 -1.80149,1.08089h-0.54902v5.40446c0,0.72631 0.05147,1.22387 0.15441,1.49266c0.10294,0.26307 0.38031,0.39461 0.83211,0.39461c0.2116,0 0.4518,-0.0286 0.7206,-0.08579c0.2688,-0.06291 0.46895,-0.09436 0.60049,-0.09436c0.29167,0 0.52901,0.09722 0.71202,0.29167c0.18301,0.18873 0.27451,0.42035 0.27451,0.69486c0,0.95508 -1.01226,1.43261 -3.03679,1.43261c-0.97795,0 -1.69855,-0.18015 -2.16179,-0.54045c-0.46324,-0.36601 -0.74919,-0.80924 -0.85785,-1.32967c-0.10866,-0.52615 -0.16299,-1.20671 -0.16299,-2.04168v-5.61892h-0.38603c-0.86929,0 -1.30393,-0.35458 -1.30393,-1.06373c0,-0.69772 0.45466,-1.04658 1.36398,-1.04658zM84.59791,231.25871c1.81292,0 3.23982,0.56047 4.28067,1.68139c1.04086,1.11521 1.56129,2.53638 1.56129,4.26352c0,1.73858 -0.52901,3.16547 -1.58702,4.28067c-1.0523,1.11521 -2.44774,1.67281 -4.18631,1.67281c-1.88727,0 -3.34276,-0.56332 -4.36646,-1.68997c-1.0237,-1.13236 -1.53555,-2.55353 -1.53555,-4.26352c0,-1.73286 0.51757,-3.15689 1.55271,-4.2721c1.04086,-1.11521 2.46775,-1.67281 4.28067,-1.67281zM84.59791,240.97815c0.88645,0 1.58703,-0.3317 2.10173,-0.9951c0.52043,-0.66912 0.78064,-1.5956 0.78064,-2.77943c0,-1.18384 -0.26021,-2.11032 -0.78064,-2.77944c-0.51471,-0.66912 -1.21529,-1.00369 -2.10173,-1.00369c-0.87501,0 -1.57272,0.33742 -2.09315,1.01227c-0.52043,0.66912 -0.78064,1.59274 -0.78064,2.77086c0,1.18956 0.25735,2.11603 0.77206,2.77943c0.52043,0.66341 1.22101,0.9951 2.10173,0.9951zM92.7239,240.73796v-7.50619c0,-1.31537 0.48326,-1.97306 1.44977,-1.97306c0.92076,0 1.39258,0.60622 1.41545,1.81865c0.60622,-1.21243 1.44405,-1.81865 2.5135,-1.81865c0.56618,0 1.14952,0.1487 1.75001,0.44608c0.60622,0.29167 0.90932,0.69486 0.90932,1.20957c0,0.3603 -0.12296,0.65769 -0.36888,0.89216c-0.2402,0.22876 -0.49755,0.34314 -0.77207,0.34314c-0.16013,0 -0.44608,-0.06291 -0.85785,-0.18873c-0.41177,-0.12582 -0.7549,-0.18873 -1.02942,-0.18873c-0.70344,0 -1.22673,0.35458 -1.56987,1.06373c-0.34314,0.70915 -0.51471,2.076 -0.51471,4.10052v1.68997c0,0.74347 -0.03146,1.24674 -0.09437,1.50982c-0.05719,0.25735 -0.21446,0.49184 -0.47181,0.70344c-0.25735,0.2116 -0.55474,0.31741 -0.89216,0.31741c-0.32027,0 -0.60908,-0.09437 -0.86643,-0.28309c-0.25735,-0.18873 -0.42321,-0.41177 -0.49755,-0.66912c-0.06863,-0.26307 -0.10294,-0.75205 -0.10294,-1.46692zM104.58154,234.30408c0,0.37745 0.19731,0.67484 0.59192,0.89216c0.39461,0.2116 1.27248,0.48611 2.6336,0.82354c2.65362,0.64053 3.98043,1.7443 3.98043,3.3113c0,1.2353 -0.44608,2.1818 -1.33824,2.83949c-0.89216,0.65769 -2.14463,0.98653 -3.75738,0.98653c-1.62992,0 -2.85664,-0.33456 -3.68018,-1.00369c-0.82354,-0.67484 -1.2353,-1.38685 -1.2353,-2.13605c0,-0.32027 0.11438,-0.59478 0.34314,-0.82354c0.22876,-0.22876 0.50899,-0.34314 0.84069,-0.34314c0.45752,0 0.85785,0.28595 1.20099,0.85785c0.38889,0.62909 0.81496,1.04658 1.2782,1.25246c0.46324,0.20017 0.96079,0.30025 1.49266,0.30025c0.58334,0 1.05802,-0.12868 1.42403,-0.38603c0.37174,-0.26307 0.55761,-0.59477 0.55761,-0.9951c0,-0.36601 -0.15727,-0.68342 -0.47182,-0.95222c-0.30882,-0.2688 -1.1581,-0.56046 -2.54781,-0.87501c-1.38972,-0.32027 -2.40198,-0.76635 -3.03679,-1.33825c-0.63481,-0.57762 -0.95221,-1.2639 -0.95221,-2.05884c0,-0.89216 0.38603,-1.68138 1.1581,-2.36767c0.77778,-0.68628 1.9416,-1.02942 3.49145,-1.02942c1.42403,0 2.55639,0.28881 3.39709,0.86643c0.84641,0.57762 1.26962,1.17812 1.26962,1.80149c0,0.32598 -0.10866,0.60335 -0.32598,0.83211c-0.2116,0.22304 -0.50614,0.33456 -0.88359,0.33456c-0.56618,0 -1.07803,-0.32313 -1.53555,-0.96937c-0.4518,-0.65196 -1.13522,-0.97795 -2.05026,-0.97795c-0.49183,0 -0.92362,0.10008 -1.29536,0.30025c-0.36601,0.20017 -0.54902,0.48611 -0.54902,0.85785zM116.2097,231.25871c0.43464,0 0.80924,0.15727 1.12378,0.47182c0.31454,0.31454 0.47182,0.68914 0.47182,1.12378c0,0.4518 -0.15727,0.83783 -0.47182,1.1581c-0.31454,0.31454 -0.68914,0.47182 -1.12378,0.47182c-0.4518,0 -0.83783,-0.15727 -1.1581,-0.47182c-0.31454,-0.32027 -0.47182,-0.70629 -0.47182,-1.1581c0,-0.43464 0.15727,-0.80924 0.47182,-1.12378c0.32027,-0.31454 0.70629,-0.47182 1.1581,-0.47182zM116.2097,239.93158c0.43464,0 0.80924,0.15727 1.12378,0.47181c0.31454,0.31454 0.47182,0.68914 0.47182,1.12378c0,0.44608 -0.15727,0.82926 -0.47182,1.14952c-0.31454,0.32027 -0.68914,0.4804 -1.12378,0.4804c-0.4518,0 -0.83783,-0.15727 -1.1581,-0.47182c-0.31454,-0.32027 -0.47182,-0.7063 -0.47182,-1.1581c0,-0.43464 0.15727,-0.80924 0.47182,-1.12378c0.32027,-0.31454 0.70629,-0.47181 1.1581,-0.47181z" stroke-linecap="square"/><path d="M9.52528,282.38249v10.19126c0,0.65769 -0.03145,1.12378 -0.09436,1.3983c-0.06291,0.2688 -0.22304,0.51471 -0.4804,0.73775c-0.25735,0.21732 -0.56332,0.32599 -0.9179,0.32599c-0.3603,0 -0.67198,-0.10008 -0.93506,-0.30025c-0.25735,-0.20588 -0.41462,-0.44895 -0.47181,-0.72917c-0.05147,-0.28595 -0.07721,-0.76349 -0.07721,-1.43261v-11.40083c0,-0.70915 0.12582,-1.24102 0.37746,-1.5956c0.25164,-0.35458 0.79494,-0.53187 1.62992,-0.53187h0.96937c0.84641,0 1.38686,0.11724 1.62134,0.35172c0.23448,0.23448 0.47468,0.81782 0.7206,1.75001l2.29046,8.61282l2.25614,-8.61282c0.24592,-0.92648 0.48612,-1.50696 0.7206,-1.74144c0.23448,-0.2402 0.77778,-0.36029 1.62992,-0.36029h0.96937c0.74919,0 1.26962,0.14583 1.56129,0.4375c0.29167,0.29167 0.4375,0.85499 0.4375,1.68996v11.40083c0,0.66912 -0.02573,1.13808 -0.0772,1.40688c-0.04575,0.2688 -0.20016,0.51185 -0.46324,0.72917c-0.25735,0.21732 -0.56904,0.32599 -0.93506,0.32599c-0.31454,0 -0.60621,-0.0915 -0.87501,-0.27451c-0.2688,-0.18301 -0.44037,-0.41749 -0.51471,-0.70344c-0.06863,-0.29167 -0.10294,-0.78636 -0.10294,-1.48408v-10.19126l-2.47919,10.0197c-0.29739,1.20099 -0.59764,1.9416 -0.90075,2.22183c-0.30311,0.27451 -0.71202,0.41177 -1.22672,0.41177c-0.60049,0 -1.04372,-0.17157 -1.32967,-0.51471c-0.28023,-0.34314 -0.55761,-1.04943 -0.83212,-2.11889zM32.20255,293.38871c-1.39544,1.09805 -2.76228,1.64707 -4.10052,1.64707c-1.2639,0 -2.23613,-0.32027 -2.91669,-0.96079c-0.67484,-0.64625 -1.01226,-1.43261 -1.01226,-2.35909c0,-0.79494 0.22876,-1.43547 0.68628,-1.92159c0.46324,-0.49183 0.96651,-0.83497 1.50982,-1.02942c0.54331,-0.19445 1.42689,-0.41748 2.65075,-0.66912c1.22959,-0.25735 2.21897,-0.49184 2.96816,-0.70344c-0.00572,-0.88645 -0.18015,-1.48408 -0.52329,-1.79291c-0.34314,-0.31454 -0.86643,-0.47182 -1.56987,-0.47182c-1.32681,0 -2.19609,0.37174 -2.60786,1.11521c-0.22876,0.42321 -0.43179,0.72345 -0.60908,0.90074c-0.17729,0.17729 -0.43464,0.26594 -0.77207,0.26594c-0.30882,0 -0.58905,-0.10008 -0.84069,-0.30025c-0.24592,-0.20588 -0.36888,-0.46896 -0.36888,-0.78922c0,-0.76062 0.40891,-1.48122 1.22673,-2.16178c0.82354,-0.68056 2.11889,-1.02084 3.88606,-1.02084c1.79005,0 3.0997,0.30883 3.92895,0.92648c0.82925,0.61765 1.21815,1.86725 1.16668,3.7488l-0.06863,2.74512c-0.0286,0.84641 0.06005,1.53841 0.26594,2.076c0.20588,0.53759 0.30882,0.94936 0.30882,1.2353c0,0.30882 -0.13726,0.58048 -0.41177,0.81496c-0.2688,0.23448 -0.57476,0.35172 -0.9179,0.35172c-0.59478,0 -1.22101,-0.54902 -1.87869,-1.64707zM32.00525,289.15093c-0.43464,0.17157 -1.15524,0.35743 -2.16179,0.5576c-1.00083,0.20017 -1.70999,0.42893 -2.12747,0.68628c-0.41748,0.25735 -0.62623,0.63195 -0.62623,1.12378c0,0.42321 0.16585,0.79494 0.49755,1.11521c0.3317,0.32027 0.80066,0.4804 1.40687,0.4804c0.64625,0 1.24388,-0.17443 1.79291,-0.52329c0.55474,-0.35458 0.89503,-0.77493 1.02084,-1.26104c0.13154,-0.48611 0.19731,-1.21243 0.19731,-2.17894zM42.04424,290.72938l-2.14463,3.09684c-0.38317,0.54331 -0.68914,0.88072 -0.9179,1.01226c-0.22876,0.13154 -0.47182,0.19731 -0.72917,0.19731c-0.37174,0 -0.68628,-0.11438 -0.94363,-0.34314c-0.25164,-0.22876 -0.37745,-0.48897 -0.37745,-0.78064c0,-0.3317 0.20016,-0.77779 0.60049,-1.33825l2.65076,-3.80028l-2.35051,-3.16547c-0.40605,-0.54331 -0.60908,-0.98081 -0.60908,-1.31251c0,-0.33742 0.12296,-0.6148 0.36888,-0.83212c0.24592,-0.21732 0.56904,-0.32598 0.96937,-0.32598c0.33742,0 0.61479,0.09437 0.83211,0.28309c0.21732,0.18301 0.4804,0.48897 0.78922,0.9179l1.86153,2.59071l1.87869,-2.59071c0.38317,-0.54331 0.692,-0.87787 0.92648,-1.00369c0.23448,-0.13154 0.4804,-0.19731 0.73775,-0.19731c0.37745,0 0.68914,0.10866 0.93506,0.32598c0.25164,0.21732 0.37746,0.47182 0.37746,0.76349c0,0.34886 -0.20875,0.80924 -0.62623,1.38114l-2.35051,3.16547l2.62502,3.80028c0.42893,0.60049 0.64339,1.038 0.64339,1.31251c0,0.3317 -0.13154,0.60621 -0.39461,0.82353c-0.25735,0.21732 -0.5433,0.32599 -0.85785,0.32599c-0.60049,0 -1.18097,-0.40319 -1.74144,-1.20957zM51.23825,291.81027c0.43464,0 0.80924,0.15727 1.12378,0.47181c0.31454,0.31454 0.47182,0.68915 0.47182,1.12379c0,0.44608 -0.15727,0.82925 -0.47182,1.14952c-0.31454,0.32027 -0.68914,0.4804 -1.12378,0.4804c-0.4518,0 -0.83783,-0.15727 -1.1581,-0.47182c-0.31454,-0.32027 -0.47182,-0.70629 -0.47182,-1.1581c0,-0.43464 0.15727,-0.80924 0.47182,-1.12379c0.32027,-0.31454 0.70629,-0.47181 1.1581,-0.47181zM66.07263,288.6448v3.75738c0,1.16096 -0.15155,1.89013 -0.45466,2.18752c-0.29739,0.29739 -0.68056,0.44608 -1.14952,0.44608c-0.34886,0 -0.66341,-0.10008 -0.94363,-0.30025c-0.27451,-0.20017 -0.44608,-0.44608 -0.51471,-0.73776c-0.06291,-0.29167 -0.09436,-0.82353 -0.09436,-1.5956v-10.68024c0,-0.89788 0.06005,-1.50982 0.18015,-1.8358c0.1201,-0.3317 0.33742,-0.55474 0.65196,-0.66912c0.32027,-0.11438 0.79495,-0.17157 1.42404,-0.17157h3.84317c2.2876,0 3.83745,0.44322 4.64955,1.32967c0.8121,0.88645 1.21815,1.98735 1.21815,3.30272c0,3.3113 -1.9559,4.96695 -5.8677,4.96695zM68.243,281.50748h-2.17036v4.67528h2.17036c1.31537,0 2.21039,-0.21161 2.68507,-0.63481c0.4804,-0.42321 0.72059,-0.9951 0.72059,-1.7157c0,-0.51471 -0.13439,-0.97223 -0.40319,-1.37256c-0.26307,-0.40033 -0.62051,-0.65769 -1.07231,-0.77207c-0.4518,-0.1201 -1.09519,-0.18015 -1.93016,-0.18015zM80.26577,281.19008v11.42657c0,0.70344 -0.03432,1.18384 -0.10294,1.44119c-0.06291,0.25164 -0.2259,0.47754 -0.48897,0.6777c-0.26307,0.20017 -0.54902,0.30025 -0.85785,0.30025c-0.31454,0 -0.60908,-0.09722 -0.88359,-0.29167c-0.2688,-0.20017 -0.4375,-0.43178 -0.50613,-0.69486c-0.06291,-0.26307 -0.09436,-0.74062 -0.09436,-1.43261v-11.42657c0,-0.72059 0.03431,-1.20671 0.10294,-1.45835c0.06863,-0.25735 0.23162,-0.4804 0.48898,-0.66912c0.26307,-0.18873 0.54902,-0.28309 0.85785,-0.28309c0.3603,0 0.66913,0.10294 0.92648,0.30882c0.26307,0.20017 0.42035,0.44037 0.47181,0.7206c0.05719,0.27451 0.08579,0.73489 0.08579,1.38114zM90.68651,293.38871c-1.39544,1.09805 -2.76228,1.64707 -4.10052,1.64707c-1.2639,0 -2.23613,-0.32027 -2.91669,-0.96079c-0.67484,-0.64625 -1.01226,-1.43261 -1.01226,-2.35909c0,-0.79494 0.22875,-1.43547 0.68628,-1.92159c0.46324,-0.49183 0.96651,-0.83497 1.50982,-1.02942c0.54331,-0.19445 1.42689,-0.41748 2.65076,-0.66912c1.22959,-0.25735 2.21897,-0.49184 2.96816,-0.70344c-0.00572,-0.88645 -0.18015,-1.48408 -0.52329,-1.79291c-0.34314,-0.31454 -0.86643,-0.47182 -1.56987,-0.47182c-1.32681,0 -2.1961,0.37174 -2.60787,1.11521c-0.22876,0.42321 -0.43178,0.72345 -0.60907,0.90074c-0.17729,0.17729 -0.43464,0.26594 -0.77207,0.26594c-0.30882,0 -0.58906,-0.10008 -0.84069,-0.30025c-0.24592,-0.20588 -0.36888,-0.46896 -0.36888,-0.78922c0,-0.76062 0.40891,-1.48122 1.22673,-2.16178c0.82354,-0.68056 2.11889,-1.02084 3.88606,-1.02084c1.79005,0 3.0997,0.30883 3.92895,0.92648c0.82925,0.61765 1.21815,1.86725 1.16668,3.7488l-0.06863,2.74512c-0.0286,0.84641 0.06005,1.53841 0.26594,2.076c0.20588,0.53759 0.30882,0.94936 0.30882,1.2353c0,0.30882 -0.13726,0.58048 -0.41177,0.81496c-0.2688,0.23448 -0.57476,0.35172 -0.9179,0.35172c-0.59478,0 -1.22101,-0.54902 -1.87869,-1.64707zM90.48921,289.15093c-0.43464,0.17157 -1.15524,0.35743 -2.16179,0.5576c-1.00083,0.20017 -1.70999,0.42893 -2.12747,0.68628c-0.41748,0.25735 -0.62623,0.63195 -0.62623,1.12378c0,0.42321 0.16585,0.79494 0.49755,1.11521c0.3317,0.32027 0.80066,0.4804 1.40687,0.4804c0.64625,0 1.24388,-0.17443 1.79291,-0.52329c0.55474,-0.35458 0.89503,-0.77493 1.02084,-1.26104c0.13154,-0.48611 0.19731,-1.21243 0.19731,-2.17894zM99.31005,294.74412l-3.58582,-9.06748c-0.22304,-0.58906 -0.33456,-0.99225 -0.33456,-1.20957c0,-0.33742 0.14012,-0.64339 0.42035,-0.9179c0.28023,-0.27451 0.60908,-0.41177 0.98653,-0.41177c0.3317,0 0.61193,0.10294 0.84069,0.30883c0.23448,0.20017 0.46324,0.61479 0.68628,1.24388l2.47061,7.20595l2.35051,-6.68266c0.30882,-0.86929 0.55474,-1.43261 0.73775,-1.68997c0.18301,-0.25735 0.49469,-0.38603 0.93506,-0.38603c0.40033,0 0.71488,0.1344 0.94363,0.40319c0.23448,0.26307 0.35172,0.53473 0.35172,0.81496c0,0.3317 -0.11724,0.80066 -0.35172,1.40688l-3.81744,9.99396c-0.50899,1.33253 -1.03513,2.27044 -1.57844,2.81375c-0.54331,0.54331 -1.46692,0.81496 -2.77086,0.81496c-1.70426,0 -2.5564,-0.43464 -2.5564,-1.30393c0,-0.28595 0.09722,-0.52615 0.29167,-0.7206c0.19445,-0.18873 0.4518,-0.28309 0.77206,-0.28309c0.05147,0 0.21447,0.00858 0.48898,0.02573c0.28023,0.02287 0.44608,0.03431 0.49755,0.03431c0.54331,0 0.94078,-0.13154 1.19242,-0.39461c0.25735,-0.25735 0.50899,-0.70343 0.75491,-1.33824zM116.4113,289.8029h-5.74759c0.0286,1.08661 0.32598,1.90729 0.89216,2.46203c0.5719,0.55474 1.25247,0.83211 2.04169,0.83211c0.98367,0 1.90729,-0.42893 2.77086,-1.28677c0.34886,-0.3603 0.60621,-0.58334 0.77206,-0.66912c0.17157,-0.08579 0.3603,-0.12868 0.56618,-0.12868c0.26307,0 0.48898,0.08293 0.6777,0.24878c0.19445,0.16585 0.29167,0.36888 0.29167,0.60907c0,0.65769 -0.4518,1.34969 -1.3554,2.076c-0.89788,0.72631 -2.11603,1.08947 -3.65444,1.08947c-1.96162,0 -3.44856,-0.55189 -4.46082,-1.65565c-1.00655,-1.10377 -1.50982,-2.53637 -1.50982,-4.29783c0,-1.77289 0.50327,-3.2055 1.50982,-4.29783c1.01226,-1.09805 2.41914,-1.64707 4.22062,-1.64707c1.72714,0 3.05681,0.51757 3.989,1.55271c0.93792,1.03514 1.40688,2.16179 1.40688,3.37993c0,0.53187 -0.15727,0.95507 -0.47182,1.26962c-0.30882,0.30882 -0.95508,0.46324 -1.93874,0.46324zM110.6637,288.13867h5.32725c-0.03431,-0.97223 -0.30311,-1.71284 -0.80638,-2.22183c-0.49755,-0.50899 -1.11521,-0.76349 -1.85296,-0.76349c-1.54985,0 -2.43915,0.99511 -2.66791,2.98532zM121.26887,292.61665v-7.50619c0,-1.31537 0.48326,-1.97306 1.44977,-1.97306c0.92076,0 1.39258,0.60622 1.41545,1.81865c0.60622,-1.21243 1.44404,-1.81865 2.5135,-1.81865c0.56618,0 1.14952,0.1487 1.75002,0.44608c0.60622,0.29167 0.90932,0.69486 0.90932,1.20957c0,0.3603 -0.12296,0.65769 -0.36888,0.89216c-0.2402,0.22876 -0.49755,0.34314 -0.77206,0.34314c-0.16013,0 -0.44608,-0.06291 -0.85785,-0.18873c-0.41177,-0.12582 -0.75491,-0.18873 -1.02942,-0.18873c-0.70344,0 -1.22672,0.35458 -1.56986,1.06373c-0.34314,0.70915 -0.51471,2.076 -0.51471,4.10052v1.68997c0,0.74347 -0.03145,1.24674 -0.09436,1.50982c-0.05719,0.25735 -0.21447,0.49184 -0.47182,0.70344c-0.25735,0.2116 -0.55474,0.31741 -0.89216,0.31741c-0.32027,0 -0.60907,-0.09437 -0.86643,-0.28309c-0.25735,-0.18873 -0.42321,-0.41177 -0.49755,-0.66912c-0.06863,-0.26307 -0.10294,-0.75205 -0.10294,-1.46692zM133.12651,286.18277c0,0.37745 0.19731,0.67484 0.59192,0.89216c0.39461,0.2116 1.27248,0.48611 2.6336,0.82354c2.65362,0.64053 3.98043,1.7443 3.98043,3.3113c0,1.2353 -0.44608,2.1818 -1.33825,2.83949c-0.89216,0.65769 -2.14463,0.98653 -3.75738,0.98653c-1.62992,0 -2.85664,-0.33456 -3.68018,-1.00369c-0.82354,-0.67484 -1.2353,-1.38685 -1.2353,-2.13605c0,-0.32027 0.11438,-0.59478 0.34314,-0.82354c0.22876,-0.22876 0.50899,-0.34314 0.84069,-0.34314c0.45752,0 0.85785,0.28595 1.20099,0.85785c0.38889,0.62909 0.81496,1.04658 1.27819,1.25246c0.46324,0.20017 0.9608,0.30025 1.49266,0.30025c0.58334,0 1.05802,-0.12868 1.42403,-0.38603c0.37174,-0.26307 0.5576,-0.59477 0.5576,-0.9951c0,-0.36601 -0.15727,-0.68342 -0.47181,-0.95222c-0.30882,-0.2688 -1.1581,-0.56046 -2.54782,-0.87501c-1.38972,-0.32027 -2.40198,-0.76635 -3.03679,-1.33825c-0.63481,-0.57762 -0.95222,-1.2639 -0.95222,-2.05884c0,-0.89216 0.38603,-1.68139 1.1581,-2.36767c0.77778,-0.68628 1.9416,-1.02942 3.49145,-1.02942c1.42403,0 2.5564,0.28881 3.39709,0.86643c0.84641,0.57762 1.26962,1.17812 1.26962,1.80149c0,0.32598 -0.10866,0.60335 -0.32598,0.83211c-0.2116,0.22304 -0.50614,0.33456 -0.88359,0.33456c-0.56618,0 -1.07803,-0.32313 -1.53555,-0.96937c-0.4518,-0.65196 -1.13522,-0.97795 -2.05026,-0.97795c-0.49183,0 -0.92362,0.10008 -1.29536,0.30025c-0.36601,0.20017 -0.54902,0.48611 -0.54902,0.85785zM144.75468,283.1374c0.43464,0 0.80924,0.15727 1.12378,0.47182c0.31454,0.31454 0.47182,0.68914 0.47182,1.12378c0,0.4518 -0.15727,0.83783 -0.47182,1.1581c-0.31454,0.31454 -0.68914,0.47182 -1.12378,0.47182c-0.4518,0 -0.83783,-0.15727 -1.1581,-0.47182c-0.31454,-0.32027 -0.47181,-0.70629 -0.47181,-1.1581c0,-0.43464 0.15727,-0.80924 0.47181,-1.12378c0.32027,-0.31454 0.7063,-0.47182 1.1581,-0.47182zM144.75468,291.81027c0.43464,0 0.80924,0.15727 1.12378,0.47181c0.31454,0.31454 0.47182,0.68915 0.47182,1.12379c0,0.44608 -0.15727,0.82925 -0.47182,1.14952c-0.31454,0.32027 -0.68914,0.4804 -1.12378,0.4804c-0.4518,0 -0.83783,-0.15727 -1.1581,-0.47182c-0.31454,-0.32027 -0.47181,-0.70629 -0.47181,-1.1581c0,-0.43464 0.15727,-0.80924 0.47181,-1.12379c0.32027,-0.31454 0.7063,-0.47181 1.1581,-0.47181z" stroke-linecap="square"/><path d="M249.31591,294.94142c-1.00655,0 -1.91301,-0.23734 -2.71939,-0.71202c-0.80638,-0.47468 -1.4469,-1.16096 -1.92158,-2.05884c-0.47468,-0.9036 -0.71202,-1.9845 -0.71202,-3.24268c0,-0.92076 0.17443,-1.79863 0.52329,-2.6336c0.34886,-0.83497 0.83212,-1.62992 1.44977,-2.38482c0.61765,-0.75491 1.31251,-1.45263 2.08458,-2.09315c0.77778,-0.64625 1.58988,-1.23244 2.43629,-1.75859l1.7157,1.84438c-1.18384,0.52615 -2.1675,1.15524 -2.95101,1.88727c-0.7835,0.73203 -1.37828,1.47836 -1.78433,2.23899c-0.08052,0.153 -0.15388,0.30391 -0.22005,0.45274c0.14317,-0.14261 0.29373,-0.27351 0.45167,-0.39269c0.62909,-0.4804 1.46407,-0.72059 2.50493,-0.72059c0.73203,0 1.42689,0.20302 2.08458,0.60907c0.65769,0.40033 1.19527,0.9465 1.61276,1.6385c0.41748,0.68628 0.62623,1.4898 0.62623,2.41056c0,1.01226 -0.24877,1.88727 -0.74633,2.62502c-0.49755,0.73775 -1.13808,1.30393 -1.92159,1.69854c-0.7835,0.39461 -1.62134,0.59192 -2.5135,0.59192zM249.20438,292.65954c0.49755,0 0.94364,-0.1058 1.33825,-0.31741c0.40033,-0.2116 0.71773,-0.51471 0.95221,-0.90932c0.23448,-0.39461 0.35172,-0.86356 0.35172,-1.40687c0,-0.51471 -0.11724,-0.95793 -0.35172,-1.32967c-0.23448,-0.37174 -0.55474,-0.66055 -0.96079,-0.86643c-0.40033,-0.20588 -0.84356,-0.30882 -1.32967,-0.30882c-0.4804,0 -0.9179,0.10008 -1.31251,0.30025c-0.39461,0.19445 -0.71488,0.46038 -0.96079,0.7978c-0.2402,0.33742 -0.3603,0.70343 -0.3603,1.09804v0.43751c0,0.44036 0.11724,0.85213 0.35172,1.2353c0.23448,0.37745 0.55188,0.68342 0.95221,0.9179c0.40605,0.23448 0.84927,0.35172 1.32967,0.35172z" stroke-linecap="butt"/><path d="M208.52075,294.94142c-0.82354,0 -1.61276,-0.1487 -2.36767,-0.44608c-0.74919,-0.29739 -1.34397,-0.66626 -1.78433,-1.10663l1.33824,-1.99879c0.28023,0.32027 0.66341,0.5862 1.14952,0.7978c0.49183,0.2116 0.97223,0.31741 1.44119,0.31741c0.46896,0 0.88645,-0.10008 1.25246,-0.30025c0.36601,-0.20588 0.65483,-0.49183 0.86643,-0.85785c0.2116,-0.36601 0.31741,-0.7978 0.31741,-1.29536c0,-0.54331 -0.10008,-1.01798 -0.30025,-1.42403c-0.19445,-0.41177 -0.48898,-0.73489 -0.88359,-0.96937c-0.39461,-0.23448 -0.86929,-0.35172 -1.42403,-0.35172c-0.48611,0 -0.9465,0.06577 -1.38114,0.19731c-0.42893,0.13154 -0.89216,0.34314 -1.38971,0.63481h-0.02573v-7.86649h7.05153v2.46203h-4.85543v2.55038c0.14009,-0.02758 0.28307,-0.05131 0.42892,-0.0712c0.25735,-0.04003 0.51757,-0.06005 0.78064,-0.06005c0.9951,0 1.8358,0.22018 2.52208,0.66055c0.692,0.43464 1.21529,1.01798 1.56987,1.75001c0.3603,0.73203 0.54045,1.52984 0.54045,2.39341c0,0.93792 -0.21161,1.78433 -0.63481,2.53924c-0.42321,0.75491 -1.00083,1.35254 -1.73286,1.79291c-0.73203,0.43464 -1.55843,0.65197 -2.47919,0.65197z" stroke-linecap="butt"/><path d="M162.93226,291.38992l8.9817,-11.28931h0.04289v9.35057h1.80148v1.9559h-1.80148v3.36277h-2.57355v-3.37993zM169.38329,289.45118v-3.48434l-2.67661,3.48434z" stroke-linecap="butt"/><path d="M413.70021,294.81274c-0.87501,0 -1.68425,-0.15727 -2.42772,-0.47182c-0.73775,-0.31454 -1.38114,-0.78636 -1.93017,-1.41545c-0.54902,-0.62909 -0.97795,-1.40116 -1.28677,-2.3162c-0.30311,-0.91504 -0.45466,-1.96447 -0.45466,-3.14831c0,-1.2925 0.14583,-2.40198 0.4375,-3.32846c0.29167,-0.9322 0.7063,-1.69855 1.24389,-2.29904c0.54331,-0.60049 1.18955,-1.03514 1.93874,-1.30393c0.74919,-0.27451 1.57559,-0.41177 2.47919,-0.41177c0.86357,0 1.66423,0.16013 2.40198,0.4804c0.74347,0.31454 1.38972,0.78351 1.93874,1.40688c0.54902,0.61765 0.97509,1.384 1.2782,2.29904c0.30882,0.91504 0.46324,1.96734 0.46324,3.15689c0,1.21243 -0.15441,2.28188 -0.46324,3.20836c-0.30311,0.92076 -0.72917,1.68997 -1.2782,2.30762c-0.54902,0.61194 -1.19527,1.07231 -1.93874,1.38114c-0.73775,0.30311 -1.53841,0.45466 -2.40198,0.45466zM413.68305,292.37645c0.80638,0 1.46121,-0.21161 1.96448,-0.63481c0.50327,-0.42893 0.87501,-1.01798 1.1152,-1.76717c0.24592,-0.75491 0.36888,-1.61562 0.36888,-2.58213c0,-0.93792 -0.12296,-1.76718 -0.36888,-2.48777c-0.2402,-0.72631 -0.61193,-1.29822 -1.1152,-1.7157c-0.50327,-0.41748 -1.1581,-0.62051 -1.96448,-0.60907c-0.79494,-0.01144 -1.44977,0.19445 -1.96448,0.61765c-0.50899,0.42321 -0.88073,1.00082 -1.11521,1.73285c-0.23448,0.73203 -0.35172,1.57558 -0.35172,2.53066c0,0.9322 0.11724,1.77289 0.35172,2.52208c0.23448,0.74347 0.60622,1.32967 1.11521,1.75859c0.51471,0.42321 1.16954,0.63481 1.96448,0.63481z" stroke-linecap="butt"/><path d="M324.25995,288.21587c0.28023,-0.53759 0.63195,-0.98367 1.05516,-1.33825c0.42893,-0.3603 0.84069,-0.64339 1.2353,-0.84927c-0.38317,-0.29167 -0.70629,-0.63481 -0.96937,-1.02942c-0.26307,-0.39461 -0.39461,-0.91504 -0.39461,-1.56129c0,-0.64625 0.17157,-1.22101 0.51471,-1.72428c0.34314,-0.50327 0.81496,-0.89789 1.41545,-1.18384c0.60049,-0.28595 1.26676,-0.42892 1.99879,-0.42892c0.74919,0 1.41831,0.14297 2.00737,0.42892c0.59478,0.28595 1.07231,0.67199 1.43261,1.1581c0.3603,0.4804 0.54044,1.02656 0.54044,1.63849c0,0.70344 -0.13726,1.25246 -0.41177,1.64707c-0.2688,0.39461 -0.60049,0.74633 -0.9951,1.05516c0.40605,0.22304 0.81782,0.51471 1.2353,0.87501c0.41748,0.35458 0.76921,0.80066 1.05516,1.33824c0.28595,0.53187 0.42893,1.16954 0.42893,1.91301c0,0.83497 -0.23448,1.61847 -0.70344,2.35051c-0.46896,0.73203 -1.10377,1.32109 -1.90443,1.76717c-0.79494,0.44608 -1.69568,0.66913 -2.70223,0.66913c-1.01226,0 -1.91301,-0.22305 -2.70223,-0.66913c-0.78922,-0.44608 -1.41259,-1.03514 -1.87012,-1.76717c-0.4518,-0.73203 -0.6777,-1.51553 -0.6777,-2.35051c0,-0.76062 0.13726,-1.40688 0.41177,-1.93874zM326.82492,291.42423c0.2402,0.41748 0.55761,0.75205 0.95222,1.00369c0.39461,0.24592 0.83498,0.36888 1.32109,0.36888c0.50899,0 0.97223,-0.12296 1.38971,-0.36888c0.41748,-0.25164 0.74919,-0.5862 0.99511,-1.00369c0.25164,-0.41748 0.37745,-0.87501 0.37745,-1.37256c0,-0.49755 -0.1201,-0.95221 -0.36029,-1.36398c-0.2402,-0.41177 -0.55761,-0.74062 -0.95222,-0.98653c-0.39461,-0.25164 -0.84069,-0.38317 -1.33824,-0.39461c-0.48611,-0.01716 -0.93792,0.09722 -1.35541,0.34314c-0.41748,0.2402 -0.75491,0.56904 -1.01226,0.98653c-0.25164,0.41177 -0.37745,0.88359 -0.37745,1.41545c0,0.49755 0.1201,0.95508 0.36029,1.37256zM328.12886,284.75874c0.30882,0.27451 0.66055,0.41177 1.05516,0.41177c0.38317,0 0.72346,-0.13726 1.02084,-0.41177c0.29739,-0.28023 0.44608,-0.61765 0.44608,-1.01226c0,-0.42321 -0.14583,-0.78064 -0.4375,-1.07231c-0.29167,-0.29739 -0.63481,-0.44608 -1.02942,-0.44608c-0.39461,0 -0.74633,0.1487 -1.05516,0.44608c-0.30882,0.29167 -0.46324,0.64911 -0.46324,1.07231c0,0.39461 0.15441,0.73203 0.46324,1.01226z" stroke-linecap="butt"/><path d="M368.57541,290.11172c-0.71488,0 -1.40116,-0.19731 -2.05884,-0.59192c-0.65769,-0.39461 -1.19527,-0.94363 -1.61276,-1.64707c-0.41748,-0.70344 -0.62623,-1.50124 -0.62623,-2.39341c0,-1.09805 0.24306,-2.0331 0.72917,-2.80517c0.49183,-0.77778 1.13237,-1.37542 1.92159,-1.79291c0.79494,-0.41748 1.62992,-0.62623 2.50492,-0.62623c1.0237,0 1.93874,0.22305 2.74512,0.66913c0.80638,0.44608 1.44691,1.06373 1.92159,1.85295c0.47468,0.78922 0.71202,1.68997 0.71202,2.70223c0,1.15524 -0.2116,2.2104 -0.63481,3.16547c-0.42321,0.94936 -0.98653,1.80435 -1.68997,2.56497c-0.70344,0.76062 -1.48122,1.4612 -2.33335,2.10173c-0.84641,0.63481 -1.69283,1.22959 -2.53924,1.78433l-1.7157,-1.86153c1.20099,-0.5719 2.24757,-1.18955 3.13973,-1.85296c0.84551,-0.63413 1.51638,-1.27596 2.0126,-1.9255c-0.60132,0.43726 -1.4266,0.65589 -2.47584,0.65589zM369.54478,287.95852c0.76062,0 1.38972,-0.22876 1.88727,-0.68628c0.49755,-0.46324 0.74633,-1.03228 0.74633,-1.70712v-0.4375c0,-0.46896 -0.11724,-0.89503 -0.35172,-1.2782c-0.23448,-0.38889 -0.54902,-0.70344 -0.94363,-0.94363c-0.39461,-0.24592 -0.84069,-0.36888 -1.33825,-0.36888c-0.4804,0 -0.92362,0.11438 -1.32967,0.34314c-0.40033,0.22304 -0.71773,0.54045 -0.95221,0.95222c-0.23448,0.41177 -0.35172,0.89503 -0.35172,1.44977c0,0.55474 0.1201,1.03514 0.3603,1.44119c0.2402,0.40033 0.55761,0.7063 0.95222,0.9179c0.40033,0.2116 0.84069,0.31741 1.32109,0.31741z" stroke-linecap="butt"/><path d="M292.74269,280.27218l-5.64465,14.49767h-2.84807l4.78586,-12.03564h-5.88391v-2.46203z" stroke-linecap="butt"/><path d="M400.61283,280.27218h4.02332v14.49767h-2.57355v-12.03564h-1.44977z" stroke-linecap="butt"/><path d="M166.1476,227.51748h4.50846v16.24585h-2.88388v-13.48694h-1.62458z" stroke-linecap="square"/></g></g></svg>