<svg version="1.1" xmlns="http://www.w3.org/2000/svg" xmlns:xlink="http://www.w3.org/1999/xlink" width="70.33333" height="64" viewBox="0,0,70.33333,64"><defs><linearGradient x1="279.03511" y1="137.93952" x2="279.03511" y2="154.32146" gradientUnits="userSpaceOnUse" id="color-1"><stop offset="0" stop-color="#6297d1"/><stop offset="1" stop-color="#5482c4"/></linearGradient></defs><g transform="translate(-226.83334,-127)"><g data-paper-data="{&quot;isPaintingLayer&quot;:true}" fill-rule="nonzero" stroke-linejoin="miter" stroke-miterlimit="10" stroke-dasharray="" stroke-dashoffset="0" style="mix-blend-mode: normal"><path d="M272.52207,167.09124c-1.43525,0.68407 -3.97728,0.44327 -5.36669,-0.14941c-2.17893,-0.92948 -8.73473,-3.72601 -12.62184,-5.38414c-1.76863,-0.75445 -2.3788,-2.76331 0.25065,-4.0182c1.6513,-0.78808 5.05359,-2.47844 7.95861,-3.99603c1.31718,-0.6881 2.54413,-1.35266 3.39884,-1.82107c0.73919,-0.40509 1.25887,-1.10384 1.3602,-1.81113c0.30941,-2.15978 1.01434,-6.8084 1.64517,-9.00668c0.38992,-1.35881 0.84808,-3.17067 1.52798,-4.44448c0.48551,-0.90961 1.13472,-2.11557 3.59748,-2.24273c3.04678,-0.15731 4.37542,0.8488 7.61117,1.77516c3.43869,0.98447 7.3612,3.28218 7.3612,3.28218c0,0 2.21402,1.01309 2.03019,4.08649c-0.07758,1.29718 -0.26989,2.83678 -0.49219,4.01316c-0.50994,2.6985 -1.55359,8.61058 -1.97463,11.00426c-0.11381,0.64696 -0.88622,1.3725 -1.63648,1.7301c-1.0075,0.4802 -3.55392,2.27251 -6.6314,3.73934c-2.76914,1.31986 -6.02397,2.29263 -8.01826,3.24317z" data-paper-data="{&quot;index&quot;:null}" fill="none" stroke="#ffffff" stroke-width="7" stroke-linecap="butt"/><path d="M272.22936,167.38396c-1.43525,0.68407 -3.97728,0.44327 -5.36669,-0.14941c-2.17893,-0.92948 -8.73473,-3.72601 -12.62184,-5.38414c-1.76863,-0.75445 -2.3788,-2.76331 0.25065,-4.0182c1.6513,-0.78808 5.05359,-2.47844 7.95861,-3.99603c1.31718,-0.6881 2.54413,-1.35266 3.39884,-1.82107c0.73919,-0.40509 1.25887,-1.10384 1.3602,-1.81113c0.30941,-2.15978 1.01434,-6.8084 1.64517,-9.00668c0.38992,-1.35881 0.84808,-3.17067 1.52798,-4.44448c0.48551,-0.90961 1.13472,-2.11557 3.59748,-2.24273c3.04678,-0.15731 4.37542,0.8488 7.61117,1.77516c3.43869,0.98447 5.8608,2.28985 7.3612,3.28218c1.2771,0.84464 2.06766,1.01309 1.88383,4.08649c-0.07758,1.29718 -0.12353,2.83678 -0.34583,4.01316c-0.50994,2.6985 -1.55359,8.61058 -1.97463,11.00426c-0.11381,0.64696 -0.88622,1.3725 -1.63648,1.7301c-1.0075,0.4802 -3.55392,2.27251 -6.6314,3.73934c-2.76914,1.31986 -6.02397,2.29263 -8.01826,3.24317z" data-paper-data="{&quot;index&quot;:null}" fill="#a2b2ba" stroke="none" stroke-width="0" stroke-linecap="butt"/><path d="M267.09555,151.71422l20.49052,8.34257" data-paper-data="{&quot;index&quot;:null}" fill="none" stroke="#303030" stroke-width="2" stroke-linecap="round"/><path d="M264.16833,153.03145l20.19358,8.36288" data-paper-data="{&quot;index&quot;:null}" fill="none" stroke="#546368" stroke-width="3" stroke-linecap="round"/><path d="M286.63023,147.19585c-0.53994,1.97183 -0.95153,5.54162 -0.95153,5.54162c-0.61356,2.04117 -2.09477,1.65547 -3.06213,1.30012c-1.2223,-0.44901 -3.71482,-1.48708 -6.55568,-2.53067c-1.55466,-0.5711 -3.24131,-1.14938 -4.38232,-1.5339c-0.82375,-0.27759 -0.963,-1.25357 -0.73785,-2.09276c0.39127,-1.45837 1.51403,-6.33513 2.17925,-8.81454c0.25057,-0.93393 1.22688,-1.29694 2.0178,-1.05176c1.58627,0.49174 10.6903,3.89944 10.6903,3.89944c0,0 1.80689,0.90197 1.31204,2.33457c-0.23432,0.86484 -0.22323,1.90101 -0.50989,2.94788z" data-paper-data="{&quot;index&quot;:null}" fill="url(#color-1)" stroke="#2c3233" stroke-width="1.5" stroke-linecap="butt"/><path d="M286.63023,147.19585c-0.53994,1.97183 -0.95153,5.54162 -0.95153,5.54162c-0.61356,2.04117 -2.09477,1.65547 -3.06213,1.30012c-1.2223,-0.44901 -3.71482,-1.48708 -6.55568,-2.53067c-1.55466,-0.5711 -3.24131,-1.14938 -4.38232,-1.5339c-0.82375,-0.27759 -0.963,-1.25357 -0.73785,-2.09276c0.39127,-1.45837 1.51403,-6.33513 2.17925,-8.81454c0.25057,-0.93393 1.22688,-1.29694 2.0178,-1.05176c1.58627,0.49174 10.6903,3.89944 10.6903,3.89944c0,0 1.80689,0.90197 1.31204,2.33457c-0.23432,0.86484 -0.22323,1.90101 -0.50989,2.94788z" data-paper-data="{&quot;index&quot;:null}" fill="none" stroke="#2c3233" stroke-width="1.5" stroke-linecap="butt"/><path d="M280.24761,164.14081c-2.76914,1.31986 -8.01826,3.24316 -8.01826,3.24316c-1.43525,0.68407 -3.97728,0.44327 -5.36669,-0.14941c-2.17893,-0.92948 -8.73473,-3.72601 -12.62184,-5.38414c-1.76863,-0.75445 -2.3788,-2.76331 0.25065,-4.0182c1.6513,-0.78808 5.05359,-2.47844 7.95861,-3.99603c1.31718,-0.6881 2.54413,-1.35266 3.39884,-1.82107c0.73919,-0.40509 1.25887,-1.10384 1.3602,-1.81113c0.30941,-2.15978 1.01434,-6.8084 1.64517,-9.00668c0.38992,-1.35881 0.84808,-3.17067 1.52798,-4.44448c0.2055,-0.385 0.40299,-1.24879 1.34216,-1.99222c0.19879,-0.15736 1.16235,-0.5565 1.5772,-0.54135c1.9469,0.07109 6.27944,1.07726 8.28929,2.06599c3.43869,0.98447 7.3612,3.28218 7.3612,3.28218c0,0 2.36038,1.01309 2.17655,4.08649c-0.07758,1.29718 -0.41625,2.83678 -0.63855,4.01316c-0.50994,2.6985 -1.55359,8.61058 -1.97463,11.00426c-0.11381,0.64696 -0.88622,1.3725 -1.63648,1.7301c-1.0075,0.4802 -3.55392,2.27251 -6.6314,3.73934z" data-paper-data="{&quot;index&quot;:null}" fill="none" stroke="#000000" stroke-width="3" stroke-linecap="butt"/><path d="M226.83335,191v-64h70.33333v64z" fill="none" stroke="none" stroke-width="NaN" stroke-linecap="butt"/></g></g></svg>