<svg version="1.1" xmlns="http://www.w3.org/2000/svg" xmlns:xlink="http://www.w3.org/1999/xlink" width="139.30282" height="38.63049" viewBox="0,0,139.30282,38.63049"><g transform="translate(-170.34861,-160.68479)"><g data-paper-data="{&quot;isPaintingLayer&quot;:true}" fill-rule="nonzero" stroke-linejoin="miter" stroke-miterlimit="10" stroke-dasharray="" stroke-dashoffset="0" style="mix-blend-mode: normal"><path d="M175.59861,191.29186c0,-6.09093 0,-20.31716 0,-23.11191c0,-0.91205 0.83323,-2.24516 2.04028,-2.24516c3.81375,0 24.93773,0 48.88177,0c30.84112,0 66.36093,0 75.59434,0c1.48164,0 2.28643,1.30927 2.28643,2.64136c0,3.14265 0,16.21313 0,22.3195c0,1.93416 -0.92569,3.16963 -2.61925,3.16963c-17.3663,0 -115.47439,0 -124.14329,0c-1.20705,0 -2.04028,-1.06771 -2.04028,-2.77343z" fill="#000000" stroke="#000000" stroke-width="10.5" stroke-linecap="butt"/><path d="M175.59861,191.29186c0,-6.09093 0,-20.31716 0,-23.11191c0,-0.91205 0.83323,-2.24516 2.04028,-2.24516c8.72604,0 108.07418,0 124.4761,0c1.48164,0 2.28643,1.30927 2.28643,2.64136c0,3.14265 0,16.21313 0,22.3195c0,1.93416 -0.92569,3.16963 -2.61925,3.16963c-17.3663,0 -115.47439,0 -124.14329,0c-1.20705,0 -2.04028,-1.06771 -2.04028,-2.77343z" fill="#000000" stroke="#00f000" stroke-width="5.5" stroke-linecap="butt"/><path d="M175.59861,191.29186c0,-6.09093 0,-20.31716 0,-23.11191c0,-0.91205 0.83323,-2.24516 2.04028,-2.24516c8.72604,0 108.07418,0 124.4761,0c1.48164,0 2.28643,1.30927 2.28643,2.64136c0,3.14265 0,16.21313 0,22.3195c0,1.93416 -0.92569,3.16963 -2.61925,3.16963c-17.3663,0 -115.47439,0 -124.14329,0c-1.20705,0 -2.04028,-1.06771 -2.04028,-2.77343z" fill="#000000" stroke="none" stroke-width="0" stroke-linecap="butt"/><path d="M206.17917,181.03112v3.95329c0,0.5603 -0.02594,0.98832 -0.07782,1.28404c-0.04669,0.29573 -0.17899,0.55512 -0.39689,0.77821c-0.21789,0.21789 -0.55253,0.32685 -1.00389,0.32685c-0.43579,0 -0.77821,-0.14268 -1.02723,-0.42802c-0.24384,-0.29053 -0.36575,-0.94423 -0.36575,-1.96108v-9.68866c0,-0.83008 0.05706,-1.3878 0.17121,-1.67314c0.11933,-0.28534 0.32684,-0.48249 0.62256,-0.59143c0.30091,-0.10895 0.84046,-0.16342 1.61867,-0.16342h4.03889c1.09986,0 1.99481,0.11413 2.68482,0.3424c0.6952,0.22308 1.28144,0.66148 1.75875,1.31517c0.48249,0.64851 0.72373,1.41115 0.72373,2.28793c0,2.10635 -1.2114,3.39816 -3.63422,3.87546c0.95979,0.53437 1.84695,1.48377 2.66146,2.84823c0.81452,1.36446 1.22179,2.25681 1.22179,2.67703c0,0.30091 -0.13229,0.57068 -0.39688,0.80934c-0.26459,0.23346 -0.60181,0.3502 -1.01167,0.3502c-0.30091,0 -0.58365,-0.0908 -0.84824,-0.27238c-0.2594,-0.18677 -0.64851,-0.70817 -1.16731,-1.5642l-1.17509,-1.92994c-0.66925,-1.09986 -1.22697,-1.80285 -1.67315,-2.10895c-0.44618,-0.31128 -1.01685,-0.46693 -1.71205,-0.46693zM208.86398,175.10119h-2.68481v3.87547h2.58364c1.214,0 2.05446,-0.1738 2.52139,-0.52139c0.47212,-0.35279 0.70817,-0.84564 0.70817,-1.47859c0,-0.47212 -0.13489,-0.86381 -0.40467,-1.17509c-0.26459,-0.31128 -0.56549,-0.50583 -0.90272,-0.58365c-0.33722,-0.07782 -0.94422,-0.11674 -1.821,-0.11674zM224.86584,182.62645h-5.21398c0.02594,0.98573 0.29573,1.73022 0.80934,2.23346c0.5188,0.50324 1.13618,0.75486 1.85213,0.75486c0.89235,0 1.73022,-0.38911 2.51361,-1.16731c0.31646,-0.32684 0.54994,-0.52918 0.70039,-0.607c0.15563,-0.07782 0.32685,-0.11673 0.51362,-0.11673c0.23865,0 0.44358,0.07522 0.61478,0.22568c0.1764,0.15045 0.26459,0.33463 0.26459,0.55253c0,0.59662 -0.40985,1.22438 -1.22957,1.88326c-0.81452,0.65888 -1.91958,0.98833 -3.31517,0.98833c-1.77949,0 -3.12839,-0.50065 -4.04667,-1.50194c-0.91309,-1.00129 -1.36964,-2.3009 -1.36964,-3.89882c0,-1.60829 0.45654,-2.90789 1.36964,-3.89881c0.91828,-0.9961 2.19454,-1.49416 3.82877,-1.49416c1.5668,0 2.77301,0.46953 3.61866,1.40856c0.85084,0.93903 1.27625,1.96108 1.27625,3.06613c0,0.48249 -0.14267,0.8664 -0.42801,1.15174c-0.28016,0.28016 -0.8664,0.42023 -1.75875,0.42023zM219.65186,181.11672h4.83266c-0.03113,-0.88197 -0.27497,-1.55381 -0.73152,-2.01555c-0.45136,-0.46174 -1.01167,-0.69261 -1.68093,-0.69261c-1.40596,0 -2.2127,0.90272 -2.42022,2.70816zM229.69266,176.81324v-0.77821c0,-1.35926 0.28016,-2.26718 0.84046,-2.72371c0.56549,-0.45655 1.37483,-0.68483 2.42801,-0.68483c1.6861,0 2.52917,0.37872 2.52917,1.13618c0,0.23346 -0.08042,0.44098 -0.24124,0.62257c-0.16082,0.18158 -0.37354,0.27238 -0.63813,0.27238c-0.05188,0 -0.22309,-0.01816 -0.51362,-0.05447c-0.28534,-0.04151 -0.45136,-0.06226 -0.49805,-0.06226c-0.37355,0 -0.67704,0.09857 -0.91051,0.29572c-0.22827,0.19195 -0.34241,0.63813 -0.34241,1.33851v0.63814h0.66926c1.00129,0 1.50194,0.31128 1.50194,0.93384c0,0.30091 -0.09599,0.53955 -0.28794,0.71595c-0.19195,0.1764 -0.59661,0.26459 -1.21399,0.26459h-0.66926v6.45132c0,0.49806 -0.02075,0.87678 -0.06225,1.13618c-0.04151,0.25421 -0.16082,0.49546 -0.35797,0.72374c-0.19195,0.22308 -0.49286,0.33463 -0.90272,0.33463c-0.42022,0 -0.74708,-0.13748 -0.98054,-0.41245c-0.23346,-0.27497 -0.3502,-0.869 -0.3502,-1.7821v-6.45133h-0.7393c-0.80934,0 -1.214,-0.32684 -1.214,-0.98054c0,-0.62257 0.44616,-0.93384 1.33851,-0.93384zM235.90664,185.17896v-6.8093c0,-1.19325 0.43839,-1.78988 1.31517,-1.78988c0.83528,0 1.26327,0.54993 1.28403,1.6498c0.54993,-1.09986 1.30998,-1.6498 2.28015,-1.6498c0.51361,0 1.0428,0.13489 1.58754,0.40467c0.54993,0.26459 0.8249,0.63035 0.8249,1.09727c0,0.32684 -0.11154,0.59662 -0.33463,0.80933c-0.21789,0.20752 -0.45136,0.31128 -0.70039,0.31128c-0.14527,0 -0.40467,-0.05707 -0.7782,-0.17121c-0.37355,-0.11414 -0.68482,-0.17121 -0.93384,-0.17121c-0.63813,0 -1.11284,0.32166 -1.42413,0.96497c-0.31128,0.64331 -0.46692,1.88326 -0.46692,3.71983v1.53307c0,0.67444 -0.02853,1.131 -0.08561,1.36965c-0.05188,0.23346 -0.19455,0.44618 -0.42801,0.63813c-0.23346,0.19195 -0.50324,0.28793 -0.80934,0.28793c-0.29053,0 -0.55253,-0.0856 -0.78599,-0.25681c-0.23346,-0.17121 -0.38392,-0.37354 -0.45136,-0.607c-0.06225,-0.23865 -0.09338,-0.68223 -0.09338,-1.33073zM252.06414,182.62645h-5.21398c0.02594,0.98573 0.29573,1.73022 0.80934,2.23346c0.5188,0.50324 1.13619,0.75486 1.85214,0.75486c0.89235,0 1.7302,-0.38911 2.5136,-1.16731c0.31646,-0.32684 0.54994,-0.52918 0.70039,-0.607c0.15563,-0.07782 0.32685,-0.11673 0.51362,-0.11673c0.23865,0 0.44358,0.07522 0.61478,0.22568c0.1764,0.15045 0.26459,0.33463 0.26459,0.55253c0,0.59662 -0.40985,1.22438 -1.22957,1.88326c-0.81452,0.65888 -1.91957,0.98833 -3.31516,0.98833c-1.77949,0 -3.12839,-0.50065 -4.04667,-1.50194c-0.91309,-1.00129 -1.36964,-2.3009 -1.36964,-3.89882c0,-1.60829 0.45655,-2.90789 1.36964,-3.89881c0.91828,-0.9961 2.19454,-1.49416 3.82878,-1.49416c1.5668,0 2.77301,0.46953 3.61866,1.40856c0.85084,0.93903 1.27625,1.96108 1.27625,3.06613c0,0.48249 -0.14268,0.8664 -0.42802,1.15174c-0.28016,0.28016 -0.8664,0.42023 -1.75875,0.42023zM246.85016,181.11672h4.83266c-0.03113,-0.88197 -0.27497,-1.55381 -0.73152,-2.01555c-0.45136,-0.46174 -1.01167,-0.69261 -1.68093,-0.69261c-1.40596,0 -2.21269,0.90272 -2.42022,2.70816zM258.50187,179.34241c0,0.34241 0.17899,0.61219 0.53697,0.80934c0.35797,0.19195 1.15433,0.44098 2.38909,0.74707c2.40724,0.58106 3.61088,1.58236 3.61088,3.00388c0,1.12062 -0.40466,1.97923 -1.214,2.57586c-0.80934,0.59662 -1.94552,0.89494 -3.40855,0.89494c-1.47859,0 -2.59143,-0.3035 -3.33851,-0.9105c-0.74708,-0.61219 -1.12063,-1.25809 -1.12063,-1.93773c0,-0.29053 0.10377,-0.53956 0.31128,-0.74707c0.20752,-0.20752 0.46173,-0.31128 0.76264,-0.31128c0.41505,0 0.77822,0.2594 1.0895,0.7782c0.35278,0.57068 0.7393,0.94942 1.15953,1.13619c0.42023,0.18158 0.8716,0.27237 1.35408,0.27237c0.52918,0 0.95979,-0.11673 1.29182,-0.3502c0.33722,-0.23865 0.50583,-0.53956 0.50583,-0.90272c0,-0.33204 -0.14268,-0.61997 -0.42801,-0.86381c-0.28015,-0.24384 -1.05058,-0.50843 -2.31128,-0.79377c-1.26069,-0.29053 -2.17899,-0.69521 -2.75487,-1.21401c-0.57587,-0.524 -0.86381,-1.14656 -0.86381,-1.86769c0,-0.80934 0.35019,-1.52529 1.05059,-2.14785c0.70558,-0.62257 1.76134,-0.93385 3.1673,-0.93385c1.29182,0 2.31906,0.26199 3.0817,0.78599c0.76783,0.524 1.15175,1.06874 1.15175,1.63423c0,0.29573 -0.09857,0.54734 -0.29572,0.75487c-0.19196,0.20234 -0.45914,0.30349 -0.80156,0.30349c-0.51362,0 -0.97795,-0.29313 -1.39299,-0.87937c-0.40985,-0.59143 -1.02982,-0.88716 -1.85991,-0.88716c-0.44617,0 -0.83787,0.09079 -1.17509,0.27237c-0.33203,0.18158 -0.49805,0.44099 -0.49805,0.77821zM276.69239,180.67315v4.84044c0,1.23995 -0.45135,1.85991 -1.35407,1.85991c-0.40467,0 -0.72113,-0.12971 -0.94941,-0.38911c-0.22827,-0.26459 -0.34242,-0.75487 -0.34242,-1.47082v-4.24122c0,-1.00129 -0.16082,-1.68871 -0.48248,-2.06224c-0.32166,-0.37355 -0.76783,-0.5603 -1.33852,-0.5603c-0.50324,0 -0.94162,0.14008 -1.31516,0.42023c-0.37352,0.27497 -0.63811,0.61738 -0.79375,1.02723c-0.15564,0.40985 -0.23346,1.12581 -0.23346,2.14785v3.07391c0,0.83008 -0.11932,1.38002 -0.35797,1.6498c-0.23347,0.26978 -0.56031,0.40467 -0.98054,0.40467c-0.40985,0 -0.73151,-0.12971 -0.96497,-0.38911c-0.23347,-0.26459 -0.35019,-0.80674 -0.35019,-1.62645v-10.54469c0,-0.63813 0.03113,-1.0817 0.09338,-1.33073c0.06225,-0.25421 0.20234,-0.45915 0.42023,-0.61478c0.22309,-0.16082 0.48248,-0.24125 0.77821,-0.24125c0.33722,0 0.61739,0.0908 0.84047,0.27238c0.22309,0.18158 0.36575,0.41763 0.42801,0.70816c0.06225,0.28534 0.09339,0.76265 0.09339,1.4319v3.14396c0.88714,-1.06874 1.96623,-1.60311 3.2373,-1.60311c1.07392,0 1.93773,0.32945 2.59143,0.98832c0.6537,0.65369 0.98054,1.6887 0.98054,3.10504z" fill="#00f000" stroke="none" stroke-width="1" stroke-linecap="square"/></g></g></svg>