<svg version="1.1" xmlns="http://www.w3.org/2000/svg" xmlns:xlink="http://www.w3.org/1999/xlink" width="139.30282" height="38.63049" viewBox="0,0,139.30282,38.63049"><g transform="translate(-170.34859,-160.68475)"><g data-paper-data="{&quot;isPaintingLayer&quot;:true}" fill-rule="nonzero" stroke-linejoin="miter" stroke-miterlimit="10" stroke-dasharray="" stroke-dashoffset="0" style="mix-blend-mode: normal"><path d="M175.5986,191.29183c0,-6.09093 0,-20.31716 0,-23.11191c0,-0.91205 0.83323,-2.24516 2.04028,-2.24516c3.81375,0 24.93773,0 48.88177,0c30.84112,0 66.36093,0 75.59434,0c1.48164,0 2.28643,1.30927 2.28643,2.64136c0,3.14265 0,16.21313 0,22.3195c0,1.93416 -0.92569,3.16963 -2.61925,3.16963c-17.3663,0 -115.47439,0 -124.14329,0c-1.20705,0 -2.04028,-1.06771 -2.04028,-2.77343z" fill="#000000" stroke="#000000" stroke-width="10.5" stroke-linecap="butt"/><path d="M175.5986,191.29183c0,-6.09093 0,-20.31716 0,-23.11191c0,-0.91205 0.83323,-2.24516 2.04028,-2.24516c8.72604,0 108.07418,0 124.4761,0c1.48164,0 2.28643,1.30927 2.28643,2.64136c0,3.14265 0,16.21313 0,22.3195c0,1.93416 -0.92569,3.16963 -2.61925,3.16963c-17.3663,0 -115.47439,0 -124.14329,0c-1.20705,0 -2.04028,-1.06771 -2.04028,-2.77343z" fill="#000000" stroke="#ffffff" stroke-width="5.5" stroke-linecap="butt"/><path d="M175.5986,191.29183c0,-6.09093 0,-20.31716 0,-23.11191c0,-0.91205 0.83323,-2.24516 2.04028,-2.24516c8.72604,0 108.07418,0 124.4761,0c1.48164,0 2.28643,1.30927 2.28643,2.64136c0,3.14265 0,16.21313 0,22.3195c0,1.93416 -0.92569,3.16963 -2.61925,3.16963c-17.3663,0 -115.47439,0 -124.14329,0c-1.20705,0 -2.04028,-1.06771 -2.04028,-2.77343z" fill="#000000" stroke="none" stroke-width="0" stroke-linecap="butt"/><path d="M222.42418,187.17875h-3.72058c-0.86161,0 -1.44123,-0.06527 -1.73888,-0.19582c-0.29765,-0.13055 -0.49085,-0.33681 -0.57963,-0.61879c-0.08877,-0.2872 -0.13316,-0.82505 -0.13316,-1.61356v-9.48551c0,-0.85116 0.06266,-1.42035 0.18799,-1.70755c0.12532,-0.29243 0.33159,-0.48824 0.61879,-0.58746c0.29243,-0.09921 0.84072,-0.14882 1.64489,-0.14882h3.97906c1.14881,0 2.02869,0.12532 2.63965,0.37597c0.61096,0.24543 1.13053,0.65534 1.55873,1.22975c0.42819,0.57441 0.64229,1.24019 0.64229,1.99736c0,1.44645 -0.71801,2.49866 -2.15402,3.15662c1.87465,0.53263 2.81197,1.69972 2.81197,3.50126c0,0.87205 -0.24282,1.6475 -0.72845,2.32634c-0.48041,0.67884 -1.0992,1.14359 -1.85637,1.39424c-0.75717,0.25065 -1.8146,0.37597 -3.17228,0.37597zM219.14224,175.06926v3.58742h2.70231c1.14881,0 1.90598,-0.16971 2.27151,-0.50913c0.37075,-0.34464 0.55613,-0.79111 0.55613,-1.33941c0,-0.54307 -0.19582,-0.96865 -0.58746,-1.27675c-0.39164,-0.30809 -1.24019,-0.46213 -2.54566,-0.46213zM222.20485,180.90469h-3.06262v4.03389h3.16445c1.10181,0 1.8642,-0.18277 2.28718,-0.5483c0.42297,-0.36553 0.63446,-0.86683 0.63446,-1.5039c0,-0.61096 -0.21932,-1.09398 -0.65795,-1.44907c-0.43342,-0.35509 -1.22192,-0.53263 -2.3655,-0.53263zM237.28495,185.91767c-1.27413,1.0026 -2.52216,1.5039 -3.74407,1.5039c-1.15403,0 -2.04175,-0.29243 -2.66315,-0.87727c-0.61618,-0.59007 -0.92427,-1.30808 -0.92427,-2.15402c0,-0.72584 0.20887,-1.31069 0.62662,-1.75455c0.42297,-0.44908 0.88249,-0.76239 1.37857,-0.93994c0.49608,-0.17754 1.30286,-0.3812 2.42033,-0.61096c1.1227,-0.23498 2.02608,-0.44908 2.71015,-0.64229c-0.00522,-0.80939 -0.16449,-1.35507 -0.4778,-1.63705c-0.31331,-0.2872 -0.79111,-0.4308 -1.4334,-0.4308c-1.21147,0 -2.00519,0.33942 -2.38117,1.01826c-0.20887,0.38642 -0.39425,0.66057 -0.55613,0.82244c-0.16188,0.16188 -0.39686,0.24282 -0.70495,0.24282c-0.28198,0 -0.53785,-0.09138 -0.76761,-0.27415c-0.22454,-0.18799 -0.33681,-0.42819 -0.33681,-0.72062c0,-0.69451 0.37336,-1.35246 1.12009,-1.97386c0.75195,-0.6214 1.9347,-0.9321 3.54825,-0.9321c1.63444,0 2.83025,0.28198 3.58742,0.84594c0.75717,0.56396 1.11226,1.70494 1.06526,3.42293l-0.06266,2.50649c-0.02611,0.77283 0.05483,1.40468 0.24282,1.89554c0.18799,0.49085 0.28198,0.86683 0.28198,1.12792c0,0.28198 -0.12532,0.53002 -0.37597,0.74412c-0.24543,0.2141 -0.5248,0.32114 -0.83811,0.32114c-0.54307,0 -1.11487,-0.5013 -1.71538,-1.5039zM237.10479,182.04828c-0.39686,0.15666 -1.05482,0.32637 -1.97386,0.50913c-0.91382,0.18277 -1.56134,0.39164 -1.94253,0.62662c-0.3812,0.23498 -0.57179,0.57701 -0.57179,1.0261c0,0.38642 0.15143,0.72584 0.4543,1.01826c0.30287,0.29243 0.73106,0.43864 1.28458,0.43864c0.59007,0 1.13575,-0.15927 1.63705,-0.4778c0.50652,-0.32376 0.81722,-0.70756 0.9321,-1.15142c0.1201,-0.44386 0.18015,-1.10704 0.18015,-1.98953zM250.89247,182.94905c0.32898,0 0.60051,0.12794 0.81461,0.38381c0.2141,0.25065 0.32114,0.51174 0.32114,0.78328c0,0.72062 -0.43342,1.45168 -1.30024,2.19318c-0.86683,0.7415 -2.02869,1.11226 -3.48559,1.11226c-1.75455,0 -3.0809,-0.49608 -3.97906,-1.48823c-0.89294,-0.99738 -1.33941,-2.2924 -1.33941,-3.88506c0,-1.61356 0.46213,-2.93208 1.3864,-3.95556c0.92949,-1.02348 2.25323,-1.53523 3.97123,-1.53523c1.33157,0 2.43339,0.34725 3.30544,1.04176c0.87205,0.69451 1.30808,1.38118 1.30808,2.06002c0,0.32376 -0.11749,0.59529 -0.35248,0.81461c-0.23498,0.21932 -0.51435,0.32898 -0.83811,0.32898c-0.39164,0 -0.69712,-0.1671 -0.91644,-0.5013c-0.49085,-0.7415 -0.92688,-1.21147 -1.30808,-1.4099c-0.37597,-0.19843 -0.78328,-0.29765 -1.22192,-0.29765c-0.85116,0 -1.50912,0.32898 -1.97386,0.98693c-0.46475,0.65273 -0.69712,1.46734 -0.69712,2.44383c0,1.00782 0.24282,1.82765 0.72845,2.4595c0.48563,0.63184 1.13314,0.94777 1.94253,0.94777c0.46475,0 0.89294,-0.10705 1.28458,-0.32114c0.39164,-0.21932 0.72845,-0.5483 1.01043,-0.98693c0.2872,-0.44386 0.51435,-0.74934 0.68145,-0.91644c0.1671,-0.17232 0.38642,-0.25848 0.65795,-0.25848zM258.65672,182.32242l-1.46473,1.37074v1.30024c0,0.65273 -0.0235,1.11748 -0.0705,1.39424c-0.04178,0.27676 -0.18277,0.51958 -0.42297,0.72845c-0.2402,0.20365 -0.5248,0.30548 -0.85377,0.30548c-0.29243,0 -0.55874,-0.08877 -0.79894,-0.26631c-0.2402,-0.18277 -0.38642,-0.39686 -0.43864,-0.64229c-0.05222,-0.25065 -0.07833,-0.71017 -0.07833,-1.37857v-10.22179c0,-0.97649 0.11749,-1.60833 0.35248,-1.89554c0.2402,-0.29243 0.58746,-0.43864 1.04176,-0.43864c0.3342,0 0.60313,0.09661 0.80678,0.28981c0.20887,0.18799 0.33681,0.41514 0.38381,0.68145c0.05222,0.26631 0.07833,0.69712 0.07833,1.29241v5.88243l3.02346,-3.13312c0.46475,-0.48041 0.78328,-0.77283 0.9556,-0.87727c0.17232,-0.10444 0.36814,-0.15666 0.58746,-0.15666c0.34986,0 0.63446,0.11227 0.85377,0.33681c0.22454,0.21932 0.33681,0.45952 0.33681,0.72062c0,0.39686 -0.37075,0.93732 -1.11226,1.62139l-1.39424,1.30024l2.71798,4.30804c0.39164,0.6214 0.58746,1.07309 0.58746,1.35507c0,0.30809 -0.11227,0.59007 -0.33681,0.84594c-0.22454,0.25065 -0.53263,0.37597 -0.92427,0.37597c-0.32898,0 -0.59529,-0.09661 -0.79894,-0.28981c-0.19843,-0.19321 -0.42819,-0.50391 -0.68929,-0.9321z" fill="#ffffff" stroke="none" stroke-width="1" stroke-linecap="square"/></g></g></svg>