<svg version="1.1" xmlns="http://www.w3.org/2000/svg" xmlns:xlink="http://www.w3.org/1999/xlink" width="361.81837" height="66.76563" viewBox="0,0,361.81837,66.76563"><g transform="translate(-59.09082,-146.61719)"><g data-paper-data="{&quot;isPaintingLayer&quot;:true}" fill="#ff0000" fill-rule="nonzero" stroke="none" stroke-width="1" stroke-linecap="square" stroke-linejoin="miter" stroke-miterlimit="10" stroke-dasharray="" stroke-dashoffset="0" style="mix-blend-mode: normal"><path d="M63.45019,155.11719l-3.5,-5.42187c-0.57292,-0.875 -0.85937,-1.48958 -0.85937,-1.84375c0,-0.34375 0.13021,-0.63542 0.39063,-0.875c0.27083,-0.23958 0.59375,-0.35937 0.96875,-0.35937c0.35417,0 0.63021,0.10417 0.82813,0.3125c0.20833,0.19792 0.53125,0.65625 0.96875,1.375l2.6875,4.34375l2.70313,-4.34375c0.46875,-0.77083 0.80729,-1.24479 1.01563,-1.42187c0.20833,-0.17708 0.47917,-0.26562 0.8125,-0.26562c0.35417,0 0.65625,0.11979 0.90625,0.35938c0.25,0.23958 0.375,0.52604 0.375,0.85938c0,0.32292 -0.28125,0.91667 -0.84375,1.78125l-3.57812,5.5v3.90625c0,0.625 -0.02604,1.08333 -0.07812,1.375c-0.05208,0.28125 -0.20833,0.52604 -0.46875,0.73438c-0.25,0.19792 -0.54687,0.29688 -0.89062,0.29688c-0.33333,0 -0.63021,-0.09896 -0.89062,-0.29687c-0.25,-0.19792 -0.40625,-0.4375 -0.46875,-0.71875c-0.05208,-0.28125 -0.07812,-0.74479 -0.07812,-1.39062zM75.94043,150.58594c1.65625,0 2.95833,0.51042 3.90625,1.53125c0.94792,1.01042 1.42188,2.30729 1.42188,3.89063c0,1.58333 -0.47917,2.88542 -1.4375,3.90625c-0.95833,1.01042 -2.22917,1.51563 -3.8125,1.51563c-1.71875,0 -3.04688,-0.51562 -3.98438,-1.54687c-0.9375,-1.03125 -1.40625,-2.32292 -1.40625,-3.875c0,-1.58333 0.47396,-2.88021 1.42188,-3.89062c0.94792,-1.02083 2.24479,-1.53125 3.89063,-1.53125zM75.94043,159.44531c0.8125,0 1.45313,-0.30208 1.92188,-0.90625c0.46875,-0.61458 0.70313,-1.45833 0.70313,-2.53125c0,-1.08333 -0.23437,-1.92708 -0.70312,-2.53125c-0.46875,-0.61458 -1.10937,-0.92187 -1.92187,-0.92187c-0.79167,0 -1.42709,0.30729 -1.90625,0.92188c-0.46875,0.61458 -0.70312,1.45833 -0.70312,2.53125c0,1.07292 0.23438,1.91667 0.70313,2.53125c0.46875,0.60417 1.10417,0.90625 1.90625,0.90625zM83.28613,157.46094v-4.6875c0,-0.57292 0.02083,-0.98958 0.0625,-1.25c0.05208,-0.26042 0.19271,-0.47917 0.42188,-0.65625c0.22917,-0.1875 0.51042,-0.28125 0.84375,-0.28125c0.3125,0 0.58333,0.08854 0.8125,0.26563c0.23958,0.17708 0.38542,0.41146 0.4375,0.70313c0.0625,0.28125 0.09375,0.70833 0.09375,1.28125v3.67188c0,1.19792 0.1875,1.96875 0.5625,2.3125c0.375,0.33333 0.78646,0.5 1.23438,0.5c0.51042,0 0.95833,-0.14062 1.34375,-0.42187c0.39583,-0.29167 0.66146,-0.64062 0.79688,-1.04687c0.13542,-0.41667 0.20313,-1.22396 0.20313,-2.42187v-2.65625c0,-0.5625 0.02604,-0.97917 0.07813,-1.25c0.0625,-0.27083 0.20833,-0.49479 0.4375,-0.67187c0.23958,-0.17708 0.52083,-0.26562 0.84375,-0.26562c0.30208,0 0.57292,0.08854 0.8125,0.26563c0.23958,0.17708 0.38021,0.39583 0.42188,0.65625c0.05208,0.26042 0.07813,0.68229 0.07813,1.26563v6.59375c0,0.54167 -0.02604,0.93229 -0.07812,1.17188c-0.05208,0.23958 -0.18229,0.44792 -0.39062,0.625c-0.19792,0.17708 -0.45312,0.26563 -0.76562,0.26563c-0.86458,0 -1.28125,-0.61979 -1.25,-1.85937c-0.88542,1.23958 -2.05729,1.85938 -3.51562,1.85938c-0.96875,0 -1.79167,-0.28646 -2.46875,-0.85937c-0.67708,-0.58333 -1.01562,-1.61979 -1.01562,-3.10937zM97.25683,149.57031c-0.4375,0.02083 -0.8125,-0.11458 -1.125,-0.40625c-0.30208,-0.29167 -0.45312,-0.64583 -0.45312,-1.0625c0,-0.42708 0.15104,-0.78125 0.45313,-1.0625c0.3125,-0.28125 0.67188,-0.42187 1.07813,-0.42187c0.48958,0 0.89063,0.19271 1.20313,0.57813c0.32292,0.38542 0.48438,0.91667 0.48438,1.59375c0,1 -0.29687,1.86458 -0.89062,2.59375c-0.58333,0.72917 -1.125,1.09375 -1.625,1.09375c-0.20833,0 -0.375,-0.06771 -0.5,-0.20312c-0.11458,-0.13542 -0.17187,-0.28646 -0.17187,-0.45312c0,-0.26042 0.16146,-0.48958 0.48438,-0.6875c0.67708,-0.41667 1.03125,-0.9375 1.0625,-1.5625zM101.19043,159.21094v-6.82812c0,-1.19792 0.4375,-1.79687 1.3125,-1.79687c0.84375,0 1.27604,0.55208 1.29688,1.65625c0.55208,-1.10417 1.31771,-1.65625 2.29688,-1.65625c0.51042,0 1.04167,0.13542 1.59375,0.40625c0.55208,0.27083 0.82812,0.64063 0.82812,1.10938c0,0.32292 -0.11458,0.59375 -0.34375,0.8125c-0.21875,0.20833 -0.45312,0.3125 -0.70312,0.3125c-0.14583,0 -0.40625,-0.05729 -0.78125,-0.17187c-0.375,-0.11458 -0.6875,-0.17187 -0.9375,-0.17187c-0.63542,0 -1.10937,0.32292 -1.42187,0.96875c-0.3125,0.63542 -0.46875,1.875 -0.46875,3.71875v1.54688c0,0.67708 -0.03125,1.13542 -0.09375,1.375c-0.05208,0.23958 -0.19792,0.45833 -0.4375,0.65625c-0.22917,0.1875 -0.49479,0.28125 -0.79687,0.28125c-0.30208,0 -0.57292,-0.08854 -0.8125,-0.26562c-0.22917,-0.17708 -0.375,-0.38021 -0.4375,-0.60937c-0.0625,-0.23958 -0.09375,-0.6875 -0.09375,-1.34375zM116.90527,156.66406h-5.23437c0.03125,0.98958 0.30208,1.73438 0.8125,2.23438c0.52083,0.5 1.14583,0.75 1.875,0.75c0.88542,0 1.72396,-0.39062 2.51563,-1.17187c0.32292,-0.32292 0.55729,-0.52083 0.70313,-0.59375c0.15625,-0.08333 0.32813,-0.125 0.51563,-0.125c0.23958,0 0.44271,0.07813 0.60938,0.23438c0.17708,0.14583 0.26563,0.32813 0.26563,0.54688c0,0.60417 -0.41146,1.23958 -1.23437,1.90625c-0.8125,0.65625 -1.92187,0.98438 -3.32812,0.98438c-1.78125,0 -3.13542,-0.50521 -4.0625,-1.51562c-0.91667,-1.01042 -1.375,-2.3125 -1.375,-3.90625c0,-1.61458 0.45833,-2.92187 1.375,-3.92187c0.92708,-1 2.21354,-1.5 3.85938,-1.5c1.5625,0 2.77083,0.47396 3.625,1.42188c0.85417,0.9375 1.28125,1.95833 1.28125,3.0625c0,0.48958 -0.14062,0.88021 -0.42187,1.17188c-0.28125,0.28125 -0.875,0.42188 -1.78125,0.42188zM111.67089,155.14844h4.85938c-0.03125,-0.88542 -0.27604,-1.5625 -0.73437,-2.03125c-0.45833,-0.46875 -1.02083,-0.70312 -1.6875,-0.70312c-1.41667,0 -2.22917,0.91146 -2.4375,2.73438zM134.57128,159.89844v-0.26562c-0.91667,1.19792 -2.07812,1.79688 -3.48437,1.79688c-1.35417,0 -2.4375,-0.51562 -3.25,-1.54687c-0.80208,-1.04167 -1.20312,-2.38542 -1.20312,-4.03125c0,-1.54167 0.39063,-2.80208 1.17188,-3.78125c0.79167,-0.98958 1.88021,-1.48437 3.26563,-1.48437c1.34375,0 2.51042,0.54167 3.5,1.625v-3.45312c0,-0.95833 0.11979,-1.55208 0.35938,-1.78125c0.25,-0.23958 0.57813,-0.35937 0.98438,-0.35937c0.29167,0 0.55729,0.08333 0.79688,0.25c0.23958,0.16667 0.38542,0.38542 0.4375,0.65625c0.05208,0.26042 0.07813,0.69792 0.07813,1.3125v10.5c0,0.59375 -0.03125,1.02083 -0.09375,1.28125c-0.05208,0.25 -0.20312,0.44792 -0.45312,0.59375c-0.23958,0.14583 -0.5,0.21875 -0.78125,0.21875c-0.88542,0 -1.32812,-0.51042 -1.32812,-1.53125zM129.33691,155.92969c0,1.19792 0.25,2.07292 0.75,2.625c0.51042,0.55208 1.08854,0.82813 1.73438,0.82813c0.75,0 1.36979,-0.28646 1.85938,-0.85937c0.5,-0.57292 0.75,-1.375 0.75,-2.40625c0,-1.07292 -0.23958,-1.92708 -0.71875,-2.5625c-0.47917,-0.63542 -1.11979,-0.95312 -1.92187,-0.95312c-0.71875,0 -1.30729,0.29688 -1.76562,0.89063c-0.45833,0.58333 -0.6875,1.39583 -0.6875,2.4375zM147.22753,156.66406h-5.23437c0.03125,0.98958 0.30208,1.73438 0.8125,2.23438c0.52083,0.5 1.14583,0.75 1.875,0.75c0.88542,0 1.72396,-0.39062 2.51563,-1.17187c0.32292,-0.32292 0.55729,-0.52083 0.70313,-0.59375c0.15625,-0.08333 0.32813,-0.125 0.51563,-0.125c0.23958,0 0.44271,0.07813 0.60938,0.23438c0.17708,0.14583 0.26563,0.32813 0.26563,0.54688c0,0.60417 -0.41146,1.23958 -1.23437,1.90625c-0.8125,0.65625 -1.92187,0.98438 -3.32812,0.98438c-1.78125,0 -3.13542,-0.50521 -4.0625,-1.51562c-0.91667,-1.01042 -1.375,-2.3125 -1.375,-3.90625c0,-1.61458 0.45833,-2.92187 1.375,-3.92187c0.92708,-1 2.21354,-1.5 3.85938,-1.5c1.5625,0 2.77083,0.47396 3.625,1.42188c0.85417,0.9375 1.28125,1.95833 1.28125,3.0625c0,0.48958 -0.14062,0.88021 -0.42187,1.17188c-0.28125,0.28125 -0.875,0.42188 -1.78125,0.42188zM141.99316,155.14844h4.85938c-0.03125,-0.88542 -0.27604,-1.5625 -0.73437,-2.03125c-0.45833,-0.46875 -1.02083,-0.70312 -1.6875,-0.70312c-1.41667,0 -2.22917,0.91146 -2.4375,2.73438zM158.40917,159.91406c-1.26042,1.01042 -2.5,1.51563 -3.71875,1.51563c-1.15625,0 -2.04687,-0.29167 -2.67187,-0.875c-0.61458,-0.59375 -0.92187,-1.3125 -0.92187,-2.15625c0,-0.72917 0.20833,-1.3125 0.625,-1.75c0.42708,-0.44792 0.88542,-0.76042 1.375,-0.9375c0.5,-0.17708 1.30729,-0.38021 2.42188,-0.60937c1.11458,-0.22917 2.01563,-0.44271 2.70313,-0.64062c-0.01042,-0.8125 -0.17187,-1.35937 -0.48437,-1.64062c-0.3125,-0.28125 -0.78646,-0.42187 -1.42187,-0.42187c-1.20833,0 -2,0.33854 -2.375,1.01563c-0.20833,0.38542 -0.39583,0.66146 -0.5625,0.82813c-0.15625,0.15625 -0.38542,0.23438 -0.6875,0.23438c-0.28125,0 -0.53646,-0.08854 -0.76562,-0.26562c-0.22917,-0.1875 -0.34375,-0.43229 -0.34375,-0.73437c0,-0.6875 0.375,-1.33854 1.125,-1.95312c0.75,-0.625 1.92708,-0.9375 3.53125,-0.9375c1.625,0 2.8125,0.28125 3.5625,0.84375c0.76042,0.5625 1.11979,1.69792 1.07813,3.40625l-0.0625,2.5c-0.02083,0.78125 0.05729,1.41667 0.23438,1.90625c0.1875,0.47917 0.28125,0.84896 0.28125,1.10938c0,0.28125 -0.125,0.53125 -0.375,0.75c-0.23958,0.21875 -0.51562,0.32813 -0.82812,0.32813c-0.54167,0 -1.11458,-0.50521 -1.71875,-1.51562zM158.2373,156.05469c-0.39583,0.15625 -1.05208,0.32813 -1.96875,0.51563c-0.91667,0.17708 -1.56771,0.38542 -1.95312,0.625c-0.375,0.22917 -0.5625,0.57292 -0.5625,1.03125c0,0.375 0.15104,0.71354 0.45313,1.01563c0.30208,0.29167 0.73438,0.4375 1.29688,0.4375c0.58333,0 1.125,-0.16146 1.625,-0.48437c0.51042,-0.32292 0.82292,-0.70312 0.9375,-1.14062c0.11458,-0.44792 0.17188,-1.11458 0.17188,-2zM170.84081,159.89844v-0.26562c-0.91667,1.19792 -2.07812,1.79688 -3.48437,1.79688c-1.35417,0 -2.4375,-0.51562 -3.25,-1.54687c-0.80208,-1.04167 -1.20312,-2.38542 -1.20312,-4.03125c0,-1.54167 0.39063,-2.80208 1.17188,-3.78125c0.79167,-0.98958 1.88021,-1.48437 3.26563,-1.48437c1.34375,0 2.51042,0.54167 3.5,1.625v-3.45312c0,-0.95833 0.11979,-1.55208 0.35938,-1.78125c0.25,-0.23958 0.57813,-0.35937 0.98438,-0.35937c0.29167,0 0.55729,0.08333 0.79688,0.25c0.23958,0.16667 0.38542,0.38542 0.4375,0.65625c0.05208,0.26042 0.07813,0.69792 0.07813,1.3125v10.5c0,0.59375 -0.03125,1.02083 -0.09375,1.28125c-0.05208,0.25 -0.20312,0.44792 -0.45312,0.59375c-0.23958,0.14583 -0.5,0.21875 -0.78125,0.21875c-0.88542,0 -1.32813,-0.51042 -1.32813,-1.53125zM165.60644,155.92969c0,1.19792 0.25,2.07292 0.75,2.625c0.51042,0.55208 1.08854,0.82813 1.73438,0.82813c0.75,0 1.36979,-0.28646 1.85938,-0.85937c0.5,-0.57292 0.75,-1.375 0.75,-2.40625c0,-1.07292 -0.23958,-1.92708 -0.71875,-2.5625c-0.47917,-0.63542 -1.11979,-0.95312 -1.92187,-0.95312c-0.71875,0 -1.30729,0.29688 -1.76562,0.89063c-0.45833,0.58333 -0.6875,1.39583 -0.6875,2.4375zM177.8252,158.47656c0.39583,0 0.73438,0.14583 1.01563,0.4375c0.29167,0.28125 0.4375,0.625 0.4375,1.03125c0,0.39583 -0.14583,0.74479 -0.4375,1.04688c-0.28125,0.29167 -0.61979,0.4375 -1.01562,0.4375c-0.40625,0 -0.75521,-0.14583 -1.04687,-0.4375c-0.29167,-0.29167 -0.4375,-0.64062 -0.4375,-1.04687c0,-0.40625 0.14583,-0.75 0.4375,-1.03125c0.29167,-0.29167 0.64063,-0.4375 1.04688,-0.4375zM191.27246,149.10156v3.65625h4.3125c0.51042,0 0.85938,0.02604 1.04688,0.07813c0.19792,0.05208 0.36979,0.17708 0.51563,0.375c0.15625,0.19792 0.23438,0.41146 0.23438,0.64063c0,0.30208 -0.11458,0.56771 -0.34375,0.79688c-0.21875,0.22917 -0.70312,0.34375 -1.45312,0.34375h-4.3125v4.03125c0,0.58333 -0.02604,1.01563 -0.07812,1.29688c-0.04167,0.28125 -0.17187,0.53646 -0.39062,0.76563c-0.20833,0.22917 -0.53646,0.34375 -0.98437,0.34375c-0.4375,0 -0.76562,-0.11458 -0.98437,-0.34375c-0.20833,-0.22917 -0.33854,-0.48958 -0.39062,-0.78125c-0.04167,-0.30208 -0.0625,-0.72917 -0.0625,-1.28125v-9.73437c0,-1.04167 0.07292,-1.63542 0.21875,-1.78125c0.15625,-0.14583 0.32292,-0.28646 0.5,-0.42187c0.1875,-0.14583 0.75521,-0.21875 1.70313,-0.21875h5.70313c0.5,0 0.85417,0.02083 1.0625,0.0625c0.20833,0.03125 0.39063,0.14583 0.54688,0.34375c0.16667,0.19792 0.25,0.43229 0.25,0.70313c0,0.27083 -0.08333,0.50521 -0.25,0.70313c-0.15625,0.19792 -0.33854,0.31771 -0.54687,0.35938c-0.20833,0.04167 -0.5625,0.0625 -1.0625,0.0625zM201.41699,146.74219c0.35417,0 0.65625,0.13021 0.90625,0.39063c0.25,0.26042 0.375,0.5625 0.375,0.90625c0,0.35417 -0.125,0.66146 -0.375,0.92188c-0.25,0.25 -0.55208,0.375 -0.90625,0.375c-0.35417,0 -0.66146,-0.125 -0.92187,-0.375c-0.25,-0.26042 -0.375,-0.56771 -0.375,-0.92187c0,-0.35417 0.125,-0.65625 0.375,-0.90625c0.26042,-0.26042 0.56771,-0.39062 0.92188,-0.39062zM202.74512,152.75781v6.45313c0,0.64583 -0.03125,1.08854 -0.09375,1.32813c-0.05208,0.22917 -0.20312,0.4375 -0.45312,0.625c-0.23958,0.17708 -0.5,0.26563 -0.78125,0.26563c-0.28125,0 -0.54687,-0.08854 -0.79687,-0.26562c-0.25,-0.1875 -0.40625,-0.40104 -0.46875,-0.64062c-0.05208,-0.23958 -0.07812,-0.67708 -0.07812,-1.3125v-6.4375c0,-0.58333 0.02083,-0.99479 0.0625,-1.23437c0.05208,-0.25 0.19792,-0.46875 0.4375,-0.65625c0.23958,-0.19792 0.51563,-0.29687 0.82813,-0.29687c0.3125,0 0.58333,0.08854 0.8125,0.26563c0.22917,0.16667 0.375,0.38542 0.4375,0.65625c0.0625,0.26042 0.09375,0.67708 0.09375,1.25zM214.89942,154.83594v4.375c0,0.57292 -0.02604,0.98958 -0.07812,1.25c-0.04167,0.25 -0.18229,0.47396 -0.42187,0.67188c-0.22917,0.19792 -0.5,0.29688 -0.8125,0.29688c-0.29167,0 -0.5625,-0.08854 -0.8125,-0.26562c-0.23958,-0.17708 -0.39062,-0.40104 -0.45312,-0.67187c-0.0625,-0.28125 -0.09375,-0.70833 -0.09375,-1.28125v-3.82812c0,-1.07292 -0.16146,-1.79167 -0.48437,-2.15625c-0.3125,-0.375 -0.75,-0.5625 -1.3125,-0.5625c-0.5,0 -0.94271,0.14583 -1.32812,0.4375c-0.38542,0.29167 -0.65625,0.66146 -0.8125,1.10938c-0.15625,0.4375 -0.23437,1.1875 -0.23437,2.25v2.75c0,0.5625 -0.02083,0.97396 -0.0625,1.23438c-0.04167,0.25 -0.18229,0.47917 -0.42187,0.6875c-0.23958,0.19792 -0.51562,0.29688 -0.82812,0.29688c-0.30208,0 -0.57812,-0.08854 -0.82812,-0.26562c-0.23958,-0.1875 -0.38542,-0.41146 -0.4375,-0.67187c-0.05208,-0.27083 -0.07812,-0.69792 -0.07812,-1.28125v-6.5625c0,-0.59375 0.02604,-1.00521 0.07813,-1.23437c0.0625,-0.23958 0.20313,-0.4375 0.42188,-0.59375c0.22917,-0.15625 0.48438,-0.23437 0.76563,-0.23437c0.26042,0 0.53125,0.10417 0.8125,0.3125c0.28125,0.19792 0.42188,0.69271 0.42188,1.48438c0.89583,-1.19792 2.04167,-1.79687 3.4375,-1.79687c0.53125,0 1.05729,0.10417 1.57813,0.3125c0.52083,0.19792 0.94271,0.52083 1.26563,0.96875c0.33333,0.44792 0.53646,0.91667 0.60938,1.40625c0.07292,0.48958 0.10938,1.01042 0.10938,1.5625zM218.91699,146.74219c0.35417,0 0.65625,0.13021 0.90625,0.39063c0.25,0.26042 0.375,0.5625 0.375,0.90625c0,0.35417 -0.125,0.66146 -0.375,0.92188c-0.25,0.25 -0.55208,0.375 -0.90625,0.375c-0.35417,0 -0.66146,-0.125 -0.92187,-0.375c-0.25,-0.26042 -0.375,-0.56771 -0.375,-0.92187c0,-0.35417 0.125,-0.65625 0.375,-0.90625c0.26042,-0.26042 0.56771,-0.39062 0.92188,-0.39062zM220.24512,152.75781v6.45313c0,0.64583 -0.03125,1.08854 -0.09375,1.32813c-0.05208,0.22917 -0.20312,0.4375 -0.45312,0.625c-0.23958,0.17708 -0.5,0.26563 -0.78125,0.26563c-0.28125,0 -0.54687,-0.08854 -0.79687,-0.26562c-0.25,-0.1875 -0.40625,-0.40104 -0.46875,-0.64062c-0.05208,-0.23958 -0.07812,-0.67708 -0.07812,-1.3125v-6.4375c0,-0.58333 0.02083,-0.99479 0.0625,-1.23437c0.05208,-0.25 0.19792,-0.46875 0.4375,-0.65625c0.23958,-0.19792 0.51563,-0.29687 0.82813,-0.29687c0.3125,0 0.58333,0.08854 0.8125,0.26563c0.22917,0.16667 0.375,0.38542 0.4375,0.65625c0.0625,0.26042 0.09375,0.67708 0.09375,1.25zM225.02442,153.35156c0,0.34375 0.17708,0.61458 0.53125,0.8125c0.35417,0.19792 1.15625,0.44792 2.40625,0.75c2.41667,0.59375 3.625,1.59896 3.625,3.01563c0,1.13542 -0.41146,2.00521 -1.23437,2.60938c-0.8125,0.59375 -1.94792,0.89063 -3.40625,0.89063c-1.48958,0 -2.60937,-0.30729 -3.35937,-0.92187c-0.75,-0.61458 -1.125,-1.26562 -1.125,-1.95312c0,-0.29167 0.10417,-0.54167 0.3125,-0.75c0.20833,-0.20833 0.46354,-0.3125 0.76563,-0.3125c0.41667,0 0.78125,0.26042 1.09375,0.78125c0.35417,0.57292 0.73958,0.95313 1.15625,1.14063c0.42708,0.1875 0.88021,0.28125 1.35938,0.28125c0.54167,0 0.97917,-0.11979 1.3125,-0.35937c0.33333,-0.23958 0.5,-0.54167 0.5,-0.90625c0,-0.33333 -0.14062,-0.61979 -0.42187,-0.85937c-0.28125,-0.23958 -1.05729,-0.50521 -2.32812,-0.79687c-1.26042,-0.29167 -2.18229,-0.69792 -2.76562,-1.21875c-0.58333,-0.53125 -0.875,-1.15625 -0.875,-1.875c0,-0.8125 0.35417,-1.53125 1.0625,-2.15625c0.70833,-0.625 1.77083,-0.9375 3.1875,-0.9375c1.29167,0 2.31771,0.26563 3.07813,0.79688c0.77083,0.52083 1.15625,1.0625 1.15625,1.625c0,0.30208 -0.09896,0.55729 -0.29687,0.76563c-0.1875,0.20833 -0.45312,0.3125 -0.79687,0.3125c-0.52083,0 -0.98958,-0.29687 -1.40625,-0.89062c-0.40625,-0.59375 -1.02604,-0.89062 -1.85937,-0.89062c-0.44792,0 -0.83854,0.09375 -1.17187,0.28125c-0.33333,0.17708 -0.5,0.43229 -0.5,0.76563zM243.28614,154.69531v4.85938c0,1.25 -0.45312,1.875 -1.35938,1.875c-0.41667,0 -0.73958,-0.13021 -0.96875,-0.39062c-0.21875,-0.27083 -0.32812,-0.76562 -0.32812,-1.48437v-4.25c0,-1.01042 -0.16146,-1.70312 -0.48437,-2.07812c-0.32292,-0.375 -0.77083,-0.5625 -1.34375,-0.5625c-0.51042,0 -0.95312,0.14063 -1.32812,0.42188c-0.375,0.28125 -0.64062,0.625 -0.79687,1.03125c-0.15625,0.40625 -0.23437,1.125 -0.23437,2.15625v3.09375c0,0.83333 -0.11979,1.38542 -0.35937,1.65625c-0.23958,0.27083 -0.56771,0.40625 -0.98437,0.40625c-0.41667,0 -0.74479,-0.13021 -0.98437,-0.39062c-0.22917,-0.27083 -0.34375,-0.81771 -0.34375,-1.64062v-10.57812c0,-0.64583 0.03125,-1.09375 0.09375,-1.34375c0.0625,-0.25 0.20313,-0.45312 0.42188,-0.60937c0.22917,-0.16667 0.49479,-0.25 0.79688,-0.25c0.33333,0 0.60938,0.09375 0.82813,0.28125c0.22917,0.17708 0.375,0.41146 0.4375,0.70313c0.0625,0.29167 0.09375,0.77083 0.09375,1.4375v3.15625c0.89583,-1.07292 1.97917,-1.60937 3.25,-1.60937c1.07292,0 1.9375,0.33333 2.59375,1c0.66667,0.65625 1,1.69271 1,3.10938zM254.55371,161.16406l-3.25,-8.26562c-0.20833,-0.53125 -0.3125,-0.90104 -0.3125,-1.10937c0,-0.30208 0.125,-0.57812 0.375,-0.82812c0.26042,-0.25 0.5625,-0.375 0.90625,-0.375c0.30208,0 0.55729,0.09375 0.76563,0.28125c0.20833,0.17708 0.41667,0.55208 0.625,1.125l2.25,6.5625l2.14063,-6.07812c0.28125,-0.79167 0.50521,-1.30208 0.67188,-1.53125c0.16667,-0.23958 0.45313,-0.35937 0.85938,-0.35937c0.36458,0 0.65104,0.125 0.85938,0.375c0.20833,0.23958 0.3125,0.48438 0.3125,0.73438c0,0.30208 -0.10417,0.72917 -0.3125,1.28125l-3.48437,9.10937c-0.45833,1.20833 -0.9375,2.05729 -1.4375,2.54688c-0.48958,0.5 -1.33333,0.75 -2.53125,0.75c-1.54167,0 -2.3125,-0.39583 -2.3125,-1.1875c0,-0.26042 0.08333,-0.47917 0.25,-0.65625c0.17708,-0.17708 0.41146,-0.26562 0.70313,-0.26562c0.05208,0 0.20313,0.01042 0.45313,0.03125c0.26042,0.02083 0.41146,0.03125 0.45313,0.03125c0.48958,0 0.84896,-0.11979 1.07813,-0.35937c0.23958,-0.22917 0.47396,-0.63542 0.70313,-1.21875zM267.08301,150.58594c1.65625,0 2.95833,0.51042 3.90625,1.53125c0.94792,1.01042 1.42188,2.30729 1.42188,3.89063c0,1.58333 -0.47917,2.88542 -1.4375,3.90625c-0.95833,1.01042 -2.22917,1.51563 -3.8125,1.51563c-1.71875,0 -3.04687,-0.51562 -3.98437,-1.54687c-0.9375,-1.03125 -1.40625,-2.32292 -1.40625,-3.875c0,-1.58333 0.47396,-2.88021 1.42188,-3.89062c0.94792,-1.02083 2.24479,-1.53125 3.89063,-1.53125zM267.08301,159.44531c0.8125,0 1.45313,-0.30208 1.92188,-0.90625c0.46875,-0.61458 0.70313,-1.45833 0.70313,-2.53125c0,-1.08333 -0.23437,-1.92708 -0.70312,-2.53125c-0.46875,-0.61458 -1.10937,-0.92187 -1.92187,-0.92187c-0.79167,0 -1.42708,0.30729 -1.90625,0.92188c-0.46875,0.61458 -0.70312,1.45833 -0.70312,2.53125c0,1.07292 0.23438,1.91667 0.70313,2.53125c0.46875,0.60417 1.10417,0.90625 1.90625,0.90625zM274.42871,157.46094v-4.6875c0,-0.57292 0.02083,-0.98958 0.0625,-1.25c0.05208,-0.26042 0.19271,-0.47917 0.42188,-0.65625c0.22917,-0.1875 0.51042,-0.28125 0.84375,-0.28125c0.3125,0 0.58333,0.08854 0.8125,0.26563c0.23958,0.17708 0.38542,0.41146 0.4375,0.70313c0.0625,0.28125 0.09375,0.70833 0.09375,1.28125v3.67188c0,1.19792 0.1875,1.96875 0.5625,2.3125c0.375,0.33333 0.78646,0.5 1.23438,0.5c0.51042,0 0.95833,-0.14062 1.34375,-0.42187c0.39583,-0.29167 0.66146,-0.64062 0.79688,-1.04687c0.13542,-0.41667 0.20313,-1.22396 0.20313,-2.42187v-2.65625c0,-0.5625 0.02604,-0.97917 0.07813,-1.25c0.0625,-0.27083 0.20833,-0.49479 0.4375,-0.67187c0.23958,-0.17708 0.52083,-0.26562 0.84375,-0.26562c0.30208,0 0.57292,0.08854 0.8125,0.26563c0.23958,0.17708 0.38021,0.39583 0.42188,0.65625c0.05208,0.26042 0.07813,0.68229 0.07813,1.26563v6.59375c0,0.54167 -0.02604,0.93229 -0.07812,1.17188c-0.05208,0.23958 -0.18229,0.44792 -0.39062,0.625c-0.19792,0.17708 -0.45312,0.26563 -0.76562,0.26563c-0.86458,0 -1.28125,-0.61979 -1.25,-1.85937c-0.88542,1.23958 -2.05729,1.85938 -3.51562,1.85938c-0.96875,0 -1.79167,-0.28646 -2.46875,-0.85937c-0.67708,-0.58333 -1.01562,-1.61979 -1.01562,-3.10937zM286.57129,159.21094v-6.82812c0,-1.19792 0.4375,-1.79687 1.3125,-1.79687c0.84375,0 1.27604,0.55208 1.29688,1.65625c0.55208,-1.10417 1.31771,-1.65625 2.29688,-1.65625c0.51042,0 1.04167,0.13542 1.59375,0.40625c0.55208,0.27083 0.82813,0.64063 0.82813,1.10938c0,0.32292 -0.11458,0.59375 -0.34375,0.8125c-0.21875,0.20833 -0.45312,0.3125 -0.70312,0.3125c-0.14583,0 -0.40625,-0.05729 -0.78125,-0.17187c-0.375,-0.11458 -0.6875,-0.17187 -0.9375,-0.17187c-0.63542,0 -1.10937,0.32292 -1.42187,0.96875c-0.3125,0.63542 -0.46875,1.875 -0.46875,3.71875v1.54688c0,0.67708 -0.03125,1.13542 -0.09375,1.375c-0.05208,0.23958 -0.19792,0.45833 -0.4375,0.65625c-0.22917,0.1875 -0.49479,0.28125 -0.79687,0.28125c-0.30208,0 -0.57292,-0.08854 -0.8125,-0.26562c-0.22917,-0.17708 -0.375,-0.38021 -0.4375,-0.60937c-0.0625,-0.23958 -0.09375,-0.6875 -0.09375,-1.34375zM301.72168,150.82031v-1.60937c0,-0.65625 0.02604,-1.09896 0.07813,-1.32812c0.0625,-0.23958 0.20833,-0.45312 0.4375,-0.64062c0.22917,-0.1875 0.5,-0.28125 0.8125,-0.28125c0.29167,0 0.55208,0.08333 0.78125,0.25c0.22917,0.16667 0.38021,0.375 0.45313,0.625c0.07292,0.23958 0.10938,0.63021 0.10938,1.17188v1.8125h0.51563c0.65625,0 1.08854,0.07813 1.29688,0.23438c0.21875,0.15625 0.32813,0.39063 0.32813,0.70313c0,0.65625 -0.54687,0.98438 -1.64062,0.98438h-0.5v4.92188c0,0.66667 0.04688,1.11979 0.14063,1.35938c0.09375,0.23958 0.34375,0.35938 0.75,0.35938c0.19792,0 0.41667,-0.02604 0.65625,-0.07812c0.25,-0.0625 0.43229,-0.09375 0.54688,-0.09375c0.27083,0 0.48958,0.08854 0.65625,0.26563c0.16667,0.17708 0.25,0.39063 0.25,0.64063c0,0.875 -0.92187,1.3125 -2.76562,1.3125c-0.89583,0 -1.55208,-0.16667 -1.96875,-0.5c-0.41667,-0.33333 -0.67708,-0.73437 -0.78125,-1.20312c-0.10417,-0.47917 -0.15625,-1.10417 -0.15625,-1.875v-5.10937h-0.34375c-0.79167,0 -1.1875,-0.32292 -1.1875,-0.96875c0,-0.63542 0.41667,-0.95312 1.25,-0.95312zM315.09864,159.91406c-1.26042,1.01042 -2.5,1.51563 -3.71875,1.51563c-1.15625,0 -2.04687,-0.29167 -2.67187,-0.875c-0.61458,-0.59375 -0.92187,-1.3125 -0.92187,-2.15625c0,-0.72917 0.20833,-1.3125 0.625,-1.75c0.42708,-0.44792 0.88542,-0.76042 1.375,-0.9375c0.5,-0.17708 1.30729,-0.38021 2.42188,-0.60937c1.11458,-0.22917 2.01563,-0.44271 2.70313,-0.64062c-0.01042,-0.8125 -0.17187,-1.35937 -0.48437,-1.64062c-0.3125,-0.28125 -0.78646,-0.42187 -1.42187,-0.42187c-1.20833,0 -2,0.33854 -2.375,1.01563c-0.20833,0.38542 -0.39583,0.66146 -0.5625,0.82813c-0.15625,0.15625 -0.38542,0.23438 -0.6875,0.23438c-0.28125,0 -0.53646,-0.08854 -0.76562,-0.26562c-0.22917,-0.1875 -0.34375,-0.43229 -0.34375,-0.73437c0,-0.6875 0.375,-1.33854 1.125,-1.95312c0.75,-0.625 1.92708,-0.9375 3.53125,-0.9375c1.625,0 2.8125,0.28125 3.5625,0.84375c0.76042,0.5625 1.11979,1.69792 1.07813,3.40625l-0.0625,2.5c-0.02083,0.78125 0.05729,1.41667 0.23438,1.90625c0.1875,0.47917 0.28125,0.84896 0.28125,1.10938c0,0.28125 -0.125,0.53125 -0.375,0.75c-0.23958,0.21875 -0.51562,0.32813 -0.82812,0.32813c-0.54167,0 -1.11458,-0.50521 -1.71875,-1.51562zM314.92676,156.05469c-0.39583,0.15625 -1.05208,0.32813 -1.96875,0.51563c-0.91667,0.17708 -1.56771,0.38542 -1.95312,0.625c-0.375,0.22917 -0.5625,0.57292 -0.5625,1.03125c0,0.375 0.15104,0.71354 0.45313,1.01563c0.30208,0.29167 0.73438,0.4375 1.29688,0.4375c0.58333,0 1.125,-0.16146 1.625,-0.48437c0.51042,-0.32292 0.82292,-0.70312 0.9375,-1.14062c0.11458,-0.44792 0.17188,-1.11458 0.17188,-2zM322.28028,153.35156c0,0.34375 0.17708,0.61458 0.53125,0.8125c0.35417,0.19792 1.15625,0.44792 2.40625,0.75c2.41667,0.59375 3.625,1.59896 3.625,3.01563c0,1.13542 -0.41146,2.00521 -1.23437,2.60938c-0.8125,0.59375 -1.94792,0.89063 -3.40625,0.89063c-1.48958,0 -2.60937,-0.30729 -3.35937,-0.92187c-0.75,-0.61458 -1.125,-1.26562 -1.125,-1.95312c0,-0.29167 0.10417,-0.54167 0.3125,-0.75c0.20833,-0.20833 0.46354,-0.3125 0.76563,-0.3125c0.41667,0 0.78125,0.26042 1.09375,0.78125c0.35417,0.57292 0.73958,0.95313 1.15625,1.14063c0.42708,0.1875 0.88021,0.28125 1.35938,0.28125c0.54167,0 0.97917,-0.11979 1.3125,-0.35937c0.33333,-0.23958 0.5,-0.54167 0.5,-0.90625c0,-0.33333 -0.14062,-0.61979 -0.42187,-0.85937c-0.28125,-0.23958 -1.05729,-0.50521 -2.32812,-0.79687c-1.26042,-0.29167 -2.18229,-0.69792 -2.76562,-1.21875c-0.58333,-0.53125 -0.875,-1.15625 -0.875,-1.875c0,-0.8125 0.35417,-1.53125 1.0625,-2.15625c0.70833,-0.625 1.77083,-0.9375 3.1875,-0.9375c1.29167,0 2.31771,0.26563 3.07813,0.79688c0.77083,0.52083 1.15625,1.0625 1.15625,1.625c0,0.30208 -0.09896,0.55729 -0.29687,0.76563c-0.1875,0.20833 -0.45312,0.3125 -0.79687,0.3125c-0.52083,0 -0.98958,-0.29687 -1.40625,-0.89062c-0.40625,-0.59375 -1.02604,-0.89062 -1.85937,-0.89062c-0.44792,0 -0.83854,0.09375 -1.17187,0.28125c-0.33333,0.17708 -0.5,0.43229 -0.5,0.76563zM335.38574,156.33594l-1.46875,1.35938v1.3125c0,0.64583 -0.02083,1.10938 -0.0625,1.39063c-0.04167,0.27083 -0.1875,0.51042 -0.4375,0.71875c-0.23958,0.20833 -0.52083,0.3125 -0.84375,0.3125c-0.29167,0 -0.55729,-0.08854 -0.79687,-0.26562c-0.23958,-0.1875 -0.38542,-0.40104 -0.4375,-0.64062c-0.05208,-0.25 -0.07812,-0.71354 -0.07812,-1.39062v-10.1875c0,-0.96875 0.11458,-1.59896 0.34375,-1.89062c0.23958,-0.29167 0.58854,-0.4375 1.04688,-0.4375c0.33333,0 0.59896,0.09375 0.79688,0.28125c0.20833,0.1875 0.33854,0.41667 0.39063,0.6875c0.05208,0.27083 0.07813,0.69792 0.07813,1.28125v5.875l3.01563,-3.125c0.45833,-0.47917 0.77083,-0.77083 0.9375,-0.875c0.17708,-0.10417 0.38021,-0.15625 0.60938,-0.15625c0.34375,0 0.625,0.10938 0.84375,0.32813c0.21875,0.21875 0.32813,0.45833 0.32813,0.71875c0,0.39583 -0.36458,0.9375 -1.09375,1.625l-1.40625,1.29688l2.71875,4.29688c0.39583,0.625 0.59375,1.07292 0.59375,1.34375c0,0.3125 -0.11458,0.59896 -0.34375,0.85938c-0.22917,0.25 -0.53646,0.375 -0.92187,0.375c-0.32292,0 -0.58854,-0.09375 -0.79687,-0.28125c-0.19792,-0.19792 -0.42708,-0.51562 -0.6875,-0.95312zM344.08692,153.35156c0,0.34375 0.17708,0.61458 0.53125,0.8125c0.35417,0.19792 1.15625,0.44792 2.40625,0.75c2.41667,0.59375 3.625,1.59896 3.625,3.01563c0,1.13542 -0.41146,2.00521 -1.23437,2.60938c-0.8125,0.59375 -1.94792,0.89063 -3.40625,0.89063c-1.48958,0 -2.60937,-0.30729 -3.35937,-0.92187c-0.75,-0.61458 -1.125,-1.26562 -1.125,-1.95312c0,-0.29167 0.10417,-0.54167 0.3125,-0.75c0.20833,-0.20833 0.46354,-0.3125 0.76563,-0.3125c0.41667,0 0.78125,0.26042 1.09375,0.78125c0.35417,0.57292 0.73958,0.95313 1.15625,1.14063c0.42708,0.1875 0.88021,0.28125 1.35938,0.28125c0.54167,0 0.97917,-0.11979 1.3125,-0.35937c0.33333,-0.23958 0.5,-0.54167 0.5,-0.90625c0,-0.33333 -0.14062,-0.61979 -0.42187,-0.85937c-0.28125,-0.23958 -1.05729,-0.50521 -2.32812,-0.79687c-1.26042,-0.29167 -2.18229,-0.69792 -2.76562,-1.21875c-0.58333,-0.53125 -0.875,-1.15625 -0.875,-1.875c0,-0.8125 0.35417,-1.53125 1.0625,-2.15625c0.70833,-0.625 1.77083,-0.9375 3.1875,-0.9375c1.29167,0 2.31771,0.26563 3.07813,0.79688c0.77083,0.52083 1.15625,1.0625 1.15625,1.625c0,0.30208 -0.09896,0.55729 -0.29687,0.76563c-0.1875,0.20833 -0.45312,0.3125 -0.79687,0.3125c-0.52083,0 -0.98958,-0.29687 -1.40625,-0.89062c-0.40625,-0.59375 -1.02604,-0.89062 -1.85937,-0.89062c-0.44792,0 -0.83854,0.09375 -1.17187,0.28125c-0.33333,0.17708 -0.5,0.43229 -0.5,0.76563zM359.27051,150.82031v-1.60937c0,-0.65625 0.02604,-1.09896 0.07813,-1.32812c0.0625,-0.23958 0.20833,-0.45312 0.4375,-0.64062c0.22917,-0.1875 0.5,-0.28125 0.8125,-0.28125c0.29167,0 0.55208,0.08333 0.78125,0.25c0.22917,0.16667 0.38021,0.375 0.45313,0.625c0.07292,0.23958 0.10938,0.63021 0.10938,1.17188v1.8125h0.51563c0.65625,0 1.08854,0.07813 1.29688,0.23438c0.21875,0.15625 0.32813,0.39063 0.32813,0.70313c0,0.65625 -0.54687,0.98438 -1.64062,0.98438h-0.5v4.92188c0,0.66667 0.04688,1.11979 0.14063,1.35938c0.09375,0.23958 0.34375,0.35938 0.75,0.35938c0.19792,0 0.41667,-0.02604 0.65625,-0.07812c0.25,-0.0625 0.43229,-0.09375 0.54688,-0.09375c0.27083,0 0.48958,0.08854 0.65625,0.26563c0.16667,0.17708 0.25,0.39063 0.25,0.64063c0,0.875 -0.92187,1.3125 -2.76562,1.3125c-0.89583,0 -1.55208,-0.16667 -1.96875,-0.5c-0.41667,-0.33333 -0.67708,-0.73437 -0.78125,-1.20312c-0.10417,-0.47917 -0.15625,-1.10417 -0.15625,-1.875v-5.10937h-0.34375c-0.79167,0 -1.1875,-0.32292 -1.1875,-0.96875c0,-0.63542 0.41667,-0.95312 1.25,-0.95312zM370.56934,150.58594c1.65625,0 2.95833,0.51042 3.90625,1.53125c0.94792,1.01042 1.42188,2.30729 1.42188,3.89063c0,1.58333 -0.47917,2.88542 -1.4375,3.90625c-0.95833,1.01042 -2.22917,1.51563 -3.8125,1.51563c-1.71875,0 -3.04687,-0.51562 -3.98438,-1.54687c-0.9375,-1.03125 -1.40625,-2.32292 -1.40625,-3.875c0,-1.58333 0.47396,-2.88021 1.42188,-3.89062c0.94792,-1.02083 2.24479,-1.53125 3.89063,-1.53125zM370.56934,159.44531c0.8125,0 1.45313,-0.30208 1.92188,-0.90625c0.46875,-0.61458 0.70313,-1.45833 0.70313,-2.53125c0,-1.08333 -0.23437,-1.92708 -0.70312,-2.53125c-0.46875,-0.61458 -1.10937,-0.92187 -1.92187,-0.92187c-0.79167,0 -1.42708,0.30729 -1.90625,0.92188c-0.46875,0.61458 -0.70312,1.45833 -0.70312,2.53125c0,1.07292 0.23438,1.91667 0.70313,2.53125c0.46875,0.60417 1.10417,0.90625 1.90625,0.90625zM387.33692,158.19531l1.57813,-5.51562c0.19792,-0.67708 0.34896,-1.11979 0.45313,-1.32812c0.10417,-0.21875 0.27083,-0.40104 0.5,-0.54687c0.23958,-0.14583 0.50521,-0.21875 0.79688,-0.21875c0.46875,0 0.8125,0.125 1.03125,0.375c0.22917,0.23958 0.47917,0.8125 0.75,1.71875l1.59375,5.51563l1.73438,-5.95312c0.1875,-0.625 0.36458,-1.05729 0.53125,-1.29687c0.16667,-0.23958 0.45833,-0.35937 0.875,-0.35937c0.3125,0 0.58333,0.11458 0.8125,0.34375c0.23958,0.21875 0.35938,0.47396 0.35938,0.76563c0,0.23958 -0.09896,0.65104 -0.29687,1.23438l-2.17187,6.39063c-0.23958,0.67708 -0.42187,1.125 -0.54687,1.34375c-0.125,0.21875 -0.30208,0.40104 -0.53125,0.54688c-0.22917,0.14583 -0.48437,0.21875 -0.76562,0.21875c-0.55208,0 -0.94271,-0.16667 -1.17187,-0.5c-0.22917,-0.33333 -0.45833,-0.89583 -0.6875,-1.6875l-1.51562,-5.20312l-1.46875,5.20313c-0.1875,0.66667 -0.34375,1.11979 -0.46875,1.35938c-0.11458,0.23958 -0.29687,0.4375 -0.54687,0.59375c-0.23958,0.15625 -0.51042,0.23438 -0.8125,0.23438c-0.29167,0 -0.5625,-0.07292 -0.8125,-0.21875c-0.23958,-0.13542 -0.41667,-0.3125 -0.53125,-0.53125c-0.11458,-0.22917 -0.29167,-0.68229 -0.53125,-1.35937l-2.17187,-6.39062c-0.20833,-0.5625 -0.3125,-0.97396 -0.3125,-1.23437c0,-0.28125 0.11458,-0.53646 0.34375,-0.76562c0.22917,-0.22917 0.51042,-0.34375 0.84375,-0.34375c0.40625,0 0.69271,0.11979 0.85938,0.35938c0.16667,0.22917 0.33854,0.66146 0.51563,1.29688zM401.53418,146.74219c0.35417,0 0.65625,0.13021 0.90625,0.39063c0.25,0.26042 0.375,0.5625 0.375,0.90625c0,0.35417 -0.125,0.66146 -0.375,0.92188c-0.25,0.25 -0.55208,0.375 -0.90625,0.375c-0.35417,0 -0.66146,-0.125 -0.92187,-0.375c-0.25,-0.26042 -0.375,-0.56771 -0.375,-0.92187c0,-0.35417 0.125,-0.65625 0.375,-0.90625c0.26042,-0.26042 0.56771,-0.39062 0.92188,-0.39062zM402.86231,152.75781v6.45313c0,0.64583 -0.03125,1.08854 -0.09375,1.32813c-0.05208,0.22917 -0.20312,0.4375 -0.45312,0.625c-0.23958,0.17708 -0.5,0.26563 -0.78125,0.26563c-0.28125,0 -0.54687,-0.08854 -0.79687,-0.26562c-0.25,-0.1875 -0.40625,-0.40104 -0.46875,-0.64062c-0.05208,-0.23958 -0.07812,-0.67708 -0.07812,-1.3125v-6.4375c0,-0.58333 0.02083,-0.99479 0.0625,-1.23437c0.05208,-0.25 0.19792,-0.46875 0.4375,-0.65625c0.23958,-0.19792 0.51563,-0.29687 0.82813,-0.29687c0.3125,0 0.58333,0.08854 0.8125,0.26563c0.22917,0.16667 0.375,0.38542 0.4375,0.65625c0.0625,0.26042 0.09375,0.67708 0.09375,1.25zM415.0166,154.83594v4.375c0,0.57292 -0.02604,0.98958 -0.07812,1.25c-0.04167,0.25 -0.18229,0.47396 -0.42187,0.67188c-0.22917,0.19792 -0.5,0.29688 -0.8125,0.29688c-0.29167,0 -0.5625,-0.08854 -0.8125,-0.26562c-0.23958,-0.17708 -0.39062,-0.40104 -0.45312,-0.67187c-0.0625,-0.28125 -0.09375,-0.70833 -0.09375,-1.28125v-3.82812c0,-1.07292 -0.16146,-1.79167 -0.48437,-2.15625c-0.3125,-0.375 -0.75,-0.5625 -1.3125,-0.5625c-0.5,0 -0.94271,0.14583 -1.32812,0.4375c-0.38542,0.29167 -0.65625,0.66146 -0.8125,1.10938c-0.15625,0.4375 -0.23437,1.1875 -0.23437,2.25v2.75c0,0.5625 -0.02083,0.97396 -0.0625,1.23438c-0.04167,0.25 -0.18229,0.47917 -0.42187,0.6875c-0.23958,0.19792 -0.51562,0.29688 -0.82812,0.29688c-0.30208,0 -0.57812,-0.08854 -0.82812,-0.26562c-0.23958,-0.1875 -0.38542,-0.41146 -0.4375,-0.67187c-0.05208,-0.27083 -0.07812,-0.69792 -0.07812,-1.28125v-6.5625c0,-0.59375 0.02604,-1.00521 0.07813,-1.23437c0.0625,-0.23958 0.20313,-0.4375 0.42188,-0.59375c0.22917,-0.15625 0.48438,-0.23437 0.76563,-0.23437c0.26042,0 0.53125,0.10417 0.8125,0.3125c0.28125,0.19792 0.42188,0.69271 0.42188,1.48438c0.89583,-1.19792 2.04167,-1.79687 3.4375,-1.79687c0.53125,0 1.05729,0.10417 1.57813,0.3125c0.52083,0.19792 0.94271,0.52083 1.26563,0.96875c0.33333,0.44792 0.53646,0.91667 0.60938,1.40625c0.07292,0.48958 0.10938,1.01042 0.10938,1.5625zM419.45606,158.47656c0.39583,0 0.73438,0.14583 1.01563,0.4375c0.29167,0.28125 0.4375,0.625 0.4375,1.03125c0,0.39583 -0.14583,0.74479 -0.4375,1.04688c-0.28125,0.29167 -0.61979,0.4375 -1.01562,0.4375c-0.40625,0 -0.75521,-0.14583 -1.04687,-0.4375c-0.29167,-0.29167 -0.4375,-0.64062 -0.4375,-1.04687c0,-0.40625 0.14583,-0.75 0.4375,-1.03125c0.29167,-0.29167 0.64063,-0.4375 1.04688,-0.4375z"/><path d="M63.13769,177.39844l5.70313,-5.9375c0.36458,-0.375 0.65104,-0.60937 0.85938,-0.70312c0.20833,-0.09375 0.41667,-0.14062 0.625,-0.14062c0.41667,0 0.75521,0.13021 1.01563,0.39063c0.26042,0.25 0.39063,0.52604 0.39063,0.82813c0,0.4375 -0.22396,0.86979 -0.67187,1.29688l-3.53125,3.34375l4.07813,5.82813c0.5625,0.82292 0.84375,1.45313 0.84375,1.89063c0,0.36458 -0.13021,0.66146 -0.39062,0.89063c-0.25,0.22917 -0.58333,0.34375 -1,0.34375c-0.45833,0 -0.81771,-0.11458 -1.07812,-0.34375c-0.26042,-0.23958 -0.40625,-0.39062 -0.4375,-0.45312l-0.59375,-0.9375l-3.42187,-5.28125l-2.39062,2.28125v2.95313c0,1.1875 -0.47917,1.78125 -1.4375,1.78125c-0.48958,0 -0.85417,-0.15625 -1.09375,-0.46875c-0.23958,-0.3125 -0.35937,-0.95833 -0.35937,-1.9375v-10c0,-0.625 0.02604,-1.07812 0.07813,-1.35937c0.05208,-0.29167 0.20313,-0.53646 0.45313,-0.73437c0.26042,-0.20833 0.5625,-0.3125 0.90625,-0.3125c0.34375,0 0.64063,0.09896 0.89063,0.29688c0.25,0.1875 0.40625,0.42708 0.46875,0.71875c0.0625,0.28125 0.09375,0.74479 0.09375,1.39063zM76.19238,170.74219c0.35417,0 0.65625,0.13021 0.90625,0.39063c0.25,0.26042 0.375,0.5625 0.375,0.90625c0,0.35417 -0.125,0.66146 -0.375,0.92188c-0.25,0.25 -0.55208,0.375 -0.90625,0.375c-0.35417,0 -0.66146,-0.125 -0.92188,-0.375c-0.25,-0.26042 -0.375,-0.56771 -0.375,-0.92187c0,-0.35417 0.125,-0.65625 0.375,-0.90625c0.26042,-0.26042 0.56771,-0.39062 0.92188,-0.39062zM77.52051,176.75781v6.45313c0,0.64583 -0.03125,1.08854 -0.09375,1.32813c-0.05208,0.22917 -0.20312,0.4375 -0.45312,0.625c-0.23958,0.17708 -0.5,0.26563 -0.78125,0.26563c-0.28125,0 -0.54688,-0.08854 -0.79688,-0.26562c-0.25,-0.1875 -0.40625,-0.40104 -0.46875,-0.64062c-0.05208,-0.23958 -0.07812,-0.67708 -0.07812,-1.3125v-6.4375c0,-0.58333 0.02083,-0.99479 0.0625,-1.23437c0.05208,-0.25 0.19792,-0.46875 0.4375,-0.65625c0.23958,-0.19792 0.51563,-0.29687 0.82813,-0.29687c0.3125,0 0.58333,0.08854 0.8125,0.26563c0.22917,0.16667 0.375,0.38542 0.4375,0.65625c0.0625,0.26042 0.09375,0.67708 0.09375,1.25zM82.94043,172.82031v10.39063c0,0.64583 -0.03125,1.08854 -0.09375,1.32813c-0.05208,0.22917 -0.20312,0.4375 -0.45312,0.625c-0.23958,0.17708 -0.5,0.26563 -0.78125,0.26563c-0.28125,0 -0.54687,-0.08854 -0.79687,-0.26562c-0.25,-0.1875 -0.40625,-0.40104 -0.46875,-0.64062c-0.05208,-0.23958 -0.07812,-0.67708 -0.07812,-1.3125v-10.39062c0,-0.65625 0.03125,-1.09896 0.09375,-1.32812c0.0625,-0.23958 0.21354,-0.44271 0.45313,-0.60937c0.23958,-0.17708 0.5,-0.26562 0.78125,-0.26562c0.32292,0 0.59896,0.09375 0.82813,0.28125c0.23958,0.1875 0.38542,0.40625 0.4375,0.65625c0.05208,0.25 0.07813,0.67188 0.07813,1.26563zM88.36035,172.82031v10.39063c0,0.64583 -0.03125,1.08854 -0.09375,1.32813c-0.05208,0.22917 -0.20312,0.4375 -0.45312,0.625c-0.23958,0.17708 -0.5,0.26563 -0.78125,0.26563c-0.28125,0 -0.54687,-0.08854 -0.79687,-0.26562c-0.25,-0.1875 -0.40625,-0.40104 -0.46875,-0.64062c-0.05208,-0.23958 -0.07812,-0.67708 -0.07812,-1.3125v-10.39062c0,-0.65625 0.03125,-1.09896 0.09375,-1.32812c0.0625,-0.23958 0.21354,-0.44271 0.45313,-0.60937c0.23958,-0.17708 0.5,-0.26562 0.78125,-0.26562c0.32292,0 0.59896,0.09375 0.82813,0.28125c0.23958,0.1875 0.38542,0.40625 0.4375,0.65625c0.05208,0.25 0.07813,0.67188 0.07813,1.26563zM104.4834,180.66406h-5.23437c0.03125,0.98958 0.30208,1.73438 0.8125,2.23438c0.52083,0.5 1.14583,0.75 1.875,0.75c0.88542,0 1.72396,-0.39062 2.51563,-1.17187c0.32292,-0.32292 0.55729,-0.52083 0.70313,-0.59375c0.15625,-0.08333 0.32813,-0.125 0.51563,-0.125c0.23958,0 0.44271,0.07813 0.60938,0.23438c0.17708,0.14583 0.26563,0.32813 0.26563,0.54688c0,0.60417 -0.41146,1.23958 -1.23437,1.90625c-0.8125,0.65625 -1.92187,0.98438 -3.32812,0.98438c-1.78125,0 -3.13542,-0.50521 -4.0625,-1.51562c-0.91667,-1.01042 -1.375,-2.3125 -1.375,-3.90625c0,-1.61458 0.45833,-2.92187 1.375,-3.92187c0.92708,-1 2.21354,-1.5 3.85938,-1.5c1.5625,0 2.77083,0.47396 3.625,1.42188c0.85417,0.9375 1.28125,1.95833 1.28125,3.0625c0,0.48958 -0.14062,0.88021 -0.42187,1.17188c-0.28125,0.28125 -0.875,0.42188 -1.78125,0.42188zM99.24902,179.14844h4.85938c-0.03125,-0.88542 -0.27604,-1.5625 -0.73437,-2.03125c-0.45833,-0.46875 -1.02083,-0.70312 -1.6875,-0.70312c-1.41667,0 -2.22917,0.91146 -2.4375,2.73438zM112.47949,182.32031l2.32813,-6.34375c0.22917,-0.625 0.44271,-1.01042 0.64063,-1.15625c0.19792,-0.15625 0.42188,-0.23437 0.67188,-0.23437c0.35417,0 0.64583,0.11979 0.875,0.35938c0.23958,0.23958 0.35938,0.48958 0.35938,0.75c0,0.23958 -0.13021,0.6875 -0.39062,1.34375l-2.57812,6.34375c-0.35417,0.90625 -0.66146,1.47396 -0.92187,1.70313c-0.25,0.22917 -0.57812,0.34375 -0.98437,0.34375c-0.51042,0 -0.88542,-0.14062 -1.125,-0.42187c-0.22917,-0.29167 -0.5,-0.83333 -0.8125,-1.625l-2.54688,-6.28125c-0.27083,-0.63542 -0.40625,-1.08854 -0.40625,-1.35937c0,-0.28125 0.11979,-0.54167 0.35937,-0.78125c0.25,-0.25 0.55729,-0.375 0.92188,-0.375c0.40625,0 0.6875,0.11458 0.84375,0.34375c0.16667,0.22917 0.36979,0.66667 0.60938,1.3125zM126.44628,180.66406h-5.23437c0.03125,0.98958 0.30208,1.73438 0.8125,2.23438c0.52083,0.5 1.14583,0.75 1.875,0.75c0.88542,0 1.72396,-0.39062 2.51563,-1.17187c0.32292,-0.32292 0.55729,-0.52083 0.70313,-0.59375c0.15625,-0.08333 0.32813,-0.125 0.51563,-0.125c0.23958,0 0.44271,0.07813 0.60938,0.23438c0.17708,0.14583 0.26563,0.32813 0.26563,0.54688c0,0.60417 -0.41146,1.23958 -1.23437,1.90625c-0.8125,0.65625 -1.92187,0.98438 -3.32812,0.98438c-1.78125,0 -3.13542,-0.50521 -4.0625,-1.51562c-0.91667,-1.01042 -1.375,-2.3125 -1.375,-3.90625c0,-1.61458 0.45833,-2.92187 1.375,-3.92187c0.92708,-1 2.21354,-1.5 3.85938,-1.5c1.5625,0 2.77083,0.47396 3.625,1.42188c0.85417,0.9375 1.28125,1.95833 1.28125,3.0625c0,0.48958 -0.14062,0.88021 -0.42187,1.17188c-0.28125,0.28125 -0.875,0.42188 -1.78125,0.42188zM121.21191,179.14844h4.85938c-0.03125,-0.88542 -0.27604,-1.5625 -0.73437,-2.03125c-0.45833,-0.46875 -1.02083,-0.70312 -1.6875,-0.70312c-1.41667,0 -2.22917,0.91146 -2.4375,2.73438zM130.87792,183.21094v-6.82812c0,-1.19792 0.4375,-1.79687 1.3125,-1.79687c0.84375,0 1.27604,0.55208 1.29688,1.65625c0.55208,-1.10417 1.31771,-1.65625 2.29688,-1.65625c0.51042,0 1.04167,0.13542 1.59375,0.40625c0.55208,0.27083 0.82813,0.64063 0.82813,1.10938c0,0.32292 -0.11458,0.59375 -0.34375,0.8125c-0.21875,0.20833 -0.45312,0.3125 -0.70312,0.3125c-0.14583,0 -0.40625,-0.05729 -0.78125,-0.17187c-0.375,-0.11458 -0.6875,-0.17187 -0.9375,-0.17187c-0.63542,0 -1.10937,0.32292 -1.42187,0.96875c-0.3125,0.63542 -0.46875,1.875 -0.46875,3.71875v1.54688c0,0.67708 -0.03125,1.13542 -0.09375,1.375c-0.05208,0.23958 -0.19792,0.45833 -0.4375,0.65625c-0.22917,0.1875 -0.49479,0.28125 -0.79687,0.28125c-0.30208,0 -0.57292,-0.08854 -0.8125,-0.26562c-0.22917,-0.17708 -0.375,-0.38021 -0.4375,-0.60937c-0.0625,-0.23958 -0.09375,-0.6875 -0.09375,-1.34375zM142.35644,185.16406l-3.25,-8.26562c-0.20833,-0.53125 -0.3125,-0.90104 -0.3125,-1.10937c0,-0.30208 0.125,-0.57812 0.375,-0.82812c0.26042,-0.25 0.5625,-0.375 0.90625,-0.375c0.30208,0 0.55729,0.09375 0.76563,0.28125c0.20833,0.17708 0.41667,0.55208 0.625,1.125l2.25,6.5625l2.14063,-6.07812c0.28125,-0.79167 0.50521,-1.30208 0.67188,-1.53125c0.16667,-0.23958 0.45313,-0.35937 0.85938,-0.35937c0.36458,0 0.65104,0.125 0.85938,0.375c0.20833,0.23958 0.3125,0.48438 0.3125,0.73438c0,0.30208 -0.10417,0.72917 -0.3125,1.28125l-3.48437,9.10938c-0.45833,1.20833 -0.9375,2.05729 -1.4375,2.54688c-0.48958,0.5 -1.33333,0.75 -2.53125,0.75c-1.54167,0 -2.3125,-0.39583 -2.3125,-1.1875c0,-0.26042 0.08333,-0.47917 0.25,-0.65625c0.17708,-0.17708 0.41146,-0.26562 0.70313,-0.26562c0.05208,0 0.20313,0.01042 0.45313,0.03125c0.26042,0.02083 0.41146,0.03125 0.45313,0.03125c0.48958,0 0.84896,-0.11979 1.07813,-0.35937c0.23958,-0.22917 0.47396,-0.63542 0.70313,-1.21875zM154.88574,174.58594c1.65625,0 2.95833,0.51042 3.90625,1.53125c0.94792,1.01042 1.42188,2.30729 1.42188,3.89063c0,1.58333 -0.47917,2.88542 -1.4375,3.90625c-0.95833,1.01042 -2.22917,1.51563 -3.8125,1.51563c-1.71875,0 -3.04687,-0.51562 -3.98437,-1.54687c-0.9375,-1.03125 -1.40625,-2.32292 -1.40625,-3.875c0,-1.58333 0.47396,-2.88021 1.42188,-3.89062c0.94792,-1.02083 2.24479,-1.53125 3.89063,-1.53125zM154.88574,183.44531c0.8125,0 1.45312,-0.30208 1.92187,-0.90625c0.46875,-0.61458 0.70313,-1.45833 0.70313,-2.53125c0,-1.08333 -0.23437,-1.92708 -0.70312,-2.53125c-0.46875,-0.61458 -1.10937,-0.92187 -1.92187,-0.92187c-0.79167,0 -1.42708,0.30729 -1.90625,0.92188c-0.46875,0.61458 -0.70312,1.45833 -0.70312,2.53125c0,1.07292 0.23438,1.91667 0.70313,2.53125c0.46875,0.60417 1.10417,0.90625 1.90625,0.90625zM171.71582,178.83594v4.375c0,0.57292 -0.02604,0.98958 -0.07812,1.25c-0.04167,0.25 -0.18229,0.47396 -0.42187,0.67188c-0.22917,0.19792 -0.5,0.29688 -0.8125,0.29688c-0.29167,0 -0.5625,-0.08854 -0.8125,-0.26562c-0.23958,-0.17708 -0.39062,-0.40104 -0.45312,-0.67187c-0.0625,-0.28125 -0.09375,-0.70833 -0.09375,-1.28125v-3.82812c0,-1.07292 -0.16146,-1.79167 -0.48437,-2.15625c-0.3125,-0.375 -0.75,-0.5625 -1.3125,-0.5625c-0.5,0 -0.94271,0.14583 -1.32812,0.4375c-0.38542,0.29167 -0.65625,0.66146 -0.8125,1.10938c-0.15625,0.4375 -0.23437,1.1875 -0.23437,2.25v2.75c0,0.5625 -0.02083,0.97396 -0.0625,1.23438c-0.04167,0.25 -0.18229,0.47917 -0.42187,0.6875c-0.23958,0.19792 -0.51562,0.29688 -0.82812,0.29688c-0.30208,0 -0.57812,-0.08854 -0.82812,-0.26562c-0.23958,-0.1875 -0.38542,-0.41146 -0.4375,-0.67187c-0.05208,-0.27083 -0.07812,-0.69792 -0.07812,-1.28125v-6.5625c0,-0.59375 0.02604,-1.00521 0.07813,-1.23437c0.0625,-0.23958 0.20313,-0.4375 0.42188,-0.59375c0.22917,-0.15625 0.48438,-0.23437 0.76563,-0.23437c0.26042,0 0.53125,0.10417 0.8125,0.3125c0.28125,0.19792 0.42188,0.69271 0.42188,1.48438c0.89583,-1.19792 2.04167,-1.79687 3.4375,-1.79687c0.53125,0 1.05729,0.10417 1.57813,0.3125c0.52083,0.19792 0.94271,0.52083 1.26563,0.96875c0.33333,0.44792 0.53646,0.91667 0.60938,1.40625c0.07292,0.48958 0.10938,1.01042 0.10938,1.5625zM181.82715,180.66406h-5.23437c0.03125,0.98958 0.30208,1.73438 0.8125,2.23438c0.52083,0.5 1.14583,0.75 1.875,0.75c0.88542,0 1.72396,-0.39062 2.51563,-1.17187c0.32292,-0.32292 0.55729,-0.52083 0.70313,-0.59375c0.15625,-0.08333 0.32813,-0.125 0.51563,-0.125c0.23958,0 0.44271,0.07813 0.60938,0.23438c0.17708,0.14583 0.26563,0.32813 0.26563,0.54688c0,0.60417 -0.41146,1.23958 -1.23437,1.90625c-0.8125,0.65625 -1.92187,0.98438 -3.32812,0.98438c-1.78125,0 -3.13542,-0.50521 -4.0625,-1.51562c-0.91667,-1.01042 -1.375,-2.3125 -1.375,-3.90625c0,-1.61458 0.45833,-2.92187 1.375,-3.92187c0.92708,-1 2.21354,-1.5 3.85938,-1.5c1.5625,0 2.77083,0.47396 3.625,1.42188c0.85417,0.9375 1.28125,1.95833 1.28125,3.0625c0,0.48958 -0.14062,0.88021 -0.42187,1.17188c-0.28125,0.28125 -0.875,0.42188 -1.78125,0.42188zM176.59278,179.14844h4.85938c-0.03125,-0.88542 -0.27604,-1.5625 -0.73437,-2.03125c-0.45833,-0.46875 -1.02083,-0.70312 -1.6875,-0.70312c-1.41667,0 -2.22917,0.91146 -2.4375,2.73438zM187.04395,182.47656c0.39583,0 0.73438,0.14583 1.01563,0.4375c0.29167,0.28125 0.4375,0.625 0.4375,1.03125c0,0.39583 -0.14583,0.74479 -0.4375,1.04688c-0.28125,0.29167 -0.61979,0.4375 -1.01562,0.4375c-0.40625,0 -0.75521,-0.14583 -1.04687,-0.4375c-0.29167,-0.29167 -0.4375,-0.64062 -0.4375,-1.04687c0,-0.40625 0.14583,-0.75 0.4375,-1.03125c0.29167,-0.29167 0.64063,-0.4375 1.04688,-0.4375zM200.49121,173.10156v3.65625h4.3125c0.51042,0 0.85938,0.02604 1.04688,0.07813c0.19792,0.05208 0.36979,0.17708 0.51563,0.375c0.15625,0.19792 0.23438,0.41146 0.23438,0.64063c0,0.30208 -0.11458,0.56771 -0.34375,0.79688c-0.21875,0.22917 -0.70312,0.34375 -1.45312,0.34375h-4.3125v4.03125c0,0.58333 -0.02604,1.01563 -0.07812,1.29688c-0.04167,0.28125 -0.17187,0.53646 -0.39062,0.76563c-0.20833,0.22917 -0.53646,0.34375 -0.98437,0.34375c-0.4375,0 -0.76562,-0.11458 -0.98437,-0.34375c-0.20833,-0.22917 -0.33854,-0.48958 -0.39062,-0.78125c-0.04167,-0.30208 -0.0625,-0.72917 -0.0625,-1.28125v-9.73437c0,-1.04167 0.07292,-1.63542 0.21875,-1.78125c0.15625,-0.14583 0.32292,-0.28646 0.5,-0.42187c0.1875,-0.14583 0.75521,-0.21875 1.70313,-0.21875h5.70313c0.5,0 0.85417,0.02083 1.0625,0.0625c0.20833,0.03125 0.39063,0.14583 0.54688,0.34375c0.16667,0.19792 0.25,0.43229 0.25,0.70313c0,0.27083 -0.08333,0.50521 -0.25,0.70313c-0.15625,0.19792 -0.33854,0.31771 -0.54687,0.35938c-0.20833,0.04167 -0.5625,0.0625 -1.0625,0.0625zM215.792,183.91406c-1.26042,1.01042 -2.5,1.51563 -3.71875,1.51563c-1.15625,0 -2.04687,-0.29167 -2.67187,-0.875c-0.61458,-0.59375 -0.92187,-1.3125 -0.92187,-2.15625c0,-0.72917 0.20833,-1.3125 0.625,-1.75c0.42708,-0.44792 0.88542,-0.76042 1.375,-0.9375c0.5,-0.17708 1.30729,-0.38021 2.42188,-0.60937c1.11458,-0.22917 2.01563,-0.44271 2.70313,-0.64062c-0.01042,-0.8125 -0.17187,-1.35937 -0.48437,-1.64062c-0.3125,-0.28125 -0.78646,-0.42187 -1.42187,-0.42187c-1.20833,0 -2,0.33854 -2.375,1.01563c-0.20833,0.38542 -0.39583,0.66146 -0.5625,0.82813c-0.15625,0.15625 -0.38542,0.23438 -0.6875,0.23438c-0.28125,0 -0.53646,-0.08854 -0.76562,-0.26562c-0.22917,-0.1875 -0.34375,-0.43229 -0.34375,-0.73437c0,-0.6875 0.375,-1.33854 1.125,-1.95312c0.75,-0.625 1.92708,-0.9375 3.53125,-0.9375c1.625,0 2.8125,0.28125 3.5625,0.84375c0.76042,0.5625 1.11979,1.69792 1.07813,3.40625l-0.0625,2.5c-0.02083,0.78125 0.05729,1.41667 0.23438,1.90625c0.1875,0.47917 0.28125,0.84896 0.28125,1.10938c0,0.28125 -0.125,0.53125 -0.375,0.75c-0.23958,0.21875 -0.51562,0.32813 -0.82812,0.32813c-0.54167,0 -1.11458,-0.50521 -1.71875,-1.51562zM215.62012,180.05469c-0.39583,0.15625 -1.05208,0.32813 -1.96875,0.51563c-0.91667,0.17708 -1.56771,0.38542 -1.95312,0.625c-0.375,0.22917 -0.5625,0.57292 -0.5625,1.03125c0,0.375 0.15104,0.71354 0.45313,1.01563c0.30208,0.29167 0.73438,0.4375 1.29688,0.4375c0.58333,0 1.125,-0.16146 1.625,-0.48437c0.51042,-0.32292 0.82292,-0.70312 0.9375,-1.14062c0.11458,-0.44792 0.17188,-1.11458 0.17188,-2zM225.23926,180.33594l-1.46875,1.35938v1.3125c0,0.64583 -0.02083,1.10938 -0.0625,1.39063c-0.04167,0.27083 -0.1875,0.51042 -0.4375,0.71875c-0.23958,0.20833 -0.52083,0.3125 -0.84375,0.3125c-0.29167,0 -0.55729,-0.08854 -0.79687,-0.26562c-0.23958,-0.1875 -0.38542,-0.40104 -0.4375,-0.64062c-0.05208,-0.25 -0.07812,-0.71354 -0.07812,-1.39062v-10.1875c0,-0.96875 0.11458,-1.59896 0.34375,-1.89062c0.23958,-0.29167 0.58854,-0.4375 1.04688,-0.4375c0.33333,0 0.59896,0.09375 0.79688,0.28125c0.20833,0.1875 0.33854,0.41667 0.39063,0.6875c0.05208,0.27083 0.07813,0.69792 0.07813,1.28125v5.875l3.01563,-3.125c0.45833,-0.47917 0.77083,-0.77083 0.9375,-0.875c0.17708,-0.10417 0.38021,-0.15625 0.60938,-0.15625c0.34375,0 0.625,0.10938 0.84375,0.32813c0.21875,0.21875 0.32813,0.45833 0.32813,0.71875c0,0.39583 -0.36458,0.9375 -1.09375,1.625l-1.40625,1.29688l2.71875,4.29688c0.39583,0.625 0.59375,1.07292 0.59375,1.34375c0,0.3125 -0.11458,0.59896 -0.34375,0.85938c-0.22917,0.25 -0.53646,0.375 -0.92187,0.375c-0.32292,0 -0.58854,-0.09375 -0.79687,-0.28125c-0.19792,-0.19792 -0.42708,-0.51562 -0.6875,-0.95312zM239.08301,180.66406h-5.23437c0.03125,0.98958 0.30208,1.73438 0.8125,2.23438c0.52083,0.5 1.14583,0.75 1.875,0.75c0.88542,0 1.72396,-0.39062 2.51563,-1.17187c0.32292,-0.32292 0.55729,-0.52083 0.70313,-0.59375c0.15625,-0.08333 0.32813,-0.125 0.51563,-0.125c0.23958,0 0.44271,0.07813 0.60938,0.23438c0.17708,0.14583 0.26563,0.32813 0.26563,0.54688c0,0.60417 -0.41146,1.23958 -1.23437,1.90625c-0.8125,0.65625 -1.92187,0.98438 -3.32812,0.98438c-1.78125,0 -3.13542,-0.50521 -4.0625,-1.51562c-0.91667,-1.01042 -1.375,-2.3125 -1.375,-3.90625c0,-1.61458 0.45833,-2.92187 1.375,-3.92187c0.92708,-1 2.21354,-1.5 3.85938,-1.5c1.5625,0 2.77083,0.47396 3.625,1.42188c0.85417,0.9375 1.28125,1.95833 1.28125,3.0625c0,0.48958 -0.14062,0.88021 -0.42187,1.17188c-0.28125,0.28125 -0.875,0.42188 -1.78125,0.42188zM233.84864,179.14844h4.85938c-0.03125,-0.88542 -0.27604,-1.5625 -0.73437,-2.03125c-0.45833,-0.46875 -1.02083,-0.70312 -1.6875,-0.70312c-1.41667,0 -2.22917,0.91146 -2.4375,2.73438zM255.7959,173.10156v9.92188c0,0.625 -0.02604,1.07813 -0.07812,1.35938c-0.05208,0.27083 -0.20833,0.51563 -0.46875,0.73438c-0.26042,0.20833 -0.55729,0.3125 -0.89062,0.3125c-0.34375,0 -0.64583,-0.09896 -0.90625,-0.29687c-0.26042,-0.19792 -0.41667,-0.4375 -0.46875,-0.71875c-0.04167,-0.29167 -0.0625,-0.75521 -0.0625,-1.39062v-9.92187h-2.65625c-0.57292,0 -0.96875,-0.02083 -1.1875,-0.0625c-0.20833,-0.05208 -0.39583,-0.17708 -0.5625,-0.375c-0.16667,-0.19792 -0.25,-0.42708 -0.25,-0.6875c0,-0.19792 0.05208,-0.39062 0.15625,-0.57812c0.11458,-0.19792 0.26563,-0.33333 0.45313,-0.40625c0.1875,-0.08333 0.65104,-0.125 1.39063,-0.125h8.15625c0.66667,0 1.09375,0.02604 1.28125,0.07813c0.1875,0.05208 0.35417,0.17708 0.5,0.375c0.14583,0.19792 0.21875,0.41667 0.21875,0.65625c0,0.19792 -0.05729,0.39583 -0.17187,0.59375c-0.10417,0.1875 -0.25521,0.32292 -0.45312,0.40625c-0.1875,0.08333 -0.64583,0.125 -1.375,0.125zM267.70606,183.91406c-1.26042,1.01042 -2.5,1.51563 -3.71875,1.51563c-1.15625,0 -2.04687,-0.29167 -2.67187,-0.875c-0.61458,-0.59375 -0.92187,-1.3125 -0.92187,-2.15625c0,-0.72917 0.20833,-1.3125 0.625,-1.75c0.42708,-0.44792 0.88542,-0.76042 1.375,-0.9375c0.5,-0.17708 1.30729,-0.38021 2.42188,-0.60937c1.11458,-0.22917 2.01563,-0.44271 2.70313,-0.64062c-0.01042,-0.8125 -0.17187,-1.35937 -0.48437,-1.64062c-0.3125,-0.28125 -0.78646,-0.42187 -1.42187,-0.42187c-1.20833,0 -2,0.33854 -2.375,1.01563c-0.20833,0.38542 -0.39583,0.66146 -0.5625,0.82813c-0.15625,0.15625 -0.38542,0.23438 -0.6875,0.23438c-0.28125,0 -0.53646,-0.08854 -0.76562,-0.26562c-0.22917,-0.1875 -0.34375,-0.43229 -0.34375,-0.73437c0,-0.6875 0.375,-1.33854 1.125,-1.95312c0.75,-0.625 1.92708,-0.9375 3.53125,-0.9375c1.625,0 2.8125,0.28125 3.5625,0.84375c0.76042,0.5625 1.11979,1.69792 1.07813,3.40625l-0.0625,2.5c-0.02083,0.78125 0.05729,1.41667 0.23438,1.90625c0.1875,0.47917 0.28125,0.84896 0.28125,1.10938c0,0.28125 -0.125,0.53125 -0.375,0.75c-0.23958,0.21875 -0.51562,0.32813 -0.82812,0.32813c-0.54167,0 -1.11458,-0.50521 -1.71875,-1.51562zM267.53418,180.05469c-0.39583,0.15625 -1.05208,0.32813 -1.96875,0.51563c-0.91667,0.17708 -1.56771,0.38542 -1.95312,0.625c-0.375,0.22917 -0.5625,0.57292 -0.5625,1.03125c0,0.375 0.15104,0.71354 0.45313,1.01563c0.30208,0.29167 0.73438,0.4375 1.29688,0.4375c0.58333,0 1.125,-0.16146 1.625,-0.48437c0.51042,-0.32292 0.82292,-0.70312 0.9375,-1.14062c0.11458,-0.44792 0.17188,-1.11458 0.17188,-2zM274.8877,177.35156c0,0.34375 0.17708,0.61458 0.53125,0.8125c0.35417,0.19792 1.15625,0.44792 2.40625,0.75c2.41667,0.59375 3.625,1.59896 3.625,3.01563c0,1.13542 -0.41146,2.00521 -1.23437,2.60938c-0.8125,0.59375 -1.94792,0.89063 -3.40625,0.89063c-1.48958,0 -2.60937,-0.30729 -3.35937,-0.92187c-0.75,-0.61458 -1.125,-1.26562 -1.125,-1.95312c0,-0.29167 0.10417,-0.54167 0.3125,-0.75c0.20833,-0.20833 0.46354,-0.3125 0.76563,-0.3125c0.41667,0 0.78125,0.26042 1.09375,0.78125c0.35417,0.57292 0.73958,0.95313 1.15625,1.14063c0.42708,0.1875 0.88021,0.28125 1.35938,0.28125c0.54167,0 0.97917,-0.11979 1.3125,-0.35937c0.33333,-0.23958 0.5,-0.54167 0.5,-0.90625c0,-0.33333 -0.14062,-0.61979 -0.42187,-0.85937c-0.28125,-0.23958 -1.05729,-0.50521 -2.32812,-0.79687c-1.26042,-0.29167 -2.18229,-0.69792 -2.76562,-1.21875c-0.58333,-0.53125 -0.875,-1.15625 -0.875,-1.875c0,-0.8125 0.35417,-1.53125 1.0625,-2.15625c0.70833,-0.625 1.77083,-0.9375 3.1875,-0.9375c1.29167,0 2.31771,0.26563 3.07813,0.79688c0.77083,0.52083 1.15625,1.0625 1.15625,1.625c0,0.30208 -0.09896,0.55729 -0.29687,0.76563c-0.1875,0.20833 -0.45312,0.3125 -0.79687,0.3125c-0.52083,0 -0.98958,-0.29687 -1.40625,-0.89062c-0.40625,-0.59375 -1.02604,-0.89062 -1.85937,-0.89062c-0.44792,0 -0.83854,0.09375 -1.17187,0.28125c-0.33333,0.17708 -0.5,0.43229 -0.5,0.76563zM287.99317,180.33594l-1.46875,1.35938v1.3125c0,0.64583 -0.02083,1.10938 -0.0625,1.39063c-0.04167,0.27083 -0.1875,0.51042 -0.4375,0.71875c-0.23958,0.20833 -0.52083,0.3125 -0.84375,0.3125c-0.29167,0 -0.55729,-0.08854 -0.79687,-0.26562c-0.23958,-0.1875 -0.38542,-0.40104 -0.4375,-0.64062c-0.05208,-0.25 -0.07812,-0.71354 -0.07812,-1.39062v-10.1875c0,-0.96875 0.11458,-1.59896 0.34375,-1.89062c0.23958,-0.29167 0.58854,-0.4375 1.04688,-0.4375c0.33333,0 0.59896,0.09375 0.79688,0.28125c0.20833,0.1875 0.33854,0.41667 0.39063,0.6875c0.05208,0.27083 0.07813,0.69792 0.07813,1.28125v5.875l3.01563,-3.125c0.45833,-0.47917 0.77083,-0.77083 0.9375,-0.875c0.17708,-0.10417 0.38021,-0.15625 0.60938,-0.15625c0.34375,0 0.625,0.10938 0.84375,0.32813c0.21875,0.21875 0.32813,0.45833 0.32813,0.71875c0,0.39583 -0.36458,0.9375 -1.09375,1.625l-1.40625,1.29688l2.71875,4.29688c0.39583,0.625 0.59375,1.07292 0.59375,1.34375c0,0.3125 -0.11458,0.59896 -0.34375,0.85938c-0.22917,0.25 -0.53646,0.375 -0.92187,0.375c-0.32292,0 -0.58854,-0.09375 -0.79687,-0.28125c-0.19792,-0.19792 -0.42708,-0.51562 -0.6875,-0.95312zM296.69434,177.35156c0,0.34375 0.17708,0.61458 0.53125,0.8125c0.35417,0.19792 1.15625,0.44792 2.40625,0.75c2.41667,0.59375 3.625,1.59896 3.625,3.01563c0,1.13542 -0.41146,2.00521 -1.23437,2.60938c-0.8125,0.59375 -1.94792,0.89063 -3.40625,0.89063c-1.48958,0 -2.60937,-0.30729 -3.35937,-0.92187c-0.75,-0.61458 -1.125,-1.26562 -1.125,-1.95312c0,-0.29167 0.10417,-0.54167 0.3125,-0.75c0.20833,-0.20833 0.46354,-0.3125 0.76563,-0.3125c0.41667,0 0.78125,0.26042 1.09375,0.78125c0.35417,0.57292 0.73958,0.95313 1.15625,1.14063c0.42708,0.1875 0.88021,0.28125 1.35938,0.28125c0.54167,0 0.97917,-0.11979 1.3125,-0.35937c0.33333,-0.23958 0.5,-0.54167 0.5,-0.90625c0,-0.33333 -0.14062,-0.61979 -0.42187,-0.85937c-0.28125,-0.23958 -1.05729,-0.50521 -2.32812,-0.79687c-1.26042,-0.29167 -2.18229,-0.69792 -2.76562,-1.21875c-0.58333,-0.53125 -0.875,-1.15625 -0.875,-1.875c0,-0.8125 0.35417,-1.53125 1.0625,-2.15625c0.70833,-0.625 1.77083,-0.9375 3.1875,-0.9375c1.29167,0 2.31771,0.26563 3.07813,0.79688c0.77083,0.52083 1.15625,1.0625 1.15625,1.625c0,0.30208 -0.09896,0.55729 -0.29687,0.76563c-0.1875,0.20833 -0.45312,0.3125 -0.79687,0.3125c-0.52083,0 -0.98958,-0.29687 -1.40625,-0.89062c-0.40625,-0.59375 -1.02604,-0.89062 -1.85937,-0.89062c-0.44792,0 -0.83854,0.09375 -1.17187,0.28125c-0.33333,0.17708 -0.5,0.43229 -0.5,0.76563zM307.26856,174.58594c0.39583,0 0.73438,0.14583 1.01563,0.4375c0.29167,0.28125 0.4375,0.61979 0.4375,1.01563c0,0.40625 -0.14583,0.75521 -0.4375,1.04688c-0.28125,0.29167 -0.61979,0.4375 -1.01562,0.4375c-0.40625,0 -0.75521,-0.14583 -1.04687,-0.4375c-0.29167,-0.29167 -0.4375,-0.64062 -0.4375,-1.04687c0,-0.39583 0.14583,-0.73437 0.4375,-1.01562c0.29167,-0.29167 0.64063,-0.4375 1.04688,-0.4375zM307.26856,182.47656c0.39583,0 0.73438,0.14583 1.01563,0.4375c0.29167,0.28125 0.4375,0.625 0.4375,1.03125c0,0.39583 -0.14583,0.74479 -0.4375,1.04688c-0.28125,0.29167 -0.61979,0.4375 -1.01562,0.4375c-0.40625,0 -0.75521,-0.14583 -1.04687,-0.4375c-0.29167,-0.29167 -0.4375,-0.64062 -0.4375,-1.04687c0,-0.40625 0.14583,-0.75 0.4375,-1.03125c0.29167,-0.29167 0.64063,-0.4375 1.04688,-0.4375z"/><path d="M63.45019,203.11719l-3.5,-5.42187c-0.57292,-0.875 -0.85937,-1.48958 -0.85937,-1.84375c0,-0.34375 0.13021,-0.63542 0.39063,-0.875c0.27083,-0.23958 0.59375,-0.35937 0.96875,-0.35937c0.35417,0 0.63021,0.10417 0.82813,0.3125c0.20833,0.19792 0.53125,0.65625 0.96875,1.375l2.6875,4.34375l2.70313,-4.34375c0.46875,-0.77083 0.80729,-1.24479 1.01563,-1.42187c0.20833,-0.17708 0.47917,-0.26562 0.8125,-0.26562c0.35417,0 0.65625,0.11979 0.90625,0.35938c0.25,0.23958 0.375,0.52604 0.375,0.85938c0,0.32292 -0.28125,0.91667 -0.84375,1.78125l-3.57812,5.5v3.90625c0,0.625 -0.02604,1.08333 -0.07812,1.375c-0.05208,0.28125 -0.20833,0.52604 -0.46875,0.73438c-0.25,0.19792 -0.54687,0.29688 -0.89062,0.29688c-0.33333,0 -0.63021,-0.09896 -0.89062,-0.29687c-0.25,-0.19792 -0.40625,-0.4375 -0.46875,-0.71875c-0.05208,-0.28125 -0.07812,-0.74479 -0.07812,-1.39062zM75.94043,198.58594c1.65625,0 2.95833,0.51042 3.90625,1.53125c0.94792,1.01042 1.42188,2.30729 1.42188,3.89063c0,1.58333 -0.47917,2.88542 -1.4375,3.90625c-0.95833,1.01042 -2.22917,1.51563 -3.8125,1.51563c-1.71875,0 -3.04688,-0.51562 -3.98438,-1.54687c-0.9375,-1.03125 -1.40625,-2.32292 -1.40625,-3.875c0,-1.58333 0.47396,-2.88021 1.42188,-3.89062c0.94792,-1.02083 2.24479,-1.53125 3.89063,-1.53125zM75.94043,207.44531c0.8125,0 1.45313,-0.30208 1.92188,-0.90625c0.46875,-0.61458 0.70313,-1.45833 0.70313,-2.53125c0,-1.08333 -0.23437,-1.92708 -0.70312,-2.53125c-0.46875,-0.61458 -1.10937,-0.92187 -1.92187,-0.92187c-0.79167,0 -1.42709,0.30729 -1.90625,0.92188c-0.46875,0.61458 -0.70312,1.45833 -0.70312,2.53125c0,1.07292 0.23438,1.91667 0.70313,2.53125c0.46875,0.60417 1.10417,0.90625 1.90625,0.90625zM83.28613,205.46094v-4.6875c0,-0.57292 0.02083,-0.98958 0.0625,-1.25c0.05208,-0.26042 0.19271,-0.47917 0.42188,-0.65625c0.22917,-0.1875 0.51042,-0.28125 0.84375,-0.28125c0.3125,0 0.58333,0.08854 0.8125,0.26563c0.23958,0.17708 0.38542,0.41146 0.4375,0.70313c0.0625,0.28125 0.09375,0.70833 0.09375,1.28125v3.67188c0,1.19792 0.1875,1.96875 0.5625,2.3125c0.375,0.33333 0.78646,0.5 1.23438,0.5c0.51042,0 0.95833,-0.14062 1.34375,-0.42187c0.39583,-0.29167 0.66146,-0.64062 0.79688,-1.04687c0.13542,-0.41667 0.20313,-1.22396 0.20313,-2.42187v-2.65625c0,-0.5625 0.02604,-0.97917 0.07813,-1.25c0.0625,-0.27083 0.20833,-0.49479 0.4375,-0.67187c0.23958,-0.17708 0.52083,-0.26562 0.84375,-0.26562c0.30208,0 0.57292,0.08854 0.8125,0.26563c0.23958,0.17708 0.38021,0.39583 0.42188,0.65625c0.05208,0.26042 0.07813,0.68229 0.07813,1.26563v6.59375c0,0.54167 -0.02604,0.93229 -0.07812,1.17188c-0.05208,0.23958 -0.18229,0.44792 -0.39062,0.625c-0.19792,0.17708 -0.45312,0.26563 -0.76562,0.26563c-0.86458,0 -1.28125,-0.61979 -1.25,-1.85937c-0.88542,1.23958 -2.05729,1.85938 -3.51562,1.85938c-0.96875,0 -1.79167,-0.28646 -2.46875,-0.85937c-0.67708,-0.58333 -1.01562,-1.61979 -1.01562,-3.10937zM97.25683,197.57031c-0.4375,0.02083 -0.8125,-0.11458 -1.125,-0.40625c-0.30208,-0.29167 -0.45312,-0.64583 -0.45312,-1.0625c0,-0.42708 0.15104,-0.78125 0.45313,-1.0625c0.3125,-0.28125 0.67188,-0.42187 1.07813,-0.42187c0.48958,0 0.89063,0.19271 1.20313,0.57813c0.32292,0.38542 0.48438,0.91667 0.48438,1.59375c0,1 -0.29687,1.86458 -0.89062,2.59375c-0.58333,0.72917 -1.125,1.09375 -1.625,1.09375c-0.20833,0 -0.375,-0.06771 -0.5,-0.20312c-0.11458,-0.13542 -0.17187,-0.28646 -0.17187,-0.45312c0,-0.26042 0.16146,-0.48958 0.48438,-0.6875c0.67708,-0.41667 1.03125,-0.9375 1.0625,-1.5625zM101.19043,207.21094v-6.82812c0,-1.19792 0.4375,-1.79687 1.3125,-1.79687c0.84375,0 1.27604,0.55208 1.29688,1.65625c0.55208,-1.10417 1.31771,-1.65625 2.29688,-1.65625c0.51042,0 1.04167,0.13542 1.59375,0.40625c0.55208,0.27083 0.82812,0.64063 0.82812,1.10938c0,0.32292 -0.11458,0.59375 -0.34375,0.8125c-0.21875,0.20833 -0.45312,0.3125 -0.70312,0.3125c-0.14583,0 -0.40625,-0.05729 -0.78125,-0.17187c-0.375,-0.11458 -0.6875,-0.17187 -0.9375,-0.17187c-0.63542,0 -1.10937,0.32292 -1.42187,0.96875c-0.3125,0.63542 -0.46875,1.875 -0.46875,3.71875v1.54688c0,0.67708 -0.03125,1.13542 -0.09375,1.375c-0.05208,0.23958 -0.19792,0.45833 -0.4375,0.65625c-0.22917,0.1875 -0.49479,0.28125 -0.79687,0.28125c-0.30208,0 -0.57292,-0.08854 -0.8125,-0.26562c-0.22917,-0.17708 -0.375,-0.38021 -0.4375,-0.60937c-0.0625,-0.23958 -0.09375,-0.6875 -0.09375,-1.34375zM116.90527,204.66406h-5.23437c0.03125,0.98958 0.30208,1.73438 0.8125,2.23438c0.52083,0.5 1.14583,0.75 1.875,0.75c0.88542,0 1.72396,-0.39062 2.51563,-1.17187c0.32292,-0.32292 0.55729,-0.52083 0.70313,-0.59375c0.15625,-0.08333 0.32813,-0.125 0.51563,-0.125c0.23958,0 0.44271,0.07813 0.60938,0.23438c0.17708,0.14583 0.26563,0.32813 0.26563,0.54688c0,0.60417 -0.41146,1.23958 -1.23437,1.90625c-0.8125,0.65625 -1.92187,0.98438 -3.32812,0.98438c-1.78125,0 -3.13542,-0.50521 -4.0625,-1.51562c-0.91667,-1.01042 -1.375,-2.3125 -1.375,-3.90625c0,-1.61458 0.45833,-2.92187 1.375,-3.92187c0.92708,-1 2.21354,-1.5 3.85938,-1.5c1.5625,0 2.77083,0.47396 3.625,1.42188c0.85417,0.9375 1.28125,1.95833 1.28125,3.0625c0,0.48958 -0.14062,0.88021 -0.42187,1.17188c-0.28125,0.28125 -0.875,0.42188 -1.78125,0.42188zM111.67089,203.14844h4.85938c-0.03125,-0.88542 -0.27604,-1.5625 -0.73437,-2.03125c-0.45833,-0.46875 -1.02083,-0.70312 -1.6875,-0.70312c-1.41667,0 -2.22917,0.91146 -2.4375,2.73438zM134.57128,207.89844v-0.26562c-0.91667,1.19792 -2.07812,1.79688 -3.48437,1.79688c-1.35417,0 -2.4375,-0.51562 -3.25,-1.54687c-0.80208,-1.04167 -1.20312,-2.38542 -1.20312,-4.03125c0,-1.54167 0.39063,-2.80208 1.17188,-3.78125c0.79167,-0.98958 1.88021,-1.48437 3.26563,-1.48437c1.34375,0 2.51042,0.54167 3.5,1.625v-3.45312c0,-0.95833 0.11979,-1.55208 0.35938,-1.78125c0.25,-0.23958 0.57813,-0.35937 0.98438,-0.35937c0.29167,0 0.55729,0.08333 0.79688,0.25c0.23958,0.16667 0.38542,0.38542 0.4375,0.65625c0.05208,0.26042 0.07813,0.69792 0.07813,1.3125v10.5c0,0.59375 -0.03125,1.02083 -0.09375,1.28125c-0.05208,0.25 -0.20312,0.44792 -0.45312,0.59375c-0.23958,0.14583 -0.5,0.21875 -0.78125,0.21875c-0.88542,0 -1.32812,-0.51042 -1.32812,-1.53125zM129.33691,203.92969c0,1.19792 0.25,2.07292 0.75,2.625c0.51042,0.55208 1.08854,0.82813 1.73438,0.82813c0.75,0 1.36979,-0.28646 1.85938,-0.85937c0.5,-0.57292 0.75,-1.375 0.75,-2.40625c0,-1.07292 -0.23958,-1.92708 -0.71875,-2.5625c-0.47917,-0.63542 -1.11979,-0.95312 -1.92187,-0.95312c-0.71875,0 -1.30729,0.29688 -1.76562,0.89063c-0.45833,0.58333 -0.6875,1.39583 -0.6875,2.4375zM147.22753,204.66406h-5.23437c0.03125,0.98958 0.30208,1.73438 0.8125,2.23438c0.52083,0.5 1.14583,0.75 1.875,0.75c0.88542,0 1.72396,-0.39062 2.51563,-1.17187c0.32292,-0.32292 0.55729,-0.52083 0.70313,-0.59375c0.15625,-0.08333 0.32813,-0.125 0.51563,-0.125c0.23958,0 0.44271,0.07813 0.60938,0.23438c0.17708,0.14583 0.26563,0.32813 0.26563,0.54688c0,0.60417 -0.41146,1.23958 -1.23437,1.90625c-0.8125,0.65625 -1.92187,0.98438 -3.32812,0.98438c-1.78125,0 -3.13542,-0.50521 -4.0625,-1.51562c-0.91667,-1.01042 -1.375,-2.3125 -1.375,-3.90625c0,-1.61458 0.45833,-2.92187 1.375,-3.92187c0.92708,-1 2.21354,-1.5 3.85938,-1.5c1.5625,0 2.77083,0.47396 3.625,1.42188c0.85417,0.9375 1.28125,1.95833 1.28125,3.0625c0,0.48958 -0.14062,0.88021 -0.42187,1.17188c-0.28125,0.28125 -0.875,0.42188 -1.78125,0.42188zM141.99316,203.14844h4.85938c-0.03125,-0.88542 -0.27604,-1.5625 -0.73437,-2.03125c-0.45833,-0.46875 -1.02083,-0.70312 -1.6875,-0.70312c-1.41667,0 -2.22917,0.91146 -2.4375,2.73438zM158.40917,207.91406c-1.26042,1.01042 -2.5,1.51563 -3.71875,1.51563c-1.15625,0 -2.04687,-0.29167 -2.67187,-0.875c-0.61458,-0.59375 -0.92187,-1.3125 -0.92187,-2.15625c0,-0.72917 0.20833,-1.3125 0.625,-1.75c0.42708,-0.44792 0.88542,-0.76042 1.375,-0.9375c0.5,-0.17708 1.30729,-0.38021 2.42188,-0.60937c1.11458,-0.22917 2.01563,-0.44271 2.70313,-0.64062c-0.01042,-0.8125 -0.17187,-1.35937 -0.48437,-1.64062c-0.3125,-0.28125 -0.78646,-0.42187 -1.42187,-0.42187c-1.20833,0 -2,0.33854 -2.375,1.01563c-0.20833,0.38542 -0.39583,0.66146 -0.5625,0.82813c-0.15625,0.15625 -0.38542,0.23438 -0.6875,0.23438c-0.28125,0 -0.53646,-0.08854 -0.76562,-0.26562c-0.22917,-0.1875 -0.34375,-0.43229 -0.34375,-0.73437c0,-0.6875 0.375,-1.33854 1.125,-1.95312c0.75,-0.625 1.92708,-0.9375 3.53125,-0.9375c1.625,0 2.8125,0.28125 3.5625,0.84375c0.76042,0.5625 1.11979,1.69792 1.07813,3.40625l-0.0625,2.5c-0.02083,0.78125 0.05729,1.41667 0.23438,1.90625c0.1875,0.47917 0.28125,0.84896 0.28125,1.10938c0,0.28125 -0.125,0.53125 -0.375,0.75c-0.23958,0.21875 -0.51562,0.32813 -0.82812,0.32813c-0.54167,0 -1.11458,-0.50521 -1.71875,-1.51562zM158.2373,204.05469c-0.39583,0.15625 -1.05208,0.32813 -1.96875,0.51563c-0.91667,0.17708 -1.56771,0.38542 -1.95312,0.625c-0.375,0.22917 -0.5625,0.57292 -0.5625,1.03125c0,0.375 0.15104,0.71354 0.45313,1.01563c0.30208,0.29167 0.73438,0.4375 1.29688,0.4375c0.58333,0 1.125,-0.16146 1.625,-0.48437c0.51042,-0.32292 0.82292,-0.70312 0.9375,-1.14062c0.11458,-0.44792 0.17188,-1.11458 0.17188,-2zM170.84081,207.89844v-0.26562c-0.91667,1.19792 -2.07812,1.79688 -3.48437,1.79688c-1.35417,0 -2.4375,-0.51562 -3.25,-1.54687c-0.80208,-1.04167 -1.20312,-2.38542 -1.20312,-4.03125c0,-1.54167 0.39063,-2.80208 1.17188,-3.78125c0.79167,-0.98958 1.88021,-1.48437 3.26563,-1.48437c1.34375,0 2.51042,0.54167 3.5,1.625v-3.45312c0,-0.95833 0.11979,-1.55208 0.35938,-1.78125c0.25,-0.23958 0.57813,-0.35937 0.98438,-0.35937c0.29167,0 0.55729,0.08333 0.79688,0.25c0.23958,0.16667 0.38542,0.38542 0.4375,0.65625c0.05208,0.26042 0.07813,0.69792 0.07813,1.3125v10.5c0,0.59375 -0.03125,1.02083 -0.09375,1.28125c-0.05208,0.25 -0.20312,0.44792 -0.45312,0.59375c-0.23958,0.14583 -0.5,0.21875 -0.78125,0.21875c-0.88542,0 -1.32813,-0.51042 -1.32813,-1.53125zM165.60644,203.92969c0,1.19792 0.25,2.07292 0.75,2.625c0.51042,0.55208 1.08854,0.82813 1.73438,0.82813c0.75,0 1.36979,-0.28646 1.85938,-0.85937c0.5,-0.57292 0.75,-1.375 0.75,-2.40625c0,-1.07292 -0.23958,-1.92708 -0.71875,-2.5625c-0.47917,-0.63542 -1.11979,-0.95312 -1.92187,-0.95312c-0.71875,0 -1.30729,0.29688 -1.76562,0.89063c-0.45833,0.58333 -0.6875,1.39583 -0.6875,2.4375zM177.8252,206.47656c0.39583,0 0.73438,0.14583 1.01563,0.4375c0.29167,0.28125 0.4375,0.625 0.4375,1.03125c0,0.39583 -0.14583,0.74479 -0.4375,1.04688c-0.28125,0.29167 -0.61979,0.4375 -1.01562,0.4375c-0.40625,0 -0.75521,-0.14583 -1.04687,-0.4375c-0.29167,-0.29167 -0.4375,-0.64062 -0.4375,-1.04687c0,-0.40625 0.14583,-0.75 0.4375,-1.03125c0.29167,-0.29167 0.64063,-0.4375 1.04688,-0.4375zM191.66309,203.11719l-3.5,-5.42187c-0.57292,-0.875 -0.85937,-1.48958 -0.85937,-1.84375c0,-0.34375 0.13021,-0.63542 0.39063,-0.875c0.27083,-0.23958 0.59375,-0.35937 0.96875,-0.35937c0.35417,0 0.63021,0.10417 0.82813,0.3125c0.20833,0.19792 0.53125,0.65625 0.96875,1.375l2.6875,4.34375l2.70313,-4.34375c0.46875,-0.77083 0.80729,-1.24479 1.01563,-1.42187c0.20833,-0.17708 0.47917,-0.26562 0.8125,-0.26562c0.35417,0 0.65625,0.11979 0.90625,0.35938c0.25,0.23958 0.375,0.52604 0.375,0.85938c0,0.32292 -0.28125,0.91667 -0.84375,1.78125l-3.57812,5.5v3.90625c0,0.625 -0.02604,1.08333 -0.07812,1.375c-0.05208,0.28125 -0.20833,0.52604 -0.46875,0.73438c-0.25,0.19792 -0.54687,0.29688 -0.89062,0.29688c-0.33333,0 -0.63021,-0.09896 -0.89062,-0.29687c-0.25,-0.19792 -0.40625,-0.4375 -0.46875,-0.71875c-0.05208,-0.28125 -0.07812,-0.74479 -0.07812,-1.39062zM204.15332,198.58594c1.65625,0 2.95833,0.51042 3.90625,1.53125c0.94792,1.01042 1.42188,2.30729 1.42188,3.89063c0,1.58333 -0.47917,2.88542 -1.4375,3.90625c-0.95833,1.01042 -2.22917,1.51563 -3.8125,1.51563c-1.71875,0 -3.04687,-0.51562 -3.98437,-1.54687c-0.9375,-1.03125 -1.40625,-2.32292 -1.40625,-3.875c0,-1.58333 0.47396,-2.88021 1.42188,-3.89062c0.94792,-1.02083 2.24479,-1.53125 3.89063,-1.53125zM204.15332,207.44531c0.8125,0 1.45313,-0.30208 1.92188,-0.90625c0.46875,-0.61458 0.70313,-1.45833 0.70313,-2.53125c0,-1.08333 -0.23437,-1.92708 -0.70312,-2.53125c-0.46875,-0.61458 -1.10937,-0.92187 -1.92187,-0.92187c-0.79167,0 -1.42708,0.30729 -1.90625,0.92188c-0.46875,0.61458 -0.70312,1.45833 -0.70312,2.53125c0,1.07292 0.23438,1.91667 0.70313,2.53125c0.46875,0.60417 1.10417,0.90625 1.90625,0.90625zM211.49903,205.46094v-4.6875c0,-0.57292 0.02083,-0.98958 0.0625,-1.25c0.05208,-0.26042 0.19271,-0.47917 0.42188,-0.65625c0.22917,-0.1875 0.51042,-0.28125 0.84375,-0.28125c0.3125,0 0.58333,0.08854 0.8125,0.26563c0.23958,0.17708 0.38542,0.41146 0.4375,0.70313c0.0625,0.28125 0.09375,0.70833 0.09375,1.28125v3.67188c0,1.19792 0.1875,1.96875 0.5625,2.3125c0.375,0.33333 0.78646,0.5 1.23438,0.5c0.51042,0 0.95833,-0.14062 1.34375,-0.42187c0.39583,-0.29167 0.66146,-0.64062 0.79688,-1.04687c0.13542,-0.41667 0.20313,-1.22396 0.20313,-2.42187v-2.65625c0,-0.5625 0.02604,-0.97917 0.07813,-1.25c0.0625,-0.27083 0.20833,-0.49479 0.4375,-0.67187c0.23958,-0.17708 0.52083,-0.26562 0.84375,-0.26562c0.30208,0 0.57292,0.08854 0.8125,0.26563c0.23958,0.17708 0.38021,0.39583 0.42188,0.65625c0.05208,0.26042 0.07813,0.68229 0.07813,1.26563v6.59375c0,0.54167 -0.02604,0.93229 -0.07812,1.17188c-0.05208,0.23958 -0.18229,0.44792 -0.39062,0.625c-0.19792,0.17708 -0.45312,0.26563 -0.76562,0.26563c-0.86458,0 -1.28125,-0.61979 -1.25,-1.85937c-0.88542,1.23958 -2.05729,1.85938 -3.51562,1.85938c-0.96875,0 -1.79167,-0.28646 -2.46875,-0.85937c-0.67708,-0.58333 -1.01562,-1.61979 -1.01562,-3.10937zM238.03223,204.96094c0.32292,0 0.58854,0.13021 0.79688,0.39063c0.21875,0.25 0.32813,0.50521 0.32813,0.76563c0,0.72917 -0.43229,1.46354 -1.29687,2.20313c-0.86458,0.73958 -2.02604,1.10938 -3.48437,1.10938c-1.75,0 -3.07292,-0.49479 -3.96875,-1.48437c-0.88542,-1 -1.32812,-2.29687 -1.32812,-3.89062c0,-1.60417 0.46354,-2.91667 1.39063,-3.9375c0.92708,-1.02083 2.24479,-1.53125 3.95313,-1.53125c1.32292,0 2.41667,0.34896 3.28125,1.04688c0.875,0.6875 1.3125,1.36979 1.3125,2.04688c0,0.32292 -0.11979,0.59375 -0.35937,0.8125c-0.22917,0.21875 -0.5,0.32813 -0.8125,0.32813c-0.39583,0 -0.70312,-0.16667 -0.92187,-0.5c-0.48958,-0.73958 -0.92187,-1.20833 -1.29687,-1.40625c-0.375,-0.19792 -0.78125,-0.29687 -1.21875,-0.29687c-0.85417,0 -1.51562,0.32813 -1.98437,0.98438c-0.45833,0.64583 -0.6875,1.45833 -0.6875,2.4375c0,1 0.23958,1.81771 0.71875,2.45313c0.48958,0.63542 1.14063,0.95313 1.95313,0.95313c0.45833,0 0.88021,-0.10937 1.26563,-0.32812c0.39583,-0.21875 0.73438,-0.54687 1.01563,-0.98437c0.28125,-0.44792 0.50521,-0.75521 0.67188,-0.92187c0.16667,-0.16667 0.39063,-0.25 0.67188,-0.25zM248.21387,207.91406c-1.26042,1.01042 -2.5,1.51563 -3.71875,1.51563c-1.15625,0 -2.04687,-0.29167 -2.67187,-0.875c-0.61458,-0.59375 -0.92187,-1.3125 -0.92187,-2.15625c0,-0.72917 0.20833,-1.3125 0.625,-1.75c0.42708,-0.44792 0.88542,-0.76042 1.375,-0.9375c0.5,-0.17708 1.30729,-0.38021 2.42188,-0.60937c1.11458,-0.22917 2.01563,-0.44271 2.70313,-0.64062c-0.01042,-0.8125 -0.17187,-1.35937 -0.48437,-1.64062c-0.3125,-0.28125 -0.78646,-0.42187 -1.42187,-0.42187c-1.20833,0 -2,0.33854 -2.375,1.01563c-0.20833,0.38542 -0.39583,0.66146 -0.5625,0.82813c-0.15625,0.15625 -0.38542,0.23438 -0.6875,0.23438c-0.28125,0 -0.53646,-0.08854 -0.76562,-0.26562c-0.22917,-0.1875 -0.34375,-0.43229 -0.34375,-0.73437c0,-0.6875 0.375,-1.33854 1.125,-1.95312c0.75,-0.625 1.92708,-0.9375 3.53125,-0.9375c1.625,0 2.8125,0.28125 3.5625,0.84375c0.76042,0.5625 1.11979,1.69792 1.07813,3.40625l-0.0625,2.5c-0.02083,0.78125 0.05729,1.41667 0.23438,1.90625c0.1875,0.47917 0.28125,0.84896 0.28125,1.10938c0,0.28125 -0.125,0.53125 -0.375,0.75c-0.23958,0.21875 -0.51562,0.32813 -0.82812,0.32813c-0.54167,0 -1.11458,-0.50521 -1.71875,-1.51562zM248.04199,204.05469c-0.39583,0.15625 -1.05208,0.32813 -1.96875,0.51563c-0.91667,0.17708 -1.56771,0.38542 -1.95312,0.625c-0.375,0.22917 -0.5625,0.57292 -0.5625,1.03125c0,0.375 0.15104,0.71354 0.45313,1.01563c0.30208,0.29167 0.73438,0.4375 1.29688,0.4375c0.58333,0 1.125,-0.16146 1.625,-0.48437c0.51042,-0.32292 0.82292,-0.70312 0.9375,-1.14062c0.11458,-0.44792 0.17188,-1.11458 0.17188,-2zM262.77051,202.83594v4.375c0,0.57292 -0.02604,0.98958 -0.07812,1.25c-0.04167,0.25 -0.18229,0.47396 -0.42187,0.67188c-0.22917,0.19792 -0.5,0.29688 -0.8125,0.29688c-0.29167,0 -0.5625,-0.08854 -0.8125,-0.26562c-0.23958,-0.17708 -0.39062,-0.40104 -0.45312,-0.67187c-0.0625,-0.28125 -0.09375,-0.70833 -0.09375,-1.28125v-3.82812c0,-1.07292 -0.16146,-1.79167 -0.48437,-2.15625c-0.3125,-0.375 -0.75,-0.5625 -1.3125,-0.5625c-0.5,0 -0.94271,0.14583 -1.32812,0.4375c-0.38542,0.29167 -0.65625,0.66146 -0.8125,1.10938c-0.15625,0.4375 -0.23438,1.1875 -0.23438,2.25v2.75c0,0.5625 -0.02083,0.97396 -0.0625,1.23438c-0.04167,0.25 -0.18229,0.47917 -0.42187,0.6875c-0.23958,0.19792 -0.51562,0.29688 -0.82812,0.29688c-0.30208,0 -0.57812,-0.08854 -0.82812,-0.26562c-0.23958,-0.1875 -0.38542,-0.41146 -0.4375,-0.67187c-0.05208,-0.27083 -0.07812,-0.69792 -0.07812,-1.28125v-6.5625c0,-0.59375 0.02604,-1.00521 0.07813,-1.23437c0.0625,-0.23958 0.20313,-0.4375 0.42188,-0.59375c0.22917,-0.15625 0.48438,-0.23437 0.76563,-0.23437c0.26042,0 0.53125,0.10417 0.8125,0.3125c0.28125,0.19792 0.42188,0.69271 0.42188,1.48438c0.89583,-1.19792 2.04167,-1.79687 3.4375,-1.79687c0.53125,0 1.05729,0.10417 1.57813,0.3125c0.52083,0.19792 0.94271,0.52083 1.26563,0.96875c0.33333,0.44792 0.53646,0.91667 0.60938,1.40625c0.07292,0.48958 0.10938,1.01042 0.10938,1.5625zM273.41309,201.35156c0,0.34375 0.17708,0.61458 0.53125,0.8125c0.35417,0.19792 1.15625,0.44792 2.40625,0.75c2.41667,0.59375 3.625,1.59896 3.625,3.01563c0,1.13542 -0.41146,2.00521 -1.23437,2.60938c-0.8125,0.59375 -1.94792,0.89063 -3.40625,0.89063c-1.48958,0 -2.60937,-0.30729 -3.35937,-0.92187c-0.75,-0.61458 -1.125,-1.26562 -1.125,-1.95312c0,-0.29167 0.10417,-0.54167 0.3125,-0.75c0.20833,-0.20833 0.46354,-0.3125 0.76563,-0.3125c0.41667,0 0.78125,0.26042 1.09375,0.78125c0.35417,0.57292 0.73958,0.95313 1.15625,1.14063c0.42708,0.1875 0.88021,0.28125 1.35938,0.28125c0.54167,0 0.97917,-0.11979 1.3125,-0.35937c0.33333,-0.23958 0.5,-0.54167 0.5,-0.90625c0,-0.33333 -0.14062,-0.61979 -0.42187,-0.85937c-0.28125,-0.23958 -1.05729,-0.50521 -2.32812,-0.79687c-1.26042,-0.29167 -2.18229,-0.69792 -2.76562,-1.21875c-0.58333,-0.53125 -0.875,-1.15625 -0.875,-1.875c0,-0.8125 0.35417,-1.53125 1.0625,-2.15625c0.70833,-0.625 1.77083,-0.9375 3.1875,-0.9375c1.29167,0 2.31771,0.26563 3.07813,0.79688c0.77083,0.52083 1.15625,1.0625 1.15625,1.625c0,0.30208 -0.09896,0.55729 -0.29687,0.76563c-0.1875,0.20833 -0.45312,0.3125 -0.79687,0.3125c-0.52083,0 -0.98958,-0.29687 -1.40625,-0.89062c-0.40625,-0.59375 -1.02604,-0.89062 -1.85937,-0.89062c-0.44792,0 -0.83854,0.09375 -1.17187,0.28125c-0.33333,0.17708 -0.5,0.43229 -0.5,0.76563zM282.65918,198.82031v-1.60937c0,-0.65625 0.02604,-1.09896 0.07813,-1.32812c0.0625,-0.23958 0.20833,-0.45312 0.4375,-0.64062c0.22917,-0.1875 0.5,-0.28125 0.8125,-0.28125c0.29167,0 0.55208,0.08333 0.78125,0.25c0.22917,0.16667 0.38021,0.375 0.45313,0.625c0.07292,0.23958 0.10938,0.63021 0.10938,1.17188v1.8125h0.51563c0.65625,0 1.08854,0.07813 1.29688,0.23438c0.21875,0.15625 0.32813,0.39063 0.32813,0.70313c0,0.65625 -0.54687,0.98438 -1.64062,0.98438h-0.5v4.92188c0,0.66667 0.04688,1.11979 0.14063,1.35938c0.09375,0.23958 0.34375,0.35938 0.75,0.35938c0.19792,0 0.41667,-0.02604 0.65625,-0.07812c0.25,-0.0625 0.43229,-0.09375 0.54688,-0.09375c0.27083,0 0.48958,0.08854 0.65625,0.26563c0.16667,0.17708 0.25,0.39063 0.25,0.64063c0,0.875 -0.92187,1.3125 -2.76562,1.3125c-0.89583,0 -1.55208,-0.16667 -1.96875,-0.5c-0.41667,-0.33333 -0.67708,-0.73437 -0.78125,-1.20312c-0.10417,-0.47917 -0.15625,-1.10417 -0.15625,-1.875v-5.10937h-0.34375c-0.79167,0 -1.1875,-0.32292 -1.1875,-0.96875c0,-0.63542 0.41667,-0.95312 1.25,-0.95312zM290.64551,194.74219c0.35417,0 0.65625,0.13021 0.90625,0.39063c0.25,0.26042 0.375,0.5625 0.375,0.90625c0,0.35417 -0.125,0.66146 -0.375,0.92188c-0.25,0.25 -0.55208,0.375 -0.90625,0.375c-0.35417,0 -0.66146,-0.125 -0.92187,-0.375c-0.25,-0.26042 -0.375,-0.56771 -0.375,-0.92187c0,-0.35417 0.125,-0.65625 0.375,-0.90625c0.26042,-0.26042 0.56771,-0.39062 0.92188,-0.39062zM291.97364,200.75781v6.45313c0,0.64583 -0.03125,1.08854 -0.09375,1.32813c-0.05208,0.22917 -0.20312,0.4375 -0.45312,0.625c-0.23958,0.17708 -0.5,0.26563 -0.78125,0.26563c-0.28125,0 -0.54687,-0.08854 -0.79687,-0.26562c-0.25,-0.1875 -0.40625,-0.40104 -0.46875,-0.64062c-0.05208,-0.23958 -0.07812,-0.67708 -0.07812,-1.3125v-6.4375c0,-0.58333 0.02083,-0.99479 0.0625,-1.23437c0.05208,-0.25 0.19792,-0.46875 0.4375,-0.65625c0.23958,-0.19792 0.51563,-0.29687 0.82813,-0.29687c0.3125,0 0.58333,0.08854 0.8125,0.26563c0.22917,0.16667 0.375,0.38542 0.4375,0.65625c0.0625,0.26042 0.09375,0.67708 0.09375,1.25zM297.39356,196.82031v10.39063c0,0.64583 -0.03125,1.08854 -0.09375,1.32813c-0.05208,0.22917 -0.20312,0.4375 -0.45312,0.625c-0.23958,0.17708 -0.5,0.26563 -0.78125,0.26563c-0.28125,0 -0.54687,-0.08854 -0.79687,-0.26562c-0.25,-0.1875 -0.40625,-0.40104 -0.46875,-0.64062c-0.05208,-0.23958 -0.07812,-0.67708 -0.07812,-1.3125v-10.39062c0,-0.65625 0.03125,-1.09896 0.09375,-1.32812c0.0625,-0.23958 0.21354,-0.44271 0.45313,-0.60937c0.23958,-0.17708 0.5,-0.26562 0.78125,-0.26562c0.32292,0 0.59896,0.09375 0.82813,0.28125c0.23958,0.1875 0.38542,0.40625 0.4375,0.65625c0.05208,0.25 0.07813,0.67188 0.07813,1.26563zM302.81348,196.82031v10.39063c0,0.64583 -0.03125,1.08854 -0.09375,1.32813c-0.05208,0.22917 -0.20312,0.4375 -0.45312,0.625c-0.23958,0.17708 -0.5,0.26563 -0.78125,0.26563c-0.28125,0 -0.54687,-0.08854 -0.79687,-0.26562c-0.25,-0.1875 -0.40625,-0.40104 -0.46875,-0.64062c-0.05208,-0.23958 -0.07812,-0.67708 -0.07812,-1.3125v-10.39062c0,-0.65625 0.03125,-1.09896 0.09375,-1.32812c0.0625,-0.23958 0.21354,-0.44271 0.45313,-0.60937c0.23958,-0.17708 0.5,-0.26562 0.78125,-0.26562c0.32292,0 0.59896,0.09375 0.82813,0.28125c0.23958,0.1875 0.38542,0.40625 0.4375,0.65625c0.05208,0.25 0.07813,0.67188 0.07813,1.26563zM313.53028,201.35156c0,0.34375 0.17708,0.61458 0.53125,0.8125c0.35417,0.19792 1.15625,0.44792 2.40625,0.75c2.41667,0.59375 3.625,1.59896 3.625,3.01563c0,1.13542 -0.41146,2.00521 -1.23437,2.60938c-0.8125,0.59375 -1.94792,0.89063 -3.40625,0.89063c-1.48958,0 -2.60937,-0.30729 -3.35937,-0.92187c-0.75,-0.61458 -1.125,-1.26562 -1.125,-1.95312c0,-0.29167 0.10417,-0.54167 0.3125,-0.75c0.20833,-0.20833 0.46354,-0.3125 0.76563,-0.3125c0.41667,0 0.78125,0.26042 1.09375,0.78125c0.35417,0.57292 0.73958,0.95313 1.15625,1.14063c0.42708,0.1875 0.88021,0.28125 1.35938,0.28125c0.54167,0 0.97917,-0.11979 1.3125,-0.35937c0.33333,-0.23958 0.5,-0.54167 0.5,-0.90625c0,-0.33333 -0.14062,-0.61979 -0.42187,-0.85937c-0.28125,-0.23958 -1.05729,-0.50521 -2.32812,-0.79687c-1.26042,-0.29167 -2.18229,-0.69792 -2.76562,-1.21875c-0.58333,-0.53125 -0.875,-1.15625 -0.875,-1.875c0,-0.8125 0.35417,-1.53125 1.0625,-2.15625c0.70833,-0.625 1.77083,-0.9375 3.1875,-0.9375c1.29167,0 2.31771,0.26563 3.07813,0.79688c0.77083,0.52083 1.15625,1.0625 1.15625,1.625c0,0.30208 -0.09896,0.55729 -0.29687,0.76563c-0.1875,0.20833 -0.45312,0.3125 -0.79687,0.3125c-0.52083,0 -0.98958,-0.29687 -1.40625,-0.89062c-0.40625,-0.59375 -1.02604,-0.89062 -1.85937,-0.89062c-0.44792,0 -0.83854,0.09375 -1.17187,0.28125c-0.33333,0.17708 -0.5,0.43229 -0.5,0.76563zM329.07325,207.91406c-1.26042,1.01042 -2.5,1.51563 -3.71875,1.51563c-1.15625,0 -2.04687,-0.29167 -2.67187,-0.875c-0.61458,-0.59375 -0.92187,-1.3125 -0.92187,-2.15625c0,-0.72917 0.20833,-1.3125 0.625,-1.75c0.42708,-0.44792 0.88542,-0.76042 1.375,-0.9375c0.5,-0.17708 1.30729,-0.38021 2.42188,-0.60937c1.11458,-0.22917 2.01563,-0.44271 2.70313,-0.64062c-0.01042,-0.8125 -0.17187,-1.35937 -0.48437,-1.64062c-0.3125,-0.28125 -0.78646,-0.42187 -1.42187,-0.42187c-1.20833,0 -2,0.33854 -2.375,1.01563c-0.20833,0.38542 -0.39583,0.66146 -0.5625,0.82813c-0.15625,0.15625 -0.38542,0.23438 -0.6875,0.23438c-0.28125,0 -0.53646,-0.08854 -0.76562,-0.26562c-0.22917,-0.1875 -0.34375,-0.43229 -0.34375,-0.73437c0,-0.6875 0.375,-1.33854 1.125,-1.95312c0.75,-0.625 1.92708,-0.9375 3.53125,-0.9375c1.625,0 2.8125,0.28125 3.5625,0.84375c0.76042,0.5625 1.11979,1.69792 1.07813,3.40625l-0.0625,2.5c-0.02083,0.78125 0.05729,1.41667 0.23438,1.90625c0.1875,0.47917 0.28125,0.84896 0.28125,1.10938c0,0.28125 -0.125,0.53125 -0.375,0.75c-0.23958,0.21875 -0.51562,0.32813 -0.82812,0.32813c-0.54167,0 -1.11458,-0.50521 -1.71875,-1.51562zM328.90137,204.05469c-0.39583,0.15625 -1.05208,0.32813 -1.96875,0.51563c-0.91667,0.17708 -1.56771,0.38542 -1.95312,0.625c-0.375,0.22917 -0.5625,0.57292 -0.5625,1.03125c0,0.375 0.15104,0.71354 0.45313,1.01563c0.30208,0.29167 0.73438,0.4375 1.29688,0.4375c0.58333,0 1.125,-0.16146 1.625,-0.48437c0.51042,-0.32292 0.82292,-0.70312 0.9375,-1.14062c0.11458,-0.44792 0.17188,-1.11458 0.17188,-2zM336.38184,207.63281v0.26563c0,1.02083 -0.4375,1.53125 -1.3125,1.53125c-0.34375,0 -0.63021,-0.08854 -0.85937,-0.26562c-0.22917,-0.17708 -0.36979,-0.39062 -0.42187,-0.64062c-0.04167,-0.25 -0.0625,-0.64583 -0.0625,-1.1875v-10.5c0,-0.60417 0.02604,-1.04167 0.07813,-1.3125c0.0625,-0.28125 0.21354,-0.5 0.45313,-0.65625c0.25,-0.16667 0.51563,-0.25 0.79688,-0.25c0.39583,0 0.71354,0.11979 0.95313,0.35938c0.25,0.22917 0.375,0.82292 0.375,1.78125v3.45313c1,-1.08333 2.17188,-1.625 3.51563,-1.625c1.38542,0 2.46875,0.49479 3.25,1.48438c0.78125,0.97917 1.17188,2.23958 1.17188,3.78125c0,1.64583 -0.40104,2.98958 -1.20312,4.03125c-0.80208,1.03125 -1.88542,1.54688 -3.25,1.54688c-1.39583,0 -2.55729,-0.59896 -3.48437,-1.79687zM336.52246,204.11719c0,1.03125 0.25,1.83333 0.75,2.40625c0.5,0.57292 1.125,0.85938 1.875,0.85938c0.64583,0 1.21875,-0.27604 1.71875,-0.82812c0.51042,-0.55208 0.76563,-1.42708 0.76563,-2.625c0,-1.03125 -0.22917,-1.83854 -0.6875,-2.42187c-0.45833,-0.59375 -1.05208,-0.89062 -1.78125,-0.89062c-0.80208,0 -1.44271,0.31771 -1.92187,0.95313c-0.47917,0.63542 -0.71875,1.48438 -0.71875,2.54688zM351.11621,198.58594c1.65625,0 2.95833,0.51042 3.90625,1.53125c0.94792,1.01042 1.42188,2.30729 1.42188,3.89063c0,1.58333 -0.47917,2.88542 -1.4375,3.90625c-0.95833,1.01042 -2.22917,1.51563 -3.8125,1.51563c-1.71875,0 -3.04687,-0.51562 -3.98437,-1.54687c-0.9375,-1.03125 -1.40625,-2.32292 -1.40625,-3.875c0,-1.58333 0.47396,-2.88021 1.42188,-3.89062c0.94792,-1.02083 2.24479,-1.53125 3.89063,-1.53125zM351.11621,207.44531c0.8125,0 1.45313,-0.30208 1.92188,-0.90625c0.46875,-0.61458 0.70313,-1.45833 0.70313,-2.53125c0,-1.08333 -0.23437,-1.92708 -0.70312,-2.53125c-0.46875,-0.61458 -1.10937,-0.92187 -1.92187,-0.92187c-0.79167,0 -1.42708,0.30729 -1.90625,0.92188c-0.46875,0.61458 -0.70312,1.45833 -0.70312,2.53125c0,1.07292 0.23438,1.91667 0.70313,2.53125c0.46875,0.60417 1.10417,0.90625 1.90625,0.90625zM358.97754,198.82031v-1.60937c0,-0.65625 0.02604,-1.09896 0.07813,-1.32812c0.0625,-0.23958 0.20833,-0.45312 0.4375,-0.64062c0.22917,-0.1875 0.5,-0.28125 0.8125,-0.28125c0.29167,0 0.55208,0.08333 0.78125,0.25c0.22917,0.16667 0.38021,0.375 0.45313,0.625c0.07292,0.23958 0.10938,0.63021 0.10938,1.17188v1.8125h0.51563c0.65625,0 1.08854,0.07813 1.29688,0.23438c0.21875,0.15625 0.32813,0.39063 0.32813,0.70313c0,0.65625 -0.54687,0.98438 -1.64062,0.98438h-0.5v4.92188c0,0.66667 0.04688,1.11979 0.14063,1.35938c0.09375,0.23958 0.34375,0.35938 0.75,0.35938c0.19792,0 0.41667,-0.02604 0.65625,-0.07812c0.25,-0.0625 0.43229,-0.09375 0.54688,-0.09375c0.27083,0 0.48958,0.08854 0.65625,0.26563c0.16667,0.17708 0.25,0.39063 0.25,0.64063c0,0.875 -0.92187,1.3125 -2.76562,1.3125c-0.89583,0 -1.55208,-0.16667 -1.96875,-0.5c-0.41667,-0.33333 -0.67708,-0.73437 -0.78125,-1.20312c-0.10417,-0.47917 -0.15625,-1.10417 -0.15625,-1.875v-5.10937h-0.34375c-0.79167,0 -1.1875,-0.32292 -1.1875,-0.96875c0,-0.63542 0.41667,-0.95312 1.25,-0.95312zM372.35449,207.91406c-1.26042,1.01042 -2.5,1.51563 -3.71875,1.51563c-1.15625,0 -2.04688,-0.29167 -2.67188,-0.875c-0.61458,-0.59375 -0.92187,-1.3125 -0.92187,-2.15625c0,-0.72917 0.20833,-1.3125 0.625,-1.75c0.42708,-0.44792 0.88542,-0.76042 1.375,-0.9375c0.5,-0.17708 1.30729,-0.38021 2.42188,-0.60937c1.11458,-0.22917 2.01563,-0.44271 2.70313,-0.64062c-0.01042,-0.8125 -0.17187,-1.35937 -0.48437,-1.64062c-0.3125,-0.28125 -0.78646,-0.42187 -1.42187,-0.42187c-1.20833,0 -2,0.33854 -2.375,1.01563c-0.20833,0.38542 -0.39583,0.66146 -0.5625,0.82813c-0.15625,0.15625 -0.38542,0.23438 -0.6875,0.23438c-0.28125,0 -0.53646,-0.08854 -0.76562,-0.26562c-0.22917,-0.1875 -0.34375,-0.43229 -0.34375,-0.73437c0,-0.6875 0.375,-1.33854 1.125,-1.95312c0.75,-0.625 1.92708,-0.9375 3.53125,-0.9375c1.625,0 2.8125,0.28125 3.5625,0.84375c0.76042,0.5625 1.11979,1.69792 1.07813,3.40625l-0.0625,2.5c-0.02083,0.78125 0.05729,1.41667 0.23438,1.90625c0.1875,0.47917 0.28125,0.84896 0.28125,1.10938c0,0.28125 -0.125,0.53125 -0.375,0.75c-0.23958,0.21875 -0.51562,0.32813 -0.82812,0.32813c-0.54167,0 -1.11458,-0.50521 -1.71875,-1.51562zM372.18262,204.05469c-0.39583,0.15625 -1.05208,0.32813 -1.96875,0.51563c-0.91667,0.17708 -1.56771,0.38542 -1.95312,0.625c-0.375,0.22917 -0.5625,0.57292 -0.5625,1.03125c0,0.375 0.15104,0.71354 0.45313,1.01563c0.30208,0.29167 0.73438,0.4375 1.29688,0.4375c0.58333,0 1.125,-0.16146 1.625,-0.48437c0.51042,-0.32292 0.82292,-0.70312 0.9375,-1.14062c0.11458,-0.44792 0.17188,-1.11458 0.17188,-2zM384.55371,200.39844v-0.35937c0,-0.47917 0.11458,-0.83854 0.34375,-1.07812c0.23958,-0.25 0.54167,-0.375 0.90625,-0.375c0.40625,0 0.71875,0.14063 0.9375,0.42188c0.21875,0.28125 0.32813,0.89063 0.32813,1.82813v7.15625c0,2.125 -0.44792,3.55208 -1.34375,4.28125c-0.89583,0.73958 -2.1875,1.10938 -3.875,1.10938c-1.52083,0 -2.70833,-0.28125 -3.5625,-0.84375c-0.85417,-0.5625 -1.28125,-1.15625 -1.28125,-1.78125c0,-0.33333 0.10938,-0.60417 0.32813,-0.8125c0.22917,-0.20833 0.5,-0.3125 0.8125,-0.3125c0.28125,0 0.5,0.06771 0.65625,0.20313c0.16667,0.13542 0.44792,0.45313 0.84375,0.95313c0.40625,0.5 1.07813,0.75 2.01563,0.75c0.52083,0 1.00521,-0.08333 1.45313,-0.25c0.44792,-0.15625 0.77604,-0.44271 0.98438,-0.85937c0.21875,-0.40625 0.31771,-1.41146 0.29688,-3.01562c-0.8125,1.17708 -1.92187,1.76563 -3.32812,1.76563c-1.36458,0 -2.44271,-0.51042 -3.23437,-1.53125c-0.79167,-1.02083 -1.1875,-2.32292 -1.1875,-3.90625c0,-1.58333 0.40625,-2.83854 1.21875,-3.76562c0.8125,-0.92708 1.86979,-1.39062 3.17188,-1.39062c1.42708,0 2.59896,0.60417 3.51563,1.8125zM379.35059,203.96094c0,1.03125 0.22396,1.81771 0.67188,2.35938c0.44792,0.54167 1.06771,0.8125 1.85938,0.8125c0.6875,0 1.27604,-0.26042 1.76563,-0.78125c0.5,-0.53125 0.75,-1.32292 0.75,-2.375c0,-1.03125 -0.22917,-1.84896 -0.6875,-2.45312c-0.45833,-0.60417 -1.07812,-0.90625 -1.85937,-0.90625c-0.76042,0 -1.36979,0.28646 -1.82812,0.85938c-0.44792,0.5625 -0.67187,1.39063 -0.67187,2.48438zM396.68067,204.66406h-5.23437c0.03125,0.98958 0.30208,1.73438 0.8125,2.23438c0.52083,0.5 1.14583,0.75 1.875,0.75c0.88542,0 1.72396,-0.39062 2.51563,-1.17187c0.32292,-0.32292 0.55729,-0.52083 0.70313,-0.59375c0.15625,-0.08333 0.32813,-0.125 0.51563,-0.125c0.23958,0 0.44271,0.07813 0.60938,0.23438c0.17708,0.14583 0.26563,0.32813 0.26563,0.54688c0,0.60417 -0.41146,1.23958 -1.23437,1.90625c-0.8125,0.65625 -1.92187,0.98438 -3.32812,0.98438c-1.78125,0 -3.13542,-0.50521 -4.0625,-1.51562c-0.91667,-1.01042 -1.375,-2.3125 -1.375,-3.90625c0,-1.61458 0.45833,-2.92187 1.375,-3.92187c0.92708,-1 2.21354,-1.5 3.85938,-1.5c1.5625,0 2.77083,0.47396 3.625,1.42188c0.85417,0.9375 1.28125,1.95833 1.28125,3.0625c0,0.48958 -0.14062,0.88021 -0.42187,1.17188c-0.28125,0.28125 -0.875,0.42188 -1.78125,0.42188zM391.44629,203.14844h4.85938c-0.03125,-0.88542 -0.27604,-1.5625 -0.73437,-2.03125c-0.45833,-0.46875 -1.02083,-0.70312 -1.6875,-0.70312c-1.41667,0 -2.22917,0.91146 -2.4375,2.73438zM401.89746,206.47656c0.39583,0 0.73438,0.14583 1.01563,0.4375c0.29167,0.28125 0.4375,0.625 0.4375,1.03125c0,0.39583 -0.14583,0.74479 -0.4375,1.04688c-0.28125,0.29167 -0.61979,0.4375 -1.01562,0.4375c-0.40625,0 -0.75521,-0.14583 -1.04687,-0.4375c-0.29167,-0.29167 -0.4375,-0.64062 -0.4375,-1.04687c0,-0.40625 0.14583,-0.75 0.4375,-1.03125c0.29167,-0.29167 0.64063,-0.4375 1.04688,-0.4375z"/></g></g></svg>