<svg version="1.1" xmlns="http://www.w3.org/2000/svg" xmlns:xlink="http://www.w3.org/1999/xlink" width="504.50451" height="438.7598" viewBox="0,0,504.50451,438.7598"><g transform="translate(7.25226,42.47744)"><g data-paper-data="{&quot;isPaintingLayer&quot;:true}" fill-rule="nonzero" stroke-linecap="butt" stroke-linejoin="miter" stroke-miterlimit="10" stroke-dasharray="" stroke-dashoffset="0" style="mix-blend-mode: normal"><path d="M109.38644,103.3128c0.80452,-7.87277 13.91586,-28.759 20.47311,-30.13947c8.22505,-1.73159 33.79876,-1.06692 33.79876,-1.06692v173.58225c0,0 -40.14778,-7.63186 -40.13736,-27.20634c0.02782,-52.29068 -15.84644,-98.417 -14.13451,-115.16952z" fill="#24a9bf" stroke="#000000" stroke-width="16"/><path d="M160.90883,199.08437c-1.29557,-40.59935 -2.18976,-64.64258 3.82278,-105.36377c6.01254,-40.72119 25.26336,-69.42694 25.26336,-69.42694c0,0 11.50689,-16.75967 29.92797,-16.75967c13.89376,0 36.0474,1.71789 62.15115,4.51542c24.08114,2.58076 46.78668,36.18664 46.78668,36.18664c0,0 47.80199,42.92692 40.64743,65.04957c-3.58511,11.08554 -19.76397,29.28712 -19.76397,29.28712c0,0 -5.41872,48.85267 -6.80836,87.22272c-3.55289,43.15142 -44.59398,65.3958 -58.38139,69.93484c-1.36632,0.44982 -2.09003,2.4843 -1.42896,3.18867c1.48951,1.58704 -4.34646,16.53033 -15.30978,28.29219c-11.36025,12.1877 -28.07839,21.18059 -39.25839,21.2545c-9.23374,0.06104 -11.51779,-8.09403 -9.89103,-11.18459c3.25618,-6.1862 7.78542,-14.83049 12.19974,-23.38424c1.09559,-2.12297 6.26929,-23.67663 8.98424,-25.6222c3.85733,-2.7642 8.67387,-0.7706 14.01254,0.5602c6.86232,1.7106 11.77199,3.30444 9.9912,2.64062c-2.88955,-1.07713 -5.82154,-0.76636 -10.4158,-2.05399c-5.13957,-1.44046 -9.85647,-4.37832 -10.81847,-3.39439c-9.35932,9.57273 -32.77519,31.87558 -58.13634,43.36808c-11.05486,5.00955 -22.73396,6.22459 -36.00051,1.1718c-17.11554,-6.51874 -15.56668,-17.48928 -8.65476,-24.25444c8.04604,-7.8752 20.38106,-16.56967 23.08987,-23.81795c9.52462,-25.48612 -0.91838,-53.22731 -2.0092,-87.41018z" fill="#24a9bf" stroke="#000000" stroke-width="16"/><path d="M182.81224,93.72656c0,-20.79407 10.77407,-79.00985 10.77407,-79.00985c0,0 38.1772,-5.49067 59.8093,-4.07549c21.0492,1.37705 58.70547,17.2438 58.70547,17.2438l28.38565,81.58601c0,0 3.87842,38.11181 2.04065,71.44979c-0.96612,17.52581 -0.25235,32.64578 -9.57049,42.56861c-26.02652,27.71548 -84.6898,33.922 -106.63852,17.3269c-45.02816,-34.04514 -43.50613,-126.09913 -43.50613,-147.08975z" fill="#38ffdd" stroke="none" stroke-width="0"/><path d="M316.88955,54.22164c34.9912,13.39437 59.77318,36.94132 52.61863,59.06398c-3.58511,11.08554 -19.76397,29.28712 -19.76397,29.28712c0,0 -68.93902,28.16195 -100.57769,8.52082c-17.66536,-10.96657 -37.14706,-54.79267 -21.37385,-77.23514c17.06702,-24.28335 70.91203,-26.59781 89.0969,-19.63677z" fill="#4a646d" stroke="#000000" stroke-width="16"/><path d="M113.10251,119.99116l5.21828,-41.89916h41.7462l-1.30457,31.1251c0,0 -15.2689,-0.3305 -24.59801,1.87084c-9.32912,2.20132 -21.0619,8.90322 -21.0619,8.90322z" fill="#38ffdd" stroke="none" stroke-width="0"/><path d="M270.20191,114.88048c-33.59046,-14.19804 -25.1395,-43.09628 -25.1395,-43.09628c0,0 26.03837,-27.53373 45.49052,-27.53373c19.25264,0 70.63001,27.53373 70.63001,27.53373c0,0 11.48962,22.8069 -2.4865,32.53875c-22.7729,15.85722 -68.85434,18.85906 -88.49454,10.55753z" fill="#94c9db" stroke="none" stroke-width="0"/><path d="M278.58173,84.14961c-2.72057,-12.92273 19.27172,-16.66737 37.91234,-12.19322c26.17019,6.28142 29.49666,20.07232 25.53497,21.77018c-8.33775,3.57332 -58.26378,15.04475 -63.4473,-9.57695z" fill="#fefefe" stroke="none" stroke-width="0"/><path d="M316.88955,54.22164c34.9912,13.39437 59.77318,36.94132 52.61863,59.06398c-3.58511,11.08554 -19.76397,29.28712 -19.76397,29.28712c0,0 -68.93902,28.16195 -100.57769,8.52082c-17.66536,-10.96657 -37.14706,-54.79267 -21.37385,-77.23514c17.06702,-24.28335 70.91203,-26.59781 89.0969,-19.63677z" fill="none" stroke="#000000" stroke-width="16"/><path d="M-7.25226,188.3244c0,-114.85201 112.93718,-207.95796 252.25225,-207.95796c139.31507,0 252.25225,93.10595 252.25225,207.95796c0,114.85201 -112.93718,207.95796 -252.25225,207.95796c-139.31507,0 -252.25225,-93.10595 -252.25225,-207.95796z" fill="none" stroke="none" stroke-width="0"/><path d="M-7.25226,185.00004c0,-116.688 112.93718,-211.28231 252.25225,-211.28231c139.31507,0 252.25226,94.59431 252.25226,211.28231c0,116.688 -112.93719,211.28232 -252.25226,211.28232c-139.31507,0 -252.25225,-94.59431 -252.25225,-211.28231z" fill="none" stroke="none" stroke-width="0"/><path d="M-7.25226,188.74619c0,-114.61906 112.93718,-207.53617 252.25225,-207.53617c139.31507,0 252.25225,92.91711 252.25225,207.53618c0,114.61907 -112.93718,207.53617 -252.25225,207.53617c-139.31507,0 -252.25225,-92.91711 -252.25225,-207.53617z" fill="none" stroke="none" stroke-width="0"/><path d="M23.52852,374.93999v-417.41742h442.94295v417.41742z" fill="none" stroke="none" stroke-width="0"/><path d="M109.38644,103.31279c0.80452,-7.87277 13.91586,-28.759 20.47311,-30.13947c8.22505,-1.73159 39.29876,-1.06692 39.29876,-1.06692c0,0 -5.5,21.0387 -5.5,37.39784c0,31.21771 0,136.18441 0,136.18441c0,0 -40.14777,-7.63186 -40.13736,-27.20634c0.02783,-52.29068 -15.84644,-98.417 -14.13451,-115.16952z" fill="none" stroke="#000000" stroke-width="16"/><path d="M160.90883,199.08437c-1.29557,-40.59935 -2.18976,-64.64258 3.82278,-105.36377c6.01254,-40.72119 25.26336,-69.42694 25.26336,-69.42694c0,0 11.50689,-16.75967 29.92797,-16.75967c13.89376,0 36.0474,1.71789 62.15115,4.51542c24.08114,2.58076 46.78668,36.18664 46.78668,36.18664c0,0 47.80199,42.92692 40.64743,65.04957c-3.58511,11.08554 -19.76397,29.28712 -19.76397,29.28712c0,0 -5.41872,48.85267 -6.80836,87.22272c-3.55289,43.15142 -44.59398,65.3958 -58.38139,69.93484c-1.36632,0.44982 -2.09003,2.4843 -1.42896,3.18867c1.48951,1.58704 -4.34646,16.53033 -15.30978,28.29219c-11.36025,12.1877 -28.07839,21.18059 -39.25839,21.2545c-9.23374,0.06104 -11.51779,-8.09403 -9.89103,-11.18459c3.25618,-6.1862 7.78542,-14.83049 12.19974,-23.38424c1.09559,-2.12297 6.26929,-23.67663 8.98424,-25.6222c3.85733,-2.7642 8.67387,-0.7706 14.01254,0.5602c6.86232,1.7106 11.77199,3.30444 9.9912,2.64062c-2.88955,-1.07713 -5.82154,-0.76636 -10.4158,-2.05399c-5.13957,-1.44046 -9.85647,-4.37832 -10.81847,-3.39439c-9.35932,9.57273 -32.77519,31.87558 -58.13634,43.36808c-11.05486,5.00955 -22.73396,6.22459 -36.00051,1.1718c-17.11554,-6.51874 -15.56668,-17.48928 -8.65476,-24.25444c8.04604,-7.8752 20.38106,-16.56967 23.08987,-23.81795c9.52462,-25.48612 -0.91838,-53.22731 -2.0092,-87.41018z" fill="none" stroke="#000000" stroke-width="16"/></g></g></svg>