<svg version="1.1" xmlns="http://www.w3.org/2000/svg" xmlns:xlink="http://www.w3.org/1999/xlink" width="64.6907" height="84.49293" viewBox="0,0,64.6907,84.49293"><g transform="translate(-167.92699,-88.85409)"><g data-paper-data="{&quot;isPaintingLayer&quot;:true}" fill="#333344" fill-rule="nonzero" stroke="none" stroke-width="0" stroke-linecap="butt" stroke-linejoin="miter" stroke-miterlimit="10" stroke-dasharray="" stroke-dashoffset="0" style="mix-blend-mode: normal"><g><path d="M168.65157,130.86394c5.5372,-0.12681 48.36705,-1.09888 48.36705,-1.09888c0,0 13.23387,36.00843 15.37217,41.82659c0.31703,0.8626 0.29351,1.46361 -0.01844,1.67337c-0.24284,0.16328 -0.66044,0.08949 -1.22825,-0.28252c-6.26041,-4.10165 -54.39692,-35.63277 -62.4988,-40.9409c-0.73923,-0.48432 -1.1528,-1.15112 0.00628,-1.17766z"/><path d="M168.65208,130.16166c9.60376,-6.29211 56.36668,-36.92989 62.49202,-40.94305c0.56781,-0.37201 0.98541,-0.4458 1.22825,-0.28252c0.31196,0.20976 0.33547,0.81077 0.01844,1.67337c-2.1383,5.81817 -15.37217,41.82659 -15.37217,41.82659c0,0 -42.83218,-0.98089 -48.17158,-1.10317c-1.06477,-0.02439 -1.30233,-0.44571 -0.19496,-1.17123z" data-paper-data="{&quot;index&quot;:null}"/></g></g></g></svg>