<svg version="1.1" xmlns="http://www.w3.org/2000/svg" xmlns:xlink="http://www.w3.org/1999/xlink" width="504.50451" height="438.7598" viewBox="0,0,504.50451,438.7598"><g transform="translate(12.25226,47.47748)"><g data-paper-data="{&quot;isPaintingLayer&quot;:true}" fill-rule="nonzero" stroke-linecap="butt" stroke-linejoin="miter" stroke-miterlimit="10" stroke-dasharray="" stroke-dashoffset="0" style="mix-blend-mode: normal"><path d="M100.29436,241.22738c-6.82259,-22.12714 0.15355,-106.41699 1.86548,-123.16951c0.80452,-7.87277 13.91586,-28.759 20.47311,-30.13947c8.22505,-1.73159 33.79876,-1.06692 33.79876,-1.06692v173.58225c0,0 -44.29848,19.18978 -56.13736,-19.20634z" fill="#5e2615" stroke="#000000" stroke-width="16"/><path d="M123.42012,268.29396c4.97972,-1.0656 8.03787,0.47147 12.92659,-0.18298c3.3089,-0.44296 12.44601,-2.37509 18.00589,-3.5776c2.65454,-0.57413 4.37692,-3.48948 4.24759,-6.26809c-0.48203,-10.35647 -3.41797,-73.43585 -3.41797,-73.43585c0,0 -3.68976,-65.64258 2.32278,-106.36377c6.01254,-40.72119 25.26336,-69.42694 25.26336,-69.42694c0,0 11.50689,-16.75967 29.92797,-16.75967c13.89376,0 36.0474,1.71789 62.15115,4.51542c24.08114,2.58076 46.78668,36.18664 46.78668,36.18664c0,0 47.80199,42.92692 40.64743,65.04957c-3.58511,11.08554 -19.76397,29.28712 -19.76397,29.28712c0,0 1.59329,38.34216 0.20365,76.71221c-0.47399,13.08756 1.85388,34.57105 -1.93619,45.24879c-1.52521,4.29694 -3.6793,9.49145 0.26428,14.83328c3.71454,5.03159 8.74376,13.74949 12.57252,20.6819c3.23766,5.86215 -2.0614,13.49532 -7.76276,15.75836c-6.07714,2.41221 -16.04251,7.45549 -26.20303,11.48851c-6.72562,2.6696 -20.99046,-2.11939 -27.03032,-11.44326c-2.58888,-3.99651 -5.3309,-8.36544 -7.88169,-12.69178c-7.95581,-13.49365 -13.67845,-26.57297 -17.63626,-26.64623c-9.43425,-0.17464 -18.67845,-0.29247 -22.2112,-0.56504c-2.77792,-0.21432 -14.15831,-2.0639 -16.86374,1.29922c-0.24898,0.30951 0.03392,10.30831 -3.34202,19.48305c-1.95393,5.31018 1.80415,20.71461 -21.98211,28.41516c-20.75356,6.71874 -67.92148,0.37913 -75.72584,-2.19839c-16.74916,-5.53168 -12.3322,-6.33393 -15.43407,-16.39373c-3.10187,-10.0598 1.4014,-25.45001 0.99686,-30.42816c-0.20109,-2.47453 8.31985,7.9689 10.87444,7.42224z" fill="#5e2615" stroke="#000000" stroke-width="16"/><path d="M175.58563,78.47164c0,-20.79407 10.77407,-79.00985 10.77407,-79.00985c0,0 38.1772,-5.49067 59.8093,-4.07549c21.0492,1.37705 58.70547,17.2438 58.70547,17.2438l41.89916,116.12054c0,0 5.99996,50.6856 -21.04336,79.48386c-26.02652,27.71548 -84.6898,33.922 -106.63852,17.3269c-45.02816,-34.04514 -43.50613,-126.09913 -43.50613,-147.08975z" fill="#71491e" stroke="none" stroke-width="0"/><path d="M309.66297,38.9667c34.9912,13.39437 59.77318,36.94132 52.61863,59.06398c-3.58511,11.08554 -19.76397,29.28712 -19.76397,29.28712c0,0 -68.93902,28.16195 -100.57769,8.52082c-17.66536,-10.96657 -37.14706,-54.79267 -21.37385,-77.23514c17.06702,-24.28335 70.91203,-26.59781 89.0969,-19.63677z" fill="#4a646d" stroke="#000000" stroke-width="16"/><path d="M105.8759,134.73622l5.21828,-41.89916h41.7462l-1.30457,31.1251c0,0 -15.2689,-0.3305 -24.59801,1.87084c-9.32912,2.20132 -21.0619,8.90322 -21.0619,8.90322z" fill="#71491e" stroke="none" stroke-width="0"/><path d="M100.29436,241.22738c-6.82259,-22.12714 0.15355,-106.41699 1.86548,-123.16951c0.80452,-7.87277 13.91586,-28.759 20.47311,-30.13947c8.22505,-1.73159 33.79876,-1.06692 33.79876,-1.06692v173.58225c0,0 -44.29848,19.18978 -56.13736,-19.20634z" fill="none" stroke="#000000" stroke-width="16"/><path d="M262.97532,97.62555c-33.59046,-14.19804 -25.1395,-43.09628 -25.1395,-43.09628c0,0 26.03837,-27.53373 45.49052,-27.53373c19.25264,0 70.63001,27.53373 70.63001,27.53373c0,0 11.48962,22.8069 -2.4865,32.53875c-22.7729,15.85722 -68.85434,18.85906 -88.49454,10.55753z" fill="#94c9db" stroke="none" stroke-width="0"/><path d="M271.35515,68.89468c-2.72057,-12.92273 19.27172,-16.66737 37.91234,-12.19322c26.17019,6.28142 29.49666,20.07232 25.53497,21.77018c-8.33775,3.57332 -58.26378,15.04475 -63.4473,-9.57695z" fill="#fefefe" stroke="none" stroke-width="0"/><path d="M309.66297,38.9667c34.9912,13.39437 59.77318,36.94132 52.61863,59.06398c-3.58511,11.08554 -19.76397,29.28712 -19.76397,29.28712c0,0 -68.93902,28.16195 -100.57769,8.52082c-17.66536,-10.96657 -37.14706,-54.79267 -21.37385,-77.23514c17.06702,-24.28335 70.91203,-26.59781 89.0969,-19.63677z" fill="none" stroke="#000000" stroke-width="16"/><path d="M-12.25226,183.32435c0,-114.85201 112.93718,-207.95796 252.25225,-207.95796c139.31507,0 252.25225,93.10595 252.25225,207.95796c0,114.85201 -112.93718,207.95796 -252.25225,207.95796c-139.31507,0 -252.25225,-93.10595 -252.25225,-207.95796z" fill="none" stroke="none" stroke-width="0"/><path d="M-12.25226,179.99999c0,-116.688 112.93718,-211.28231 252.25225,-211.28231c139.31507,0 252.25226,94.59431 252.25226,211.28231c0,116.688 -112.93719,211.28232 -252.25226,211.28232c-139.31507,0 -252.25225,-94.59431 -252.25225,-211.28231z" fill="none" stroke="none" stroke-width="0"/><path d="M-12.25226,183.74614c0,-114.61906 112.93718,-207.53617 252.25225,-207.53617c139.31507,0 252.25225,92.91711 252.25225,207.53618c0,114.61907 -112.93718,207.53617 -252.25225,207.53617c-139.31507,0 -252.25225,-92.91711 -252.25225,-207.53617z" fill="none" stroke="none" stroke-width="0"/><path d="M161.50256,255.88045c0.32759,-0.04742 13.52101,1.74312 29.08039,2.64517c7.99186,0.46332 16.53838,0.79655 23.95111,1.02866c11.14673,0.34903 19.72972,0.46942 20.00785,0.45974c4.08024,-0.1419 8.71538,0.55405 10.35471,0.68053c3.53275,0.27257 12.77695,0.3904 22.2112,0.56504c1.98887,0.03682 4.42339,3.35796 7.36301,8.36559" fill="none" stroke="#000000" stroke-width="16"/><path d="M123.42012,268.29396c4.97972,-1.0656 8.03787,0.47147 12.92659,-0.18298c3.3089,-0.44296 12.44601,-2.37509 18.00589,-3.5776c2.65454,-0.57413 4.37692,-3.48948 4.24759,-6.26809c-0.48203,-10.35647 -3.41797,-73.43585 -3.41797,-73.43585c0,0 -3.68976,-65.64258 2.32278,-106.36377c6.01254,-40.72119 25.26336,-69.42694 25.26336,-69.42694c0,0 11.50689,-16.75967 29.92797,-16.75967c13.89376,0 36.0474,1.71789 62.15115,4.51542c24.08114,2.58076 46.78668,36.18664 46.78668,36.18664c0,0 47.80199,42.92692 40.64743,65.04957c-3.58511,11.08554 -19.76397,29.28712 -19.76397,29.28712c0,0 1.59329,38.34216 0.20365,76.71221c-0.47399,13.08756 1.85388,34.57105 -1.93619,45.24879c-1.52521,4.29694 -3.6793,9.49145 0.26428,14.83328c3.71454,5.03159 8.74376,13.74949 12.57252,20.6819c3.23766,5.86215 -2.0614,13.49532 -7.76276,15.75836c-6.07714,2.41221 -16.04251,7.45549 -26.20303,11.48851c-6.72562,2.6696 -20.99046,-2.11939 -27.03032,-11.44326c-2.58888,-3.99651 -5.3309,-8.36544 -7.88169,-12.69178c-7.95581,-13.49365 -13.67845,-26.57297 -17.63626,-26.64623c-9.43425,-0.17464 -18.67845,-0.29247 -22.2112,-0.56504c-2.77792,-0.21432 -14.15831,-2.0639 -16.86374,1.29922c-0.24898,0.30951 0.03392,10.30831 -3.34202,19.48305c-1.95393,5.31018 1.80415,20.71461 -21.98211,28.41516c-20.75356,6.71874 -67.92148,0.37913 -75.72584,-2.19839c-16.74916,-5.53168 -12.3322,-6.33393 -15.43407,-16.39373c-3.10187,-10.0598 1.4014,-25.45001 0.99686,-30.42816c-0.20109,-2.47453 8.31985,7.9689 10.87444,7.42224z" fill="none" stroke="#000000" stroke-width="16"/><path d="M-12.25226,183.32435c0,-114.85201 112.93718,-207.95796 252.25225,-207.95796c139.31507,0 252.25225,93.10595 252.25225,207.95796c0,114.85201 -112.93718,207.95796 -252.25225,207.95796c-139.31507,0 -252.25225,-93.10595 -252.25225,-207.95796z" fill="none" stroke="none" stroke-width="0"/><path d="M-12.25226,179.99999c0,-116.688 112.93718,-211.28231 252.25225,-211.28231c139.31507,0 252.25226,94.59431 252.25226,211.28231c0,116.688 -112.93719,211.28232 -252.25226,211.28232c-139.31507,0 -252.25225,-94.59431 -252.25225,-211.28231z" fill="none" stroke="none" stroke-width="0"/><path d="M-12.25226,183.74614c0,-114.61906 112.93718,-207.53617 252.25225,-207.53617c139.31507,0 252.25225,92.91711 252.25225,207.53618c0,114.61907 -112.93718,207.53617 -252.25225,207.53617c-139.31507,0 -252.25225,-92.91711 -252.25225,-207.53617z" fill="none" stroke="none" stroke-width="0"/><path d="M18.52852,369.93994v-417.41742h442.94295v417.41742z" fill="none" stroke="none" stroke-width="0"/></g></g></svg>