<svg version="1.1" xmlns="http://www.w3.org/2000/svg" xmlns:xlink="http://www.w3.org/1999/xlink" width="123.40361" height="88.08283" viewBox="0,0,123.40361,88.08283"><g transform="translate(-249.1773,-175.19957)"><g data-paper-data="{&quot;isPaintingLayer&quot;:true}" fill-rule="nonzero" stroke-linecap="square" stroke-linejoin="miter" stroke-miterlimit="10" stroke-dasharray="" stroke-dashoffset="0" style="mix-blend-mode: normal"><path d="M252.66016,220.36611v-1.82128c0,-0.74265 0.02947,-1.24366 0.08841,-1.50299c0.07073,-0.27113 0.23577,-0.51279 0.4951,-0.72497c0.25934,-0.21219 0.56583,-0.31828 0.91948,-0.31828c0.33007,0 0.62478,0.09431 0.88412,0.28292c0.25934,0.18861 0.43027,0.42437 0.51278,0.70729c0.08252,0.27113 0.12378,0.71319 0.12378,1.32617v2.05115h0.58352c0.74265,0 1.23186,0.08841 1.46763,0.26523c0.24755,0.17682 0.37133,0.44206 0.37133,0.7957c0,0.74265 -0.61888,1.11399 -1.85664,1.11399h-0.56583v5.56992c0,0.75444 0.05305,1.26723 0.15914,1.53836c0.10609,0.27113 0.38901,0.40669 0.84875,0.40669c0.22397,0 0.47153,-0.02947 0.74266,-0.08841c0.28292,-0.07073 0.4892,-0.10609 0.61888,-0.10609c0.3065,0 0.55405,0.1002 0.74266,0.3006c0.18861,0.2004 0.28291,0.44206 0.28291,0.72497c0,0.99021 -1.04325,1.48531 -3.12977,1.48531c-1.01379,0 -1.75645,-0.18861 -2.22797,-0.56583c-0.47152,-0.37722 -0.76624,-0.83106 -0.88412,-1.36153c-0.11788,-0.54226 -0.17682,-1.24955 -0.17682,-2.12188v-5.78211h-0.38901c-0.8959,0 -1.34385,-0.36543 -1.34385,-1.0963c0,-0.71908 0.47153,-1.07862 1.41459,-1.07862zM270.87514,224.75132v5.4992c0,1.41459 -0.51278,2.12187 -1.53836,2.12187c-0.47152,0 -0.83696,-0.14735 -1.0963,-0.44206c-0.24755,-0.3065 -0.37133,-0.86643 -0.37133,-1.67982v-4.80959c0,-1.14345 -0.18272,-1.92737 -0.54815,-2.35175c-0.36543,-0.42438 -0.87233,-0.63656 -1.52068,-0.63656c-0.57762,0 -1.07862,0.15914 -1.50299,0.47742c-0.42438,0.31828 -0.72497,0.70729 -0.9018,1.16703c-0.17682,0.45974 -0.26523,1.27312 -0.26523,2.44015v3.50109c0,0.94306 -0.13556,1.56783 -0.40669,1.87433c-0.27113,0.3065 -0.64246,0.45974 -1.11399,0.45974c-0.47152,0 -0.84285,-0.14735 -1.11398,-0.44206c-0.25934,-0.3065 -0.38901,-0.92538 -0.38901,-1.85664v-11.97091c0,-0.73087 0.03536,-1.23775 0.10609,-1.52067c0.07073,-0.28292 0.22987,-0.51279 0.47742,-0.68961c0.25934,-0.18861 0.55994,-0.28291 0.9018,-0.28291c0.37722,0 0.68961,0.10609 0.93716,0.31828c0.25934,0.2004 0.42438,0.46564 0.4951,0.7957c0.07073,0.33007 0.10609,0.87233 0.10609,1.62677v3.57182c1.01379,-1.21418 2.23976,-1.82127 3.67792,-1.82127c1.21418,0 2.1926,0.37722 2.93526,1.13167c0.75444,0.74265 1.13167,1.91558 1.13167,3.51877zM282.26474,226.97928h-5.92357c0.03536,1.11988 0.34186,1.96273 0.91948,2.52857c0.58941,0.56583 1.2967,0.84875 2.12188,0.84875c1.00199,0 1.95095,-0.44206 2.84685,-1.32617c0.36543,-0.36543 0.63067,-0.58941 0.7957,-0.67193c0.17682,-0.09431 0.37133,-0.14146 0.58352,-0.14146c0.27113,0 0.501,0.08841 0.68961,0.26523c0.2004,0.16504 0.3006,0.37133 0.3006,0.61888c0,0.68371 -0.46564,1.4028 -1.3969,2.15724c-0.91948,0.74265 -2.17492,1.11398 -3.76633,1.11398c-2.01578,0 -3.54825,-0.57173 -4.5974,-1.71518c-1.03736,-1.14345 -1.55604,-2.61698 -1.55604,-4.42057c0,-1.82717 0.51869,-3.30659 1.55604,-4.43825c1.04915,-1.13167 2.50499,-1.6975 4.36752,-1.6975c1.76823,0 3.13567,0.53636 4.1023,1.60909c0.96663,1.06094 1.44995,2.21618 1.44995,3.46573c0,0.55405 -0.15914,0.99611 -0.47742,1.32617c-0.31828,0.31828 -0.99021,0.47742 -2.01578,0.47742zM276.34117,225.2641h5.4992c-0.03536,-1.00199 -0.31239,-1.76823 -0.83107,-2.2987c-0.51868,-0.53047 -1.15525,-0.7957 -1.90969,-0.7957c-1.60319,0 -2.52267,1.03147 -2.75844,3.0944zM296.72223,222.11665c1.06094,-1.34385 2.36943,-2.01578 3.92547,-2.01578c1.54425,0 2.77022,0.58351 3.67791,1.75054c0.91948,1.15524 1.37922,2.65824 1.37922,4.50899c0,1.75645 -0.44796,3.20049 -1.34386,4.33216c-0.88412,1.11988 -2.11598,1.67982 -3.6956,1.67982c-1.4971,0 -2.81148,-0.63066 -3.94315,-1.892v3.94315c0,1.08451 -0.13557,1.75645 -0.4067,2.01578c-0.27113,0.27113 -0.63656,0.40669 -1.0963,0.40669c-0.55405,0 -0.94306,-0.18272 -1.16703,-0.54815c-0.22397,-0.36543 -0.33596,-1.01968 -0.33596,-1.96273v-11.90018c0,-0.62478 0.02358,-1.07862 0.07073,-1.36154c0.05895,-0.2947 0.21809,-0.53047 0.47742,-0.70729c0.27113,-0.17682 0.58941,-0.26523 0.95484,-0.26523c1.00199,0 1.503,0.55994 1.503,1.67982zM302.64579,226.28968c0,-1.32028 -0.27702,-2.2987 -0.83107,-2.93526c-0.55405,-0.63656 -1.2024,-0.95484 -1.94505,-0.95484c-0.86054,0 -1.57372,0.32418 -2.13956,0.97253c-0.55405,0.64835 -0.83107,1.55604 -0.83107,2.72307c0,1.21418 0.27113,2.18082 0.81338,2.8999c0.54226,0.70729 1.26723,1.06094 2.17492,1.06094c0.81338,0 1.47353,-0.33007 1.98041,-0.99021c0.51868,-0.67193 0.77802,-1.5973 0.77802,-2.77612zM308.14498,229.8615v-7.72716c0,-1.35564 0.4951,-2.03346 1.48531,-2.03346c0.95485,0 1.44405,0.62477 1.46763,1.87432c0.62478,-1.24955 1.49121,-1.87432 2.5993,-1.87432c0.57762,0 1.17881,0.15324 1.80359,0.45974c0.62478,0.3065 0.93716,0.72497 0.93716,1.25544c0,0.36543 -0.12967,0.67193 -0.38901,0.91948c-0.24755,0.23577 -0.51278,0.35364 -0.7957,0.35364c-0.16504,0 -0.45974,-0.06483 -0.88412,-0.1945c-0.42438,-0.12967 -0.77802,-0.19451 -1.06094,-0.19451c-0.71908,0 -1.25544,0.36543 -1.60909,1.0963c-0.35365,0.71908 -0.53047,2.12187 -0.53047,4.20838v1.75055c0,0.76624 -0.03536,1.28491 -0.10609,1.55604c-0.05895,0.27113 -0.22397,0.51868 -0.4951,0.74265c-0.25934,0.21219 -0.55994,0.31828 -0.9018,0.31828c-0.34186,0 -0.64835,-0.1002 -0.91948,-0.3006c-0.25934,-0.2004 -0.42438,-0.43027 -0.4951,-0.68961c-0.07073,-0.27113 -0.10609,-0.77802 -0.10609,-1.52068zM322.48312,220.10088c1.87432,0 3.34785,0.57762 4.42057,1.73286c1.07273,1.14345 1.60909,2.61108 1.60909,4.40289c0,1.79181 -0.54226,3.26533 -1.62677,4.42057c-1.08451,1.14345 -2.52267,1.71518 -4.31448,1.71518c-1.94505,0 -3.44805,-0.58351 -4.50899,-1.75054c-1.06094,-1.16703 -1.59141,-2.62876 -1.59141,-4.38521c0,-1.79181 0.53637,-3.25943 1.60909,-4.40289c1.07273,-1.15524 2.54035,-1.73286 4.40289,-1.73286zM322.48312,230.12673c0.91948,0 1.64445,-0.34186 2.17492,-1.02557c0.53047,-0.69551 0.7957,-1.65035 0.7957,-2.86453c0,-1.22598 -0.26523,-2.18082 -0.7957,-2.86453c-0.53047,-0.69551 -1.25544,-1.04325 -2.17492,-1.04325c-0.8959,0 -1.61498,0.34775 -2.15724,1.04325c-0.53047,0.69551 -0.7957,1.65035 -0.7957,2.86453c0,1.21418 0.26523,2.16902 0.7957,2.86453c0.53047,0.68371 1.24955,1.02557 2.15724,1.02557zM332.40509,215.75103c0.4008,0 0.74265,0.14735 1.02557,0.44206c0.28292,0.2947 0.42438,0.63656 0.42438,1.02557c0,0.4008 -0.14146,0.74855 -0.42438,1.04325c-0.28292,0.28292 -0.62478,0.42438 -1.02557,0.42438c-0.4008,0 -0.74855,-0.14146 -1.04325,-0.42438c-0.28292,-0.2947 -0.42438,-0.64246 -0.42438,-1.04325c0,-0.4008 0.14146,-0.74265 0.42438,-1.02557c0.2947,-0.2947 0.64246,-0.44206 1.04325,-0.44206zM330.93746,232.03642v-9.46002c0,-0.74265 0.02947,-1.23776 0.08841,-1.48531c0.05895,-0.25934 0.21808,-0.4892 0.47742,-0.68961c0.25934,-0.2004 0.55994,-0.3006 0.9018,-0.3006c0.33007,0 0.63067,0.0943 0.9018,0.28291c0.27113,0.17682 0.43616,0.40669 0.4951,0.68961c0.07073,0.27113 0.10609,0.77212 0.10609,1.50299v9.46002c0,1.13167 -0.05894,1.98631 -0.17682,2.56393c-0.11788,0.57762 -0.43027,1.0963 -0.93716,1.55604c-0.4951,0.45974 -1.27312,0.68961 -2.33406,0.68961c-1.86254,0 -2.7938,-0.48921 -2.7938,-1.46763c0,-0.35365 0.10609,-0.64835 0.31828,-0.88412c0.21219,-0.23577 0.48921,-0.35364 0.83107,-0.35364l1.0963,0.08841c0.36543,0 0.62478,-0.14145 0.77802,-0.42437c0.16504,-0.27113 0.24755,-0.86054 0.24755,-1.76823zM345.43473,226.97928h-5.92357c0.03536,1.11988 0.34186,1.96273 0.91948,2.52857c0.58941,0.56583 1.2967,0.84875 2.12187,0.84875c1.00199,0 1.95095,-0.44206 2.84685,-1.32617c0.36543,-0.36543 0.63067,-0.58941 0.7957,-0.67193c0.17682,-0.09431 0.37133,-0.14146 0.58351,-0.14146c0.27113,0 0.501,0.08841 0.68961,0.26523c0.2004,0.16504 0.3006,0.37133 0.3006,0.61888c0,0.68371 -0.46564,1.4028 -1.3969,2.15724c-0.91948,0.74265 -2.17492,1.11398 -3.76633,1.11398c-2.01578,0 -3.54825,-0.57173 -4.5974,-1.71518c-1.03736,-1.14345 -1.55604,-2.61698 -1.55604,-4.42057c0,-1.82717 0.51869,-3.30659 1.55604,-4.43825c1.04915,-1.13167 2.50499,-1.6975 4.36752,-1.6975c1.76823,0 3.13566,0.53636 4.10229,1.60909c0.96663,1.06094 1.44995,2.21618 1.44995,3.46573c0,0.55405 -0.15914,0.99611 -0.47742,1.32617c-0.31828,0.31828 -0.99021,0.47742 -2.01578,0.47742zM339.51117,225.2641h5.49919c-0.03536,-1.00199 -0.31239,-1.76823 -0.83107,-2.2987c-0.51868,-0.53047 -1.15524,-0.7957 -1.90969,-0.7957c-1.60319,0 -2.52267,1.03147 -2.75844,3.0944zM360.01599,227.31525c0.36543,0 0.66603,0.14736 0.9018,0.44206c0.24755,0.28292 0.37133,0.57173 0.37133,0.86643c0,0.82517 -0.48921,1.65624 -1.46763,2.4932c-0.97842,0.83696 -2.2928,1.25544 -3.94315,1.25544c-1.98042,0 -3.47752,-0.55994 -4.4913,-1.67982c-1.00199,-1.13167 -1.503,-2.5993 -1.503,-4.40289c0,-1.81538 0.52458,-3.3007 1.57373,-4.45594c1.04915,-1.15524 2.54035,-1.73286 4.47362,-1.73286c1.4971,0 2.73486,0.3949 3.71328,1.18471c0.99021,0.77802 1.48531,1.55015 1.48531,2.31638c0,0.36543 -0.13556,0.67193 -0.40669,0.91948c-0.25934,0.24755 -0.56583,0.37133 -0.91948,0.37133c-0.44795,0 -0.79571,-0.18861 -1.04326,-0.56583c-0.55405,-0.83696 -1.04325,-1.36743 -1.46763,-1.59141c-0.42438,-0.22397 -0.88411,-0.33596 -1.37922,-0.33596c-0.96663,0 -1.71518,0.37133 -2.24565,1.11398c-0.51868,0.73087 -0.77802,1.65035 -0.77802,2.75844c0,1.13167 0.27113,2.05704 0.81338,2.77612c0.55405,0.71908 1.29081,1.07862 2.21029,1.07862c0.51868,0 0.99611,-0.12378 1.43227,-0.37133c0.44795,-0.24755 0.83106,-0.61888 1.14935,-1.11399c0.31828,-0.50689 0.57173,-0.85464 0.76034,-1.04325c0.18861,-0.18861 0.44206,-0.28292 0.76034,-0.28292zM364.41225,220.36611v-1.82128c0,-0.74265 0.02946,-1.24366 0.08841,-1.50299c0.07073,-0.27113 0.23577,-0.51279 0.4951,-0.72497c0.25934,-0.21219 0.56583,-0.31828 0.91948,-0.31828c0.33007,0 0.62478,0.09431 0.88412,0.28292c0.25934,0.18861 0.43027,0.42437 0.51278,0.70729c0.08252,0.27113 0.12378,0.71319 0.12378,1.32617v2.05115h0.58351c0.74265,0 1.23186,0.08841 1.46763,0.26523c0.24755,0.17682 0.37133,0.44206 0.37133,0.7957c0,0.74265 -0.61888,1.11399 -1.85664,1.11399h-0.56583v5.56992c0,0.75444 0.05304,1.26723 0.15914,1.53836c0.10609,0.27113 0.38901,0.40669 0.84875,0.40669c0.22397,0 0.47152,-0.02947 0.74265,-0.08841c0.28292,-0.07073 0.48921,-0.10609 0.61888,-0.10609c0.3065,0 0.55405,0.1002 0.74265,0.3006c0.18861,0.2004 0.28292,0.44206 0.28292,0.72497c0,0.99021 -1.04325,1.48531 -3.12977,1.48531c-1.01379,0 -1.75645,-0.18861 -2.22797,-0.56583c-0.47152,-0.37722 -0.76624,-0.83106 -0.88412,-1.36153c-0.11788,-0.54226 -0.17682,-1.24955 -0.17682,-2.12188v-5.78211h-0.38901c-0.8959,0 -1.34385,-0.36543 -1.34385,-1.0963c0,-0.71908 0.47152,-1.07862 1.41458,-1.07862z" fill="#ffffff" stroke="#000000" stroke-width="3.5"/><path d="M261.98755,249.52611v-1.82128c0,-0.74265 0.02947,-1.24366 0.08841,-1.50299c0.07073,-0.27113 0.23577,-0.51279 0.4951,-0.72497c0.25934,-0.21219 0.56583,-0.31828 0.91948,-0.31828c0.33007,0 0.62478,0.0943 0.88412,0.28291c0.25934,0.18861 0.43027,0.42438 0.51278,0.7073c0.08252,0.27113 0.12378,0.71318 0.12378,1.32617v2.05115h0.58352c0.74265,0 1.23186,0.08841 1.46763,0.26523c0.24755,0.17682 0.37133,0.44206 0.37133,0.7957c0,0.74265 -0.61888,1.11398 -1.85664,1.11398h-0.56583v5.56992c0,0.75444 0.05305,1.26723 0.15914,1.53836c0.10609,0.27113 0.38901,0.40669 0.84875,0.40669c0.22397,0 0.47153,-0.02946 0.74266,-0.08841c0.28292,-0.07073 0.4892,-0.10609 0.61888,-0.10609c0.3065,0 0.55405,0.1002 0.74266,0.3006c0.18861,0.2004 0.28291,0.44205 0.28291,0.72497c0,0.99021 -1.04325,1.48531 -3.12977,1.48531c-1.01379,0 -1.75645,-0.18861 -2.22797,-0.56583c-0.47152,-0.37722 -0.76623,-0.83107 -0.88411,-1.36154c-0.11788,-0.54226 -0.17683,-1.24955 -0.17683,-2.12188v-5.78211h-0.38901c-0.8959,0 -1.34386,-0.36543 -1.34386,-1.0963c0,-0.71908 0.47153,-1.07862 1.41459,-1.07862zM274.77406,249.26088c1.87432,0 3.34785,0.57762 4.42057,1.73286c1.07273,1.14345 1.60909,2.61108 1.60909,4.40289c0,1.79181 -0.54226,3.26533 -1.62677,4.42057c-1.08451,1.14345 -2.52267,1.71518 -4.31448,1.71518c-1.94505,0 -3.44804,-0.58352 -4.50898,-1.75055c-1.06094,-1.16703 -1.59141,-2.62876 -1.59141,-4.3852c0,-1.79181 0.53636,-3.25944 1.60909,-4.40289c1.07273,-1.15524 2.54036,-1.73286 4.40289,-1.73286zM274.77406,259.28673c0.91948,0 1.64445,-0.34185 2.17492,-1.02557c0.53047,-0.69551 0.7957,-1.65035 0.7957,-2.86453c0,-1.22598 -0.26523,-2.18082 -0.7957,-2.86454c-0.53047,-0.69551 -1.25544,-1.04325 -2.17492,-1.04325c-0.8959,0 -1.61498,0.34775 -2.15724,1.04325c-0.53047,0.69551 -0.7957,1.65035 -0.7957,2.86454c0,1.21418 0.26523,2.16902 0.7957,2.86453c0.53047,0.68371 1.24955,1.02557 2.15724,1.02557zM289.80622,257.04108v-5.30469c0,-0.64835 0.02358,-1.11988 0.07073,-1.41458c0.05895,-0.2947 0.21808,-0.54225 0.47742,-0.74265c0.25934,-0.21219 0.57762,-0.31828 0.95485,-0.31828c0.35365,0 0.66014,0.1002 0.91948,0.3006c0.27113,0.2004 0.43616,0.46564 0.4951,0.7957c0.07073,0.31828 0.1061,0.8016 0.1061,1.44995v4.15534c0,1.35564 0.21219,2.22796 0.63656,2.61698c0.42438,0.37722 0.89001,0.56583 1.3969,0.56583c0.57762,0 1.08451,-0.15914 1.52067,-0.47742c0.44795,-0.33007 0.74856,-0.72497 0.9018,-1.18472c0.15325,-0.47152 0.22987,-1.38511 0.22987,-2.74075v-3.00599c0,-0.63656 0.02946,-1.10809 0.08841,-1.41458c0.07073,-0.3065 0.23577,-0.55994 0.4951,-0.76034c0.27113,-0.2004 0.58941,-0.3006 0.95485,-0.3006c0.34186,0 0.64835,0.1002 0.91948,0.3006c0.27113,0.2004 0.43027,0.44795 0.47742,0.74265c0.05895,0.2947 0.08841,0.77212 0.08841,1.43227v7.46193c0,0.61299 -0.02946,1.05504 -0.08841,1.32617c-0.05895,0.27113 -0.20629,0.50689 -0.44206,0.70729c-0.22397,0.2004 -0.51278,0.3006 -0.86643,0.3006c-0.97842,0 -1.44995,-0.70139 -1.41458,-2.10419c-1.00199,1.4028 -2.32817,2.10419 -3.97852,2.10419c-1.0963,0 -2.02757,-0.32418 -2.7938,-0.97253c-0.76624,-0.66014 -1.14935,-1.83307 -1.14935,-3.51878zM314.21,254.07046v4.95104c0,0.64835 -0.02947,1.11988 -0.08841,1.41458c-0.04715,0.28292 -0.20629,0.53637 -0.47742,0.76034c-0.25934,0.22397 -0.56583,0.33596 -0.91948,0.33596c-0.33007,0 -0.63656,-0.1002 -0.91948,-0.3006c-0.27113,-0.2004 -0.44206,-0.45384 -0.51278,-0.76034c-0.07073,-0.31828 -0.10609,-0.8016 -0.10609,-1.44995v-4.33217c0,-1.21418 -0.18272,-2.02757 -0.54815,-2.44015c-0.35365,-0.42438 -0.84875,-0.63656 -1.48531,-0.63656c-0.56583,0 -1.06684,0.16504 -1.503,0.4951c-0.43616,0.33007 -0.74265,0.74855 -0.91948,1.25544c-0.17682,0.4951 -0.26523,1.34386 -0.26523,2.54625v3.11209c0,0.63656 -0.02358,1.1022 -0.07073,1.3969c-0.04715,0.28292 -0.20629,0.54225 -0.47742,0.77802c-0.27113,0.22397 -0.58351,0.33596 -0.93716,0.33596c-0.34186,0 -0.65424,-0.1002 -0.93716,-0.3006c-0.27113,-0.21219 -0.43616,-0.46564 -0.4951,-0.76034c-0.05895,-0.3065 -0.08841,-0.7898 -0.08841,-1.44995v-7.42657c0,-0.67193 0.02947,-1.13756 0.08841,-1.3969c0.07073,-0.27113 0.22987,-0.4951 0.47742,-0.67193c0.25934,-0.17682 0.54815,-0.26523 0.86643,-0.26523c0.2947,0 0.6012,0.11788 0.91948,0.35365c0.31828,0.22397 0.47742,0.78392 0.47742,1.67982c1.01379,-1.35564 2.31049,-2.03346 3.8901,-2.03346c0.6012,0 1.1965,0.11788 1.78591,0.35365c0.58941,0.22397 1.06683,0.58941 1.43227,1.0963c0.37722,0.50689 0.60709,1.03736 0.68961,1.59141c0.08252,0.55405 0.12378,1.14345 0.12378,1.76823zM320.25954,247.26278v11.75873c0,0.73087 -0.03536,1.23186 -0.10609,1.50299c-0.05895,0.25934 -0.22987,0.4951 -0.51278,0.70729c-0.27113,0.2004 -0.56583,0.3006 -0.88412,0.3006c-0.31828,0 -0.61888,-0.1002 -0.9018,-0.3006c-0.28292,-0.21219 -0.45974,-0.45384 -0.53047,-0.72497c-0.05895,-0.27113 -0.08841,-0.76623 -0.08841,-1.48531v-11.75873c0,-0.74265 0.03536,-1.24366 0.10609,-1.50299c0.07073,-0.27113 0.24165,-0.501 0.51278,-0.68961c0.27113,-0.2004 0.56583,-0.3006 0.88412,-0.3006c0.36543,0 0.67782,0.1061 0.93716,0.31828c0.27113,0.21219 0.43616,0.45974 0.4951,0.74265c0.05895,0.28292 0.08841,0.76034 0.08841,1.43227zM328.63874,249.26088c1.87432,0 3.34785,0.57762 4.42057,1.73286c1.07273,1.14345 1.60909,2.61108 1.60909,4.40289c0,1.79181 -0.54226,3.26533 -1.62677,4.42057c-1.08451,1.14345 -2.52267,1.71518 -4.31448,1.71518c-1.94505,0 -3.44805,-0.58352 -4.50899,-1.75055c-1.06094,-1.16703 -1.5914,-2.62876 -1.5914,-4.3852c0,-1.79181 0.53636,-3.25944 1.60909,-4.40289c1.07273,-1.15524 2.54035,-1.73286 4.40289,-1.73286zM328.63874,259.28673c0.91948,0 1.64446,-0.34185 2.17492,-1.02557c0.53047,-0.69551 0.7957,-1.65035 0.7957,-2.86453c0,-1.22598 -0.26523,-2.18082 -0.7957,-2.86454c-0.53047,-0.69551 -1.25544,-1.04325 -2.17492,-1.04325c-0.8959,0 -1.61498,0.34775 -2.15724,1.04325c-0.53047,0.69551 -0.7957,1.65035 -0.7957,2.86454c0,1.21418 0.26523,2.16902 0.7957,2.86453c0.53047,0.68371 1.24954,1.02557 2.15724,1.02557zM346.58848,256.47525c0.36543,0 0.66603,0.14735 0.9018,0.44206c0.24755,0.28292 0.37133,0.57173 0.37133,0.86643c0,0.82517 -0.48921,1.65624 -1.46763,2.4932c-0.97842,0.83696 -2.2928,1.25544 -3.94315,1.25544c-1.98042,0 -3.47752,-0.55994 -4.4913,-1.67982c-1.00199,-1.13167 -1.503,-2.5993 -1.503,-4.40289c0,-1.81538 0.52458,-3.3007 1.57373,-4.45594c1.04915,-1.15524 2.54035,-1.73286 4.47362,-1.73286c1.4971,0 2.73486,0.39491 3.71328,1.18472c0.99021,0.77802 1.48531,1.55014 1.48531,2.31638c0,0.36543 -0.13556,0.67193 -0.40669,0.91948c-0.25934,0.24755 -0.56583,0.37133 -0.91948,0.37133c-0.44795,0 -0.79571,-0.18861 -1.04326,-0.56583c-0.55405,-0.83696 -1.04325,-1.36743 -1.46763,-1.59141c-0.42438,-0.22397 -0.88411,-0.33596 -1.37922,-0.33596c-0.96663,0 -1.71518,0.37133 -2.24565,1.11399c-0.51868,0.73087 -0.77802,1.65035 -0.77802,2.75844c0,1.13167 0.27113,2.05704 0.81338,2.77612c0.55405,0.71908 1.29081,1.07862 2.21029,1.07862c0.51868,0 0.99611,-0.12378 1.43227,-0.37133c0.44795,-0.24755 0.83106,-0.61888 1.14935,-1.11398c0.31828,-0.50689 0.57173,-0.85465 0.76034,-1.04326c0.18861,-0.18861 0.44206,-0.28291 0.76034,-0.28291zM354.49026,255.76796l-1.66214,1.53836v1.48531c0,0.73087 -0.02358,1.25544 -0.07073,1.57372c-0.04715,0.3065 -0.21218,0.57762 -0.4951,0.81338c-0.27113,0.23577 -0.58941,0.35365 -0.95485,0.35365c-0.33007,0 -0.63067,-0.1002 -0.9018,-0.3006c-0.27113,-0.21219 -0.43616,-0.45384 -0.4951,-0.72497c-0.05895,-0.28292 -0.08841,-0.80749 -0.08841,-1.57372v-11.52886c0,-1.0963 0.12967,-1.80949 0.38901,-2.13956c0.27113,-0.33007 0.66603,-0.4951 1.18472,-0.4951c0.37722,0 0.67782,0.1061 0.9018,0.31828c0.23577,0.21219 0.38311,0.47152 0.44206,0.77802c0.05895,0.3065 0.08841,0.78981 0.08841,1.44995v6.64854l3.41268,-3.53646c0.51868,-0.54226 0.87233,-0.87233 1.06094,-0.99021c0.2004,-0.11788 0.43027,-0.17682 0.68961,-0.17682c0.38901,0 0.7073,0.12378 0.95485,0.37133c0.24755,0.24755 0.37133,0.51869 0.37133,0.81339c0,0.44795 -0.41259,1.06094 -1.23776,1.83896l-1.5914,1.46763l3.07672,4.86263c0.44795,0.70729 0.67193,1.21418 0.67193,1.52068c0,0.35365 -0.12967,0.67782 -0.38901,0.97253c-0.25934,0.28292 -0.6071,0.42438 -1.04326,0.42438c-0.36543,0 -0.66603,-0.1061 -0.9018,-0.31828c-0.22397,-0.22397 -0.48332,-0.58351 -0.77802,-1.07862z" fill="#ffffff" stroke="#000000" stroke-width="3.5"/><path d="M260.71565,183.34113v-1.09509c0,-1.91275 0.39423,-3.19035 1.18269,-3.8328c0.80306,-0.64245 1.94195,-0.96367 3.41667,-0.96367c2.36538,0 3.54807,0.53295 3.54807,1.59883c0,0.33583 -0.10951,0.63515 -0.32853,0.89797c-0.21902,0.24822 -0.51833,0.37233 -0.89797,0.37233c-0.07301,0 -0.31393,-0.0292 -0.72276,-0.08761c-0.40883,-0.0584 -0.64245,-0.08761 -0.70085,-0.08761c-0.52564,0 -0.95637,0.13871 -1.2922,0.41613c-0.32122,0.27742 -0.48184,0.90527 -0.48184,1.88355v0.89797h0.96367c1.40171,0 2.10256,0.43804 2.10256,1.3141c0,0.42344 -0.13871,0.75925 -0.41613,1.00748c-0.26282,0.24822 -0.82496,0.37233 -1.68643,0.37233h-0.96367v9.0673c0,0.70085 -0.0292,1.2338 -0.08761,1.59883c-0.0584,0.36503 -0.22632,0.70816 -0.50374,1.02938c-0.26282,0.32122 -0.68626,0.48184 -1.2703,0.48184c-0.58404,0 -1.04398,-0.19711 -1.37981,-0.59134c-0.32122,-0.39423 -0.48183,-1.23381 -0.48183,-2.5187v-9.0673h-1.05128c-1.12429,0 -1.68643,-0.45993 -1.68643,-1.3798c0,-0.87607 0.62055,-1.3141 1.86164,-1.3141zM278.55184,196.08791c-1.76673,1.41631 -3.50428,2.12447 -5.21261,2.12447c-1.62072,0 -2.86912,-0.40883 -3.74519,-1.2265c-0.86147,-0.83226 -1.2922,-1.83974 -1.2922,-3.02243c0,-1.02208 0.29203,-1.83974 0.87607,-2.45299c0.59865,-0.62784 1.2411,-1.06588 1.92735,-1.3141c0.70085,-0.24822 1.83244,-0.53294 3.39477,-0.85416c1.56233,-0.32122 2.82532,-0.62055 3.78899,-0.89797c-0.0146,-1.13889 -0.24092,-1.90545 -0.67896,-2.29968c-0.43804,-0.39423 -1.10238,-0.59134 -1.99305,-0.59134c-1.69373,0 -2.80342,0.47453 -3.32906,1.42361c-0.29203,0.54024 -0.55484,0.92717 -0.78846,1.16079c-0.21902,0.21902 -0.54024,0.32853 -0.96368,0.32853c-0.39423,0 -0.75196,-0.12411 -1.07318,-0.37233c-0.32122,-0.26282 -0.48183,-0.60594 -0.48183,-1.02938c0,-0.96367 0.52564,-1.87624 1.57692,-2.73771c1.05128,-0.87607 2.70121,-1.3141 4.94978,-1.3141c2.27777,0 3.9423,0.39423 4.99359,1.18269c1.06588,0.78846 1.56962,2.37998 1.51122,4.77457l-0.08761,3.50427c-0.0292,1.09509 0.0803,1.98575 0.32853,2.67201c0.26282,0.67165 0.39423,1.18999 0.39423,1.55502c0,0.39423 -0.17521,0.74466 -0.52564,1.05128c-0.33583,0.30662 -0.72276,0.45993 -1.16079,0.45993c-0.75926,0 -1.56232,-0.70816 -2.40918,-2.12447zM278.31093,190.67819c-0.55484,0.21902 -1.47472,0.45994 -2.75961,0.72276c-1.28489,0.24822 -2.19747,0.54024 -2.73771,0.87607c-0.52564,0.32122 -0.78846,0.80306 -0.78846,1.44551c0,0.52564 0.21171,1.00018 0.63515,1.42361c0.42344,0.40883 1.02938,0.61324 1.81784,0.61324c0.81767,0 1.57692,-0.22632 2.27777,-0.67895c0.71546,-0.45263 1.15349,-0.98558 1.3141,-1.59883c0.16062,-0.62784 0.24092,-1.56233 0.24092,-2.80342zM290.74562,193.85394l3.26335,-8.89209c0.32122,-0.87607 0.62055,-1.4163 0.89797,-1.62072c0.27742,-0.21902 0.59134,-0.32853 0.94177,-0.32853c0.49643,0 0.90527,0.16791 1.22649,0.50374c0.33583,0.33583 0.50374,0.68626 0.50374,1.05128c0,0.33583 -0.18252,0.96367 -0.54755,1.88354l-3.61378,8.89209c-0.49643,1.2703 -0.92718,2.06606 -1.2922,2.38729c-0.35043,0.32122 -0.81036,0.48184 -1.3798,0.48184c-0.71546,0 -1.2411,-0.19711 -1.57693,-0.59134c-0.32122,-0.40883 -0.70085,-1.1681 -1.13888,-2.27778l-3.56998,-8.80448c-0.37963,-0.89067 -0.56945,-1.52582 -0.56945,-1.90545c0,-0.39423 0.16791,-0.75925 0.50374,-1.09508c0.35043,-0.35043 0.78116,-0.52564 1.2922,-0.52564c0.56945,0 0.96368,0.16062 1.18269,0.48184c0.23362,0.32122 0.51833,0.93446 0.85416,1.83974zM306.42449,183.0126c2.32158,0 4.14672,0.71546 5.47542,2.14637c1.3287,1.41631 1.99305,3.23414 1.99305,5.45352c0,2.21938 -0.67165,4.04451 -2.01496,5.47542c-1.3433,1.41631 -3.12463,2.12447 -5.34401,2.12447c-2.40918,0 -4.27083,-0.72276 -5.58494,-2.16827c-1.3141,-1.44551 -1.97115,-3.25605 -1.97115,-5.43162c0,-2.21938 0.66435,-4.03721 1.99306,-5.45352c1.3287,-1.43091 3.14654,-2.14637 5.45352,-2.14637zM306.42449,195.43086c1.13889,0 2.03686,-0.42343 2.69391,-1.27029c0.65705,-0.86147 0.98558,-2.04416 0.98558,-3.54808c0,-1.51852 -0.32853,-2.70121 -0.98558,-3.54807c-0.65705,-0.86147 -1.55502,-1.2922 -2.69391,-1.2922c-1.10968,0 -2.00036,0.43073 -2.67201,1.2922c-0.65705,0.86147 -0.98558,2.04416 -0.98558,3.54807c0,1.50392 0.32853,2.68661 0.98558,3.54808c0.65705,0.84686 1.54772,1.27029 2.67201,1.27029zM316.80863,195.10234v-9.57104c0,-1.67913 0.61325,-2.51869 1.83974,-2.51869c1.18269,0 1.78864,0.77386 1.81784,2.32158c0.77387,-1.54772 1.84704,-2.32158 3.21955,-2.32158c0.71546,0 1.46011,0.18981 2.23397,0.56945c0.77387,0.37963 1.16079,0.89797 1.16079,1.55502c0,0.45263 -0.16062,0.83226 -0.48184,1.13888c-0.30662,0.29203 -0.63515,0.43804 -0.98558,0.43804c-0.20442,0 -0.56945,-0.0803 -1.09509,-0.24092c-0.52564,-0.16062 -0.96367,-0.24092 -1.3141,-0.24092c-0.89067,0 -1.55502,0.45263 -1.99306,1.35791c-0.43804,0.89067 -0.65705,2.6282 -0.65705,5.21261v2.16826c0,0.94908 -0.0438,1.59152 -0.13141,1.92735c-0.07301,0.33583 -0.27742,0.64245 -0.61325,0.91987c-0.32122,0.26282 -0.69355,0.39423 -1.11699,0.39423c-0.42344,0 -0.80306,-0.12411 -1.13889,-0.37233c-0.32122,-0.24822 -0.52564,-0.53295 -0.61324,-0.85417c-0.08761,-0.33583 -0.13141,-0.96368 -0.13141,-1.88355zM330.99272,177.62478c0.49643,0 0.91987,0.18252 1.2703,0.54755c0.35043,0.36503 0.52564,0.78845 0.52564,1.27029c0,0.49643 -0.17521,0.92718 -0.52564,1.2922c-0.35043,0.35043 -0.77387,0.52564 -1.2703,0.52564c-0.49643,0 -0.92717,-0.17521 -1.2922,-0.52564c-0.35043,-0.36503 -0.52564,-0.79577 -0.52564,-1.2922c0,-0.49643 0.17521,-0.91986 0.52564,-1.27029c0.36503,-0.36503 0.79576,-0.54755 1.2922,-0.54755zM332.85436,186.05694v9.0454c0,0.90527 -0.0438,1.52582 -0.13141,1.86165c-0.07301,0.32122 -0.28472,0.61325 -0.63515,0.87607c-0.33583,0.24822 -0.70085,0.37233 -1.09509,0.37233c-0.39423,0 -0.76656,-0.12411 -1.11699,-0.37233c-0.35043,-0.26282 -0.56945,-0.56214 -0.65705,-0.89797c-0.07301,-0.33583 -0.1095,-0.94908 -0.1095,-1.83974v-9.0235c0,-0.81767 0.0292,-1.39441 0.08761,-1.73023c0.07301,-0.35043 0.27742,-0.65705 0.61325,-0.91987c0.33583,-0.27742 0.72275,-0.41613 1.16079,-0.41613c0.43804,0 0.81766,0.12411 1.13888,0.37233c0.32122,0.23362 0.52564,0.54024 0.61325,0.91987c0.08761,0.36503 0.13141,0.94908 0.13141,1.75214zM337.31958,183.34113v-2.25588c0,-0.91987 0.03649,-1.54042 0.1095,-1.86164c0.08761,-0.33583 0.29203,-0.63515 0.61325,-0.89797c0.32122,-0.26282 0.70085,-0.39423 1.13889,-0.39423c0.40883,0 0.77386,0.11681 1.09508,0.35042c0.32122,0.23362 0.53295,0.52564 0.63515,0.87607c0.10221,0.33583 0.15331,0.88337 0.15331,1.64263v2.5406h0.72276c0.91987,0 1.52581,0.10951 1.81784,0.32853c0.30662,0.21902 0.45993,0.54754 0.45993,0.98558c0,0.91987 -0.76656,1.3798 -2.29968,1.3798h-0.70085v6.89904c0,0.93447 0.06571,1.56962 0.19712,1.90545c0.13141,0.33583 0.48184,0.50374 1.05128,0.50374c0.27742,0 0.58404,-0.03649 0.91987,-0.1095c0.35043,-0.08761 0.60594,-0.13141 0.76656,-0.13141c0.37963,0 0.68625,0.12411 0.91987,0.37233c0.23362,0.24822 0.35043,0.54754 0.35043,0.89797c0,1.2265 -1.2922,1.83974 -3.87661,1.83974c-1.2557,0 -2.17557,-0.23362 -2.75961,-0.70085c-0.58404,-0.46724 -0.94907,-1.02938 -1.09508,-1.68643c-0.14601,-0.67165 -0.21902,-1.54772 -0.21902,-2.6282v-7.16186h-0.48184c-1.10968,0 -1.66453,-0.45263 -1.66453,-1.35791c0,-0.89067 0.58405,-1.336 1.75214,-1.336zM357.05574,191.53236h-7.33707c0.0438,1.38711 0.42343,2.43109 1.13888,3.13194c0.73006,0.70085 1.60613,1.05128 2.6282,1.05128c1.24109,0 2.41649,-0.54754 3.52618,-1.64263c0.45263,-0.45263 0.78116,-0.73006 0.98558,-0.83226c0.21902,-0.11681 0.45993,-0.17521 0.72275,-0.17521c0.33583,0 0.62055,0.10951 0.85417,0.32853c0.24822,0.20442 0.37233,0.45994 0.37233,0.76656c0,0.84686 -0.57675,1.73753 -1.73023,2.672c-1.13889,0.91987 -2.69391,1.37981 -4.66506,1.37981c-2.4968,0 -4.39494,-0.70816 -5.69444,-2.12447c-1.28489,-1.41631 -1.92735,-3.24145 -1.92735,-5.47542c0,-2.26318 0.64246,-4.09562 1.92735,-5.49732c1.2995,-1.40171 3.10273,-2.10256 5.40972,-2.10256c2.19017,0 3.8839,0.66435 5.08119,1.99305c1.19729,1.3141 1.79594,2.74502 1.79594,4.29274c0,0.68625 -0.19712,1.23379 -0.59135,1.64262c-0.39423,0.39423 -1.22649,0.59135 -2.49679,0.59135zM349.71868,189.4079h6.81143c-0.0438,-1.24109 -0.38693,-2.19017 -1.02938,-2.84722c-0.64245,-0.65705 -1.43091,-0.98558 -2.36538,-0.98558c-1.98575,0 -3.12464,1.2776 -3.41667,3.8328z" fill="#ffffff" stroke="#000000" stroke-width="4.5"/><path d="M260.71565,183.34113v-1.09508c0,-1.91275 0.39423,-3.19035 1.18269,-3.8328c0.80306,-0.64246 1.94195,-0.96368 3.41666,-0.96368c2.36539,0 3.54807,0.53294 3.54807,1.59882c0,0.33583 -0.1095,0.63515 -0.32853,0.89797c-0.21902,0.24822 -0.51833,0.37233 -0.89797,0.37233c-0.07301,0 -0.31393,-0.0292 -0.72276,-0.08761c-0.40883,-0.0584 -0.64246,-0.08761 -0.70086,-0.08761c-0.52564,0 -0.95637,0.13872 -1.2922,0.41613c-0.32122,0.27741 -0.48184,0.90527 -0.48184,1.88355v0.89797h0.96368c1.40171,0 2.10257,0.43803 2.10257,1.3141c0,0.42344 -0.13872,0.75925 -0.41613,1.00748c-0.26282,0.24822 -0.82496,0.37233 -1.68643,0.37233h-0.96368v9.0673c0,0.70086 -0.0292,1.2338 -0.08761,1.59882c-0.0584,0.36503 -0.22632,0.70815 -0.50374,1.02937c-0.26282,0.32122 -0.68625,0.48184 -1.27029,0.48184c-0.58404,0 -1.04398,-0.19711 -1.37981,-0.59134c-0.32122,-0.39423 -0.48184,-1.2338 -0.48184,-2.5187v-9.0673h-1.05128c-1.1243,0 -1.68643,-0.45994 -1.68643,-1.37981c0,-0.87607 0.62055,-1.3141 1.86165,-1.3141zM278.55184,196.08792c-1.76674,1.4163 -3.50428,2.12447 -5.2126,2.12447c-1.62073,0 -2.86912,-0.40883 -3.74519,-1.2265c-0.86147,-0.83226 -1.2922,-1.83974 -1.2922,-3.02244c0,-1.02208 0.29202,-1.83974 0.87607,-2.45299c0.59865,-0.62785 1.24109,-1.06588 1.92734,-1.3141c0.70086,-0.24822 1.83244,-0.53294 3.39476,-0.85416c1.56233,-0.32122 2.82532,-0.62055 3.78899,-0.89797c-0.0146,-1.13889 -0.24092,-1.90545 -0.67895,-2.29968c-0.43803,-0.39423 -1.10238,-0.59134 -1.99305,-0.59134c-1.69373,0 -2.80342,0.47454 -3.32905,1.42361c-0.29202,0.54024 -0.55485,0.92717 -0.78847,1.16079c-0.21902,0.21902 -0.54024,0.32853 -0.96368,0.32853c-0.39423,0 -0.75196,-0.12411 -1.07318,-0.37233c-0.32122,-0.26282 -0.48184,-0.60594 -0.48184,-1.02937c0,-0.96368 0.52564,-1.87624 1.57692,-2.73771c1.05128,-0.87607 2.70122,-1.3141 4.94978,-1.3141c2.27778,0 3.94231,0.39423 4.99359,1.18269c1.06588,0.78847 1.56962,2.37998 1.51121,4.77457l-0.08761,3.50428c-0.0292,1.09508 0.0803,1.98575 0.32853,2.672c0.26282,0.67165 0.39423,1.18999 0.39423,1.55502c0,0.39423 -0.17521,0.74466 -0.52564,1.05128c-0.33583,0.30663 -0.72276,0.45994 -1.16079,0.45994c-0.75925,0 -1.56233,-0.70815 -2.40918,-2.12447zM278.31093,190.6782c-0.55485,0.21902 -1.47472,0.45994 -2.75961,0.72276c-1.2849,0.24822 -2.19748,0.54024 -2.73771,0.87607c-0.52564,0.32122 -0.78847,0.80306 -0.78847,1.44552c0,0.52564 0.21172,1.00017 0.63515,1.42361c0.42344,0.40883 1.02937,0.61324 1.81784,0.61324c0.81767,0 1.57692,-0.22632 2.27778,-0.67895c0.71546,-0.45264 1.15349,-0.98558 1.3141,-1.59882c0.16062,-0.62785 0.24092,-1.56233 0.24092,-2.80342zM290.74561,193.85395l3.26336,-8.89209c0.32122,-0.87607 0.62055,-1.4163 0.89797,-1.62073c0.27741,-0.21902 0.59134,-0.32853 0.94177,-0.32853c0.49643,0 0.90527,0.16791 1.2265,0.50374c0.33583,0.33583 0.50374,0.68625 0.50374,1.05128c0,0.33583 -0.18252,0.96368 -0.54755,1.88355l-3.61378,8.89209c-0.49643,1.27029 -0.92717,2.06606 -1.2922,2.38729c-0.35042,0.32122 -0.81036,0.48184 -1.37981,0.48184c-0.71546,0 -1.24109,-0.19711 -1.57692,-0.59134c-0.32122,-0.40883 -0.70086,-1.16809 -1.13889,-2.27778l-3.56997,-8.80448c-0.37963,-0.89067 -0.56945,-1.52582 -0.56945,-1.90545c0,-0.39423 0.16791,-0.75925 0.50374,-1.09508c0.35042,-0.35042 0.78116,-0.52564 1.2922,-0.52564c0.56945,0 0.96368,0.16062 1.18269,0.48184c0.23362,0.32122 0.51833,0.93446 0.85416,1.83974zM306.4245,183.01261c2.32158,0 4.14672,0.71546 5.47542,2.14637c1.3287,1.4163 1.99305,3.23414 1.99305,5.45352c0,2.21938 -0.67165,4.04451 -2.01495,5.47542c-1.3433,1.4163 -3.12464,2.12447 -5.34402,2.12447c-2.40918,0 -4.27083,-0.72276 -5.58494,-2.16826c-1.3141,-1.44552 -1.97115,-3.25605 -1.97115,-5.43162c0,-2.21938 0.66435,-4.03722 1.99305,-5.45352c1.3287,-1.43091 3.14654,-2.14637 5.45352,-2.14637zM306.4245,195.43087c1.13889,0 2.03686,-0.42344 2.69391,-1.27029c0.65705,-0.86147 0.98558,-2.04416 0.98558,-3.54807c0,-1.51852 -0.32853,-2.70122 -0.98558,-3.54807c-0.65705,-0.86147 -1.55502,-1.2922 -2.69391,-1.2922c-1.10969,0 -2.00036,0.43073 -2.672,1.2922c-0.65705,0.86147 -0.98558,2.04416 -0.98558,3.54807c0,1.50391 0.32853,2.68661 0.98558,3.54807c0.65705,0.84686 1.54772,1.27029 2.672,1.27029zM316.80864,195.10235v-9.57104c0,-1.67913 0.61324,-2.5187 1.83974,-2.5187c1.18269,0 1.78864,0.77386 1.81784,2.32158c0.77386,-1.54772 1.84704,-2.32158 3.21955,-2.32158c0.71546,0 1.46011,0.18981 2.23397,0.56945c0.77386,0.37963 1.16079,0.89797 1.16079,1.55502c0,0.45264 -0.16062,0.83226 -0.48184,1.13889c-0.30663,0.29202 -0.63515,0.43803 -0.98558,0.43803c-0.20441,0 -0.56945,-0.0803 -1.09508,-0.24092c-0.52564,-0.16062 -0.96368,-0.24092 -1.3141,-0.24092c-0.89067,0 -1.55502,0.45264 -1.99305,1.3579c-0.43803,0.89067 -0.65705,2.6282 -0.65705,5.2126v2.16826c0,0.94907 -0.04381,1.59152 -0.13141,1.92734c-0.07301,0.33583 -0.27741,0.64246 -0.61324,0.91987c-0.32122,0.26282 -0.69356,0.39423 -1.11699,0.39423c-0.42344,0 -0.80306,-0.12411 -1.13889,-0.37233c-0.32122,-0.24822 -0.52564,-0.53294 -0.61324,-0.85416c-0.08761,-0.33583 -0.13141,-0.96368 -0.13141,-1.88355zM330.99272,177.62479c0.49643,0 0.91987,0.18252 1.27029,0.54755c0.35042,0.36503 0.52564,0.78847 0.52564,1.27029c0,0.49643 -0.17521,0.92717 -0.52564,1.2922c-0.35042,0.35042 -0.77386,0.52564 -1.27029,0.52564c-0.49643,0 -0.92717,-0.17521 -1.2922,-0.52564c-0.35042,-0.36503 -0.52564,-0.79577 -0.52564,-1.2922c0,-0.49643 0.17521,-0.91987 0.52564,-1.27029c0.36503,-0.36503 0.79577,-0.54755 1.2922,-0.54755zM332.85437,186.05694v9.0454c0,0.90527 -0.04381,1.52582 -0.13141,1.86165c-0.07301,0.32122 -0.28472,0.61324 -0.63515,0.87607c-0.33583,0.24822 -0.70086,0.37233 -1.09508,0.37233c-0.39423,0 -0.76656,-0.12411 -1.11699,-0.37233c-0.35042,-0.26282 -0.56945,-0.56214 -0.65705,-0.89797c-0.07301,-0.33583 -0.1095,-0.94907 -0.1095,-1.83974v-9.0235c0,-0.81767 0.0292,-1.39441 0.08761,-1.73023c0.07301,-0.35042 0.27741,-0.65705 0.61324,-0.91987c0.33583,-0.27741 0.72276,-0.41613 1.16079,-0.41613c0.43803,0 0.81767,0.12411 1.13889,0.37233c0.32122,0.23362 0.52564,0.54024 0.61324,0.91987c0.08761,0.36503 0.13141,0.94907 0.13141,1.75213zM337.31958,183.34113v-2.25587c0,-0.91987 0.03651,-1.54043 0.1095,-1.86165c0.08761,-0.33583 0.29202,-0.63515 0.61324,-0.89797c0.32122,-0.26282 0.70086,-0.39423 1.13889,-0.39423c0.40883,0 0.77386,0.11681 1.09508,0.35042c0.32122,0.23362 0.53294,0.52564 0.63515,0.87607c0.1022,0.33583 0.15331,0.88338 0.15331,1.64263v2.5406h0.72276c0.91987,0 1.52582,0.1095 1.81784,0.32853c0.30663,0.21902 0.45994,0.54755 0.45994,0.98558c0,0.91987 -0.76656,1.37981 -2.29968,1.37981h-0.70086v6.89904c0,0.93446 0.06571,1.56962 0.19711,1.90545c0.13141,0.33583 0.48184,0.50374 1.05128,0.50374c0.27741,0 0.58404,-0.03651 0.91987,-0.1095c0.35042,-0.08761 0.60594,-0.13141 0.76656,-0.13141c0.37963,0 0.68625,0.12411 0.91987,0.37233c0.23362,0.24822 0.35042,0.54755 0.35042,0.89797c0,1.2265 -1.2922,1.83974 -3.8766,1.83974c-1.2557,0 -2.17557,-0.23362 -2.75961,-0.70086c-0.58404,-0.46724 -0.94907,-1.02937 -1.09508,-1.68643c-0.14601,-0.67165 -0.21902,-1.54772 -0.21902,-2.6282v-7.16186h-0.48184c-1.10969,0 -1.66453,-0.45264 -1.66453,-1.3579c0,-0.89067 0.58404,-1.336 1.75213,-1.336zM357.05574,191.53236h-7.33707c0.04381,1.38711 0.42344,2.43109 1.13889,3.13194c0.73006,0.70086 1.60612,1.05128 2.6282,1.05128c1.24109,0 2.41649,-0.54755 3.52618,-1.64263c0.45264,-0.45264 0.78116,-0.73006 0.98558,-0.83226c0.21902,-0.11681 0.45994,-0.17521 0.72276,-0.17521c0.33583,0 0.62055,0.1095 0.85416,0.32853c0.24822,0.20441 0.37233,0.45994 0.37233,0.76656c0,0.84686 -0.57675,1.73754 -1.73023,2.672c-1.13889,0.91987 -2.69391,1.37981 -4.66507,1.37981c-2.49679,0 -4.39493,-0.70815 -5.69444,-2.12447c-1.2849,-1.4163 -1.92734,-3.24145 -1.92734,-5.47542c0,-2.26317 0.64246,-4.09562 1.92734,-5.49733c1.29951,-1.40171 3.10274,-2.10257 5.40972,-2.10257c2.19017,0 3.8839,0.66435 5.0812,1.99305c1.19729,1.3141 1.79594,2.74501 1.79594,4.29273c0,0.68625 -0.19711,1.2338 -0.59134,1.64263c-0.39423,0.39423 -1.2265,0.59134 -2.49679,0.59134zM349.71867,189.40791h6.81143c-0.04381,-1.24109 -0.38693,-2.19017 -1.02937,-2.84723c-0.64246,-0.65705 -1.43091,-0.98558 -2.36539,-0.98558c-1.98575,0 -3.12464,1.2776 -3.41666,3.8328z" fill="#ffe600" stroke="none" stroke-width="3.5"/><path d="M252.66016,220.36611v-1.82127c0,-0.74265 0.02947,-1.24366 0.08841,-1.503c0.07073,-0.27113 0.23576,-0.51279 0.4951,-0.72497c0.25934,-0.21219 0.56584,-0.31828 0.91948,-0.31828c0.33007,0 0.62477,0.0943 0.88411,0.28291c0.25934,0.18861 0.43027,0.42437 0.51279,0.7073c0.08251,0.27113 0.12378,0.71319 0.12378,1.32617v2.05115h0.58352c0.74265,0 1.23187,0.08841 1.46763,0.26523c0.24755,0.17683 0.37133,0.44206 0.37133,0.7957c0,0.74265 -0.61888,1.11399 -1.85664,1.11399h-0.56584v5.56992c0,0.75444 0.05305,1.26723 0.15914,1.53836c0.1061,0.27113 0.38901,0.40669 0.84875,0.40669c0.22397,0 0.47152,-0.02947 0.74265,-0.08841c0.28291,-0.07073 0.4892,-0.1061 0.61888,-0.1061c0.30649,0 0.55405,0.1002 0.74265,0.3006c0.18861,0.2004 0.28291,0.44206 0.28291,0.72497c0,0.99021 -1.04326,1.48531 -3.12977,1.48531c-1.01379,0 -1.75644,-0.18861 -2.22796,-0.56584c-0.47152,-0.37723 -0.76623,-0.83106 -0.88411,-1.36153c-0.11788,-0.54225 -0.17683,-1.24955 -0.17683,-2.12188v-5.78211h-0.38901c-0.8959,0 -1.34385,-0.36544 -1.34385,-1.0963c0,-0.71908 0.47152,-1.07862 1.41458,-1.07862zM270.87514,224.75132v5.4992c0,1.41458 -0.51279,2.12188 -1.53836,2.12188c-0.47152,0 -0.83696,-0.14735 -1.0963,-0.44206c-0.24755,-0.30649 -0.37133,-0.86643 -0.37133,-1.67982v-4.80958c0,-1.14345 -0.18272,-1.92737 -0.54815,-2.35174c-0.36544,-0.42437 -0.87233,-0.63657 -1.52068,-0.63657c-0.57762,0 -1.07862,0.15914 -1.503,0.47742c-0.42437,0.31828 -0.72497,0.7073 -0.9018,1.16704c-0.17683,0.45974 -0.26523,1.27312 -0.26523,2.44016v3.5011c0,0.94306 -0.13556,1.56783 -0.40669,1.87432c-0.27113,0.30649 -0.64246,0.45974 -1.11399,0.45974c-0.47152,0 -0.84286,-0.14735 -1.11399,-0.44206c-0.25934,-0.30649 -0.38901,-0.92538 -0.38901,-1.85664v-11.97091c0,-0.73087 0.03537,-1.23776 0.1061,-1.52068c0.07073,-0.28291 0.22987,-0.51279 0.47742,-0.68961c0.25934,-0.18861 0.55994,-0.28291 0.9018,-0.28291c0.37723,0 0.68961,0.1061 0.93716,0.31828c0.25934,0.2004 0.42437,0.46564 0.4951,0.7957c0.07073,0.33007 0.1061,0.87233 0.1061,1.62677v3.57183c1.01379,-1.21418 2.23976,-1.82127 3.67791,-1.82127c1.21418,0 2.1926,0.37723 2.93526,1.13167c0.75444,0.74265 1.13167,1.91559 1.13167,3.51878zM282.26474,226.97929h-5.92357c0.03537,1.11988 0.34186,1.96274 0.91948,2.52857c0.58941,0.56584 1.2967,0.84875 2.12188,0.84875c1.00199,0 1.95095,-0.44206 2.84685,-1.32617c0.36544,-0.36544 0.63067,-0.58941 0.7957,-0.67193c0.17683,-0.0943 0.37133,-0.14146 0.58352,-0.14146c0.27113,0 0.501,0.08841 0.68961,0.26523c0.2004,0.16503 0.3006,0.37133 0.3006,0.61888c0,0.68371 -0.46564,1.4028 -1.3969,2.15724c-0.91948,0.74265 -2.17492,1.11399 -3.76633,1.11399c-2.01578,0 -3.54824,-0.57173 -4.5974,-1.71518c-1.03736,-1.14345 -1.55604,-2.61698 -1.55604,-4.42057c0,-1.82717 0.51869,-3.30659 1.55604,-4.43826c1.04915,-1.13167 2.50499,-1.6975 4.36753,-1.6975c1.76823,0 3.13566,0.53637 4.1023,1.60909c0.96663,1.06094 1.44995,2.21618 1.44995,3.46573c0,0.55405 -0.15914,0.99611 -0.47742,1.32617c-0.31828,0.31828 -0.99021,0.47742 -2.01578,0.47742zM276.34117,225.26411h5.4992c-0.03537,-1.00199 -0.31239,-1.76823 -0.83106,-2.2987c-0.51869,-0.53047 -1.15524,-0.7957 -1.90969,-0.7957c-1.60319,0 -2.52267,1.03147 -2.75843,3.09441zM296.72222,222.11666c1.06094,-1.34385 2.36943,-2.01578 3.92547,-2.01578c1.54425,0 2.77023,0.58352 3.67791,1.75054c0.91948,1.15524 1.37922,2.65824 1.37922,4.50899c0,1.75644 -0.44796,3.20049 -1.34385,4.33216c-0.88411,1.11988 -2.11598,1.67982 -3.6956,1.67982c-1.4971,0 -2.81148,-0.63067 -3.94315,-1.892v3.94315c0,1.08451 -0.13556,1.75644 -0.40669,2.01578c-0.27113,0.27113 -0.63657,0.40669 -1.0963,0.40669c-0.55405,0 -0.94306,-0.18272 -1.16704,-0.54815c-0.22397,-0.36544 -0.33596,-1.01967 -0.33596,-1.96274v-11.90018c0,-0.62477 0.02358,-1.07862 0.07073,-1.36153c0.05895,-0.29471 0.21808,-0.53047 0.47742,-0.7073c0.27113,-0.17683 0.58941,-0.26523 0.95484,-0.26523c1.00199,0 1.503,0.55994 1.503,1.67982zM302.64579,226.28968c0,-1.32028 -0.27702,-2.2987 -0.83106,-2.93526c-0.55405,-0.63657 -1.2024,-0.95484 -1.94505,-0.95484c-0.86054,0 -1.57373,0.32418 -2.13956,0.97253c-0.55405,0.64835 -0.83106,1.55604 -0.83106,2.72307c0,1.21418 0.27113,2.18082 0.81338,2.8999c0.54225,0.7073 1.26723,1.06094 2.17492,1.06094c0.81338,0 1.47353,-0.33007 1.98042,-0.99021c0.51869,-0.67193 0.77802,-1.5973 0.77802,-2.77612zM308.14498,229.8615v-7.72716c0,-1.35565 0.4951,-2.03347 1.48531,-2.03347c0.95484,0 1.44405,0.62477 1.46763,1.87432c0.62477,-1.24955 1.49121,-1.87432 2.5993,-1.87432c0.57762,0 1.17882,0.15324 1.80359,0.45974c0.62477,0.30649 0.93716,0.72497 0.93716,1.25544c0,0.36544 -0.12967,0.67193 -0.38901,0.91948c-0.24755,0.23576 -0.51279,0.35364 -0.7957,0.35364c-0.16503,0 -0.45974,-0.06483 -0.88411,-0.19451c-0.42437,-0.12967 -0.77802,-0.19451 -1.06094,-0.19451c-0.71908,0 -1.25544,0.36544 -1.60909,1.0963c-0.35364,0.71908 -0.53047,2.12188 -0.53047,4.20838v1.75054c0,0.76623 -0.03537,1.28491 -0.1061,1.55604c-0.05895,0.27113 -0.22397,0.51869 -0.4951,0.74265c-0.25934,0.21219 -0.55994,0.31828 -0.9018,0.31828c-0.34186,0 -0.64835,-0.1002 -0.91948,-0.3006c-0.25934,-0.2004 -0.42437,-0.43027 -0.4951,-0.68961c-0.07073,-0.27113 -0.1061,-0.77802 -0.1061,-1.52068zM322.48312,220.10088c1.87432,0 3.34785,0.57762 4.42057,1.73286c1.07272,1.14345 1.60909,2.61108 1.60909,4.40289c0,1.79181 -0.54225,3.26533 -1.62677,4.42057c-1.08451,1.14345 -2.52267,1.71518 -4.31448,1.71518c-1.94505,0 -3.44805,-0.58352 -4.50899,-1.75054c-1.06094,-1.16704 -1.59141,-2.62877 -1.59141,-4.38521c0,-1.79181 0.53637,-3.25944 1.60909,-4.40289c1.07272,-1.15524 2.54035,-1.73286 4.40289,-1.73286zM322.48312,230.12674c0.91948,0 1.64446,-0.34186 2.17492,-1.02557c0.53047,-0.6955 0.7957,-1.65035 0.7957,-2.86453c0,-1.22597 -0.26523,-2.18082 -0.7957,-2.86453c-0.53047,-0.6955 -1.25544,-1.04326 -2.17492,-1.04326c-0.8959,0 -1.61498,0.34775 -2.15724,1.04326c-0.53047,0.6955 -0.7957,1.65035 -0.7957,2.86453c0,1.21418 0.26523,2.16903 0.7957,2.86453c0.53047,0.68371 1.24955,1.02557 2.15724,1.02557zM332.40509,215.75104c0.4008,0 0.74265,0.14735 1.02557,0.44206c0.28291,0.29471 0.42437,0.63657 0.42437,1.02557c0,0.4008 -0.14146,0.74855 -0.42437,1.04326c-0.28291,0.28291 -0.62477,0.42437 -1.02557,0.42437c-0.4008,0 -0.74855,-0.14146 -1.04326,-0.42437c-0.28291,-0.29471 -0.42437,-0.64246 -0.42437,-1.04326c0,-0.4008 0.14146,-0.74265 0.42437,-1.02557c0.29471,-0.29471 0.64246,-0.44206 1.04326,-0.44206zM330.93746,232.03643v-9.46002c0,-0.74265 0.02947,-1.23776 0.08841,-1.48531c0.05895,-0.25934 0.21808,-0.4892 0.47742,-0.68961c0.25934,-0.2004 0.55994,-0.3006 0.9018,-0.3006c0.33007,0 0.63067,0.0943 0.9018,0.28291c0.27113,0.17683 0.43616,0.40669 0.4951,0.68961c0.07073,0.27113 0.1061,0.77213 0.1061,1.503v9.46002c0,1.13167 -0.05895,1.98632 -0.17683,2.56394c-0.11788,0.57762 -0.43027,1.0963 -0.93716,1.55604c-0.4951,0.45974 -1.27312,0.68961 -2.33406,0.68961c-1.86254,0 -2.7938,-0.4892 -2.7938,-1.46763c0,-0.35364 0.1061,-0.64835 0.31828,-0.88411c0.21219,-0.23576 0.4892,-0.35364 0.83106,-0.35364l1.0963,0.08841c0.36544,0 0.62477,-0.14146 0.77802,-0.42437c0.16503,-0.27113 0.24755,-0.86054 0.24755,-1.76823zM345.43473,226.97929h-5.92357c0.03537,1.11988 0.34186,1.96274 0.91948,2.52857c0.58941,0.56584 1.2967,0.84875 2.12188,0.84875c1.00199,0 1.95095,-0.44206 2.84685,-1.32617c0.36544,-0.36544 0.63067,-0.58941 0.7957,-0.67193c0.17683,-0.0943 0.37133,-0.14146 0.58352,-0.14146c0.27113,0 0.501,0.08841 0.68961,0.26523c0.2004,0.16503 0.3006,0.37133 0.3006,0.61888c0,0.68371 -0.46564,1.4028 -1.3969,2.15724c-0.91948,0.74265 -2.17492,1.11399 -3.76633,1.11399c-2.01578,0 -3.54824,-0.57173 -4.5974,-1.71518c-1.03736,-1.14345 -1.55604,-2.61698 -1.55604,-4.42057c0,-1.82717 0.51869,-3.30659 1.55604,-4.43826c1.04915,-1.13167 2.50499,-1.6975 4.36753,-1.6975c1.76823,0 3.13566,0.53637 4.1023,1.60909c0.96663,1.06094 1.44995,2.21618 1.44995,3.46573c0,0.55405 -0.15914,0.99611 -0.47742,1.32617c-0.31828,0.31828 -0.99021,0.47742 -2.01578,0.47742zM339.51117,225.26411h5.4992c-0.03537,-1.00199 -0.31239,-1.76823 -0.83106,-2.2987c-0.51869,-0.53047 -1.15524,-0.7957 -1.90969,-0.7957c-1.60319,0 -2.52267,1.03147 -2.75843,3.09441zM360.01599,227.31526c0.36544,0 0.66603,0.14735 0.9018,0.44206c0.24755,0.28291 0.37133,0.57173 0.37133,0.86643c0,0.82518 -0.4892,1.65624 -1.46763,2.4932c-0.97843,0.83696 -2.29281,1.25544 -3.94315,1.25544c-1.98042,0 -3.47751,-0.55994 -4.49131,-1.67982c-1.00199,-1.13167 -1.503,-2.5993 -1.503,-4.40289c0,-1.81538 0.52457,-3.3007 1.57373,-4.45594c1.04915,-1.15524 2.54035,-1.73286 4.47362,-1.73286c1.4971,0 2.73486,0.39491 3.71328,1.18472c0.99021,0.77802 1.48531,1.55014 1.48531,2.31638c0,0.36544 -0.13556,0.67193 -0.40669,0.91948c-0.25934,0.24755 -0.56584,0.37133 -0.91948,0.37133c-0.44796,0 -0.7957,-0.18861 -1.04326,-0.56584c-0.55405,-0.83696 -1.04326,-1.36743 -1.46763,-1.59141c-0.42437,-0.22397 -0.88411,-0.33596 -1.37922,-0.33596c-0.96663,0 -1.71518,0.37133 -2.24565,1.11399c-0.51869,0.73087 -0.77802,1.65035 -0.77802,2.75843c0,1.13167 0.27113,2.05704 0.81338,2.77612c0.55405,0.71908 1.2908,1.07862 2.21028,1.07862c0.51869,0 0.99611,-0.12378 1.43227,-0.37133c0.44796,-0.24755 0.83106,-0.61888 1.14935,-1.11399c0.31828,-0.50689 0.57173,-0.85465 0.76033,-1.04326c0.18861,-0.18861 0.44206,-0.28291 0.76033,-0.28291zM364.41225,220.36611v-1.82127c0,-0.74265 0.02947,-1.24366 0.08841,-1.503c0.07073,-0.27113 0.23576,-0.51279 0.4951,-0.72497c0.25934,-0.21219 0.56584,-0.31828 0.91948,-0.31828c0.33007,0 0.62477,0.0943 0.88411,0.28291c0.25934,0.18861 0.43027,0.42437 0.51279,0.7073c0.08251,0.27113 0.12378,0.71319 0.12378,1.32617v2.05115h0.58352c0.74265,0 1.23187,0.08841 1.46763,0.26523c0.24755,0.17683 0.37133,0.44206 0.37133,0.7957c0,0.74265 -0.61888,1.11399 -1.85664,1.11399h-0.56584v5.56992c0,0.75444 0.05305,1.26723 0.15914,1.53836c0.1061,0.27113 0.38901,0.40669 0.84875,0.40669c0.22397,0 0.47152,-0.02947 0.74265,-0.08841c0.28291,-0.07073 0.4892,-0.1061 0.61888,-0.1061c0.30649,0 0.55405,0.1002 0.74265,0.3006c0.18861,0.2004 0.28291,0.44206 0.28291,0.72497c0,0.99021 -1.04326,1.48531 -3.12977,1.48531c-1.01379,0 -1.75644,-0.18861 -2.22796,-0.56584c-0.47152,-0.37723 -0.76623,-0.83106 -0.88411,-1.36153c-0.11788,-0.54225 -0.17683,-1.24955 -0.17683,-2.12188v-5.78211h-0.38901c-0.8959,0 -1.34385,-0.36544 -1.34385,-1.0963c0,-0.71908 0.47152,-1.07862 1.41458,-1.07862z" fill="#ffffff" stroke="none" stroke-width="3.5"/><path d="M261.98755,249.52612v-1.82127c0,-0.74265 0.02947,-1.24366 0.08841,-1.503c0.07073,-0.27113 0.23576,-0.51279 0.4951,-0.72497c0.25934,-0.21219 0.56584,-0.31828 0.91948,-0.31828c0.33007,0 0.62477,0.0943 0.88411,0.28291c0.25934,0.18861 0.43027,0.42437 0.51279,0.7073c0.08251,0.27113 0.12378,0.71319 0.12378,1.32617v2.05115h0.58352c0.74265,0 1.23187,0.08841 1.46763,0.26523c0.24755,0.17683 0.37133,0.44206 0.37133,0.7957c0,0.74265 -0.61888,1.11399 -1.85664,1.11399h-0.56584v5.56992c0,0.75444 0.05305,1.26723 0.15914,1.53836c0.1061,0.27113 0.38901,0.40669 0.84875,0.40669c0.22397,0 0.47152,-0.02947 0.74265,-0.08841c0.28291,-0.07073 0.4892,-0.1061 0.61888,-0.1061c0.30649,0 0.55405,0.1002 0.74265,0.3006c0.18861,0.2004 0.28291,0.44206 0.28291,0.72497c0,0.99021 -1.04326,1.48531 -3.12977,1.48531c-1.01379,0 -1.75644,-0.18861 -2.22796,-0.56584c-0.47152,-0.37723 -0.76623,-0.83106 -0.88411,-1.36153c-0.11788,-0.54225 -0.17683,-1.24955 -0.17683,-2.12188v-5.78211h-0.38901c-0.8959,0 -1.34385,-0.36544 -1.34385,-1.0963c0,-0.71908 0.47152,-1.07862 1.41458,-1.07862zM274.77406,249.26088c1.87432,0 3.34785,0.57762 4.42057,1.73286c1.07272,1.14345 1.60909,2.61108 1.60909,4.40289c0,1.79181 -0.54225,3.26533 -1.62677,4.42057c-1.08451,1.14345 -2.52267,1.71518 -4.31448,1.71518c-1.94505,0 -3.44805,-0.58352 -4.50899,-1.75054c-1.06094,-1.16704 -1.59141,-2.62877 -1.59141,-4.38521c0,-1.79181 0.53637,-3.25944 1.60909,-4.40289c1.07272,-1.15524 2.54035,-1.73286 4.40289,-1.73286zM274.77406,259.28674c0.91948,0 1.64446,-0.34186 2.17492,-1.02557c0.53047,-0.6955 0.7957,-1.65035 0.7957,-2.86453c0,-1.22597 -0.26523,-2.18082 -0.7957,-2.86453c-0.53047,-0.6955 -1.25544,-1.04326 -2.17492,-1.04326c-0.8959,0 -1.61498,0.34775 -2.15724,1.04326c-0.53047,0.6955 -0.7957,1.65035 -0.7957,2.86453c0,1.21418 0.26523,2.16903 0.7957,2.86453c0.53047,0.68371 1.24955,1.02557 2.15724,1.02557zM289.80621,257.04108v-5.30469c0,-0.64835 0.02358,-1.11988 0.07073,-1.41458c0.05895,-0.29471 0.21808,-0.54225 0.47742,-0.74265c0.25934,-0.21219 0.57762,-0.31828 0.95484,-0.31828c0.35364,0 0.66014,0.1002 0.91948,0.3006c0.27113,0.2004 0.43616,0.46564 0.4951,0.7957c0.07073,0.31828 0.1061,0.8016 0.1061,1.44995v4.15533c0,1.35565 0.21219,2.22796 0.63657,2.61698c0.42437,0.37723 0.89001,0.56584 1.3969,0.56584c0.57762,0 1.08451,-0.15914 1.52068,-0.47742c0.44796,-0.33007 0.74855,-0.72497 0.9018,-1.18472c0.15324,-0.47152 0.22987,-1.38512 0.22987,-2.74075v-3.00599c0,-0.63657 0.02947,-1.10809 0.08841,-1.41458c0.07073,-0.30649 0.23576,-0.55994 0.4951,-0.76033c0.27113,-0.2004 0.58941,-0.3006 0.95484,-0.3006c0.34186,0 0.64835,0.1002 0.91948,0.3006c0.27113,0.2004 0.43027,0.44796 0.47742,0.74265c0.05895,0.29471 0.08841,0.77213 0.08841,1.43227v7.46193c0,0.61298 -0.02947,1.05504 -0.08841,1.32617c-0.05895,0.27113 -0.20629,0.50689 -0.44206,0.7073c-0.22397,0.2004 -0.51279,0.3006 -0.86643,0.3006c-0.97843,0 -1.44995,-0.7014 -1.41458,-2.1042c-1.00199,1.4028 -2.32817,2.1042 -3.97852,2.1042c-1.0963,0 -2.02757,-0.32418 -2.7938,-0.97253c-0.76623,-0.66014 -1.14935,-1.83307 -1.14935,-3.51878zM314.20999,254.07047v4.95104c0,0.64835 -0.02947,1.11988 -0.08841,1.41458c-0.04715,0.28291 -0.20629,0.53637 -0.47742,0.76033c-0.25934,0.22397 -0.56584,0.33596 -0.91948,0.33596c-0.33007,0 -0.63657,-0.1002 -0.91948,-0.3006c-0.27113,-0.2004 -0.44206,-0.45384 -0.51279,-0.76033c-0.07073,-0.31828 -0.1061,-0.8016 -0.1061,-1.44995v-4.33216c0,-1.21418 -0.18272,-2.02757 -0.54815,-2.44016c-0.35364,-0.42437 -0.84875,-0.63657 -1.48531,-0.63657c-0.56584,0 -1.06683,0.16503 -1.503,0.4951c-0.43616,0.33007 -0.74265,0.74855 -0.91948,1.25544c-0.17683,0.4951 -0.26523,1.34385 -0.26523,2.54625v3.11209c0,0.63657 -0.02358,1.10219 -0.07073,1.3969c-0.04715,0.28291 -0.20629,0.54225 -0.47742,0.77802c-0.27113,0.22397 -0.58352,0.33596 -0.93716,0.33596c-0.34186,0 -0.65425,-0.1002 -0.93716,-0.3006c-0.27113,-0.21219 -0.43616,-0.46564 -0.4951,-0.76033c-0.05895,-0.30649 -0.08841,-0.78981 -0.08841,-1.44995v-7.42657c0,-0.67193 0.02947,-1.13756 0.08841,-1.3969c0.07073,-0.27113 0.22987,-0.4951 0.47742,-0.67193c0.25934,-0.17683 0.54815,-0.26523 0.86643,-0.26523c0.29471,0 0.6012,0.11788 0.91948,0.35364c0.31828,0.22397 0.47742,0.78392 0.47742,1.67982c1.01379,-1.35565 2.31049,-2.03347 3.8901,-2.03347c0.6012,0 1.1965,0.11788 1.78591,0.35364c0.58941,0.22397 1.06683,0.58941 1.43227,1.0963c0.37723,0.50689 0.60709,1.03736 0.68961,1.59141c0.08251,0.55405 0.12378,1.14345 0.12378,1.76823zM320.25955,247.26278v11.75873c0,0.73087 -0.03537,1.23187 -0.1061,1.503c-0.05895,0.25934 -0.22987,0.4951 -0.51279,0.7073c-0.27113,0.2004 -0.56584,0.3006 -0.88411,0.3006c-0.31828,0 -0.61888,-0.1002 -0.9018,-0.3006c-0.28291,-0.21219 -0.45974,-0.45384 -0.53047,-0.72497c-0.05895,-0.27113 -0.08841,-0.76623 -0.08841,-1.48531v-11.75873c0,-0.74265 0.03537,-1.24366 0.1061,-1.503c0.07073,-0.27113 0.24166,-0.501 0.51279,-0.68961c0.27113,-0.2004 0.56584,-0.3006 0.88411,-0.3006c0.36544,0 0.67782,0.1061 0.93716,0.31828c0.27113,0.21219 0.43616,0.45974 0.4951,0.74265c0.05895,0.28291 0.08841,0.76033 0.08841,1.43227zM328.63874,249.26088c1.87432,0 3.34785,0.57762 4.42057,1.73286c1.07272,1.14345 1.60909,2.61108 1.60909,4.40289c0,1.79181 -0.54225,3.26533 -1.62677,4.42057c-1.08451,1.14345 -2.52267,1.71518 -4.31448,1.71518c-1.94505,0 -3.44805,-0.58352 -4.50899,-1.75054c-1.06094,-1.16704 -1.59141,-2.62877 -1.59141,-4.38521c0,-1.79181 0.53637,-3.25944 1.60909,-4.40289c1.07272,-1.15524 2.54035,-1.73286 4.40289,-1.73286zM328.63874,259.28674c0.91948,0 1.64446,-0.34186 2.17492,-1.02557c0.53047,-0.6955 0.7957,-1.65035 0.7957,-2.86453c0,-1.22597 -0.26523,-2.18082 -0.7957,-2.86453c-0.53047,-0.6955 -1.25544,-1.04326 -2.17492,-1.04326c-0.8959,0 -1.61498,0.34775 -2.15724,1.04326c-0.53047,0.6955 -0.7957,1.65035 -0.7957,2.86453c0,1.21418 0.26523,2.16903 0.7957,2.86453c0.53047,0.68371 1.24955,1.02557 2.15724,1.02557zM346.58847,256.47526c0.36544,0 0.66603,0.14735 0.9018,0.44206c0.24755,0.28291 0.37133,0.57173 0.37133,0.86643c0,0.82518 -0.4892,1.65624 -1.46763,2.4932c-0.97843,0.83696 -2.29281,1.25544 -3.94315,1.25544c-1.98042,0 -3.47751,-0.55994 -4.49131,-1.67982c-1.00199,-1.13167 -1.503,-2.5993 -1.503,-4.40289c0,-1.81538 0.52457,-3.3007 1.57373,-4.45594c1.04915,-1.15524 2.54035,-1.73286 4.47362,-1.73286c1.4971,0 2.73486,0.39491 3.71328,1.18472c0.99021,0.77802 1.48531,1.55014 1.48531,2.31638c0,0.36544 -0.13556,0.67193 -0.40669,0.91948c-0.25934,0.24755 -0.56584,0.37133 -0.91948,0.37133c-0.44796,0 -0.7957,-0.18861 -1.04326,-0.56584c-0.55405,-0.83696 -1.04326,-1.36743 -1.46763,-1.59141c-0.42437,-0.22397 -0.88411,-0.33596 -1.37922,-0.33596c-0.96663,0 -1.71518,0.37133 -2.24565,1.11399c-0.51869,0.73087 -0.77802,1.65035 -0.77802,2.75843c0,1.13167 0.27113,2.05704 0.81338,2.77612c0.55405,0.71908 1.2908,1.07862 2.21028,1.07862c0.51869,0 0.99611,-0.12378 1.43227,-0.37133c0.44796,-0.24755 0.83106,-0.61888 1.14935,-1.11399c0.31828,-0.50689 0.57173,-0.85465 0.76033,-1.04326c0.18861,-0.18861 0.44206,-0.28291 0.76033,-0.28291zM354.49026,255.76796l-1.66214,1.53836v1.48531c0,0.73087 -0.02358,1.25544 -0.07073,1.57373c-0.04715,0.30649 -0.21219,0.57762 -0.4951,0.81338c-0.27113,0.23576 -0.58941,0.35364 -0.95484,0.35364c-0.33007,0 -0.63067,-0.1002 -0.9018,-0.3006c-0.27113,-0.21219 -0.43616,-0.45384 -0.4951,-0.72497c-0.05895,-0.28291 -0.08841,-0.80749 -0.08841,-1.57373v-11.52885c0,-1.0963 0.12967,-1.80949 0.38901,-2.13956c0.27113,-0.33007 0.66603,-0.4951 1.18472,-0.4951c0.37723,0 0.67782,0.1061 0.9018,0.31828c0.23576,0.21219 0.38312,0.47152 0.44206,0.77802c0.05895,0.30649 0.08841,0.78981 0.08841,1.44995v6.64854l3.41268,-3.53646c0.51869,-0.54225 0.87233,-0.87233 1.06094,-0.99021c0.2004,-0.11788 0.43027,-0.17683 0.68961,-0.17683c0.38901,0 0.7073,0.12378 0.95484,0.37133c0.24755,0.24755 0.37133,0.51869 0.37133,0.81338c0,0.44796 -0.41259,1.06094 -1.23776,1.83896l-1.59141,1.46763l3.07672,4.86263c0.44796,0.7073 0.67193,1.21418 0.67193,1.52068c0,0.35364 -0.12967,0.67782 -0.38901,0.97253c-0.25934,0.28291 -0.60709,0.42437 -1.04326,0.42437c-0.36544,0 -0.66603,-0.1061 -0.9018,-0.31828c-0.22397,-0.22397 -0.48332,-0.58352 -0.77802,-1.07862z" fill="#ffffff" stroke="none" stroke-width="3.5"/></g></g></svg>