<svg version="1.1" xmlns="http://www.w3.org/2000/svg" xmlns:xlink="http://www.w3.org/1999/xlink" width="496" height="368" viewBox="0,0,496,368"><g transform="translate(8,4)"><g data-paper-data="{&quot;isPaintingLayer&quot;:true}" fill-rule="nonzero" stroke-linejoin="miter" stroke-miterlimit="10" stroke-dasharray="" stroke-dashoffset="0" style="mix-blend-mode: normal"><path d="M-7,363v-366h494v366z" fill="#000000" stroke="#000000" stroke-width="2" stroke-linecap="butt"/><path d="M50.8197,178.89012l-4.40025,-6.81647c-0.72028,-1.10007 -1.08042,-1.87273 -1.08042,-2.31799c0,-0.43217 0.1637,-0.79886 0.4911,-1.10007c0.3405,-0.30121 0.74647,-0.45182 1.21792,-0.45182c0.44526,0 0.79232,0.13096 1.04114,0.39288c0.26192,0.24882 0.6679,0.82505 1.21793,1.72867l3.37877,5.46103l3.39841,-5.46103c0.58932,-0.96911 1.01494,-1.56497 1.27686,-1.7876c0.26192,-0.22263 0.60242,-0.33395 1.02149,-0.33395c0.44526,0 0.82505,0.15061 1.13935,0.45182c0.3143,0.30121 0.47145,0.66135 0.47145,1.08042c0,0.40598 -0.35359,1.15245 -1.06077,2.23942l-4.49847,6.91469v4.911c0,0.78576 -0.03274,1.36199 -0.09822,1.72868c-0.06548,0.35359 -0.26192,0.66134 -0.58932,0.92326c-0.3143,0.24882 -0.68754,0.37324 -1.11971,0.37324c-0.41907,0 -0.7923,-0.12442 -1.1197,-0.37324c-0.3143,-0.24882 -0.51074,-0.55003 -0.58932,-0.90362c-0.06548,-0.35359 -0.09822,-0.93636 -0.09822,-1.74832zM66.52262,173.19336c2.08227,0 3.71927,0.6417 4.911,1.92511c1.19173,1.27031 1.7876,2.90076 1.7876,4.89136c0,1.9906 -0.60241,3.62759 -1.80725,4.911c-1.20484,1.27031 -2.80254,1.90547 -4.79314,1.90547c-2.16084,0 -3.83058,-0.64825 -5.00922,-1.94476c-1.17864,-1.2965 -1.76796,-2.92041 -1.76796,-4.87171c0,-1.9906 0.59587,-3.62105 1.78761,-4.89136c1.19173,-1.28341 2.82218,-1.92511 4.89135,-1.92511zM66.52262,184.3315c1.02149,0 1.8269,-0.37979 2.41622,-1.13935c0.58932,-0.77266 0.88398,-1.83345 0.88398,-3.18233c0,-1.36199 -0.29466,-2.42276 -0.88398,-3.18232c-0.58932,-0.77266 -1.39473,-1.159 -2.41622,-1.159c-0.99529,0 -1.79415,0.38634 -2.39656,1.159c-0.58932,0.77266 -0.88398,1.83344 -0.88398,3.18232c0,1.34888 0.29466,2.40967 0.88398,3.18233c0.58932,0.75956 1.38817,1.13935 2.39656,1.13935zM75.75775,181.83672v-5.8932c0,-0.72028 0.0262,-1.24412 0.07858,-1.57152c0.06548,-0.3274 0.24228,-0.60242 0.53039,-0.82505c0.28811,-0.23573 0.6417,-0.35359 1.06078,-0.35359c0.39288,0 0.73337,0.11131 1.02148,0.33394c0.30121,0.22263 0.48456,0.51729 0.55003,0.88398c0.07858,0.35359 0.11786,0.89053 0.11786,1.61081v4.61634c0,1.50604 0.23573,2.47514 0.70718,2.90731c0.47146,0.41907 0.98875,0.62861 1.55188,0.62861c0.6417,0 1.20483,-0.1768 1.68938,-0.53039c0.49765,-0.36668 0.8316,-0.8054 1.00185,-1.31615c0.17024,-0.52384 0.25537,-1.53878 0.25537,-3.04482v-3.33948c0,-0.70719 0.03274,-1.23102 0.09822,-1.57152c0.07858,-0.3405 0.26193,-0.62206 0.55004,-0.8447c0.30121,-0.22263 0.6548,-0.33394 1.06077,-0.33394c0.37978,0 0.72028,0.11131 1.02149,0.33394c0.30121,0.22263 0.47801,0.49765 0.53039,0.82505c0.06548,0.3274 0.09822,0.85778 0.09822,1.59116v8.28976c0,0.68099 -0.03274,1.17209 -0.09822,1.4733c-0.06548,0.30121 -0.22918,0.56313 -0.4911,0.78576c-0.24882,0.22264 -0.56967,0.33395 -0.96255,0.33395c-1.08697,0 -1.61081,-0.77921 -1.57152,-2.33764c-1.11316,1.55842 -2.58646,2.33764 -4.4199,2.33764c-1.21793,0 -2.25251,-0.36014 -3.10375,-1.08042c-0.85124,-0.73338 -1.27686,-2.03642 -1.27686,-3.90915zM102.79035,182.75998l1.98404,-6.93433c0.24882,-0.85124 0.43872,-1.40782 0.56968,-1.66974c0.13096,-0.27501 0.3405,-0.50419 0.62861,-0.68754c0.30121,-0.18335 0.63516,-0.27501 1.00184,-0.27501c0.58932,0 1.02149,0.15715 1.29651,0.47145c0.28811,0.30121 0.60241,1.02149 0.94291,2.16084l2.00369,6.93433l2.18048,-7.48436c0.23573,-0.78576 0.45837,-1.32924 0.6679,-1.63045c0.20954,-0.30121 0.57622,-0.45181 1.10006,-0.45181c0.39288,0 0.73338,0.14406 1.02149,0.43216c0.30121,0.27501 0.45181,0.59587 0.45181,0.96255c0,0.30121 -0.12442,0.8185 -0.37324,1.55188l-2.73051,8.0344c-0.30121,0.85124 -0.53039,1.41436 -0.68754,1.68938c-0.15715,0.27501 -0.37978,0.5042 -0.6679,0.68754c-0.28811,0.18334 -0.60897,0.27502 -0.96256,0.27502c-0.69409,0 -1.18519,-0.20953 -1.4733,-0.62861c-0.28811,-0.41908 -0.57622,-1.12626 -0.86433,-2.12155l-1.90547,-6.54145l-1.84653,6.54145c-0.23573,0.83814 -0.43217,1.40781 -0.58932,1.70902c-0.14406,0.30121 -0.37323,0.55004 -0.68754,0.74648c-0.30121,0.19644 -0.64171,0.29466 -1.02149,0.29466c-0.36669,0 -0.70718,-0.09168 -1.02148,-0.27502c-0.30121,-0.17025 -0.52384,-0.39288 -0.6679,-0.66789c-0.14406,-0.28811 -0.36669,-0.85778 -0.6679,-1.70902l-2.73051,-8.0344c-0.26192,-0.70719 -0.39288,-1.22448 -0.39288,-1.55188c0,-0.35359 0.14406,-0.67444 0.43217,-0.96255c0.28811,-0.28811 0.6417,-0.43216 1.06078,-0.43216c0.51075,0 0.87088,0.1506 1.08042,0.45181c0.20954,0.28811 0.42562,0.83159 0.64825,1.63045zM127.96905,180.83487h-6.58074c0.03929,1.24412 0.37979,2.18048 1.02149,2.80909c0.6548,0.62861 1.44056,0.94291 2.35728,0.94291c1.11316,0 2.16738,-0.4911 3.16268,-1.4733c0.40598,-0.40598 0.70064,-0.6548 0.88398,-0.74647c0.19644,-0.10477 0.41253,-0.15715 0.64826,-0.15715c0.30121,0 0.55658,0.09822 0.76612,0.29466c0.22263,0.18335 0.33395,0.41253 0.33395,0.68754c0,0.75956 -0.5173,1.55842 -1.55188,2.39656c-1.02149,0.82505 -2.41621,1.23757 -4.18417,1.23757c-2.23941,0 -3.94189,-0.63516 -5.10744,-1.90547c-1.15245,-1.27031 -1.72867,-2.90731 -1.72867,-4.911c0,-2.02988 0.57623,-3.67343 1.72867,-4.93064c1.16554,-1.25722 2.7829,-1.88582 4.85207,-1.88582c1.9644,0 3.48353,0.59587 4.5574,1.7876c1.07387,1.17864 1.61081,2.46205 1.61081,3.85022c0,0.61551 -0.1768,1.10662 -0.53039,1.4733c-0.35359,0.35359 -1.10006,0.53039 -2.23941,0.53039zM121.38831,178.9294h6.10928c-0.03929,-1.11316 -0.34704,-1.9644 -0.92327,-2.55372c-0.57622,-0.58932 -1.28341,-0.88398 -2.12155,-0.88398c-1.78105,0 -2.80254,1.1459 -3.06446,3.4377zM133.54058,184.03684v-8.58442c0,-1.50604 0.55003,-2.25906 1.65009,-2.25906c1.06078,0 1.60425,0.69409 1.63045,2.08226c0.69409,-1.38817 1.65665,-2.08226 2.88767,-2.08226c0.6417,0 1.3096,0.17024 2.00368,0.51074c0.69409,0.3405 1.04113,0.80541 1.04113,1.39472c0,0.40598 -0.14406,0.74648 -0.43217,1.02149c-0.27501,0.26192 -0.56968,0.39288 -0.88398,0.39288c-0.18335,0 -0.51075,-0.07202 -0.9822,-0.21608c-0.47145,-0.14406 -0.86434,-0.21608 -1.17864,-0.21608c-0.79886,0 -1.39472,0.40597 -1.7876,1.21793c-0.39288,0.79886 -0.58932,2.35728 -0.58932,4.67527v1.94476c0,0.85124 -0.03928,1.42746 -0.11786,1.72868c-0.06548,0.30121 -0.24883,0.57622 -0.55004,0.82504c-0.28811,0.23573 -0.62206,0.35359 -1.00184,0.35359c-0.37978,0 -0.72028,-0.11131 -1.02149,-0.33395c-0.28811,-0.22264 -0.47145,-0.478 -0.55003,-0.76612c-0.07858,-0.30121 -0.11786,-0.86434 -0.11786,-1.68939zM153.29753,180.83487h-6.58074c0.03929,1.24412 0.37979,2.18048 1.02149,2.80909c0.6548,0.62861 1.44056,0.94291 2.35728,0.94291c1.11316,0 2.16739,-0.4911 3.16269,-1.4733c0.40598,-0.40598 0.70063,-0.6548 0.88398,-0.74647c0.19644,-0.10477 0.41252,-0.15715 0.64825,-0.15715c0.30121,0 0.55658,0.09822 0.76611,0.29466c0.22263,0.18335 0.33395,0.41253 0.33395,0.68754c0,0.75956 -0.51729,1.55842 -1.55187,2.39656c-1.02149,0.82505 -2.41622,1.23757 -4.18418,1.23757c-2.23942,0 -3.94189,-0.63516 -5.10744,-1.90547c-1.15245,-1.27031 -1.72867,-2.90731 -1.72867,-4.911c0,-2.02988 0.57623,-3.67343 1.72867,-4.93064c1.16555,-1.25722 2.78289,-1.88582 4.85207,-1.88582c1.9644,0 3.48354,0.59587 4.55741,1.7876c1.07387,1.17864 1.6108,2.46205 1.6108,3.85022c0,0.61551 -0.17679,1.10662 -0.53038,1.4733c-0.35359,0.35359 -1.10007,0.53039 -2.23942,0.53039zM146.71679,178.9294h6.10929c-0.03929,-1.11316 -0.34704,-1.9644 -0.92326,-2.55372c-0.57622,-0.58932 -1.28341,-0.88398 -2.12156,-0.88398c-1.78106,0 -2.80255,1.1459 -3.06447,3.4377zM169.39824,184.56723v0.33394c0,1.28341 -0.55003,1.92512 -1.65009,1.92512c-0.43217,0 -0.79231,-0.11131 -1.08042,-0.33395c-0.28811,-0.22264 -0.46491,-0.4911 -0.53039,-0.80541c-0.05238,-0.3143 -0.07858,-0.81196 -0.07858,-1.49295v-13.20076c0,-0.75957 0.03274,-1.3096 0.09822,-1.65009c0.07858,-0.35359 0.26846,-0.62861 0.56967,-0.82505c0.3143,-0.20953 0.64826,-0.31431 1.00185,-0.31431c0.49765,0 0.89708,0.15061 1.19828,0.45182c0.3143,0.28811 0.47145,1.03458 0.47145,2.23942v4.34132c1.25722,-1.36199 2.73052,-2.04297 4.4199,-2.04297c1.74176,0 3.10375,0.62206 4.08595,1.86618c0.9822,1.23102 1.4733,2.81564 1.4733,4.75385c0,2.06917 -0.50419,3.75855 -1.51259,5.06815c-1.0084,1.29651 -2.37037,1.94476 -4.08595,1.94476c-1.75486,0 -3.21506,-0.75302 -4.38061,-2.25906zM169.57504,180.14733c0,1.2965 0.3143,2.3049 0.94291,3.02518c0.62861,0.72028 1.41437,1.08042 2.35728,1.08042c0.81196,0 1.53223,-0.34705 2.16084,-1.04114c0.6417,-0.69409 0.96256,-1.79415 0.96256,-3.30019c0,-1.2965 -0.28812,-2.31144 -0.86434,-3.04482c-0.57622,-0.74647 -1.32269,-1.1197 -2.23941,-1.1197c-1.0084,0 -1.81379,0.39942 -2.41621,1.19828c-0.60242,0.79886 -0.90363,1.86619 -0.90363,3.20198zM190.53518,184.92082c-1.58462,1.27031 -3.14304,1.90547 -4.67527,1.90547c-1.45365,0 -2.57336,-0.36668 -3.35913,-1.10006c-0.77266,-0.74647 -1.15899,-1.6501 -1.15899,-2.71088c0,-0.91672 0.26192,-1.65009 0.78576,-2.20012c0.53694,-0.56313 1.11316,-0.95601 1.72867,-1.17864c0.62861,-0.22263 1.64355,-0.47801 3.04482,-0.76612c1.40127,-0.28811 2.53408,-0.55659 3.39842,-0.80541c-0.01309,-1.02149 -0.21609,-1.70903 -0.60897,-2.06262c-0.39288,-0.35359 -0.98875,-0.53039 -1.7876,-0.53039c-1.51914,0 -2.51443,0.42562 -2.98588,1.27686c-0.26192,0.48455 -0.49765,0.8316 -0.70719,1.04113c-0.19644,0.19644 -0.48455,0.29466 -0.86434,0.29466c-0.35359,0 -0.67445,-0.11132 -0.96256,-0.33395c-0.28811,-0.23573 -0.43216,-0.54348 -0.43216,-0.92326c0,-0.86434 0.47145,-1.68284 1.41437,-2.4555c0.94291,-0.78576 2.42276,-1.17864 4.43955,-1.17864c2.04298,0 3.53592,0.35359 4.47884,1.06077c0.95601,0.70719 1.40781,2.13465 1.35544,4.28239l-0.07858,3.14304c-0.0262,0.9822 0.07202,1.78106 0.29466,2.39657c0.23573,0.60242 0.35359,1.06732 0.35359,1.39472c0,0.35359 -0.15715,0.6679 -0.47145,0.94292c-0.30121,0.27501 -0.64826,0.41252 -1.04113,0.41252c-0.68099,0 -1.40127,-0.63516 -2.16084,-1.90547zM190.3191,180.06876c-0.49765,0.19644 -1.3227,0.41252 -2.47514,0.64825c-1.15245,0.22263 -1.97095,0.48455 -2.4555,0.78576c-0.47145,0.28811 -0.70719,0.72028 -0.70719,1.2965c0,0.47145 0.18989,0.89708 0.56968,1.27686c0.37978,0.36669 0.92327,0.55003 1.63045,0.55003c0.73338,0 1.41437,-0.20299 2.04298,-0.60896c0.6417,-0.40598 1.03458,-0.88398 1.17864,-1.43401c0.14406,-0.56313 0.21608,-1.40127 0.21608,-2.51443zM208.83602,178.53652v5.50032c0,0.72028 -0.03274,1.24412 -0.09822,1.57152c-0.05238,0.3143 -0.22917,0.59587 -0.53038,0.84469c-0.28811,0.24882 -0.62861,0.37324 -1.02149,0.37324c-0.36668,0 -0.70718,-0.11131 -1.02149,-0.33395c-0.30121,-0.22264 -0.49111,-0.50419 -0.56968,-0.84469c-0.07858,-0.35359 -0.11786,-0.89053 -0.11786,-1.61081v-4.81278c0,-1.34888 -0.20299,-2.25251 -0.60897,-2.71087c-0.39288,-0.47145 -0.94291,-0.70718 -1.65009,-0.70718c-0.62861,0 -1.18519,0.18335 -1.66974,0.55003c-0.48455,0.36668 -0.82505,0.8316 -1.02149,1.39472c-0.19644,0.55003 -0.29466,1.49294 -0.29466,2.82873v3.45735c0,0.70718 -0.0262,1.22447 -0.07858,1.55187c-0.05238,0.3143 -0.22918,0.60242 -0.53039,0.86433c-0.30121,0.24882 -0.64825,0.37324 -1.04113,0.37324c-0.37978,0 -0.72683,-0.11131 -1.04113,-0.33395c-0.30121,-0.23573 -0.48455,-0.51729 -0.55003,-0.84469c-0.06548,-0.3405 -0.09822,-0.87743 -0.09822,-1.61081v-8.25048c0,-0.74647 0.03274,-1.26377 0.09822,-1.55188c0.07858,-0.30121 0.25537,-0.55003 0.53039,-0.74647c0.28811,-0.19644 0.60897,-0.29466 0.96256,-0.29466c0.3274,0 0.6679,0.13096 1.02149,0.39288c0.35359,0.24882 0.53039,0.87089 0.53039,1.86618c1.12626,-1.50604 2.56682,-2.25906 4.32168,-2.25906c0.66789,0 1.32924,0.13096 1.98404,0.39288c0.6548,0.24882 1.18519,0.6548 1.59117,1.21793c0.41907,0.56313 0.67444,1.15245 0.76611,1.76796c0.09167,0.61551 0.13751,1.27031 0.13751,1.9644zM224.02329,178.53652v5.50032c0,0.72028 -0.03274,1.24412 -0.09822,1.57152c-0.05238,0.3143 -0.22918,0.59587 -0.53039,0.84469c-0.28811,0.24882 -0.62861,0.37324 -1.02149,0.37324c-0.36668,0 -0.70719,-0.11131 -1.02149,-0.33395c-0.30121,-0.22264 -0.4911,-0.50419 -0.56967,-0.84469c-0.07858,-0.35359 -0.11786,-0.89053 -0.11786,-1.61081v-4.81278c0,-1.34888 -0.20298,-2.25251 -0.60896,-2.71087c-0.39288,-0.47145 -0.94291,-0.70718 -1.6501,-0.70718c-0.62861,0 -1.18519,0.18335 -1.66974,0.55003c-0.48455,0.36668 -0.82505,0.8316 -1.02149,1.39472c-0.19644,0.55003 -0.29466,1.49294 -0.29466,2.82873v3.45735c0,0.70718 -0.0262,1.22447 -0.07858,1.55187c-0.05238,0.3143 -0.22918,0.60242 -0.53039,0.86433c-0.30121,0.24882 -0.64825,0.37324 -1.04113,0.37324c-0.37978,0 -0.72683,-0.11131 -1.04114,-0.33395c-0.30121,-0.23573 -0.48455,-0.51729 -0.55003,-0.84469c-0.06548,-0.3405 -0.09822,-0.87743 -0.09822,-1.61081v-8.25048c0,-0.74647 0.03274,-1.26377 0.09822,-1.55188c0.07858,-0.30121 0.25537,-0.55003 0.53038,-0.74647c0.28811,-0.19644 0.60897,-0.29466 0.96256,-0.29466c0.3274,0 0.66789,0.13096 1.02148,0.39288c0.35359,0.24882 0.53039,0.87089 0.53039,1.86618c1.12626,-1.50604 2.56681,-2.25906 4.32168,-2.25906c0.66789,0 1.32925,0.13096 1.98405,0.39288c0.6548,0.24882 1.18518,0.6548 1.59116,1.21793c0.41907,0.56313 0.67444,1.15245 0.76611,1.76796c0.09167,0.61551 0.13751,1.27031 0.13751,1.9644zM236.73541,180.83487h-6.58074c0.03929,1.24412 0.37979,2.18048 1.02149,2.80909c0.6548,0.62861 1.44056,0.94291 2.35728,0.94291c1.11316,0 2.16738,-0.4911 3.16268,-1.4733c0.40598,-0.40598 0.70064,-0.6548 0.88398,-0.74647c0.19644,-0.10477 0.41253,-0.15715 0.64826,-0.15715c0.30121,0 0.55658,0.09822 0.76611,0.29466c0.22263,0.18335 0.33394,0.41253 0.33394,0.68754c0,0.75956 -0.51729,1.55842 -1.55187,2.39656c-1.02149,0.82505 -2.41621,1.23757 -4.18417,1.23757c-2.23942,0 -3.94189,-0.63516 -5.10744,-1.90547c-1.15245,-1.27031 -1.72867,-2.90731 -1.72867,-4.911c0,-2.02988 0.57622,-3.67343 1.72867,-4.93064c1.16555,-1.25722 2.7829,-1.88582 4.85207,-1.88582c1.9644,0 3.48353,0.59587 4.5574,1.7876c1.07387,1.17864 1.61081,2.46205 1.61081,3.85022c0,0.61551 -0.1768,1.10662 -0.53039,1.4733c-0.35359,0.35359 -1.10006,0.53039 -2.23941,0.53039zM230.15467,178.9294h6.10929c-0.03929,-1.11316 -0.34705,-1.9644 -0.92327,-2.55372c-0.57622,-0.58932 -1.28341,-0.88398 -2.12155,-0.88398c-1.78106,0 -2.80255,1.1459 -3.06447,3.4377zM251.48069,184.90118v-0.33394c-1.15245,1.50604 -2.61265,2.25906 -4.38061,2.25906c-1.70248,0 -3.06447,-0.64825 -4.08596,-1.94476c-1.0084,-1.3096 -1.51259,-2.99898 -1.51259,-5.06815c0,-1.93821 0.4911,-3.52283 1.4733,-4.75385c0.99529,-1.24412 2.36383,-1.86618 4.10559,-1.86618c1.68938,0 3.15614,0.68099 4.40026,2.04297v-4.34132c0,-1.20484 0.1506,-1.95131 0.45181,-2.23942c0.3143,-0.30121 0.72683,-0.45182 1.23757,-0.45182c0.36669,0 0.70063,0.10477 1.00185,0.31431c0.30121,0.20953 0.48455,0.48455 0.55003,0.82505c0.06548,0.3274 0.09822,0.87743 0.09822,1.65009v13.20076c0,0.74647 -0.03929,1.28341 -0.11787,1.61081c-0.06548,0.3143 -0.25537,0.56313 -0.56967,0.74647c-0.30121,0.18334 -0.62861,0.27502 -0.9822,0.27502c-1.11316,0 -1.66974,-0.64171 -1.66974,-1.92512zM244.89995,179.9116c0,1.50604 0.3143,2.6061 0.94291,3.30019c0.6417,0.69409 1.36852,1.04114 2.18048,1.04114c0.94291,0 1.72212,-0.36014 2.33764,-1.08042c0.62861,-0.72028 0.94291,-1.72867 0.94291,-3.02518c0,-1.34888 -0.30121,-2.42276 -0.90363,-3.22161c-0.60242,-0.79886 -1.40781,-1.19828 -2.41621,-1.19828c-0.90363,0 -1.64355,0.37323 -2.21977,1.1197c-0.57622,0.73338 -0.86433,1.75487 -0.86433,3.06447zM268.55132,184.56723v0.33394c0,1.28341 -0.55003,1.92512 -1.6501,1.92512c-0.43217,0 -0.79231,-0.11131 -1.08042,-0.33395c-0.28811,-0.22264 -0.46491,-0.4911 -0.53039,-0.80541c-0.05238,-0.3143 -0.07858,-0.81196 -0.07858,-1.49295v-13.20076c0,-0.75957 0.03274,-1.3096 0.09822,-1.65009c0.07858,-0.35359 0.26846,-0.62861 0.56968,-0.82505c0.3143,-0.20953 0.64826,-0.31431 1.00185,-0.31431c0.49765,0 0.89707,0.15061 1.19828,0.45182c0.3143,0.28811 0.47145,1.03458 0.47145,2.23942v4.34132c1.25721,-1.36199 2.73051,-2.04297 4.4199,-2.04297c1.74176,0 3.10375,0.62206 4.08595,1.86618c0.9822,1.23102 1.4733,2.81564 1.4733,4.75385c0,2.06917 -0.50419,3.75855 -1.51259,5.06815c-1.0084,1.29651 -2.37038,1.94476 -4.08596,1.94476c-1.75486,0 -3.21506,-0.75302 -4.38061,-2.25906zM268.72812,180.14733c0,1.2965 0.31431,2.3049 0.94292,3.02518c0.62861,0.72028 1.41437,1.08042 2.35728,1.08042c0.81196,0 1.53223,-0.34705 2.16084,-1.04114c0.6417,-0.69409 0.96255,-1.79415 0.96255,-3.30019c0,-1.2965 -0.28811,-2.31144 -0.86433,-3.04482c-0.57623,-0.74647 -1.3227,-1.1197 -2.23942,-1.1197c-1.0084,0 -1.81379,0.39942 -2.41621,1.19828c-0.60242,0.79886 -0.90363,1.86619 -0.90363,3.20198zM284.28862,186.49234l-4.08595,-10.39168c-0.26192,-0.66789 -0.39288,-1.1328 -0.39288,-1.39472c0,-0.37978 0.15715,-0.72683 0.47145,-1.04113c0.3274,-0.3143 0.70718,-0.47145 1.13935,-0.47145c0.37979,0 0.70064,0.11786 0.96256,0.35359c0.26192,0.22263 0.52384,0.69409 0.78576,1.41437l2.82873,8.25047l2.69122,-7.64151c0.35359,-0.99529 0.63516,-1.637 0.8447,-1.92511c0.20954,-0.30121 0.56968,-0.45181 1.08042,-0.45181c0.45836,0 0.8185,0.15715 1.08042,0.47145c0.26192,0.30121 0.39288,0.60896 0.39288,0.92326c0,0.37978 -0.13096,0.91672 -0.39288,1.61081l-4.38061,11.45245c-0.57623,1.51914 -1.17864,2.58646 -1.80725,3.20198c-0.61552,0.62861 -1.67629,0.94291 -3.18233,0.94291c-1.9382,0 -2.90731,-0.49765 -2.90731,-1.49295c0,-0.3274 0.10477,-0.60241 0.3143,-0.82504c0.22264,-0.22264 0.51729,-0.33395 0.88398,-0.33395c0.06548,0 0.25537,0.0131 0.56968,0.03929c0.3274,0.02619 0.51729,0.03929 0.56967,0.03929c0.61552,0 1.06732,-0.1506 1.35544,-0.45181c0.30121,-0.28811 0.59587,-0.79886 0.88398,-1.53224zM309.93878,171.32718v12.47394c0,0.78576 -0.03274,1.35544 -0.09822,1.70903c-0.06548,0.3405 -0.26192,0.64826 -0.58932,0.92327c-0.3274,0.26192 -0.70063,0.39288 -1.11971,0.39288c-0.43217,0 -0.81195,-0.12442 -1.13935,-0.37324c-0.3274,-0.24882 -0.52384,-0.55003 -0.58932,-0.90362c-0.05238,-0.36669 -0.07858,-0.94946 -0.07858,-1.74832v-12.47394h-3.33948c-0.72028,0 -1.21793,-0.0262 -1.49294,-0.07858c-0.26192,-0.06548 -0.49765,-0.22264 -0.70719,-0.47146c-0.20954,-0.24882 -0.3143,-0.53693 -0.3143,-0.86433c0,-0.24882 0.06548,-0.4911 0.19644,-0.72683c0.14406,-0.24882 0.33395,-0.41907 0.56968,-0.51074c0.23573,-0.10477 0.81849,-0.15715 1.74831,-0.15715h10.25417c0.83814,0 1.37508,0.03274 1.61081,0.09822c0.23573,0.06548 0.44526,0.22263 0.6286,0.47145c0.18334,0.24882 0.27502,0.52384 0.27502,0.82505c0,0.24882 -0.07202,0.49765 -0.21608,0.74647c-0.13096,0.23573 -0.32085,0.40598 -0.56968,0.51075c-0.23573,0.10477 -0.81196,0.15715 -1.72868,0.15715zM319.05604,168.36093c0.44526,0 0.82505,0.1637 1.13936,0.4911c0.3143,0.3274 0.47145,0.70718 0.47145,1.13935c0,0.44526 -0.15715,0.83159 -0.47145,1.159c-0.3143,0.3143 -0.6941,0.47146 -1.13936,0.47146c-0.44526,0 -0.83159,-0.15715 -1.159,-0.47146c-0.3143,-0.3274 -0.47145,-0.71374 -0.47145,-1.159c0,-0.44526 0.15715,-0.82505 0.47145,-1.13935c0.3274,-0.3274 0.71373,-0.4911 1.159,-0.4911zM320.72578,175.92387v8.11297c0,0.81196 -0.03929,1.36853 -0.11787,1.66974c-0.06548,0.28811 -0.25537,0.55003 -0.56967,0.78576c-0.30121,0.22264 -0.62861,0.33395 -0.9822,0.33395c-0.35359,0 -0.68753,-0.11131 -1.00184,-0.33395c-0.3143,-0.23573 -0.51075,-0.50419 -0.58932,-0.80541c-0.06548,-0.30121 -0.09822,-0.85124 -0.09822,-1.6501v-8.09332c0,-0.73338 0.02619,-1.25067 0.07858,-1.55188c0.06548,-0.3143 0.24882,-0.58931 0.55003,-0.82504c0.30121,-0.24882 0.64825,-0.37323 1.04113,-0.37323c0.39288,0 0.73338,0.11131 1.02149,0.33394c0.28811,0.20953 0.47145,0.48455 0.55003,0.82505c0.07858,0.3274 0.11787,0.85124 0.11787,1.57152zM343.17642,178.16329v5.77534c0,0.79886 -0.03274,1.36198 -0.09822,1.68938c-0.06548,0.3143 -0.24228,0.59587 -0.53039,0.84469c-0.28811,0.23573 -0.63516,0.35359 -1.04113,0.35359c-0.39288,0 -0.73337,-0.11786 -1.02148,-0.35359c-0.28811,-0.23573 -0.47146,-0.52383 -0.55004,-0.86433c-0.07858,-0.35359 -0.11786,-0.91017 -0.11786,-1.66974v-4.89136c0,-1.42746 -0.17024,-2.32455 -0.51074,-2.69123c-0.3274,-0.36668 -0.78576,-0.55003 -1.37508,-0.55003c-0.61552,0 -1.13935,0.17024 -1.57152,0.51074c-0.41908,0.3405 -0.70719,0.78576 -0.86434,1.33579c-0.14406,0.55003 -0.21608,1.40782 -0.21608,2.57336v3.71272c0,0.79886 -0.03274,1.36853 -0.09822,1.70903c-0.06548,0.3274 -0.24883,0.60896 -0.55004,0.84469c-0.28811,0.22264 -0.63515,0.33395 -1.04113,0.33395c-0.51074,0 -0.91672,-0.1768 -1.21793,-0.53039c-0.28811,-0.35359 -0.43216,-1.13935 -0.43216,-2.35728v-4.5967c0,-1.3096 -0.09822,-2.22632 -0.29466,-2.75016c-0.19644,-0.52384 -0.71374,-0.78576 -1.55188,-0.78576c-0.85124,0 -1.52568,0.27502 -2.02333,0.82505c-0.49765,0.55003 -0.74647,1.72212 -0.74647,3.51628v3.79129c0,0.78576 -0.0262,1.33579 -0.07858,1.65009c-0.05238,0.30121 -0.22917,0.58278 -0.53038,0.8447c-0.28811,0.26192 -0.62861,0.39288 -1.02149,0.39288c-0.37979,0 -0.72683,-0.11131 -1.04113,-0.33395c-0.30121,-0.23573 -0.4911,-0.51729 -0.56967,-0.84469c-0.06548,-0.3274 -0.09822,-0.89707 -0.09822,-1.70903v-8.11297c0,-0.77266 0.03274,-1.29651 0.09822,-1.57152c0.07858,-0.28811 0.26192,-0.53694 0.55003,-0.74647c0.28811,-0.20953 0.60241,-0.3143 0.94291,-0.3143c1.07387,0 1.61081,0.68099 1.61081,2.04297c1.11316,-1.36199 2.46205,-2.04297 4.04666,-2.04297c1.68939,0 2.92041,0.68099 3.69307,2.04297c1.13935,-1.36199 2.46859,-2.04297 3.98773,-2.04297c1.17864,0 2.18048,0.3274 3.00553,0.9822c0.83814,0.6417 1.25721,1.97095 1.25721,3.98773zM349.88485,172.32902v11.66853c0,0.74647 -0.03929,1.27686 -0.11786,1.59116c-0.06548,0.3143 -0.24883,0.60242 -0.55004,0.86433c-0.28811,0.24882 -0.63515,0.37324 -1.04113,0.37324c-0.40598,0 -0.75956,-0.11786 -1.06077,-0.35359c-0.30121,-0.23573 -0.48456,-0.51074 -0.55003,-0.82504c-0.05238,-0.3274 -0.07858,-0.87743 -0.07858,-1.6501v-13.06325c0,-0.79886 0.13751,-1.40127 0.41252,-1.80725c0.28811,-0.40598 0.91672,-0.60896 1.88583,-0.60896h1.10007c0.96911,0 1.58461,0.13096 1.84653,0.39288c0.27501,0.26192 0.55658,0.92982 0.84469,2.00369l2.61266,9.86128l2.59301,-9.86128c0.27501,-1.06078 0.54349,-1.72213 0.80541,-1.98405c0.27501,-0.27501 0.90362,-0.41252 1.88582,-0.41252h1.10006c0.85124,0 1.4471,0.1637 1.7876,0.4911c0.3405,0.3274 0.51074,0.96911 0.51074,1.92512v13.06325c0,0.77267 -0.03274,1.3096 -0.09822,1.61081c-0.05238,0.30121 -0.22918,0.58277 -0.53039,0.84469c-0.30121,0.24882 -0.66134,0.37324 -1.08042,0.37324c-0.35359,0 -0.68754,-0.10477 -1.00184,-0.3143c-0.30121,-0.20954 -0.49111,-0.478 -0.56968,-0.80541c-0.07858,-0.3405 -0.11786,-0.91017 -0.11786,-1.70903v-11.66853l-2.84838,11.47209c-0.3405,1.37508 -0.68754,2.22632 -1.04113,2.55372c-0.3405,0.3143 -0.8054,0.47146 -1.39472,0.47146c-0.69409,0 -1.20484,-0.19644 -1.53224,-0.58932c-0.3143,-0.39288 -0.6286,-1.20484 -0.94291,-2.43586zM377.98068,181.20811c0.40598,0 0.73993,0.1637 1.00185,0.4911c0.27501,0.3143 0.41253,0.63515 0.41253,0.96256c0,0.91672 -0.54348,1.83998 -1.63045,2.7698c-1.08697,0.92982 -2.54718,1.39472 -4.38062,1.39472c-2.20013,0 -3.86331,-0.62206 -4.98958,-1.86618c-1.11316,-1.25722 -1.66974,-2.88766 -1.66974,-4.89136c0,-2.01678 0.58277,-3.66688 1.74831,-4.95029c1.16555,-1.28341 2.82219,-1.92511 4.96994,-1.92511c1.66319,0 3.03827,0.43871 4.12524,1.31614c1.10006,0.86434 1.65009,1.72213 1.65009,2.57337c0,0.40598 -0.1506,0.74648 -0.45182,1.02149c-0.28811,0.27501 -0.6286,0.41252 -1.02148,0.41252c-0.49765,0 -0.88398,-0.20953 -1.159,-0.62861c-0.61552,-0.92982 -1.159,-1.51914 -1.63045,-1.76796c-0.47145,-0.24882 -0.9822,-0.37323 -1.53223,-0.37323c-1.07387,0 -1.90547,0.41252 -2.49479,1.23757c-0.57623,0.81196 -0.86434,1.83344 -0.86434,3.06446c0,1.25722 0.30121,2.28525 0.90363,3.0841c0.61552,0.79885 1.43401,1.19829 2.4555,1.19829c0.57623,0 1.10661,-0.13751 1.59116,-0.41253c0.49765,-0.27501 0.92327,-0.68754 1.27686,-1.23757c0.35359,-0.56313 0.63515,-0.94946 0.84469,-1.159c0.20954,-0.20953 0.4911,-0.3143 0.84469,-0.3143zM396.30116,179.24371c0.43217,0 0.80541,0.1506 1.11971,0.45181c0.3274,0.28811 0.4911,0.6679 0.4911,1.13935c0,1.28341 -0.64825,2.6061 -1.94475,3.96809c-1.29651,1.34888 -3.1234,2.02333 -5.48068,2.02333c-2.89422,0 -5.0616,-0.89707 -6.50216,-2.69123c-1.42746,-1.79415 -2.14119,-3.99429 -2.14119,-6.60039c0,-2.80254 0.79885,-5.05506 2.39657,-6.75754c1.59771,-1.71558 3.67997,-2.57336 6.24679,-2.57336c2.22632,0 4.00738,0.61552 5.34317,1.84654c1.33579,1.23102 2.00369,2.44241 2.00369,3.63414c0,0.37978 -0.14406,0.73337 -0.43217,1.06078c-0.28811,0.3274 -0.68099,0.4911 -1.17864,0.4911c-0.43217,0 -0.76612,-0.11786 -1.00185,-0.35359c-0.22264,-0.24882 -0.53039,-0.73992 -0.92327,-1.4733c-0.39288,-0.73338 -0.92982,-1.2965 -1.61081,-1.68938c-0.68099,-0.40598 -1.42091,-0.60897 -2.21977,-0.60897c-1.50604,0 -2.70432,0.56967 -3.59485,1.70902c-0.89053,1.12626 -1.33579,2.75016 -1.33579,4.87171c0,2.10846 0.43217,3.67343 1.29651,4.69492c0.87743,1.02149 2.05607,1.53223 3.53592,1.53223c2.10846,0 3.52282,-1.02148 4.2431,-3.06446c0.24882,-0.68099 0.5042,-1.11971 0.76612,-1.31615c0.27501,-0.19644 0.58276,-0.29466 0.92327,-0.29466zM406.78123,173.19336c2.08227,0 3.71927,0.6417 4.911,1.92511c1.19173,1.27031 1.78761,2.90076 1.78761,4.89136c0,1.9906 -0.60242,3.62759 -1.80725,4.911c-1.20484,1.27031 -2.80254,1.90547 -4.79314,1.90547c-2.16084,0 -3.83058,-0.64825 -5.00922,-1.94476c-1.17864,-1.2965 -1.76796,-2.92041 -1.76796,-4.87171c0,-1.9906 0.59587,-3.62105 1.7876,-4.89136c1.19173,-1.28341 2.82218,-1.92511 4.89135,-1.92511zM406.78123,184.3315c1.02149,0 1.8269,-0.37979 2.41622,-1.13935c0.58932,-0.77266 0.88398,-1.83345 0.88398,-3.18233c0,-1.36199 -0.29466,-2.42276 -0.88398,-3.18232c-0.58932,-0.77266 -1.39473,-1.159 -2.41622,-1.159c-0.99529,0 -1.79415,0.38634 -2.39656,1.159c-0.58932,0.77266 -0.88398,1.83344 -0.88398,3.18232c0,1.34888 0.29466,2.40967 0.88398,3.18233c0.58932,0.75956 1.38817,1.13935 2.39656,1.13935zM421.9685,173.19336c2.08227,0 3.71927,0.6417 4.911,1.92511c1.19173,1.27031 1.7876,2.90076 1.7876,4.89136c0,1.9906 -0.60241,3.62759 -1.80725,4.911c-1.20484,1.27031 -2.80254,1.90547 -4.79314,1.90547c-2.16084,0 -3.83058,-0.64825 -5.00922,-1.94476c-1.17864,-1.2965 -1.76796,-2.92041 -1.76796,-4.87171c0,-1.9906 0.59587,-3.62105 1.7876,-4.89136c1.19173,-1.28341 2.82218,-1.92511 4.89135,-1.92511zM421.9685,184.3315c1.02149,0 1.82689,-0.37979 2.41621,-1.13935c0.58932,-0.77266 0.88398,-1.83345 0.88398,-3.18233c0,-1.36199 -0.29466,-2.42276 -0.88398,-3.18232c-0.58932,-0.77266 -1.39472,-1.159 -2.41621,-1.159c-0.99529,0 -1.79415,0.38634 -2.39657,1.159c-0.58932,0.77266 -0.88398,1.83344 -0.88398,3.18232c0,1.34888 0.29466,2.40967 0.88398,3.18233c0.58932,0.75956 1.38817,1.13935 2.39657,1.13935zM434.66098,170.97358v13.06326c0,0.81196 -0.03929,1.36853 -0.11786,1.66974c-0.06548,0.28811 -0.25537,0.55003 -0.56968,0.78576c-0.30121,0.22264 -0.62861,0.33395 -0.9822,0.33395c-0.35359,0 -0.68754,-0.11131 -1.00185,-0.33395c-0.3143,-0.23573 -0.51074,-0.50419 -0.58932,-0.80541c-0.06548,-0.30121 -0.09822,-0.85124 -0.09822,-1.6501v-13.06326c0,-0.82505 0.03929,-1.38163 0.11786,-1.66974c0.07858,-0.30121 0.26846,-0.55658 0.56968,-0.76611c0.30121,-0.22263 0.62861,-0.33395 0.9822,-0.33395c0.40598,0 0.75303,0.11787 1.04114,0.3536c0.30121,0.23573 0.48455,0.51074 0.55003,0.82504c0.06548,0.3143 0.09822,0.8447 0.09822,1.59117z" fill="#c1c1c1" stroke="none" stroke-width="1" stroke-linecap="square"/></g></g></svg>