<svg version="1.1" xmlns="http://www.w3.org/2000/svg" xmlns:xlink="http://www.w3.org/1999/xlink" width="504.50451" height="438.7598" viewBox="0,0,504.50451,438.7598"><g transform="translate(12.25226,47.47748)"><g data-paper-data="{&quot;isPaintingLayer&quot;:true}" fill-rule="nonzero" stroke-linecap="butt" stroke-linejoin="miter" stroke-miterlimit="10" stroke-dasharray="" stroke-dashoffset="0" style="mix-blend-mode: normal"><path d="M139.26882,238.24241c-6.82259,-22.12714 0.15355,-106.41699 1.86548,-123.16951c0.80452,-7.87277 13.91586,-28.759 20.47311,-30.13947c8.22505,-1.73159 33.79876,-1.06692 33.79876,-1.06692v173.58225c0,0 -44.29848,19.18978 -56.13736,-19.20634z" fill="#3b177c" stroke="none" stroke-width="0"/><path d="M192.65668,180.84447c-1.29557,-40.59935 -2.18976,-64.64258 3.82278,-105.36377c6.01254,-40.72119 25.26336,-69.42694 25.26336,-69.42694c0,0 11.50689,-16.75967 29.92797,-16.75967c13.89376,0 36.0474,1.71789 62.15115,4.51542c24.08114,2.58076 46.78668,36.18664 46.78668,36.18664c0,0 47.80199,42.92692 40.64743,65.04957c-3.58511,11.08554 -19.76397,29.28712 -19.76397,29.28712c0,0 -0.91422,66.87069 -2.30386,105.24074c-0.48772,20.9743 -18.84102,28.36115 -33.89264,47.03264c-12.7845,15.85912 -21.514,36.5345 -32.59044,39.25005c-7.53455,1.84721 -22.20215,1.93613 -31.42702,3.25897c-8.93099,1.28069 -18.11782,3.88011 -27.16475,4.75646c-33.45531,3.24074 -64.9975,1.95018 -74.61421,-2.82946c-13.58563,-6.75225 -22.40766,-17.68423 -35.99752,-22.13921c-29.60707,-9.70569 -68.33105,-28.68711 -65.88156,-47.56532c3.12839,-7.52511 29.0519,-7.92141 53.83245,-4.06752c19.03692,2.96064 35.28245,7.27269 45.25113,4.54361c33.37673,-9.13739 16.50663,-53.62071 15.95302,-70.96933z" fill="#3b177c" stroke="#000000" stroke-width="16"/><path d="M214.56009,75.48667c0,-20.79407 10.77407,-79.00985 10.77407,-79.00985c0,0 38.1772,-5.49067 59.8093,-4.07549c21.0492,1.37705 58.70547,17.2438 58.70547,17.2438l41.89916,116.12054c0,0 5.99996,50.6856 -21.04336,79.48386c-26.02652,27.71548 -84.6898,33.922 -106.63852,17.3269c-45.02816,-34.04514 -43.50613,-126.09913 -43.50613,-147.08975z" fill="#6b2fbc" stroke="none" stroke-width="0"/><path d="M348.63743,35.98174c34.9912,13.39437 59.77318,36.94132 52.61863,59.06398c-3.58511,11.08554 -19.76397,29.28712 -19.76397,29.28712c0,0 -68.93902,28.16195 -100.57769,8.52082c-17.66536,-10.96657 -37.14706,-54.79267 -21.37385,-77.23514c17.06702,-24.28335 70.91203,-26.59781 89.0969,-19.63677z" fill="#4a646d" stroke="#000000" stroke-width="16"/><path d="M144.85036,131.75126l5.21828,-41.89916h41.7462l-1.30457,31.1251c0,0 -15.2689,-0.3305 -24.59801,1.87084c-9.32912,2.20132 -21.0619,8.90322 -21.0619,8.90322z" fill="#6b2fbc" stroke="none" stroke-width="0"/><path d="M301.94978,94.64058c-33.59046,-14.19804 -25.1395,-43.09628 -25.1395,-43.09628c0,0 26.03837,-27.53373 45.49052,-27.53373c19.25264,0 70.63001,27.53373 70.63001,27.53373c0,0 11.48962,22.8069 -2.4865,32.53875c-22.7729,15.85722 -68.85434,18.85906 -88.49454,10.55753z" fill="#94c9db" stroke="none" stroke-width="0"/><path d="M310.32961,65.90971c-2.72057,-12.92273 19.27172,-16.66737 37.91234,-12.19322c26.17019,6.28142 29.49666,20.07232 25.53497,21.77018c-8.33775,3.57332 -58.26378,15.04475 -63.4473,-9.57695z" fill="#fefefe" stroke="none" stroke-width="0"/><path d="M348.63743,35.98174c34.9912,13.39437 59.77318,36.94132 52.61863,59.06398c-3.58511,11.08554 -19.76397,29.28712 -19.76397,29.28712c0,0 -68.93902,28.16195 -100.57769,8.52082c-17.66536,-10.96657 -37.14706,-54.79267 -21.37385,-77.23514c17.06702,-24.28335 70.91203,-26.59781 89.0969,-19.63677z" fill="none" stroke="#000000" stroke-width="16"/><path d="M143.88376,251.26603c-4.3409,-28.78333 -4.32337,-120.79121 -2.74946,-136.19312c0.80452,-7.87277 9.41135,-27.2575 20.47311,-30.13947c3.78834,-0.79754 23.26902,-1.08675 30.22415,-1.1667" fill="none" stroke="#000000" stroke-width="16"/><path d="M192.65668,180.84447c-1.29557,-40.59935 -2.18976,-64.64258 3.82278,-105.36377c6.01254,-40.72119 25.26336,-69.42694 25.26336,-69.42694c0,0 11.50689,-16.75967 29.92797,-16.75967c13.89376,0 36.0474,1.71789 62.15115,4.51542c24.08114,2.58076 46.78668,36.18664 46.78668,36.18664c0,0 47.80199,42.92692 40.64743,65.04957c-3.58511,11.08554 -19.76397,29.28712 -19.76397,29.28712c0,0 -0.91422,66.87069 -2.30386,105.24074c-0.48772,20.9743 -18.84102,28.36115 -33.89264,47.03264c-12.7845,15.85912 -21.514,36.5345 -32.59044,39.25005c-7.53455,1.84721 -22.20215,1.93613 -31.42702,3.25897c-8.93099,1.28069 -18.11782,3.88011 -27.16475,4.75646c-33.45531,3.24074 -64.9975,1.95018 -74.61421,-2.82946c-13.58563,-6.75225 -22.40766,-17.68423 -35.99752,-22.13921c-29.60707,-9.70569 -66.82955,-28.68711 -64.38006,-47.56532c3.12839,-7.52511 27.5504,-7.92142 52.33095,-4.06752c19.03693,2.96063 35.28245,7.27269 45.25114,4.54361c33.37673,-9.13739 16.50663,-53.62071 15.95302,-70.96933z" fill="none" stroke="#000000" stroke-width="16"/><path d="M-12.25226,183.32435c0,-114.85201 112.93718,-207.95796 252.25225,-207.95796c139.31507,0 252.25225,93.10595 252.25225,207.95796c0,114.85201 -112.93718,207.95796 -252.25225,207.95796c-139.31507,0 -252.25225,-93.10595 -252.25225,-207.95796z" fill="none" stroke="none" stroke-width="0"/><path d="M-12.25226,179.99999c0,-116.688 112.93718,-211.28231 252.25225,-211.28231c139.31507,0 252.25226,94.59431 252.25226,211.28231c0,116.688 -112.93719,211.28232 -252.25226,211.28232c-139.31507,0 -252.25225,-94.59431 -252.25225,-211.28231z" fill="none" stroke="none" stroke-width="0"/><path d="M-12.25226,183.74614c0,-114.61906 112.93718,-207.53617 252.25225,-207.53617c139.31507,0 252.25225,92.91711 252.25225,207.53618c0,114.61907 -112.93718,207.53617 -252.25225,207.53617c-139.31507,0 -252.25225,-92.91711 -252.25225,-207.53617z" fill="none" stroke="none" stroke-width="0"/><path d="M-12.25226,183.32435c0,-114.85201 112.93718,-207.95796 252.25225,-207.95796c139.31507,0 252.25225,93.10595 252.25225,207.95796c0,114.85201 -112.93718,207.95796 -252.25225,207.95796c-139.31507,0 -252.25225,-93.10595 -252.25225,-207.95796z" fill="none" stroke="none" stroke-width="0"/><path d="M-12.25226,179.99999c0,-116.688 112.93718,-211.28231 252.25225,-211.28231c139.31507,0 252.25226,94.59431 252.25226,211.28231c0,116.688 -112.93719,211.28232 -252.25226,211.28232c-139.31507,0 -252.25225,-94.59431 -252.25225,-211.28231z" fill="none" stroke="none" stroke-width="0"/><path d="M-12.25226,183.74614c0,-114.61906 112.93718,-207.53617 252.25225,-207.53617c139.31507,0 252.25225,92.91711 252.25225,207.53618c0,114.61907 -112.93718,207.53617 -252.25225,207.53617c-139.31507,0 -252.25225,-92.91711 -252.25225,-207.53617z" fill="none" stroke="none" stroke-width="0"/><path d="M18.52852,369.93994v-417.41742h442.94295v417.41742z" fill="none" stroke="none" stroke-width="0"/></g></g></svg>